<svg width="256" height="281" viewBox="0 0 256 281" fill="none" xmlns="http://www.w3.org/2000/svg">
<path d="M100.1 123.8C99.3004 119.7 95.5004 112.5 92.2004 108.7C88.8004 104.8 98.8004 95.3 103.6 95.6C106.7 95.8 110.7 104.4 115.9 109.1C118.7 111.7 120 110 121.8 110C124.2 110 130.3 108.7 137.9 108.7C146.3 108.8 161.5 111.9 165.2 114.2C172.3 118.6 174.6 114.6 175.9 110.9C177.2 107.2 196 110.5 196.7 116.2C197 118.7 186.3 128.9 184 137.5C181.6 146.1 177.9 122.4 156.1 121.7C134.3 121 104 129.2 101.9 132.8C99.7004 136.4 100.5 126.2 100.1 123.8Z" fill="white"/>
<path d="M84.6002 218.1C84.6002 218.1 82.2002 225.2 83.0002 232.3C83.8002 239.4 89.3002 257.6 89.3002 257.6C89.3002 257.6 91.7002 264.7 91.7002 267.9C91.7002 271.1 91.7002 272.6 92.5002 273.4C93.1002 274 94.1002 275 101.2 275.8C108.3 276.6 113.4 276.3 114.6 275C115.4 274.2 115.4 271.8 112.2 270.3C110.6 269.5 108.3 267.9 108.3 264.8C108.3 261.7 108.3 254.5 109.9 249C111.5 243.5 116.2 235.6 119.4 234.8C122.6 234 132.8 234.8 137.5 234.8C142.2 234.8 147 233.2 148.6 234.8C150.2 236.4 151 238.7 150.2 240.3C149.4 241.9 144.7 249.8 143.9 252.1C143.4 253.6 143.9 255.3 147.8 256C151.7 256.8 159.7 257.4 163.6 256.8C164.4 256.7 166 256 164.4 253.6C162.8 251.2 160.5 251.2 161.2 248.9C162 246.5 168.3 239.4 168.3 239.4C168.3 239.4 183.3 223.6 184.9 219.7C186.5 215.8 188.8 211 186.5 207.1C184.1 203.2 179.4 202.4 179.4 202.4" fill="#E6ECEC"/>
<path d="M108.1 277.1C105.6 277.1 103 276.9 101.1 276.7C93.7003 275.9 92.5003 274.7 91.8003 274.1C90.7003 273 90.7003 271.3 90.7003 267.9C90.7003 264.9 88.4003 258 88.4003 258C88.2003 257.2 82.8003 239.7 82.1003 232.5C81.3003 225.3 83.6003 218.2 83.7003 217.9L85.5003 218.5C85.5003 218.6 83.2003 225.5 84.0003 232.3C84.8003 239.2 90.2003 257.2 90.3003 257.4C90.4003 257.7 92.7003 264.7 92.7003 267.9C92.7003 270.5 92.7003 272.2 93.2003 272.7C93.6003 273.1 94.5003 274 101.3 274.8C109.9 275.8 113.3 274.9 113.9 274.3C114 274.2 114.1 273.9 114 273.5C113.9 272.6 113 271.7 111.7 271.1C108.7 269.6 107.2 267.5 107.2 264.7C107.2 261.6 107.2 254.3 108.8 248.6C110.3 243.3 115.1 234.7 119 233.7C121.3 233.1 126.9 233.3 131.9 233.5C134 233.6 136 233.6 137.4 233.6C139.1 233.6 140.8 233.4 142.3 233.2C145.4 232.8 147.8 232.5 149.2 233.9C151.2 235.9 151.9 238.7 151 240.5C150.7 241 150.1 242.1 149.4 243.4C147.8 246.3 145.3 250.6 144.8 252.2C144.6 252.8 144.7 253.2 144.8 253.4C145.2 254 146.3 254.6 148 254.9C151.7 255.6 159.6 256.3 163.4 255.7C163.7 255.6 164 255.5 164 255.4C164.1 255.2 164 254.8 163.5 254.1C163 253.3 162.4 252.8 161.8 252.4C160.8 251.6 159.5 250.6 160.2 248.5C161 246 166.8 239.4 167.5 238.7C171.7 234.3 182.6 222.3 183.9 219.3C184 218.9 184.2 218.5 184.4 218.1C185.8 214.6 187.5 210.6 185.6 207.5C183.5 204 179.2 203.2 179.2 203.2L179.5 201.3C179.7 201.3 184.7 202.2 187.3 206.5C189.7 210.5 187.8 215.1 186.3 218.8C186.1 219.2 186 219.6 185.8 219.9C184.2 223.9 170.6 238.3 169 239.9C166.5 242.7 162.7 247.4 162.1 249C161.8 249.8 162 249.9 163 250.7C163.7 251.2 164.5 251.8 165.2 252.9C166 254.1 166.2 255.2 165.9 256.1C165.6 256.9 164.8 257.4 163.8 257.6C159.6 258.3 151.6 257.6 147.7 256.8C145.4 256.3 143.9 255.5 143.2 254.4C142.7 253.6 142.7 252.6 143 251.6C143.6 249.9 146 245.6 147.8 242.5C148.5 241.2 149.2 240.1 149.4 239.7C150 238.6 149.3 236.6 148 235.3C147.3 234.6 145 234.9 142.8 235.2C141.2 235.4 139.5 235.6 137.7 235.6C136.2 235.6 134.2 235.5 132.1 235.4C127.5 235.2 121.8 235 119.8 235.5C117.3 236.1 112.7 243.3 111 249C109.5 254.4 109.5 261.5 109.5 264.5C109.5 266.5 110.6 268 112.9 269.1C115.4 270.4 116.1 272 116.2 272.9C116.4 273.9 116.1 274.8 115.5 275.4C114.1 276.7 111.2 277.1 108.1 277.1Z" fill="black"/>
<path d="M194.5 153.1C194.5 153.1 203 151.3 206.4 152.2C209.2 152.9 212.8 155.7 213.9 157.1C215 158.5 216.3 160.6 215.8 162.3C215.5 163.4 213.2 165.3 211.5 164.8C209.1 164.2 204.5 162.2 204.5 162.2C204.5 162.2 208.1 163.9 209 164.5C209.7 164.9 211 166.5 209.6 167.6C208.2 168.7 206.5 168.2 204 168C201.5 167.7 196 166.5 196 166.5C196 166.5 194.4 161 194.4 159.4C194.5 154.7 194.5 153.1 194.5 153.1Z" fill="white"/>
<path d="M207.4 169.3C206.7 169.3 205.9 169.2 205.1 169.1C204.8 169.1 204.4 169 204 169C201.5 168.7 196.1 167.6 195.9 167.5C195.5 167.4 195.3 167.2 195.2 166.8C195 166.2 193.6 161.1 193.6 159.4V153.1C193.6 152.6 193.9 152.3 194.4 152.2C194.8 152.1 203.2 150.4 206.8 151.3C209.7 152.1 213.5 154.9 214.8 156.5C215.8 157.8 217.5 160.3 216.9 162.6C216.5 164.2 213.6 166.4 211.4 165.8C211.3 165.8 211.3 165.8 211.3 165.8C211.4 166 211.4 166.2 211.4 166.5C211.4 167 211.3 167.8 210.4 168.5C209.4 169.1 208.4 169.3 207.4 169.3ZM196.8 165.7C198.3 166 202.2 166.8 204.2 167C204.6 167 204.9 167.1 205.3 167.1C207.2 167.4 208.3 167.5 209.1 166.8C209.3 166.6 209.3 166.5 209.3 166.4C209.3 166 208.8 165.5 208.5 165.3C207.8 164.8 205.1 163.5 204.1 163.1C203.6 162.9 203.4 162.3 203.6 161.8C203.8 161.3 204.4 161.1 204.9 161.3C205 161.3 209.4 163.2 211.8 163.8C212.9 164.1 214.8 162.6 214.9 162C215.2 160.8 214.2 158.9 213.2 157.6C212.3 156.4 208.8 153.7 206.2 153C203.8 152.4 198.2 153.2 195.5 153.8V159.3C195.5 160.4 196.3 163.6 196.8 165.7Z" fill="black"/>
<path d="M180.3 150.4C180.3 150.4 185.4 151.8 189.4 151.7C193.4 151.7 195 151.3 195 151.3C195 151.3 194.5 155.4 195.4 160.9C195.9 164.3 196.9 168 197 168.6C197 168.6 187 171.1 181.9 173.5C176.3 176.2 170.5 181.3 168.5 184.6C165.9 188.9 166.7 192.8 168.3 195.1C169.9 197.5 172.2 197.5 177 197.5C179.4 197.5 182.8 199.9 182.8 199.9C181.5 200.7 179.4 202.3 177 204.6C174.6 207 169.1 210.1 163.6 212.5C159.4 214.3 140.7 220 130.5 221.2C123.4 222 106 222.8 101.3 222C97.4002 221.4 89.5002 219.6 85.5002 218.1C81.6002 216.5 80.8002 214.2 80.8002 214.2C80.8002 214.2 91.9002 200.8 93.4002 198.4C95.0002 196 95.0002 193.7 94.2002 188.9C93.7002 185.8 91.8002 181 88.7002 176.3C83.6002 168.6 78.4002 164.5 75.3002 162.9C71.2002 160.8 63.7002 158.7 63.7002 158.7C63.7002 158.7 66.7002 154.2 67.4002 148.7C68.2002 143.2 67.6002 136.6 67.6002 136.6C67.6002 136.6 80.9002 140.4 84.0002 141.6C87.9002 143.2 90.3002 144.8 95.0002 145.5C98.8002 146.1 180.3 150.4 180.3 150.4Z" fill="#E6ECEC"/>
<path d="M108 223.3C105 223.3 102.4 223.2 101 223C96.9003 222.3 88.9003 220.6 85.0003 219C80.7003 217.3 79.7003 214.6 79.7003 214.5L79.5003 214L79.8003 213.6C79.9003 213.5 90.8003 200.2 92.4003 197.9C93.7003 195.9 93.9003 194 93.0003 189.1C92.6003 186.4 90.9003 181.8 87.6003 176.9C81.5003 167.8 76.1003 164.6 74.6003 163.8C70.6003 161.8 63.2003 159.7 63.1003 159.7L61.8003 159.3L62.5003 158.2C62.5003 158.2 65.3003 153.8 66.1003 148.6C66.9003 143.3 66.3003 136.8 66.3003 136.7L66.2003 135.3L67.6003 135.7C68.2003 135.8 78.2003 138.1 84.1003 140.7C85.2003 141.2 86.2003 141.6 87.1003 142C89.5003 143.1 91.6003 143.9 94.9003 144.6C99.6003 145.6 179.4 149.5 180.2 149.5H180.4C180.5 149.5 185.5 150.8 189.3 150.8C193.1 150.8 194.7 150.5 194.7 150.5L196 150.2L195.9 151.5C195.9 151.5 195.5 155.6 196.3 160.8C196.7 163.5 197.4 166.3 197.7 167.7C197.8 168.1 197.8 168.3 197.9 168.5L198.1 169.4L197.2 169.6C197.1 169.6 187.3 172.1 182.3 174.5C176.7 177.2 171.2 182.2 169.3 185.2C166.5 189.8 168.2 193.3 169.1 194.7C170.3 196.5 172 196.6 177 196.6C179.6 196.6 182.9 198.9 183.3 199.1L184.5 200L183.2 200.8C181.7 201.7 179.6 203.4 177.6 205.4C175.2 207.8 169.9 210.9 163.9 213.5C159.8 215.3 141.1 221.1 130.5 222.3C125.6 222.7 115.3 223.3 108 223.3ZM81.8003 214.3C82.2003 215 83.3003 216.2 85.7003 217.2C89.5003 218.7 97.2003 220.4 101.3 221.1C105.7 221.8 122.8 221.1 130.2 220.3C140.5 219.2 159.2 213.4 163.1 211.7C168.8 209.3 174 206.2 176.2 204C177.8 202.4 179.4 201 180.8 200C179.6 199.3 178 198.6 176.8 198.6C171.9 198.6 169.2 198.6 167.3 195.8C165 192.4 165.1 188.1 167.5 184.2C169.5 180.9 175.3 175.7 181.3 172.8C185.6 170.7 193.1 168.7 195.7 168C195.4 166.6 194.7 163.8 194.3 161.1C193.7 157.3 193.7 154.1 193.8 152.5C192.9 152.6 191.4 152.7 189.3 152.7C185.4 152.7 180.8 151.6 180 151.4C175.5 151.2 99.9003 147.6 96.1003 146.9C92.5003 146.3 88.8003 144.8 86.3003 143.7C85.4003 143.3 84.4003 142.9 83.3003 142.4C80.9003 141.5 71.8003 138.8 68.4003 137.8C68.5003 140.1 68.7003 144.6 68.1003 148.7C67.5003 152.8 65.8003 156.3 64.9003 158C67.2003 158.7 72.3003 160.3 75.5003 161.9C77.1003 162.7 82.9003 166.1 89.3003 175.6C92.7003 180.8 94.5003 185.7 95.0003 188.6C95.8003 193.4 95.8003 196.1 94.1003 198.8C92.7003 201 83.9003 211.8 81.8003 214.3Z" fill="black"/>
<path d="M119 210C117.9 210 116.8 210 115.7 210C99.6004 209.6 92.7004 199.4 92.4004 198.9L94.0004 197.8C94.1004 197.9 100.6 207.6 115.7 208C132 208.4 145.6 205.8 152 203C161.6 198.7 167.6 194.5 167.6 194.4L168.7 196C168.4 196.2 162.5 200.4 152.8 204.8C145.6 208 132.3 210 119 210Z" fill="black"/>
<path d="M122.736 180.034L105.943 207.156L107.559 208.156L124.351 181.034L122.736 180.034Z" fill="black"/>
<path d="M125.799 181.819L109.016 208.12L110.618 209.142L127.4 182.841L125.799 181.819Z" fill="black"/>
<path d="M106.7 207.8C106.7 207.8 98.0004 221.2 95.6004 226.7C93.2004 232.2 92.4004 234.6 92.4004 234.6C92.4004 234.6 101.1 236.2 102.7 236.2C102.7 236.2 102.7 226.7 103.5 223.6C104.3 220.4 108.2 208.6 108.2 208.6L106.7 207.8Z" fill="#1C998F"/>
<path d="M103.7 237.2H102.7C101.1 237.2 93.2002 235.8 92.3002 235.6L91.2002 235.4L91.5002 234.3C91.5002 234.2 92.3002 231.8 94.7002 226.3C97.1002 220.8 105.5 207.8 105.8 207.2L106.3 206.5L109.4 208.1L109.1 208.9C109.1 209 105.2 220.7 104.4 223.8C103.6 226.8 103.6 236.1 103.6 236.2L103.7 237.2ZM93.8002 233.9C96.5002 234.4 100 235 101.8 235.2C101.8 232.6 102 226 102.6 223.4C103.3 220.7 106.2 211.9 107.1 209.1H107C105.2 212 98.5002 222.5 96.5002 227.2C95.1002 230.5 94.3002 232.7 93.8002 233.9Z" fill="black"/>
<path d="M110.7 208.6C110.7 208.6 109.9 213.3 109.9 218.1C109.9 222.1 111.5 228.4 111.5 228.4L103.6 227.6C103.6 227.6 103.6 226.4 103.6 226C103.8 223.6 104.8 219.3 105.2 218.1C106 215.7 108.4 208.6 108.4 208.6H110.7Z" fill="#1C998F"/>
<path d="M112.7 229.4L102.6 228.4V227.5C102.6 227.4 102.6 226.3 102.6 225.8C102.8 223.3 103.8 218.9 104.2 217.7L107.6 207.6H111.8L111.6 208.7C111.6 208.8 110.8 213.4 110.8 218C110.8 221.9 112.3 228 112.4 228L112.7 229.4ZM104.5 226.7L110.2 227.3C109.7 225.2 108.9 221.1 108.9 218.1C108.9 214.7 109.3 211.3 109.5 209.6H109L106.1 218.4C105.7 219.5 104.7 223.7 104.6 226C104.5 226.2 104.5 226.4 104.5 226.7Z" fill="black"/>
<path d="M98.0002 257.7C94.8002 257.7 89.4002 256.9 89.2002 256.9C88.7002 256.8 88.3002 256.3 88.4002 255.8C88.5002 255.3 89.0002 254.9 89.5002 255C89.6002 255 95.0002 255.8 98.0002 255.8C102.6 255.8 108.1 255 108.1 255C108.6 254.9 109.1 255.3 109.2 255.8C109.3 256.3 108.9 256.8 108.4 256.9C108.2 256.9 102.8 257.7 98.0002 257.7Z" fill="black"/>
<path d="M160.4 241.9C155.6 241.9 150.2 241.1 150 241.1C149.5 241 149.1 240.5 149.2 240C149.3 239.5 149.8 239.1 150.3 239.2C150.4 239.2 155.7 240 160.4 240C164.9 240 167.2 239.3 167.2 239.3C167.7 239.1 168.3 239.4 168.4 239.9C168.6 240.4 168.3 241 167.8 241.1C167.7 241.1 165.2 241.9 160.4 241.9Z" fill="black"/>
<path d="M175.4 114C175.4 114 176.301 111.8 175.601 108C174.701 103.5 172 96.9 172.4 92.7C173.2 85.1 179 82.7 184.8 84.5C190.6 86.3 198.7 90.6 200.2 97.6C200.9 100.9 201.9 105.6 201.2 109.2C200.4 113.3 197.7 116.9 196.9 117.8C196.9 117.8 191.9 112.6 188 112.6C184.1 112.7 175.4 114 175.4 114Z" fill="#41A5A2"/>
<path d="M98.7002 145.7C98.7002 145.7 101 126.4 112.7 118.9C123.9 111.7 131.9 112.3 143.8 113.4C155.9 114.5 165 116.9 171.4 123.8C178.4 131.3 180.1 136.9 181.4 142.5C183.3 150.8 181.1 158.4 179.5 161.4C178.5 163.2 170.3 166.2 168 167.1C161.3 169.8 134.5 169.3 122 165.5C109.6 161.7 100.9 158.8 99.2002 154.3C97.5002 150 98.7002 145.7 98.7002 145.7Z" fill="#EDEFEF"/>
<path opacity="0.68" d="M193.9 112.4C193.9 112.4 197.6 106.9 197.2 101.6C196.8 97.1 194.2 91.5 194.2 91.5C194.2 91.5 198 95.5 199.2 99.3C200.5 103.6 200.4 107.2 199.1 110.5C197.9 113.6 196.5 114.5 196.5 114.5C196.5 114.5 196.1 113.9 195.7 113.5C195.1 113 193.9 112.4 193.9 112.4Z" fill="white"/>
<path d="M113 107.1C113 107.1 113.3 104.2 114 101.3C115.2 96.8 119.5 91.2 119.9 87C120.7 79.4 115.1 76.4 109.1 77.1C103.1 77.8 94.3003 80.3 91.5003 86.9C90.2003 90 88.3003 94.4 88.3003 98.1C88.3003 102.3 91.5003 106.8 92.1003 107.8C92.1003 107.8 96.6003 102.9 102.5 103.8C106.2 104.4 113 107.1 113 107.1Z" fill="#41A5A2"/>
<path d="M98.6005 151.2C98.6005 151.2 106.7 157 112.6 157.1C116 157.2 124.7 154.1 127.9 150.1C131.1 146.1 130.1 144 133.8 140.4C137.5 136.8 141.3 137.5 143.9 137.7C146.5 138 149.9 138.7 151.8 142.4C153.701 146.1 153.2 153.8 157.2 156.6C159.7 158.4 165.101 162 169.601 161.8C174.101 161.7 179.5 160.1 179.5 160.1C179.5 160.1 181 165.1 178.2 168.7C175.4 172.3 166.701 176.5 160.8 179C154.9 181.4 145.4 185.3 136.8 184.9C128.2 184.5 118.1 176.5 115.4 174.7C112.7 172.9 102.4 164.1 100.1 159.9C97.9005 155.9 98.6005 151.2 98.6005 151.2Z" fill="#427C78"/>
<path d="M137.2 186.8C136.7 186.8 136.2 186.8 135.8 186.7C132.6 186.4 124.6 183.3 117.2 177.4C115.4 176 113.6 174.6 111.9 173.3C104.5 167.8 98.2005 163 97.5005 156.7C96.8005 149.8 98.0005 141.9 98.6005 137.6L98.8005 136.6C99.0005 135.5 99.2005 134.1 99.5005 132.4C99.7005 131.3 99.9005 130 100.1 128.7L102 129C101.8 130.3 101.6 131.6 101.4 132.7C101.1 134.4 100.9 135.8 100.7 136.9L100.5 137.9C99.9005 142.1 98.7005 149.8 99.4005 156.5C100 162 106 166.5 113 171.8C114.8 173.1 116.6 174.5 118.4 175.9C125.7 181.7 133.4 184.6 136 184.8C138.7 185 146.9 184.3 155.3 180.6C157.4 179.7 159.5 178.8 161.5 178C169.6 174.7 176.6 171.8 178.5 166.6C179.5 163.8 181 152.3 182.3 137.2L184.2 137.4C183.2 149.6 181.6 163.8 180.3 167.4C178.1 173.4 170.7 176.4 162.2 179.9C160.2 180.7 158.1 181.6 156 182.5C148.6 185.7 141.1 186.8 137.2 186.8Z" fill="black"/>
<path d="M180.7 160.2C178.9 160.8 176.6 161.4 174 161.7C167.9 162.4 159.1 160.1 155.7 154.6C152.8 149.9 155.1 139 143.7 137.6C131.2 136.1 131.4 147 127.3 150.7C122.5 155 112.9 158.2 107.3 155.8C103.8 154.3 100 151.4 98.2002 150" stroke="black" stroke-width="2" stroke-miterlimit="10"/>
<path d="M183.2 148.5L182.1 141.9C182.1 141.8 180.6 133 177.1 126.6C174.3 121.5 168.6 117.3 168.6 117.2L166.4 115.6L169.2 115.5C169.4 115.5 173.6 115.3 174.6 111.7C175.4 109 174.3 105.6 173.2 102.3C172.7 100.8 172.2 99.3 171.9 97.9C171.4 95.4 170.9 90.6 173.3 87.2C174.8 85.1 177.1 83.9 180.1 83.5C187.3 82.6 194.1 87 197.7 91.1C201.8 95.7 202.6 101.9 202.8 105.2C203 109.4 202.1 113.1 197.3 119C195.7 121 194.1 122.7 192.7 124.2C189.9 127.2 187.7 129.6 186.5 132.8C184.6 137.7 184.1 142 184 142L183.2 148.5ZM171.4 116.9C173.4 118.6 176.8 121.8 178.8 125.6C180.9 129.3 182.2 133.7 183 137C183.4 135.5 183.9 133.8 184.6 131.9C186 128.3 188.4 125.7 191.2 122.7C192.6 121.2 194.1 119.5 195.7 117.6C200.6 111.6 200.8 108.1 200.7 105.1C200.6 102.1 199.8 96.4 196.1 92.3C192.5 88.3 186.2 84.6 180.1 85.4C177.6 85.7 175.7 86.7 174.6 88.3C172.6 91.1 173.1 95.3 173.5 97.5C173.8 98.8 174.2 100.2 174.7 101.7C175.8 105.1 177.1 109 176.2 112.3C175.5 115.1 173.2 116.4 171.4 116.9Z" fill="black"/>
<path d="M195.1 120.7C195 120.7 194.8 120.7 194.7 120.6C194.2 120.4 194 119.8 194.2 119.3C194.7 118.2 194.7 117.3 194.3 116.5C193.5 115.1 191 114.1 187.5 113.7C182.7 113.2 174.7 114.9 174.6 114.9C174.1 115 173.6 114.7 173.5 114.1C173.4 113.6 173.7 113.1 174.3 112.9C174.6 112.8 182.7 111.1 187.8 111.7C190.8 112 194.6 112.9 196.1 115.4C196.9 116.7 196.9 118.2 196.1 119.9C195.9 120.5 195.5 120.7 195.1 120.7Z" fill="black"/>
<path d="M169.9 117.5C169.7 117.5 169.6 117.5 169.4 117.4C162.5 113.6 153.4 111 144 110C134.7 109.1 125.8 109.8 118.3 112C117.8 112.2 117.2 111.9 117.1 111.3C116.9 110.8 117.2 110.3 117.8 110.1C125.6 107.8 134.7 107 144.3 108C154 109 163.3 111.7 170.5 115.6C171 115.9 171.1 116.4 170.9 116.9C170.6 117.4 170.3 117.5 169.9 117.5Z" fill="black"/>
<path d="M98.6003 142.2L99.3003 132.7C99.3003 132.7 99.6003 128.4 98.7003 123.2C98.1003 119.8 96.4003 117 94.3003 113.5C93.2003 111.8 92.0003 109.8 90.8003 107.5C87.3003 100.8 87.2003 96.9 88.1003 92.9C88.9003 89.7 90.9003 83.8 95.8003 80.1C100.2 76.8 107.7 73.8 114.6 76.1C117.5 77.1 119.5 78.7 120.6 81C122.3 84.8 120.9 89.4 119.9 91.8C119.3 93.1 118.6 94.4 117.8 95.8C116.1 98.8 114.3 101.9 114.5 104.8C114.8 108.6 118.9 109.6 119 109.6L121.8 110.3L119.1 111.4C119 111.4 112.7 114.2 108.7 118.9C103.1 125.5 101.1 132.8 101 132.9L98.6003 142.2ZM109.6 77.3C105 77.3 100.3 79.2 97.0003 81.7C92.5003 85 90.7003 90.5 90.0003 93.4C89.3003 96.3 88.9003 99.8 92.5003 106.6C93.7003 108.8 94.9003 110.8 95.9003 112.5C98.1003 116 99.9003 119.1 100.6 122.8C100.9 124.6 101.1 126.2 101.2 127.6C102.5 124.8 104.5 121.2 107.4 117.7C110.3 114.3 114.2 111.9 116.5 110.6C114.9 109.7 112.9 108 112.6 104.9C112.3 101.5 114.3 97.9 116.1 94.8C116.9 93.4 117.6 92.1 118.1 91C119 88.9 120.3 84.9 118.9 81.8C118.1 80 116.5 78.7 114.1 77.9C112.6 77.5 111.1 77.3 109.6 77.3Z" fill="black"/>
<path d="M92.7002 109.8C92.2002 109.8 91.8002 109.4 91.7002 109C91.5002 107.6 92.0002 106.3 93.0002 105.3C94.8002 103.5 98.3002 102.5 102.2 102.9C107.4 103.4 114 106.4 114.3 106.5C114.8 106.7 115 107.3 114.8 107.8C114.6 108.3 114 108.5 113.5 108.3C113.4 108.3 106.9 105.3 102 104.9C98.7002 104.6 95.7002 105.3 94.4002 106.7C93.8002 107.3 93.6002 108 93.7002 108.8C93.8002 109.3 93.4002 109.8 92.9002 109.9C92.8002 109.8 92.7002 109.8 92.7002 109.8Z" fill="black"/>
<path opacity="0.68" d="M106.5 102.3C106.5 102.3 112.3 96.1 115.2 90C117.4 85.3 116.5 81.2 116.5 81.2C116.5 81.2 117.5 82 118.1 83.9C118.7 85.8 118.5 88.4 117.4 90.5C114.9 95.1 113.2 97.6 112.5 99.2C111.4 101.5 111.4 103.9 111.4 103.9C111.4 103.9 109.9 103.3 109.4 103.1C108.6 102.9 106.5 102.3 106.5 102.3Z" fill="white"/>
<path d="M147.701 143.7C147.401 145.5 147.401 147.6 147.201 150.4C147.001 153.7 154.001 163.6 159.101 169.6C160.901 171.8 161.501 175.4 162.001 178.9C162.001 178.9 174.301 174.2 178.001 169.2C181.001 165.1 181.601 156.8 182.201 148.4C182.801 140.9 181.401 135.8 181.401 135.8C177.201 132.1 175.001 130.4 172.001 128.9C168.901 127.4 158.601 122.4 154.701 125.2C152.301 126.9 151.001 129.3 150.101 131.9C150.101 131.9 148.701 134.3 143.801 133.8C138.901 133.3 138.101 130.6 138.101 130.6C137.801 127.5 137.101 124.5 134.901 122.1C131.601 118.6 120.501 121.2 117.201 122.4C111.801 124.3 106.501 127.8 99.8005 134.5C99.8005 134.5 96.2005 152.9 98.1005 157.5C101.801 166.8 115.801 175.4 115.801 175.4C115.801 175.4 116.401 168.4 118.401 166.5C124.801 160.6 136.501 153.4 137.401 148.3C137.801 146 138.001 144.1 138.201 142.5C138.201 142.5 137.801 139.5 143.201 140.1C147.001 140.5 147.701 143.7 147.701 143.7Z" fill="#41A5A2"/>
<path d="M161.3 180.2L161 178.4C160.5 175.2 159.9 172 158.4 170.2C153.6 164.6 146.1 154.2 146.3 150.3L146.4 149.1C146.5 146.9 146.6 145.2 146.8 143.7C146.6 143.1 145.8 141.3 143.3 141.1C140.9 140.9 140 141.4 139.7 141.7C139.4 142 139.4 142.4 139.4 142.4V142.5V142.6C139.3 144.4 139 146.3 138.6 148.5C137.9 152.4 132.3 156.8 126.3 161.5C123.8 163.4 121.3 165.4 119.3 167.3C118 168.5 117.2 173 117 175.5L116.9 177.1L115.6 176.3C115 175.9 101.3 167.4 97.5003 158C95.6003 153.2 98.8003 136.3 99.2003 134.4L99.3003 134.1L99.5003 133.9C106 127.4 111.4 123.6 117.3 121.6C120.3 120.6 132.2 117.5 136 121.6C138.7 124.4 139.3 127.8 139.5 130.6C139.6 130.9 140.5 132.7 144.3 133C148.1 133.4 149.4 131.9 149.6 131.6C150.7 128.3 152.2 126.1 154.5 124.5C157.5 122.4 163.6 123.7 172.8 128.2C175.9 129.8 178.2 131.5 182.4 135.2L182.6 135.4L182.7 135.7C182.8 135.9 184.1 141 183.5 148.6L183.4 149.2C182.7 157.7 182.1 165.7 179 169.9C175.2 175 163.1 179.7 162.6 179.9L161.3 180.2ZM142.2 139.1C142.6 139.1 143 139.1 143.5 139.2C147.7 139.6 148.7 143.3 148.7 143.5V143.7V143.9C148.5 145.4 148.4 147.2 148.3 149.4L148.2 150.6C148.1 153.3 154.1 162.4 159.8 169.1C161.6 171.2 162.2 174.5 162.8 177.7C165.9 176.4 174.4 172.6 177.2 168.8C180 165 180.6 156.9 181.2 149.1L181.3 148.5C181.8 142.2 180.9 137.6 180.6 136.5C176.7 133.1 174.6 131.4 171.7 130C160.6 124.5 156.7 125.3 155.4 126.2C153.5 127.6 152.2 129.5 151.2 132.5L151.1 132.7C151 132.8 149.4 135.6 143.8 135.1C138.2 134.6 137.3 131.3 137.3 131.2V131C137 127.4 136.1 125 134.3 123.1C131.6 120.3 121.4 122.3 117.6 123.6C112.1 125.5 106.9 129.1 100.8 135.3C99.8003 140.6 97.7003 154 99.1003 157.5C102 164.7 111.6 171.7 115.1 174C115.4 171.7 116.2 167.7 117.8 166.1C119.8 164.2 122.4 162.2 125 160.2C130.2 156.1 136 151.6 136.6 148.4C137 146.3 137.2 144.5 137.4 142.8C137.4 142.4 137.4 141.4 138.2 140.6C139.1 139.5 140.4 139.1 142.2 139.1Z" fill="black"/>
<path d="M131.263 147.114C133.475 139.763 129.952 132.204 123.394 130.231C116.836 128.258 109.727 132.618 107.515 139.969C105.303 147.321 108.827 154.879 115.385 156.852C121.942 158.825 129.052 154.465 131.263 147.114Z" fill="white"/>
<path d="M118.6 158.5C117.4 158.5 116.2 158.3 115.1 158C111.7 157 108.9 154.5 107.3 151.1C105.7 147.7 105.5 143.7 106.6 140C109 132.1 116.6 127.5 123.7 129.6C127.1 130.6 129.9 133.1 131.5 136.5C133.1 139.9 133.3 143.9 132.2 147.6C131.1 151.4 128.7 154.5 125.5 156.5C123.3 157.8 120.9 158.5 118.6 158.5ZM120.2 130.9C115.1 130.9 110.2 134.7 108.5 140.4C107.5 143.7 107.7 147.2 109.1 150.2C110.5 153.1 112.8 155.2 115.7 156.1C118.6 157 121.7 156.5 124.5 154.8C127.3 153.1 129.4 150.3 130.4 147C131.4 143.7 131.2 140.2 129.8 137.2C128.4 134.3 126.1 132.2 123.2 131.3C122.1 131 121.1 130.9 120.2 130.9Z" fill="black"/>
<path d="M128.546 146.404C130.233 140.798 127.527 135.028 122.503 133.517C117.479 132.005 112.038 135.324 110.352 140.93C108.665 146.536 111.371 152.306 116.395 153.818C121.419 155.329 126.86 152.01 128.546 146.404Z" fill="white"/>
<path d="M118.9 155.3C118 155.3 117.1 155.2 116.1 154.9C110.6 153.2 107.6 146.9 109.4 140.8C110.3 137.9 112.2 135.4 114.6 133.9C117.1 132.3 120 131.9 122.7 132.8C125.4 133.7 127.6 135.5 128.8 138.2C130 140.8 130.2 143.9 129.3 146.9C128.4 149.8 126.5 152.3 124.1 153.8C122.6 154.8 120.7 155.3 118.9 155.3ZM120.1 134.3C118.6 134.3 117.1 134.7 115.8 135.6C113.7 136.9 112.1 139 111.4 141.4C109.9 146.5 112.3 151.7 116.8 153.1C119 153.7 121.3 153.4 123.3 152.2C125.4 150.9 127 148.8 127.7 146.4C128.4 143.9 128.3 141.3 127.3 139.1C126.3 136.9 124.5 135.4 122.4 134.7C121.6 134.4 120.8 134.3 120.1 134.3Z" fill="black"/>
<path d="M123.075 144.618C123.562 142.406 122.34 140.257 120.345 139.817C118.349 139.377 116.336 140.813 115.848 143.024C115.361 145.235 116.583 147.384 118.578 147.824C120.574 148.264 122.587 146.829 123.075 144.618Z" fill="#1A1A1A"/>
<path d="M119.4 148.8C119.1 148.8 118.8 148.8 118.5 148.7C116 148.1 114.4 145.5 115.1 142.7C115.4 141.4 116.1 140.3 117.2 139.5C118.3 138.7 119.5 138.4 120.8 138.7C123.3 139.3 124.9 141.9 124.2 144.7C123.6 147.2 121.6 148.8 119.4 148.8ZM119.8 140.6C119.3 140.6 118.7 140.8 118.3 141.1C117.6 141.6 117.2 142.3 117 143.2C116.6 144.9 117.5 146.6 119 146.9C120.5 147.2 122 146.1 122.3 144.4C122.7 142.7 121.8 141.1 120.3 140.7C120.1 140.6 120 140.6 119.8 140.6Z" fill="black"/>
<path d="M165.822 162.387C172.662 162.034 177.885 155.532 177.489 147.865C177.093 140.199 171.228 134.27 164.388 134.623C157.549 134.976 152.325 141.478 152.721 149.145C153.118 156.811 158.983 162.74 165.822 162.387Z" fill="white"/>
<path d="M165.2 163.3C161.8 163.3 158.6 161.9 156.1 159.4C153.5 156.7 151.9 153.1 151.7 149.1C151.3 140.9 156.9 133.9 164.3 133.5C171.7 133.1 178 139.5 178.4 147.7C178.8 155.9 173.2 162.9 165.8 163.3C165.7 163.3 165.5 163.3 165.2 163.3ZM165 135.5C164.8 135.5 164.6 135.5 164.5 135.5C158.2 135.8 153.4 141.9 153.7 149C153.9 152.5 155.3 155.7 157.6 158C159.9 160.3 162.8 161.5 165.8 161.3C172.1 161 176.9 154.9 176.6 147.8C176.2 140.9 171 135.5 165 135.5Z" fill="black"/>
<path d="M165.647 158.991C170.776 158.726 174.692 153.817 174.393 148.025C174.094 142.234 169.693 137.754 164.563 138.019C159.434 138.284 155.518 143.193 155.817 148.985C156.116 154.776 160.517 159.256 165.647 158.991Z" fill="white"/>
<path d="M165.3 159.9C159.8 159.9 155.2 155.1 154.9 149C154.7 146 155.7 143.1 157.5 140.8C159.3 138.5 161.9 137.2 164.6 137C170.3 136.7 175.1 141.6 175.5 147.9C175.7 150.9 174.7 153.8 172.9 156.1C171.1 158.4 168.5 159.7 165.8 159.9C165.6 159.9 165.4 159.9 165.3 159.9ZM165 139C164.9 139 164.7 139 164.6 139C162.4 139.1 160.4 140.2 158.9 142C157.4 143.9 156.6 146.3 156.8 148.9C157.1 154.1 161 158.2 165.6 157.9C167.8 157.8 169.8 156.7 171.3 154.9C172.8 153 173.6 150.6 173.4 148C173.2 143 169.5 139 165 139Z" fill="black"/>
<path d="M165.216 153.2C167.257 153.094 168.817 151.176 168.7 148.914C168.583 146.653 166.834 144.905 164.793 145.01C162.753 145.116 161.193 147.034 161.31 149.296C161.426 151.557 163.176 153.305 165.216 153.2Z" fill="#1A1A1A"/>
<path d="M165 154.2C162.5 154.2 160.4 152.1 160.3 149.3C160.2 146.5 162.1 144.1 164.7 144C167.3 143.9 169.5 146.1 169.6 148.9C169.7 151.7 167.8 154.1 165.2 154.2C165.2 154.2 165.1 154.2 165 154.2ZM164.9 145.9H164.8C163.3 146 162.2 147.5 162.2 149.2C162.3 150.9 163.6 152.3 165.1 152.2C166.6 152.1 167.7 150.6 167.7 148.9C167.6 147.3 166.4 145.9 164.9 145.9Z" fill="black"/>
<path d="M99.8002 135.4C99.8002 135.4 97.4002 133.1 93.1002 125.8C90.4002 121.2 89.4002 116.5 89.4002 116.5L82.7002 122.5C82.7002 122.5 89.9002 131.1 92.0002 133C95.3002 135.9 99.4002 138.1 99.4002 138.1L99.8002 135.4Z" fill="#41A5A2"/>
<path d="M99.4003 139C99.2003 139 99.1003 139 98.9003 138.9C98.7003 138.8 94.7003 136.7 91.3003 133.7C89.1003 131.8 82.1003 123.5 81.8003 123.1C81.5003 122.7 81.5003 122.1 81.9003 121.8L88.6003 115.8C88.9003 115.6 89.2003 115.5 89.5003 115.6C89.8003 115.7 90.1003 116 90.2003 116.3C90.2003 116.4 91.3003 120.9 93.8003 125.3C97.9003 132.4 100.3 134.6 100.3 134.7C100.5 134.9 100.6 135.2 100.6 135.5L100.2 138.2C100.1 138.5 100 138.8 99.7003 138.9C99.7003 139 99.5003 139 99.4003 139ZM83.9003 122.6C85.7003 124.7 90.8003 130.8 92.5003 132.3C94.6003 134.2 97.1003 135.7 98.5003 136.6L98.6003 135.8C97.8003 134.9 95.5003 132.2 92.1003 126.4C90.3003 123.3 89.2003 120.2 88.7003 118.4L83.9003 122.6Z" fill="black"/>
<path d="M80.9002 120.2C78.5002 116.6 77.3002 113.3 75.2002 105.5L58.2002 111.3C58.2002 111.3 61.1002 122.4 69.6002 128.8C75.4002 133.2 81.4002 136.1 84.4002 137.4C89.3002 139.5 98.9002 140.9 98.9002 140.9L99.5002 138C99.5002 138 94.6002 135.2 89.4002 130.3C85.9002 127.2 82.5002 122.7 80.9002 120.2Z" fill="#41A5A2"/>
<path d="M98.8003 141.9C98.7003 141.9 98.7003 141.9 98.6003 141.9C98.2003 141.8 88.8003 140.4 83.9003 138.3C82.1003 137.5 75.5003 134.6 68.9003 129.6C60.3003 123.1 57.3003 112.1 57.2003 111.6C57.1003 111.1 57.3003 110.6 57.8003 110.4L74.8003 104.6C75.1003 104.5 75.3003 104.5 75.6003 104.7C75.8003 104.8 76.0003 105 76.1003 105.3C78.3003 113.4 79.4003 116.3 81.6003 119.7C83.5003 122.5 86.7003 126.8 89.8003 129.6C94.9003 134.3 99.7003 137.2 99.8003 137.2C100.2 137.4 100.4 137.8 100.3 138.2L99.7003 141.1C99.6003 141.6 99.2003 141.9 98.8003 141.9ZM59.4003 112C60.3003 114.7 63.4003 123 70.1003 128.1C76.5003 132.9 82.9003 135.8 84.7003 136.5C88.5003 138.1 95.5003 139.4 98.0003 139.8L98.3003 138.5C96.8003 137.6 92.8003 135 88.6003 131C84.5003 127.2 80.8003 121.8 80.1003 120.7C77.6003 117 76.4003 113.5 74.6003 106.7L59.4003 112Z" fill="black"/>
<path d="M53.0998 155.6C51.2998 158.3 51.4998 162.8 53.0998 163.6C54.6998 164.4 60.8998 161.2 62.3998 159.6C63.9998 158 66.4998 153 67.2998 149.8C67.8998 147.4 68.8998 139.5 68.0998 138.7C68.0998 138.7 55.4998 136.6 49.9998 141.3C44.5998 146.1 42.0998 147.2 41.2998 151.2C40.4998 155.2 42.5998 159.2 45.6998 158.4C47.3998 158 51.0998 156.8 53.0998 154.8" fill="white"/>
<path d="M53.8 164.7C53.4 164.7 53 164.6 52.7 164.5C52 164.1 51.4 163.4 51.2 162.3C50.9 161 50.8 159.2 51.3 157.5C49.4 158.5 47.3 159.2 46 159.5C44.6 159.9 43.3 159.5 42.2 158.5C40.5 156.9 39.8 154 40.4 151.1C41.1 147.6 43 146.1 46.4 143.2C47.3 142.5 48.3 141.6 49.5 140.6C55.2 135.6 67.9 137.6 68.4 137.7C68.6 137.7 68.8 137.8 68.9 138C70.4 139.6 68.4 150 68.4 150.1C67.6 153.4 65 158.6 63.3 160.4C61.9 161.6 56.6 164.7 53.8 164.7ZM54 155.2C54.1 155.5 54.1 155.9 53.9 156.1C52.8 157.8 52.6 160.2 53 161.6C53.2 162.2 53.4 162.5 53.5 162.6C54.5 163 60.1 160.4 61.6 158.8C63 157.4 65.4 152.6 66.2 149.5C66.8 147 67.4 141.2 67.2 139.5C64.7 139.2 54.9 138.1 50.5 142C49.3 143 48.3 143.9 47.4 144.6C44.1 147.3 42.7 148.5 42.1 151.3C41.7 153.5 42.2 155.7 43.4 156.8C44 157.3 44.6 157.5 45.3 157.3C46.8 156.9 50.4 155.8 52.3 154C52.7 153.6 53.3 153.6 53.7 154C54.1 154.4 54.2 154.8 54 155.2Z" fill="black"/>
<path d="M43.3003 148.2C43.3003 148.2 49.1003 168.4 50.4003 170.4C51.7003 172.4 54.4003 174.3 57.5003 173C60.0003 172 62.1003 169.3 61.8003 167C61.6003 164.9 55.2003 144.8 55.2003 144.8L43.3003 148.2Z" fill="#65AB6F"/>
<path d="M55.6001 174.5C53.1001 174.5 50.9001 172.9 49.7001 171C48.3001 168.9 43.0001 150.6 42.4001 148.5L42.1001 147.5L55.9001 143.5L56.2001 144.4C56.9001 146.5 62.7001 164.7 62.9001 166.8C63.1001 169.5 61.0001 172.6 57.9001 173.8C57.2001 174.3 56.4001 174.5 55.6001 174.5ZM44.6001 148.9C46.9001 156.7 50.5001 168.5 51.3001 169.9C52.4001 171.6 54.6001 173.2 57.2001 172.1C59.4001 171.2 61.1001 168.9 60.9001 167.1C60.8001 165.7 57.2001 154.1 54.6001 146L44.6001 148.9Z" fill="black"/>
<path d="M55.0999 148.6C49.2999 150.9 35.6999 155.7 30.8999 154.7C26.0999 153.7 24.2999 148.3 28.5999 144.7C32.8999 141.1 41.6999 137.8 41.6999 137.8C41.6999 137.8 42.5999 139.1 46.1999 138.5C49.7999 138 50.8999 133.6 50.8999 133.6C50.8999 133.6 62.0999 130.4 65.8999 132C69.6999 133.6 70.0999 137 67.8999 140.7C65.6999 144.3 58.6999 147.2 55.0999 148.6Z" fill="#65AB6F"/>
<path d="M32.4 155.8C31.8 155.8 31.2 155.8 30.7 155.7C28 155.2 26 153.3 25.4 150.9C24.8 148.4 25.7 145.8 28 143.9C32.4 140.2 41 136.9 41.4 136.8L42.1 136.5L42.5 137.1C42.5 137.1 43.3 137.8 46 137.4C48.9 137 49.9 133.2 49.9 133.2L50 132.7L50.5 132.5C51.7 132.2 62.1 129.2 66.1 130.9C68 131.7 69.3 132.9 69.8 134.5C70.4 136.4 70 138.6 68.6 141C66.4 144.7 60 147.6 55.4 149.4C54.8 149.8 39.6 155.8 32.4 155.8ZM41.5 138.9C39.5 139.7 32.7 142.5 29.2 145.4C27.5 146.8 26.8 148.7 27.2 150.4C27.6 152.1 29.1 153.3 31 153.7C35.1 154.5 47.4 150.5 54.7 147.6C57.2 146.6 64.8 143.5 67 140C68.1 138.1 68.5 136.5 68.1 135.2C67.8 134.2 66.9 133.4 65.6 132.8C62.9 131.7 55.2 133.4 51.8 134.3C51.3 135.6 49.8 138.9 46.4 139.4C43.7 139.9 42.3 139.4 41.5 138.9Z" fill="black"/>
<path d="M57.9002 153C57.1002 153.4 54.9002 154.4 53.3002 155.4C50.6002 157.1 49.2002 157.7 49.7002 159.7C50.4002 162.3 57.8002 162.4 61.8002 159.9" fill="white"/>
<path d="M54.9 162.7C53.4 162.7 52 162.5 51 162.1C49.5 161.5 48.9 160.6 48.8 159.9C48.2 157.4 49.8 156.4 52 155L52.8 154.5C54.1 153.7 55.8 152.9 56.9 152.4C57.2 152.3 57.4 152.2 57.5 152.1C58 151.9 58.6 152.1 58.8 152.5C59 153 58.8 153.6 58.4 153.8C58.2 153.9 58 154 57.7 154.1C56.7 154.6 55.1 155.4 53.8 156.1L53 156.6C50.6 158.1 50.4 158.3 50.6 159.3C50.7 159.6 51.1 159.9 51.6 160.1C53.8 161 58.4 160.7 61.2 158.9C61.7 158.6 62.3 158.7 62.6 159.2C62.9 159.7 62.8 160.3 62.3 160.6C60.2 162.1 57.4 162.7 54.9 162.7Z" fill="black"/>
<path d="M56.6001 154.7C56.6001 154.7 58.3001 153.8 58.5001 153C58.7001 152.4 58.4001 151.2 58.4001 151.2L62.0001 154.3L61.2001 157.6L58.1001 157.1L56.6001 154.7Z" fill="white"/>
<path d="M53.5003 141.7C52.8003 142.8 50.8003 144.3 48.7003 145.1C46.4003 145.9 42.7003 146.3 41.7003 145.4C41.4003 145.1 41.3003 144.7 41.0003 144C37.9003 133.6 13.9003 54.3 3.30033 19C2.60033 16.9 2.00033 12.7 4.50033 8C6.10033 4.8 8.80033 3.4 10.8003 2.6C11.4003 2.3 12.0003 2.6 12.2003 3.2L53.6003 140.2C53.6003 140.2 53.9003 141 53.5003 141.7Z" fill="#E6ECEC"/>
<path d="M44.0002 146.9C42.7002 146.9 41.6002 146.7 41.0002 146.1C40.5002 145.6 40.3002 145.1 40.1002 144.3L2.30018 19.3C1.70018 17.1 1.00018 12.7 3.60018 7.5C5.40018 4 8.20018 2.5 10.4002 1.6C10.9002 1.4 11.5002 1.4 12.0002 1.6C12.5002 1.8 12.9002 2.3 13.1002 2.9L54.5002 139.9C54.5002 140 55.0002 141.2 54.3002 142.3C53.5002 143.5 51.4002 145.2 49.0002 146C47.9002 146.4 45.8002 146.9 44.0002 146.9ZM11.2002 3.5C9.10018 4.3 6.90018 5.6 5.40018 8.5C3.10018 13 3.70018 16.9 4.30018 18.8L42.0002 143.7C42.2002 144.3 42.3002 144.6 42.4002 144.7C42.9002 145.1 46.0002 145.1 48.3002 144.2C50.2002 143.5 52.0002 142.1 52.6002 141.2C52.7002 141 52.7002 140.7 52.6002 140.5L11.2002 3.5Z" fill="black"/>
<path d="M202.9 248.8C230.846 248.8 253.5 226.146 253.5 198.2C253.5 170.254 230.846 147.6 202.9 147.6C174.955 147.6 152.3 170.254 152.3 198.2C152.3 226.146 174.955 248.8 202.9 248.8Z" fill="#99CCCC"/>
<path d="M202.9 249.8C174.4 249.8 151.3 226.6 151.3 198.2C151.3 169.8 174.5 146.6 202.9 146.6C231.4 146.6 254.5 169.8 254.5 198.2C254.5 226.6 231.4 249.8 202.9 249.8ZM202.9 148.5C175.5 148.5 153.3 170.8 153.3 198.1C153.3 225.4 175.6 247.7 202.9 247.7C230.2 247.7 252.5 225.4 252.5 198.1C252.5 170.8 230.3 148.5 202.9 148.5Z" fill="black"/>
<path d="M202.9 240.3C226.151 240.3 245 221.451 245 198.2C245 174.949 226.151 156.1 202.9 156.1C179.649 156.1 160.8 174.949 160.8 198.2C160.8 221.451 179.649 240.3 202.9 240.3Z" fill="#729693"/>
<path d="M202.9 241.3C179.1 241.3 159.8 221.9 159.8 198.2C159.8 174.5 179.2 155.1 202.9 155.1C226.6 155.1 246 174.5 246 198.2C246 221.9 226.7 241.3 202.9 241.3ZM202.9 157C180.2 157 161.8 175.5 161.8 198.1C161.8 220.7 180.3 239.2 202.9 239.2C225.5 239.2 244 220.7 244 198.1C244 175.5 225.6 157 202.9 157Z" fill="black"/>
<path d="M203.8 177.5C203.8 177.5 204.9 180.1 203.1 181.6C201.3 183.1 198.1 182.7 197.7 179.8C197.3 176.8 199.6 174.4 201.7 173.9C204.6 173.3 206.5 174.4 207.5 175.3C208.7 176.3 210.2 178.5 209.9 182.2C209.7 185.9 207.8 188.1 205.6 189.4C203.4 190.7 199.3 190.8 198 190.4C196.6 190 193.7 188.3 192.3 186.5C190.9 184.7 189.2 181.3 189.5 177.6C190 172 193.3 168.5 196.1 167C198.9 165.5 205.5 165.1 209.1 166.8C212.2 168.3 214.6 170 216.5 174.2C218.4 178.4 218.2 181.3 218 182.8C217.8 185 216.8 188.7 215.2 190.9C213.6 193.1 210.2 195.4 207 196.3C204.7 196.9 199.8 196.7 198.5 196.6C196 196.5 194.2 196.2 194.2 196.2L195.2 193.4C195.2 193.4 202.6 195.1 208.2 192.5C212.4 190.5 215 185 214.6 181.5C213.9 174.9 212 173.2 209.8 171.4C206.9 169 201.5 169.1 199.1 169.8C196.8 170.5 194.1 171.9 193 178C192.2 182.3 196.8 186.9 200.5 186.8C204.4 186.6 206.8 184.7 206.6 181.6C206.5 178.3 203.8 177.5 203.8 177.5Z" fill="#99CCCC"/>
<path d="M184.8 208.1C184.8 208.1 186.9 206.2 188.9 207.5C190.8 208.8 191.5 211.9 188.8 213.2C186.1 214.5 183.1 213.1 182 211.2C180.5 208.6 181 206.5 181.5 205.3C182.1 203.9 183.7 201.8 187.3 200.9C190.9 200 193.6 201 195.5 202.8C197.4 204.5 198.8 208.3 198.8 209.7C198.8 211.2 198.1 214.4 196.9 216.3C195.7 218.2 192.9 220.8 189.3 221.7C183.8 223 179.7 221.3 177.2 218.7C174.3 215.6 172.5 209.8 173 206.4C173.5 203 174.4 200.1 177.8 197C181.2 193.9 184.1 193.2 185.5 192.9C187.6 192.4 191.5 192.2 194.1 193.1C196.7 193.9 200 196.5 201.8 199.2C203.1 201.2 204.8 206 205.1 207.2C205.8 209.6 206 211.4 206 211.4L203.4 210.7C203.4 210.7 202.1 203.7 197.9 199.2C194.7 195.8 188.7 195.1 185.4 196.5C179.4 199.2 178.3 201.5 177.3 204.2C175.9 207.7 177.7 212.8 179.1 214.9C180.5 216.9 183.6 219 188.7 218.2C193 217.5 196 211.9 194.7 208.3C193.3 204.6 190.7 203 187.9 204.1C184.7 205.4 184.8 208.1 184.8 208.1Z" fill="#99CCCC"/>
<path d="M221.2 209.8C221.2 209.8 218.4 209.3 218.2 207C218 204.7 220 202.2 222.8 203.5C225.5 204.8 226.3 208.1 225.4 210.1C224.3 212.9 222.3 213.8 221 214.1C219.5 214.5 216.8 214.5 213.9 212.3C211 210.1 210.1 207.3 210.3 204.7C210.5 202.1 212.6 198.7 213.7 197.8C214.8 196.8 217.8 195.4 220.1 195.2C222.4 195 226.1 195.5 229 197.9C233.4 201.4 234.4 205.9 234.1 209.2C233.7 214 230.1 218.6 227.1 220.3C224 222.1 220.9 222.8 216.7 222.2C212.2 221.5 209.9 219.6 208.7 218.7C207 217.3 204.5 214.4 203.5 211.9C202.5 209.4 202.5 205.2 203.6 202.1C204.4 199.8 206.9 195.8 207.7 194.8C209.2 192.8 210.8 191.5 210.8 191.5L212 194C212 194 206.9 199 206 205.1C205.3 209.7 208.5 214.9 211.6 216.6C217.4 219.7 219.9 219 222.7 218.3C226.3 217.3 229.5 213.2 230 210.3C230.4 208.3 231 205 226.6 200.7C223.4 197.6 217.1 198.9 215.1 202.1C213.1 205.4 213.4 208.5 216 210.1C219.1 211.5 221.2 209.8 221.2 209.8Z" fill="#99CCCC"/>
</svg>
