<svg width="205" height="222" viewBox="0 0 205 222" fill="none" xmlns="http://www.w3.org/2000/svg">
<path d="M27.8006 83.2C27.8006 83.2 27.5006 69.1 27.2006 67.4C26.8006 65.5 24.7006 65.3 24.2006 66.4C23.7006 67.5 24.1006 70 22.7006 71.8C21.1006 73.9 19.7006 73.3 18.5006 72C17.4006 70.7 14.7006 66.2 13.5006 65.4C12.1006 64.5 10.0006 65 11.0006 67.4C12.0006 69.8 15.7006 72.3 15.5006 73.4C15.3006 74.6 10.6006 68.7 9.00059 67.8C7.20059 66.8 4.80059 68.2 6.10059 70.2C7.40059 72.2 13.1006 75.7 12.4006 76.5C11.7006 77.3 7.40059 72.4 5.70059 72.6C4.00059 72.8 3.30059 74.5 5.70059 76.9C8.10059 79.3 10.9006 80.2 10.9006 81C10.8006 81.8 6.70059 79 5.10059 78.8C3.40059 78.7 2.20059 80.4 5.00059 82.6C7.80059 84.8 13.9006 85.4 16.1006 86.7C18.3006 88 19.3006 88.9 19.3006 88.9" fill="white"/>
<path d="M19.2003 89.9C18.9003 89.9 18.7003 89.8 18.5003 89.6C18.5003 89.6 17.6003 88.7 15.5003 87.5C14.7003 87 13.2003 86.6 11.6003 86.2C9.00031 85.5 6.10031 84.8 4.30031 83.3C1.90031 81.4 2.10031 79.8 2.40031 79.2C2.80031 78.2 3.90031 77.6 5.10031 77.7H5.20031C5.10031 77.6 5.00031 77.5 4.90031 77.5C2.80031 75.4 2.90031 73.9 3.10031 73.2C3.40031 72.3 4.30031 71.6 5.40031 71.5C5.50031 71.5 5.60031 71.5 5.80031 71.5C5.50031 71.2 5.30031 70.9 5.20031 70.7C4.30031 69.3 4.70031 68 5.40031 67.3C6.40031 66.3 8.10031 66.1 9.50031 66.9C9.60031 67 9.80031 67.1 9.90031 67.2C9.50031 65.6 10.2003 64.8 10.6003 64.5C11.5003 63.8 13.0003 63.8 14.1003 64.6C14.9003 65.2 16.0003 66.6 17.5003 68.9C18.2003 69.9 18.9003 70.9 19.3003 71.4C19.8003 71.9 20.2003 72.2 20.6003 72.2C21.1003 72.2 21.6003 71.7 21.9003 71.2C22.6003 70.3 22.7003 69.1 22.9003 68C23.0003 67.3 23.1003 66.6 23.3003 66C23.7003 65.1 24.7003 64.6 25.7003 64.8C26.9003 64.9 27.9003 65.9 28.2003 67.3C28.5003 69 28.8003 81.8 28.9003 83.2C28.9003 83.8 28.5003 84.2 27.9003 84.2C27.3003 84.2 26.9003 83.8 26.9003 83.2C26.8003 77.6 26.5003 68.8 26.3003 67.6C26.1003 66.9 25.7003 66.7 25.5003 66.7C25.4003 66.7 25.2003 66.7 25.2003 66.8C25.1003 67.1 25.0003 67.6 25.0003 68.2C24.9003 69.4 24.7003 71.1 23.6003 72.4C22.6003 73.6 21.7003 74.1 20.7003 74.2C19.7003 74.2 18.8003 73.7 17.9003 72.7C17.4003 72.2 16.7003 71.2 15.9003 70C15.0003 68.7 13.6003 66.6 13.0003 66.3C12.5003 66 12.0003 66 11.8003 66.1C11.7003 66.2 11.7003 66.5 11.9003 67.1C12.3003 68.1 13.4003 69.3 14.4003 70.3C15.7003 71.6 16.6003 72.6 16.5003 73.7C16.4003 74.2 16.1003 74.5 15.7003 74.6C14.8003 74.9 13.9003 74.1 11.4003 71.5C10.4003 70.4 9.10031 69.1 8.50031 68.8C7.90031 68.4 7.20031 68.5 6.90031 68.8C6.70031 69 6.70031 69.3 7.00031 69.7C7.50031 70.5 9.10031 71.8 10.4003 72.9C12.5003 74.6 13.4003 75.4 13.5003 76.3C13.5003 76.6 13.4003 77 13.2003 77.2C12.2003 78.2 10.9003 77.2 9.10031 75.7C8.20031 75 6.50031 73.6 5.90031 73.6C5.80031 73.6 5.30031 73.7 5.20031 73.9C5.00031 74.2 5.20031 75 6.40031 76.2C7.60031 77.3 8.80031 78.1 9.70031 78.7C11.0003 79.5 11.9003 80.1 11.8003 81.1C11.8003 81.5 11.5003 81.8 11.2003 82C10.5003 82.4 9.60031 82 7.80031 81.1C6.80031 80.6 5.50031 79.9 4.90031 79.9C4.50031 79.9 4.30031 80 4.20031 80.1C4.10031 80.3 4.40031 81 5.50031 81.9C7.00031 83.1 9.70031 83.8 12.0003 84.4C13.8003 84.9 15.4003 85.3 16.4003 85.9C18.7003 87.2 19.7003 88.2 19.7003 88.3C20.1003 88.7 20.1003 89.3 19.7003 89.7C19.7003 89.8 19.5003 89.9 19.2003 89.9Z" fill="black"/>
<path d="M42.6002 48.2C42.6002 48.2 40.2002 45.7 30.7002 39.8C21.2002 33.9 7.0002 27.7 4.0002 25.6C4.0002 25.6 3.7002 34.2 3.7002 36.3C3.7002 36.3 13.4002 39.2 22.9002 44.2C32.4002 49.2 40.8002 54.9 42.5002 56.4C42.5002 56.5 42.1002 53.5 42.6002 48.2Z" fill="#D3D3D3"/>
<path d="M42.5002 57.5C42.3002 57.5 42.0002 57.4 41.9002 57.3C40.2002 55.9 31.8002 50.1 22.4002 45.2C13.1002 40.2 3.5002 37.3 3.4002 37.2C3.0002 37.1 2.7002 36.7 2.7002 36.2C2.7002 34.2 3.0002 25.9 3.0002 25.6C3.0002 25.2 3.2002 24.9 3.6002 24.7C3.9002 24.5 4.3002 24.6 4.6002 24.8C5.7002 25.6 9.0002 27.2 12.7002 29.1C18.4002 31.9 25.5002 35.4 31.1002 38.9C40.6002 44.8 43.1002 47.4 43.2002 47.5C43.4002 47.7 43.5002 48 43.5002 48.3C43.0002 53.4 43.4002 56.3 43.5002 56.3C43.6002 56.7 43.4002 57.1 43.0002 57.3C42.9002 57.4 42.7002 57.5 42.5002 57.5ZM4.7002 35.6C7.10019 36.4 15.4002 39.2 23.3002 43.4C30.9002 47.4 37.9002 52 41.3002 54.4C41.3002 53 41.3002 51.1 41.5002 48.7C40.6002 47.9 37.5002 45.3 30.1002 40.7C24.6002 37.3 17.5002 33.8 11.8002 31C8.9002 29.6 6.5002 28.4 4.9002 27.5C4.9002 29.6 4.80019 33.6 4.7002 35.6Z" fill="black"/>
<path d="M42.7008 57.2C42.7008 57.2 36.3008 55.4 30.1008 52.7C23.7008 49.9 18.3008 46.9 18.3008 46.9C18.3008 46.9 19.2008 58.4 20.4008 59.3C22.4008 60.8 42.4008 63.3 43.9008 63.2C43.9008 63.2 43.3008 61.2 43.2008 60.1C43.1008 59.3 42.7008 57.2 42.7008 57.2Z" fill="#D3D3D3"/>
<path d="M43.9008 64.3C42.9008 64.3 22.2008 62 19.8008 60.2C18.8008 59.4 17.9008 55 17.3008 47.1C17.3008 46.7 17.4008 46.4 17.8008 46.2C18.1008 46 18.5008 46 18.8008 46.2C18.9008 46.2 24.3008 49.2 30.6008 52C36.7008 54.6 43.0008 56.4 43.1008 56.4C43.5008 56.5 43.7008 56.8 43.8008 57.2C43.8008 57.3 44.2008 59.4 44.3008 60.2C44.4008 61 44.8008 62.6 45.0008 63.2C45.1008 63.5 45.0008 63.8 44.8008 64.1C44.5008 64.1 44.2008 64.3 43.9008 64.3ZM21.0008 58.6C22.8008 59.7 37.8008 61.7 42.5008 62.2C42.3008 61.6 42.2008 60.8 42.1008 60.3C42.0008 59.8 41.9008 58.7 41.8008 58C40.0008 57.5 34.7008 55.9 29.6008 53.7C25.3008 51.8 21.4008 49.9 19.3008 48.7C19.8008 53.1 20.5008 57.7 21.0008 58.6Z" fill="black"/>
<path d="M163.4 109.3C163.4 109.3 169.4 96.6 170.4 95.1C171.5 93.5 173.5 94.2 173.5 95.4C173.5 96.6 172.1 98.7 172.7 100.9C173.3 103.5 174.8 103.5 176.5 102.8C178 102.1 182.3 99.1 183.8 98.8C185.4 98.6 187.2 99.9 185.3 101.6C183.4 103.4 179 104.1 178.7 105.2C178.4 106.3 185.1 102.9 186.9 102.7C189 102.4 190.6 104.7 188.6 106.1C186.6 107.5 180 108.3 180.3 109.3C180.6 110.3 186.5 107.6 188 108.5C189.6 109.4 189.4 111.2 186.2 112.4C182.9 113.6 180.1 113.3 179.8 114C179.5 114.7 184.5 113.9 186 114.4C187.6 115 188 117 184.5 117.9C181 118.8 175.2 116.8 172.7 117.1C170.2 117.4 168.9 117.8 168.9 117.8" fill="white"/>
<path d="M168.5 119.1C168.2 119 168.1 118.8 168 118.5C167.8 118 168 117.4 168.6 117.2C168.6 117.2 170.1 116.6 172.6 116.4C173.8 116.3 175.4 116.6 177.2 116.8C179.6 117.2 182.4 117.7 184.2 117.2C185.6 116.8 186.1 116.3 186.1 116.1C186 116 185.9 115.7 185.5 115.6C185 115.4 183.5 115.5 182.4 115.5C180.4 115.6 179.5 115.6 178.9 114.9C178.7 114.6 178.6 114.2 178.7 113.8C179 112.8 180.1 112.7 181.6 112.5C182.8 112.4 184.2 112.1 185.6 111.6C187.2 111 187.7 110.3 187.7 110.1C187.7 109.8 187.4 109.6 187.2 109.4C186.7 109.2 184.4 109.7 183.4 110C181.2 110.5 179.5 111 179 109.7C178.9 109.3 178.9 109 179.1 108.8C179.6 108 180.7 107.7 183.3 107C184.9 106.6 186.9 106.1 187.7 105.5C188.1 105.3 188.3 105 188.2 104.7C188 104.3 187.5 103.9 186.7 104C186 104 184.3 104.8 182.9 105.3C179.6 106.6 178.4 107 177.7 106.4C177.4 106.1 177.3 105.7 177.3 105.3C177.6 104.2 178.8 103.8 180.6 103.1C181.9 102.6 183.4 102 184.2 101.2C184.6 100.8 184.8 100.5 184.7 100.3C184.6 100.1 184.1 99.9 183.5 100C182.8 100.1 180.7 101.4 179.3 102.2C178.1 102.9 177.1 103.5 176.4 103.8C175.2 104.3 174.1 104.4 173.2 104C172.3 103.6 171.6 102.6 171.3 101.3C170.9 99.6 171.4 98.1 171.7 96.9C171.8 96.4 172.1 95.9 172.1 95.5C172.1 95.4 172 95.3 171.9 95.3C171.8 95.3 171.3 95.1 170.8 95.8C170.2 96.7 166.3 104.6 163.9 109.8C163.7 110.3 163 110.5 162.6 110.3C162.1 110.1 161.9 109.4 162.1 109C162.7 107.6 168.2 96.1 169.2 94.8C170 93.7 171.2 93.2 172.5 93.5C173.5 93.8 174.2 94.7 174.2 95.6C174.2 96.3 173.9 96.9 173.7 97.6C173.3 98.6 172.9 99.8 173.3 100.9C173.4 101.4 173.7 102.2 174.1 102.3C174.5 102.5 175 102.4 175.6 102.1C176.1 101.9 177.2 101.3 178.3 100.6C180.6 99.2 182.2 98.3 183.2 98.1C184.5 97.8 185.9 98.4 186.4 99.4C186.6 99.8 187 100.9 185.9 102.2C186 102.1 186.3 102.1 186.4 102.1C188 101.9 189.5 102.8 190 104.1C190.4 105 190.2 106.3 188.8 107.3C188.5 107.5 188.2 107.7 187.9 107.8C188 107.8 188.1 107.9 188.3 108C189.3 108.5 189.8 109.5 189.7 110.5C189.6 111.2 189 112.7 186.3 113.7C186.2 113.8 186 113.8 185.9 113.8H186C187.2 114.2 187.9 115.2 187.8 116.3C187.7 116.9 187.4 118.5 184.4 119.3C182.2 119.8 179.2 119.4 176.6 119C175 118.7 173.4 118.5 172.5 118.6C170.2 118.9 169 119.3 168.9 119.3C169 119.2 168.7 119.1 168.5 119.1Z" fill="black"/>
<path d="M119.5 152.1L119.4 148.2C119.4 148.2 93.3002 145.1 84.1002 143.1C76.6002 141.5 51.7002 132.7 51.7002 132.7L50.2002 135.6C50.2002 135.6 67.2002 142 72.4002 144.1C79.0002 146.7 94.3002 149.4 101.7 150.4C105.2 150.6 119.5 152.1 119.5 152.1Z" fill="#ECECEC"/>
<path d="M96.0008 208.2C96.0008 208.2 94.4008 205.6 96.9008 202.5C102.601 195.4 110.101 185.2 111.701 182.3C113.301 179.4 115.101 177 115.001 176C114.601 171.5 103.601 168.1 95.1008 171.8C86.6008 175.5 80.1008 180.6 80.1008 180.6C80.1008 180.6 81.6008 181.4 79.9008 187.8C78.6008 192.9 72.3008 205.5 72.3008 205.5C72.3008 205.5 77.8008 207.4 83.5008 208.2C89.1008 209.1 94.8008 208.9 96.0008 208.2Z" fill="white"/>
<path d="M47.5002 138C47.5002 138 39.6002 135 33.0002 135.9C28.1002 136.6 21.7002 139.9 21.3002 146.4C20.9002 152.9 23.5002 163.3 24.8002 167.5C26.1002 171.7 27.7002 174.3 25.4002 176.6L42.2002 189C42.2002 189 42.7002 186.9 42.9002 185.5C43.8002 180.2 43.4002 173.3 45.0002 170C48.5002 162.9 50.8002 163.3 50.8002 163.3C50.8002 163.3 52.0002 160.1 52.0002 154.5C52.2002 148.4 49.3002 139.2 47.5002 138Z" fill="white"/>
<path d="M42.3007 188.5C42.3007 188.5 28.1007 178.1 26.2007 176.9C25.7007 176.5 19.5007 176.4 18.7007 177.1C17.2007 178.6 17.1007 179.7 18.6007 182C20.1007 184.3 33.4007 192.7 35.4007 193.6C37.4007 194.6 39.0007 195.7 40.6007 193.3C42.2007 190.9 42.3007 188.5 42.3007 188.5Z" fill="#D3D3D3"/>
<path d="M72.7003 205.3C72.7003 205.3 77.2003 207.1 83.3003 207.7C89.4003 208.3 95.4003 208.3 95.4003 208.3C95.4003 208.3 100.9 212.5 99.8003 215.3C98.8003 217.7 91.1003 217.4 86.1003 217.4C81.7003 217.4 75.2003 217.6 72.8003 214.9C70.6003 212.1 72.7003 205.3 72.7003 205.3Z" fill="#D3D3D3"/>
<path d="M112.101 92.1C112.101 92.1 110.201 98 116.301 99.5C122.401 100.9 134.801 113.3 138.101 113.4C145.401 113.7 160.601 111.4 162.901 107.8L170.801 119.3C170.801 119.3 159.801 121 146.901 128.9C134.001 136.8 123.401 125.1 121.501 129.6C119.101 135.3 120.001 147.5 120.001 147.5C120.001 147.5 114.401 147.4 106.801 146.5C98.001 145.5 86.701 143.7 81.001 142.3C68.101 139.2 53.401 132.9 51.201 132.2C51.201 132.2 53.801 126.3 44.101 120.3C29.701 111.4 16.801 96.6 15.301 95.2C13.801 93.8 27.401 83 28.201 83C29.001 83 38.801 97.3 48.701 97.3C58.601 97.3 58.401 88.9 58.401 88.9C58.401 88.9 65.401 94.5 73.701 98C82.001 101.5 85.801 103.7 98.001 100.2C110.201 96.7 112.101 92.1 112.101 92.1Z" fill="#E6ECEC"/>
<path d="M121.101 148.6H120.001C119.901 148.6 114.301 148.4 106.801 147.6C97.7008 146.6 86.5008 144.7 80.8008 143.3C70.8008 140.9 59.6008 136.5 54.2008 134.4C52.6008 133.8 51.4008 133.3 50.9008 133.2L49.8008 132.9L50.3008 131.9C50.4008 131.7 52.4008 126.7 43.6008 121.3C31.2008 113.4 19.7008 101.2 16.0008 97.2C15.4008 96.5 14.9008 96.1 14.7008 95.9C14.5008 95.7 14.0008 95.1 14.4008 94.1C15.5008 91.4 26.7008 82 28.3008 82C28.9008 82 29.2008 82.3 30.7008 84.1C33.9008 87.8 41.5008 96.4 48.7008 96.4C51.6008 96.4 53.8008 95.6 55.3008 94.1C57.4008 91.9 57.4008 89 57.4008 89V86.9L59.1008 88.2C59.2008 88.3 66.1008 93.7 74.2008 97.2L75.5008 97.8C82.9008 101 86.6008 102.6 97.8008 99.3C109.101 95.9 111.201 91.8 111.201 91.8L113.101 92.5C113.101 92.5 112.401 94.8 113.401 96.5C114.001 97.5 115.001 98.2 116.501 98.6C123.001 100.1 134.001 111.2 136.901 112C144.801 114.2 159.601 110.8 161.801 107.4L162.401 106.5L171.901 119.8C171.901 119.8 161.701 121.1 148.701 129.1C135.801 137 124.401 127.5 122.501 130.2C119.101 135.1 121.001 147.6 121.101 147.7V148.6ZM52.5008 131.5C53.1008 131.7 54.0008 132.1 55.0008 132.5C60.3008 134.6 71.5008 138.9 81.3008 141.3C86.9008 142.7 98.0008 144.5 107.001 145.5C112.501 146.1 117.001 146.4 119.001 146.5C118.901 143.3 118.701 134.1 120.601 129.2C123.001 123.3 134.501 135.5 147.801 127.4C158.601 120.8 165.301 119.8 169.301 118.9L162.401 109C159.201 113 143.701 115.7 136.901 114C131.301 112.6 123.101 102.1 115.901 100.4C113.801 99.9 112.301 98.9 111.501 97.4C111.101 96.6 110.801 95.8 110.701 95C108.701 96.7 105.001 99.1 98.2008 101.1C86.4008 104.6 82.2008 102.8 74.6008 99.5L73.3008 98.9C67.0008 96.2 61.6008 92.5 59.2008 90.7C58.9008 92 58.3008 93.9 56.8008 95.4C54.9008 97.3 52.2008 98.3 48.7008 98.3C40.5008 98.3 32.6008 89.2 29.2008 85.3C28.8008 84.9 28.4008 84.4 28.1008 84.1C25.7008 85.6 17.2008 92.6 16.3008 94.6C16.6008 94.9 16.9008 95.3 17.4008 95.8C21.1008 99.8 32.5008 111.8 44.7008 119.4C52.7008 124.4 52.9008 129.4 52.5008 131.5Z" fill="black"/>
<path d="M49.5 135.4C49.5 135.4 66.3 142.5 76.2 145.4C86.1 148.3 114.1 152.6 120.2 152.6C121.7 152.6 116.4 175.6 115.6 176.3C114.8 177 112.6 170.6 104.2 170.6C95.7 170.6 86 174.2 80.7 180.6C80.7 180.6 78.4 179.2 70.1 175.6C61.7 172 60.2 166.3 57.2 164.1C54.2 161.9 50.1 163.1 50.1 163.1C50.1 163.1 51.8 156.9 51.8 152.6C51.8 148.3 47.5 137.4 47.5 137.4L49.5 135.4Z" fill="#E6ECEC"/>
<path d="M80.9004 181.9L80.2004 181.4C80.2004 181.4 77.8004 179.9 69.7004 176.5C63.8004 174 61.2004 170.4 59.2004 167.8C58.3004 166.6 57.5004 165.5 56.6004 164.9C54.0004 163 50.4004 164.1 50.4004 164.1L48.7004 164.6L49.2004 162.9C49.2004 162.8 50.9004 156.8 50.9004 152.7C50.9004 148.6 46.7004 138 46.6004 137.9L46.4004 137.3L49.3004 134.4L49.9004 134.7C50.1004 134.8 66.8004 141.9 76.5004 144.7C86.5004 147.6 114.5 151.8 120.2 151.8C120.6 151.8 121.1 152 121.3 152.6C122.2 154.9 117.4 176.2 116.3 177.2C116.1 177.4 115.8 177.5 115.4 177.5C114.8 177.5 114.3 177 113.7 176.3C112.3 174.7 109.7 171.8 104.2 171.8C95.4004 171.8 86.2004 175.7 81.5004 181.5L80.9004 181.9ZM52.7004 161.8C54.2004 161.8 56.1004 162.1 57.7004 163.3C58.8004 164.1 59.7004 165.3 60.7004 166.6C62.6004 169.2 65.0004 172.3 70.4004 174.6C76.3004 177.1 79.2004 178.6 80.4004 179.3C85.6004 173.4 95.1004 169.5 104.1 169.5C110.4 169.5 113.5 173 115 174.7C116.3 170.6 119.3 156.7 119.3 153.6C111.6 153.3 85.1004 149.1 75.7004 146.4C67.0004 143.9 52.7004 137.9 49.6004 136.6L48.6004 137.6C49.5004 140 52.8004 148.7 52.8004 152.6C52.8004 155.7 51.9004 159.7 51.4004 161.9C51.9004 161.8 52.3004 161.8 52.7004 161.8Z" fill="black"/>
<path d="M70.1005 139.8C69.9005 139.8 69.6005 139.7 69.4005 139.6C69.0005 139.2 68.9005 138.6 69.3005 138.2C69.4005 138.1 82.2005 123.3 88.2005 116.2C94.1005 109.2 100.201 99.2 100.201 99.1C100.501 98.6 101.101 98.5 101.601 98.8C102.101 99.1 102.201 99.7 101.901 100.2C101.801 100.3 95.7005 110.4 89.7005 117.5C83.7005 124.6 70.9005 139.4 70.8005 139.6C70.7005 139.7 70.4005 139.8 70.1005 139.8Z" fill="black"/>
<path d="M84.5003 122.8C84.2003 122.8 83.8003 122.6 83.7003 122.3C81.4003 118.7 72.6003 99.3 72.3003 98.5C72.1003 98 72.3003 97.4 72.8003 97.2C73.3003 97 73.9003 97.2 74.1003 97.7C74.2003 97.9 83.2003 117.8 85.4003 121.3C85.7003 121.8 85.6003 122.4 85.1003 122.7C84.9003 122.7 84.7003 122.8 84.5003 122.8Z" fill="black"/>
<path d="M120.501 147.4L139.501 157.5L131.901 163.2L120.501 147.4Z" fill="#ECECEC"/>
<path d="M131.901 164.2H131.801C131.501 164.2 131.301 164 131.101 163.8L119.701 148C119.401 147.6 119.501 147.1 119.801 146.8C120.101 146.5 120.601 146.4 121.001 146.6L140.001 156.6C140.301 156.8 140.501 157.1 140.501 157.4C140.501 157.7 140.401 158.1 140.101 158.3L132.501 164C132.401 164.1 132.101 164.2 131.901 164.2ZM123.901 150.3L132.201 161.8L137.701 157.6L123.901 150.3Z" fill="black"/>
<path d="M121.4 149.6L136.5 171.1L125.1 176.1L121.4 149.6Z" fill="#ECECEC"/>
<path d="M125.1 177.1C124.9 177.1 124.8 177.1 124.6 177C124.3 176.8 124.1 176.6 124.1 176.3L120.4 149.8C120.3 149.3 120.6 148.9 121 148.7C121.4 148.5 121.9 148.7 122.2 149.1L137.2 170.6C137.4 170.8 137.4 171.2 137.3 171.4C137.2 171.7 137 171.9 136.7 172L125.3 177C125.4 177.1 125.2 177.1 125.1 177.1ZM123 153.6L125.9 174.7L135 170.7L123 153.6Z" fill="black"/>
<path d="M37.6001 195.7C37.1001 195.7 36.6001 195.6 36.1001 195.5C33.4001 194.6 20.7001 185.5 18.8001 183.9C16.8001 182.1 16.0001 179.7 16.6001 178C16.9001 177.2 17.8001 175.9 20.5001 175.9C22.6001 175.9 24.9001 175.8 25.5001 174.8C25.9001 174.3 25.8001 173.3 25.4001 172L25.2001 171.5C23.4001 166.3 20.0001 156.6 20.0001 150.4C20.0001 142.9 22.9001 137.9 28.4001 135.9C34.7001 133.6 44.6001 135.8 47.5001 136.7C48.0001 136.9 48.3001 137.4 48.2001 138C48.0001 138.5 47.5001 138.8 46.9001 138.7C44.6001 138 34.9001 135.7 29.0001 137.8C24.3001 139.5 21.9001 143.7 21.9001 150.4C21.9001 156.3 25.4001 166.1 27.0001 170.9L27.2001 171.4C27.9001 173.4 27.9001 174.9 27.1001 176C25.8001 177.8 23.1001 177.9 20.4001 177.9C19.6001 177.9 18.7001 178 18.4001 178.7C18.1001 179.5 18.6001 181 20.1001 182.4C21.9001 184.1 34.3001 192.9 36.6001 193.6C37.4001 193.9 38.2001 193.8 38.9001 193.4C40.0001 192.8 40.7001 191.5 41.1001 189.6C41.9001 185.7 42.9001 179.2 42.9001 173.8C42.9001 170.5 44.5001 166.7 46.7001 164.6C49.0001 162.5 52.2001 161.9 52.3001 161.9C52.8001 161.8 53.4001 162.2 53.4001 162.7C53.4001 163.2 53.1001 163.8 52.6001 163.8C52.5001 163.8 49.9001 164.3 48.0001 166C46.2001 167.7 44.8001 171 44.8001 173.7C44.8001 179.3 43.8001 186 43.0001 190C42.4001 193 40.9001 194.4 39.8001 195.1C39.3001 195.4 38.5001 195.7 37.6001 195.7Z" fill="black"/>
<path d="M42.3004 189.3C42.1004 189.3 42.0004 189.3 41.8004 189.2C41.6004 189.1 36.2004 186.2 32.8004 183.8C29.4004 181.4 24.9004 177.1 24.7004 176.9C24.3004 176.5 24.3004 175.9 24.7004 175.5C25.1004 175.1 25.7004 175.1 26.1004 175.5C26.1004 175.5 30.7004 179.9 34.0004 182.2C37.2004 184.5 42.7004 187.5 42.8004 187.5C43.3004 187.8 43.5004 188.4 43.2004 188.9C43.0004 189.1 42.7004 189.3 42.3004 189.3Z" fill="black"/>
<path d="M86.6998 218.4C80.8998 218.4 75.2998 218 73.4998 216.6C70.3998 214.1 70.6998 208.5 71.9998 204C72.8998 201.2 74.2998 198.7 75.5998 196.2C76.3998 194.7 77.2998 193.2 77.9998 191.5C80.9998 185 79.6998 180.9 79.5998 180.9C79.3998 180.4 79.6998 179.8 80.1998 179.6C80.6998 179.4 81.2998 179.7 81.4998 180.2C81.5998 180.4 83.0999 185.1 79.7999 192.3C78.9999 194 78.0999 195.6 77.2999 197.1C75.8999 199.6 74.5999 201.9 73.7999 204.5C72.6999 208.1 72.1998 213 74.5998 214.9C76.1998 216.2 84.6998 216.6 96.0998 216C97.3998 215.9 98.5998 215.3 98.9998 214.4C99.1998 213.9 99.1999 213.4 98.7999 212.9C98.3999 212.3 97.7998 211.8 97.0998 211.2C95.4998 209.7 93.3998 207.8 94.8998 204.7C96.0998 202 98.9998 198.2 101.7 194.5C102.7 193.2 103.6 191.9 104.4 190.8C107.5 186.4 114.5 175.9 114.5 175.8C114.8 175.3 115.4 175.2 115.9 175.5C116.4 175.8 116.5 176.4 116.2 176.9C116.1 177 109.2 187.6 106 192C105.2 193.2 104.2 194.5 103.2 195.8C100.5 199.4 97.7998 203.2 96.5998 205.6C95.7998 207.4 96.5998 208.3 98.2999 209.8C98.9999 210.4 99.6998 211.1 100.2 211.8C101 212.9 101.1 214.2 100.6 215.3C99.8998 216.9 98.0998 217.9 95.9998 218C93.5998 218.2 90.0998 218.4 86.6998 218.4Z" fill="black"/>
<path d="M88.0998 209.2C85.4998 209.2 82.3998 209 79.2998 208.1C74.3998 206.7 72.3998 206.2 72.3998 206.2C71.8998 206.1 71.5998 205.5 71.6998 205C71.7998 204.5 72.3998 204.1 72.8998 204.3C72.8998 204.3 74.8998 204.8 79.7998 206.2C84.8998 207.6 89.8998 207.2 92.9998 207C93.8998 206.9 94.5998 206.9 95.0998 206.9C95.6998 206.9 96.0998 207.3 96.0998 207.9C96.0998 208.5 95.6998 208.9 95.0998 208.9C94.5998 208.9 93.8998 209 93.0998 209C91.7998 209.1 90.0998 209.2 88.0998 209.2Z" fill="black"/>
<path d="M49.3 136.6C49 136.6 48.7 136.5 48.5 136.2C48.2 135.8 48.2 135.2 48.6 134.8C48.6 134.8 49.4 134 50.3 131.8C50.5 131.3 51.1 131 51.6 131.2C52.1 131.4 52.4 132 52.2 132.5C51.1 135.3 50.1 136.2 50 136.3C49.8 136.5 49.5 136.6 49.3 136.6Z" fill="black"/>
<path d="M120.6 153.9C120.2 153.9 119.8 153.7 119.7 153.2C119 151.3 119 147.7 119.1 147.3C119.1 146.7 119.6 146.3 120.1 146.3C120.7 146.3 121.1 146.8 121.1 147.3C121.1 148.3 121.1 151.2 121.6 152.5C121.8 153 121.5 153.6 121 153.8C120.9 153.9 120.8 153.9 120.6 153.9Z" fill="black"/>
<path d="M84.1007 28.4C82.3007 25.7 80.4007 25.6 77.5007 26.6C72.5007 28.4 67.6007 33.6 63.6007 31.7C59.6007 29.8 75.3007 10.6 70.4007 7.1C56.1007 -3 46.2007 18.9 44.2007 26.1C42.5007 32.4 41.6007 46 42.2007 55.2C42.9007 65.8 47.1007 74 50.3007 78.9C54.3007 85.1 60.9007 92.7 65.8007 95.5C71.5007 98.8 76.8007 101.7 84.5007 102H88.9007C96.6007 101.6 101.901 98.8 107.601 95.5C112.501 92.7 119.101 85.1 123.101 78.9C126.301 74 130.501 65.8 131.201 55.2C131.801 46.1 130.901 32.4 129.201 26.1C127.201 18.9 117.301 -3 103.001 7.1C98.1007 10.6 113.801 29.8 109.801 31.7C105.801 33.6 100.901 28.4 95.9007 26.6C93.0007 25.6 91.1007 25.7 89.3007 28.4C89.1007 28.8 88.2007 29.8 86.7007 29.8C85.1007 29.9 84.3007 28.8 84.1007 28.4Z" fill="white"/>
<path d="M84.5007 103.1C76.6007 102.7 71.1007 99.9 65.3007 96.4C60.1007 93.4 53.4007 85.6 49.5007 79.4C44.6007 71.8 41.8007 63.7 41.2007 55.2C40.6007 45.9 41.5007 32.1 43.2007 25.8C44.5007 21.3 50.1007 7.5 59.2007 4.2C63.1007 2.8 67.1007 3.5 71.0007 6.3C74.4007 8.7 70.9007 15.3 67.6007 21.7C65.8007 25.2 63.6007 29.5 64.0007 30.7C66.2007 31.8 68.9007 30.1 71.9007 28.4C73.6007 27.4 75.4007 26.3 77.2007 25.7C80.3007 24.6 82.8007 24.6 85.0007 27.9C85.5007 28.6 86.0007 29 86.7007 28.9C87.9007 28.9 88.5007 28 88.5007 27.9C90.8007 24.4 93.6007 24.7 96.3007 25.7C98.1007 26.3 99.9007 27.4 101.601 28.4C104.501 30.2 107.301 31.8 109.401 30.8C109.901 29.5 107.601 25.2 105.801 21.7C102.501 15.3 99.1007 8.7 102.401 6.3C106.401 3.5 110.301 2.8 114.201 4.2C123.301 7.5 128.901 21.3 130.101 25.8C131.801 32.1 132.801 45.9 132.101 55.2C131.501 63.6 128.701 71.8 123.801 79.4C119.801 85.5 113.101 93.4 108.001 96.4C102.201 99.8 96.7007 102.7 88.8007 103.1H84.5007ZM63.0007 5.6C61.9007 5.6 60.8007 5.8 59.8007 6.2C52.1007 9 46.6007 21.1 45.1007 26.5C43.4007 32.7 42.5007 46.1 43.1007 55.3C43.7007 63.4 46.3007 71.2 51.1007 78.5C54.8007 84.3 61.4007 92 66.3007 94.8C72.1007 98.2 77.1007 100.8 84.6007 101.2H88.9007C96.3007 100.8 101.301 98.2 107.101 94.8C111.901 92 118.501 84.3 122.301 78.5C127.001 71.2 129.701 63.4 130.301 55.3C130.901 46.1 130.001 32.7 128.301 26.5C126.801 21.1 121.301 9 113.601 6.2C110.401 5 107.001 5.7 103.601 8C101.701 9.4 105.201 16.3 107.601 20.8C110.301 26.1 112.001 29.4 111.301 31.4C111.101 32 110.701 32.4 110.201 32.6C107.101 34.1 103.801 32.1 100.501 30.1C98.9007 29.1 97.2007 28.1 95.6007 27.5C92.8007 26.5 91.5007 26.9 90.2007 28.9C89.8007 29.6 88.6007 30.7 86.8007 30.7C85.4007 30.7 84.2007 30.1 83.3007 28.8C81.9007 26.7 80.7007 26.4 77.9007 27.4C76.3007 28 74.6007 29 73.0007 30C69.7007 31.9 66.4007 34 63.3007 32.5C62.8007 32.3 62.4007 31.8 62.2007 31.3C61.5007 29.4 63.2007 26 65.9007 20.7C68.3007 16.1 71.8007 9.2 69.9007 7.9C67.5007 6.4 65.3007 5.6 63.0007 5.6Z" fill="black"/>
<path d="M48.4 45.7C48.4 45.7 47.5 39.1 49.8 31.4C52.6 22.1 56.9 17.6 59.8 15.7C63.3 13.3 67.9 12.1 67.9 14.8C67.8 17.2 67.2 18.6 66.2 20.4C64 24.4 62 28.9 62.3 30.9C62.4 31.9 63.2 32.7 64.3 32.9C65.3 33.1 66.8 33 68.1 32.5C70.2 31.6 72.3 30.3 74.4 29.1C76.7 27.8 79 26.6 81.2 27C82.5 27.2 83.3 28.6 84.4 29.9C85.1 30.7 86.2 30.9 86.8 30.8C88 30.7 89.1 30.2 89.8 29.4C91 27.9 92.1 26.4 94.4 27.1C97.1 27.9 98.1 28.4 101.7 30.5C103.4 31.5 104.9 32.3 106.1 32.7C109.2 33.7 110.6 32.6 111.1 31.6C112.1 29.5 109.4 24.3 106.9 19.6C104.4 14.9 105.7 13.6 107.7 13.5C112.5 13.3 120.2 18.7 122.6 30C123.8 36 124.6 38.3 124.5 44.8L130.5 53.8C130.5 53.8 130.2 57.9 129.8 60C129.2 63.1 128 66.7 128 66.7C128 66.7 121.9 58 119.8 55.9C117.8 53.8 113 50.1 107.9 47C104.1 44.7 98.7 42.8 94.9 43.6C90.7 44.5 89.7 49.2 87.1 50.3C83.5 51.8 82.6 47.6 78.7 45C73.6 41.4 60.4 48.9 54.5 54.8C47.1 62.2 45.1 65.9 45.1 65.9C45.1 65.9 44.2 62.9 43.9 61.1C43.2 57.5 43 53.1 43 53.1L48.4 45.7Z" fill="#DDDDDD"/>
<path d="M42.1006 55.4C41.9006 55.4 41.7006 55.4 41.6006 55.3C41.1006 55 41.0006 54.4 41.3006 53.9C41.6006 53.5 47.6006 43.4 55.2006 37.3C61.1006 32.5 65.7006 31.2 65.8006 31.1C66.3006 30.9 66.9006 31.3 67.0006 31.8C67.2006 32.3 66.8006 32.9 66.3006 33C66.3006 33 61.9006 34.3 56.3006 38.8C49.0006 44.7 42.9006 54.8 42.8006 54.9C42.8006 55.2 42.5006 55.4 42.1006 55.4Z" fill="black"/>
<path d="M131.201 55.2C130.901 55.2 130.501 55 130.301 54.7C130.201 54.6 124.601 45 117.301 39.1C111.701 34.6 106.201 32.6 106.201 32.6C105.701 32.4 105.901 32.3 106.101 31.7C106.301 31.2 106.801 30.9 107.401 31.1C107.601 31.2 112.701 32.8 118.701 37.6C126.301 43.7 131.701 53 131.901 53.5C132.201 54 132.301 54.9 131.801 55.2C131.601 55.2 131.401 55.2 131.201 55.2Z" fill="black"/>
<path d="M44.5 67C44.5 67 49 60.9 52.7 57.2C55.6 54.3 60.3 50.5 61.4 49.8C66.7 46.3 70.8 44.8 73.4 44C75.5 43.4 77.8 43 79.4 44.1C80.9 45.1 82.4 47.5 83.7 48.7C86.2 51.2 87.4 49.9 89.5 47.7C90.3 46.9 91.5 44.6 93.4 44C95.8 43.2 99.2 43.5 101.5 44.5C107.9 47 114.3 51 119.6 56.3C124.3 61.1 128.2 68.3 128.2 68.3C128.2 68.3 127.2 71.3 126.3 73.1C124.6 76.6 121 82.7 116.3 87.7C114 90.4 111.3 92.9 108.7 94.9C106.4 96.6 103.6 97.8 103.6 97.8C103.6 97.8 102.6 88.5 100.9 81C99.7 75.8 97.1 70.9 93.6 69.4C85.1 65.8 78.9 69.5 75.9 74.5C73.5 78.7 70.7 96.3 70.7 98.1C70.7 98.1 63.5 94.1 60.7 91.3C55.5 86.2 52.3 82 50.6 79.4C49.5 77.7 47.6 74.4 46.9 72.8C45.5 70.1 44.5 67 44.5 67Z" fill="#D3D3D3"/>
<path d="M71.7004 99.8L70.2004 99C69.9004 98.8 62.8004 94.9 60.0004 92C54.3004 86.4 51.2004 82.1 49.8004 79.9C48.7004 78.2 46.8004 74.9 46.0004 73.2C44.6004 70.5 43.6004 67.4 43.6004 67.3L43.4004 66.8L43.7004 66.4C43.9004 66.1 48.3004 60.2 52.0004 56.5C54.8004 53.7 59.6004 49.8 60.9004 49C66.3004 45.4 70.5004 43.9 73.1004 43.1C75.3004 42.5 78.0004 42 80.0004 43.3C81.0004 44 81.9004 45.1 82.8004 46.2C83.4004 46.9 83.9004 47.5 84.4004 48C85.1004 48.7 85.7004 49.1 86.2004 49.1C86.9004 49.1 87.7004 48.2 88.8004 47.1C89.0004 46.9 89.3004 46.6 89.5004 46.2C90.3004 45.1 91.5004 43.6 93.2004 43.1C95.7004 42.3 99.3004 42.5 102 43.6C108.9 46.3 115.2 50.4 120.4 55.6C125.2 60.5 129 67.6 129.2 67.9L129.4 68.3L129.3 68.7C129.3 68.8 128.3 71.8 127.3 73.7C125.4 77.7 121.6 83.8 117.1 88.5C114.9 91.1 112.1 93.7 109.4 95.8C107 97.6 104.2 98.8 104.1 98.8L102.8 99.3L102.7 97.9C102.7 97.8 101.7 88.6 100.1 81.2C98.8004 75.7 96.3004 71.5 93.4004 70.3C83.3004 66 78.3004 72.8 77.0004 75C74.8004 78.8 71.9004 96 71.9004 98V99.8H71.7004ZM45.6004 67.2C45.9004 68.2 46.7004 70.4 47.8004 72.4C48.5004 74 50.3004 77.2 51.5004 78.9C52.8004 80.9 55.9004 85.2 61.5004 90.6C63.5004 92.6 67.8004 95.2 69.9004 96.5C70.5004 91.5 72.9004 77.9 75.1004 74.1C78.2004 68.9 84.9004 64.7 94.1004 68.6C97.6004 70.1 100.6 74.7 102 80.9C103.3 86.7 104.2 93.5 104.5 96.4C105.5 95.9 106.9 95.1 108.2 94.2C110.8 92.2 113.5 89.6 115.6 87.1C120 82.5 123.6 76.7 125.5 72.7C126.2 71.3 127 69.3 127.3 68.4C126.4 66.9 123 61 119.1 57C114.1 52 108 48 101.3 45.4C99.1004 44.4 95.9004 44.2 93.9004 44.9C92.8004 45.2 91.9004 46.4 91.2004 47.3C90.9004 47.7 90.6004 48.1 90.4004 48.3C89.0004 49.8 87.9004 50.9 86.4004 51C85.4004 51 84.4004 50.5 83.2004 49.3C82.7004 48.8 82.1004 48.1 81.5004 47.3C80.7004 46.3 79.9004 45.3 79.1004 44.8C77.8004 43.9 75.6004 44.3 73.9004 44.8C71.4004 45.6 67.4004 47 62.2004 50.5C61.2004 51.2 56.5004 54.9 53.7004 57.8C50.4004 61 46.7004 65.7 45.6004 67.2Z" fill="black"/>
<path d="M79.2008 72L77.8008 70.8C78.0008 70.6 83.1008 65 83.0008 57.7C82.9008 53 79.8008 45.4 79.8008 45.4L81.9008 45.3C82.0008 45.6 84.9008 52.5 85.0008 57.7C85.1008 65.7 79.8008 71.4 79.2008 72Z" fill="black"/>
<path d="M94.0008 71.4C93.8008 71.2 88.6008 66 88.5008 57.6C88.4008 52.5 91.1008 44.6 91.2008 44.3L93.1008 44.9C93.1008 45 90.4008 52.8 90.5008 57.6C90.6008 65.2 95.2008 69.8 95.4008 70L94.0008 71.4Z" fill="black"/>
<path d="M85.7001 92.5C84.9001 92.5 84.1001 92.3 83.2001 92C80.5001 90.9 79.5001 87.8 79.5001 87.6C79.3001 87.1 79.6001 86.5 80.1001 86.3C80.6001 86.1 81.2001 86.4 81.4001 86.9C81.4001 86.9 82.2001 89.3 84.0001 90C85.9001 90.8 87.5001 90.3 88.7001 88.7C89.0001 88.3 89.6001 88.2 90.1001 88.5C90.5001 88.8 90.6002 89.4 90.3001 89.9C89.1002 91.7 87.5001 92.5 85.7001 92.5Z" fill="black"/>
<path d="M71.9997 69.8C74.4996 68 77.6997 65.3 78.7997 62.9C79.7997 60.4 79.2997 57 77.7997 55.5C76.2997 54 70.9996 50.3 63.9996 54.6C58.0996 58.2 57.1997 67.1 59.1997 71.2C60.6997 74.4 63.5996 75.6 65.1996 75C67.1996 74.4 68.9997 72 71.9997 69.8Z" fill="white"/>
<path d="M64.4001 76.1C62.3001 76.1 59.7001 74.6 58.3001 71.6C56.1001 67.1 57.1001 57.7 63.5001 53.7C70.5001 49.4 76.4001 52.5 78.6001 54.8C80.4001 56.7 80.9001 60.5 79.7001 63.2C78.8001 65.3 76.4001 67.8 72.6001 70.6C71.4001 71.5 70.4001 72.4 69.5001 73.2C68.1001 74.4 66.9001 75.5 65.6001 75.9C65.2001 76 64.8001 76.1 64.4001 76.1ZM70.6001 53.6C68.9001 53.6 66.8001 54.1 64.6001 55.5C59.0001 59 58.5001 67.4 60.1001 70.8C61.4001 73.5 63.8001 74.5 64.9001 74.1C65.8001 73.8 66.8001 72.9 68.1001 71.8C69.0001 71 70.1001 70 71.4001 69.1C74.9001 66.6 77.1001 64.4 77.8001 62.6C78.7001 60.4 78.1001 57.4 77.0001 56.3C77.1001 56.1 74.6001 53.6 70.6001 53.6Z" fill="black"/>
<path d="M69.3 67C71.3987 67 73.1 65.2987 73.1 63.2C73.1 61.1013 71.3987 59.4 69.3 59.4C67.2013 59.4 65.5 61.1013 65.5 63.2C65.5 65.2987 67.2013 67 69.3 67Z" fill="black"/>
<path d="M79.0996 71.2C79.0996 71.2 80.9996 75.4 86.6996 75.5C92.9996 75.5 94.2996 71 94.2996 71C94.2996 71 91.6996 68.8 86.8996 68.6C82.8996 68.4 79.0996 71.2 79.0996 71.2Z" fill="#E6ECEC"/>
<path d="M86.7 76.4C80.4 76.4 78.2 71.7 78.1 71.5C77.9 71.1 78 70.6 78.4 70.3C78.6 70.2 82.5 67.3 86.8 67.5C91.9 67.7 94.7 70 94.8 70.1C95.1 70.4 95.2 70.8 95.1 71.2C95.2 71.4 93.7 76.4 86.7 76.4ZM80.4 71.5C81.2 72.6 83 74.4 86.7 74.4C90.8 74.4 92.4 72.3 93.1 71.3C92.1 70.7 90 69.7 86.9 69.6C84.2 69.4 81.7 70.7 80.4 71.5Z" fill="black"/>
<path d="M101.601 69.5C99.1005 67.7 95.9005 65 94.8005 62.6C93.8005 60.1 94.3005 56.7 95.8005 55.2C97.2005 53.7 102.601 50 109.601 54.3C115.501 57.9 116.401 66.8 114.401 70.9C112.901 74.1 110.001 75.3 108.401 74.7C106.401 74.1 104.601 71.7 101.601 69.5Z" fill="white"/>
<path d="M109.201 75.9C108.801 75.9 108.401 75.8 108.101 75.7C106.701 75.3 105.501 74.2 104.201 73C103.301 72.2 102.301 71.3 101.101 70.4C97.3006 67.7 94.9006 65.2 94.0006 63C92.9006 60.3 93.4006 56.4 95.1006 54.6C97.3006 52.3 103.201 49.2 110.201 53.5C116.601 57.5 117.601 66.9 115.401 71.4C113.801 74.4 111.301 75.9 109.201 75.9ZM102.101 68.7C103.401 69.6 104.501 70.6 105.401 71.4C106.701 72.5 107.701 73.4 108.601 73.7C109.801 74.1 112.101 73.1 113.401 70.4C115.001 67 114.601 58.6 108.901 55.1C101.501 50.5 96.4006 55.8 96.3006 55.8C95.2006 56.9 94.6006 59.9 95.5006 62.1C96.4006 64 98.7006 66.2 102.101 68.7Z" fill="black"/>
<path d="M104.3 66.7C106.399 66.7 108.1 64.9987 108.1 62.9C108.1 60.8013 106.399 59.1 104.3 59.1C102.201 59.1 100.5 60.8013 100.5 62.9C100.5 64.9987 102.201 66.7 104.3 66.7Z" fill="black"/>
<path d="M149.701 183.3C177.646 183.3 200.301 160.646 200.301 132.7C200.301 104.754 177.646 82.1 149.701 82.1C121.755 82.1 99.1006 104.754 99.1006 132.7C99.1006 160.646 121.755 183.3 149.701 183.3Z" fill="#99CCCC"/>
<path d="M149.701 184.3C121.201 184.3 98.1006 161.1 98.1006 132.7C98.1006 104.3 121.301 81.1 149.701 81.1C178.201 81.1 201.301 104.3 201.301 132.7C201.301 161.1 178.201 184.3 149.701 184.3ZM149.701 83C122.301 83 100.101 105.3 100.101 132.6C100.101 159.9 122.401 182.2 149.701 182.2C177.001 182.2 199.301 159.9 199.301 132.6C199.301 105.3 177.101 83 149.701 83Z" fill="black"/>
<path d="M149.701 174.8C172.952 174.8 191.801 155.951 191.801 132.7C191.801 109.449 172.952 90.6 149.701 90.6C126.449 90.6 107.601 109.449 107.601 132.7C107.601 155.951 126.449 174.8 149.701 174.8Z" fill="#729693"/>
<path d="M149.701 175.8C125.901 175.8 106.601 156.4 106.601 132.7C106.601 109 126.001 89.6 149.701 89.6C173.401 89.6 192.801 109 192.801 132.7C192.801 156.4 173.501 175.8 149.701 175.8ZM149.701 91.5C127.001 91.5 108.601 110 108.601 132.6C108.601 155.2 127.101 173.7 149.701 173.7C172.301 173.7 190.801 155.2 190.801 132.6C190.801 110 172.401 91.5 149.701 91.5Z" fill="black"/>
<path d="M150.6 112C150.6 112 151.7 114.6 149.9 116.1C148.1 117.6 144.9 117.2 144.5 114.3C144.1 111.3 146.4 108.9 148.5 108.4C151.4 107.8 153.3 108.9 154.3 109.8C155.5 110.8 157 113 156.7 116.7C156.5 120.4 154.6 122.6 152.4 123.9C150.2 125.2 146.1 125.3 144.8 124.9C143.4 124.5 140.5 122.8 139.1 121C137.7 119.2 136 115.8 136.3 112.1C136.8 106.5 140.1 103 142.9 101.5C145.7 100 152.3 99.6 155.9 101.3C159 102.8 161.4 104.5 163.3 108.7C165.2 112.9 165 115.8 164.8 117.3C164.6 119.5 163.6 123.2 162 125.4C160.4 127.6 157 129.9 153.8 130.8C151.5 131.4 146.6 131.2 145.3 131.1C142.8 131 141 130.7 141 130.7L142 127.9C142 127.9 149.4 129.6 155 127C159.2 125 161.8 119.5 161.4 116C160.7 109.4 158.8 107.7 156.6 105.9C153.7 103.5 148.3 103.6 145.9 104.3C143.6 105 140.9 106.4 139.8 112.5C139 116.8 143.6 121.4 147.3 121.3C151.2 121.1 153.6 119.2 153.4 116.1C153.3 112.8 150.6 112 150.6 112Z" fill="#99CCCC"/>
<path d="M131.601 142.6C131.601 142.6 133.701 140.7 135.701 142C137.601 143.3 138.301 146.4 135.601 147.7C132.901 149 129.901 147.6 128.801 145.7C127.301 143.1 127.801 141 128.301 139.8C128.901 138.4 130.501 136.3 134.101 135.4C137.701 134.5 140.401 135.5 142.301 137.3C144.201 139 145.601 142.8 145.601 144.2C145.601 145.7 144.901 148.9 143.701 150.8C142.501 152.7 139.701 155.3 136.101 156.2C130.601 157.5 126.501 155.8 124.001 153.2C121.101 150.1 119.301 144.3 119.801 140.9C120.301 137.5 121.201 134.6 124.601 131.5C128.001 128.4 130.901 127.7 132.301 127.4C134.401 126.9 138.301 126.7 140.901 127.6C143.501 128.4 146.801 131 148.601 133.7C149.901 135.7 151.601 140.5 151.901 141.7C152.601 144.1 152.801 145.9 152.801 145.9L150.201 145.2C150.201 145.2 148.901 138.2 144.701 133.7C141.501 130.3 135.501 129.6 132.201 131C126.201 133.7 125.101 136 124.101 138.7C122.701 142.2 124.501 147.3 125.901 149.4C127.301 151.4 130.401 153.5 135.501 152.7C139.801 152 142.801 146.4 141.501 142.8C140.101 139.1 137.501 137.5 134.701 138.6C131.501 139.9 131.601 142.6 131.601 142.6Z" fill="#99CCCC"/>
<path d="M168 144.3C168 144.3 165.2 143.8 165 141.5C164.8 139.2 166.8 136.7 169.6 138C172.3 139.3 173.1 142.6 172.2 144.6C171.1 147.4 169.1 148.3 167.8 148.6C166.3 149 163.6 149 160.7 146.8C157.8 144.6 156.9 141.8 157.1 139.2C157.3 136.6 159.4 133.2 160.5 132.3C161.6 131.3 164.6 129.9 166.9 129.7C169.2 129.5 172.9 130 175.8 132.4C180.2 135.9 181.2 140.4 180.9 143.7C180.5 148.5 176.9 153.1 173.9 154.8C170.8 156.6 167.7 157.3 163.5 156.7C159 156 156.7 154.1 155.5 153.2C153.8 151.8 151.3 148.9 150.3 146.4C149.3 143.9 149.3 139.7 150.4 136.6C151.2 134.3 153.7 130.3 154.5 129.3C156 127.3 157.6 126 157.6 126L158.8 128.5C158.8 128.5 153.7 133.5 152.8 139.6C152.1 144.2 155.3 149.4 158.4 151.1C164.2 154.2 166.7 153.5 169.5 152.8C173.1 151.8 176.3 147.7 176.8 144.8C177.2 142.8 177.8 139.5 173.4 135.2C170.2 132.1 163.9 133.4 161.9 136.6C159.9 139.9 160.2 143 162.8 144.6C165.9 146 168 144.3 168 144.3Z" fill="#99CCCC"/>
</svg>
