<svg width="221" height="313" viewBox="0 0 221 313" fill="none" xmlns="http://www.w3.org/2000/svg">
<path d="M73.5 252.2C72.2 258.7 72.1 268.8 71 276.5C70.4 280.7 64.2 279.6 59.9 278.6C57.4 278 56.2 277.8 56.2 277.8C56.2 277.8 55.2 286.3 56.6 291.9C58.1 297.9 59.8 302.7 60.4 302.4C65.4 300.3 74.4 300.5 77.8 300.8C84.6 301.5 95.7 297.4 99.6 291C102.8 285.6 106.2 275.8 109.5 275C112.8 274.1 123.6 275 128.6 275C133.6 275 138.5 273.3 140.2 275C141.9 276.7 139.3 283.5 138.4 285.2C137.6 286.9 135.2 290.2 134.3 292.8C133.8 294.4 139.9 296.2 144.1 297.1C148.2 298 160.1 299.2 160.2 296.5C160.3 293.5 161.6 287.9 162.4 285.5C164.6 278.9 173.8 268 176.3 264.1C179.6 259.2 180.4 253.9 178.5 249.3C176.9 245.3 172.7 242.2 170.3 240.8C164.4 237.1 154.3 234 154.3 234C154.3 234 124.4 241.8 110 242.3C95.6 242.8 77.6 237.9 77.6 237.9C77.6 237.9 74.6 246.1 73.5 252.2Z" fill="white"/>
<path d="M60.2 303.4C60 303.4 59.8 303.4 59.7 303.3C58.4 302.6 56.5 296 55.5 292.1C54.1 286.4 55 278 55.1 277.6L55.2 276.6L56.2 276.7C56.3 276.7 57.5 276.9 60 277.5C61.7 277.9 66.9 279.2 69 277.8C69.5 277.5 69.8 277 69.9 276.3C70.4 272.7 70.8 268.6 71.1 264.6C71.5 259.9 71.8 255.5 72.5 251.9C73.7 245.9 76.4 237.8 76.5 237.5L76.8 236.6L77.7 236.8C77.9 236.8 95.8 241.7 109.8 241.2C123.9 240.7 153.6 233 153.9 232.9L154.2 232.8L154.5 232.9C154.9 233 164.8 236.1 170.7 239.8C172.7 241 177.4 244.3 179.3 248.8C181.3 253.8 180.5 259.4 177 264.6C176.3 265.6 175.2 267 174 268.7C170.3 273.6 164.8 280.9 163.2 285.7C162.4 288.1 161.2 293.6 161.1 296.4C161.1 296.8 160.9 297.4 160.3 297.9C157.5 300.1 145.8 298.3 143.8 297.9C141.1 297.3 134.7 295.8 133.5 293.7C133.2 293.1 133.2 292.6 133.3 292.3C133.9 290.5 135.1 288.5 136.1 286.8C136.6 285.9 137.1 285.1 137.4 284.6C138.8 281.7 140.3 276.5 139.3 275.5C138.6 274.8 136.2 275.1 133.8 275.4C132.2 275.6 130.3 275.8 128.4 275.8C126.9 275.8 124.8 275.7 122.5 275.6C117.7 275.4 111.7 275.2 109.6 275.7C107.8 276.2 105.4 281.1 103.5 285.1C102.4 287.3 101.4 289.5 100.3 291.3C96.3 298 84.8 302.3 77.6 301.6C74.1 301.2 65.3 301.2 60.7 303.1C60.5 303.4 60.3 303.4 60.2 303.4ZM56.9 278.9C56.7 281.3 56.3 287.4 57.4 291.6C58.6 296.5 59.9 300 60.5 301.2C66 299.2 74.9 299.5 77.7 299.8C84.2 300.4 94.9 296.4 98.5 290.4C99.5 288.7 100.6 286.5 101.6 284.4C104 279.4 106.3 274.7 109 274C111.4 273.4 117.3 273.6 122.5 273.8C124.7 273.9 126.8 274 128.3 274C130 274 131.8 273.8 133.4 273.6C136.6 273.2 139.2 272.9 140.6 274.3C143.1 276.9 139.1 285.6 139 285.7C138.7 286.4 138.2 287.2 137.6 288.1C136.7 289.6 135.5 291.5 135 293C135.5 293.6 138.5 295 144 296.1C149.5 297.2 158.1 297.6 158.9 296.4C159 293.4 160.3 287.7 161.1 285.2C162.8 280.1 168.5 272.6 172.2 267.6C173.4 265.9 174.5 264.5 175.2 263.6C178.3 259 179.1 254 177.3 249.7C175.7 245.8 171.3 242.7 169.5 241.6C164.3 238.4 155.6 235.5 154 235C150.7 235.8 123.5 242.8 109.8 243.3C97.3 243.8 81.9 240.1 78 239.1C77.3 241.4 75.3 247.6 74.3 252.4C73.6 255.8 73.3 260.2 73 264.8C72.7 268.8 72.4 273 71.8 276.6C71.6 277.9 71 278.8 70 279.5C67.5 281.2 63 280.4 59.4 279.5C58.4 279.2 57.6 279.1 56.9 278.9Z" fill="black"/>
<path d="M160.3 296C157.7 296 150.6 297 141.9 295.1C136.2 293.9 134.2 292.5 134.2 292.5L133.8 294C132.8 297.7 132.8 302.6 135.6 304.8C139 307.6 158.6 306.7 160.9 306.6C164.1 306.5 166.6 303.7 164.9 301.3C163.9 299.9 162.2 298.9 161.2 297.6C160.9 297.2 160.3 296 160.3 296Z" fill="#EACCA0"/>
<path d="M151.7 307.8C144.5 307.8 137.1 307.3 134.9 305.6C131.8 303 131.8 297.8 132.8 293.7L133.6 290.9L134.7 291.7C134.7 291.7 136.7 293 142 294.1C148.7 295.5 154.4 295.2 157.8 295C158.8 294.9 159.6 294.9 160.2 294.9H160.8L161.1 295.4C161.3 295.9 161.8 296.7 161.9 296.9C162.3 297.5 162.9 298 163.5 298.6C164.2 299.2 165 299.9 165.5 300.7C166.4 301.9 166.5 303.3 165.9 304.6C165.1 306.3 163 307.5 160.8 307.6C158.3 307.7 155 307.8 151.7 307.8ZM134.8 294L134.7 294.3C133.9 297.6 133.7 302.1 136.1 304.1C138 305.6 147.6 306.2 160.7 305.7C162.3 305.6 163.7 304.9 164.2 303.8C164.5 303.2 164.4 302.5 164 301.9C163.6 301.3 162.9 300.7 162.3 300.2C161.6 299.6 160.9 299 160.3 298.2C160.1 298 159.9 297.4 159.6 297C159.1 297 158.6 297 158 297.1C154.5 297.3 148.6 297.6 141.6 296.1C138.2 295.3 136 294.5 134.8 294Z" fill="black"/>
<path d="M60.1 302.7C59.5 300.1 55.9 294.7 55.6 285.8C55.4 280 56.2 277.9 56.2 277.9C56.2 277.9 55 277.7 54.6 277.7C50.5 277.4 46 278.3 44.5 281.6C42.7 285.6 48.5 304.9 49.1 307.1C50 310.2 53.3 311.9 55.2 309.6C56.3 308.3 57 306.5 57.9 305.1C58.7 304 60.1 302.7 60.1 302.7Z" fill="#EACCA0"/>
<path d="M53.1 311.6C52.8 311.6 52.6 311.6 52.3 311.5C50.4 311.1 48.8 309.5 48.1 307.3C46.5 302.2 41.6 285.1 43.5 281C45 277.8 49.1 276.1 54.6 276.6C55 276.6 56.1 276.8 56.3 276.8L57.5 277L57.1 278.1C57.1 278.1 56.3 280.2 56.6 285.6C56.9 291.9 58.8 296.5 60 299.5C60.5 300.7 60.9 301.6 61.1 302.3L61.2 302.9L60.8 303.3C60.8 303.3 59.5 304.5 58.8 305.5C58.5 306 58.2 306.6 57.8 307.2C57.3 308.2 56.7 309.2 56 310.1C55.3 311.1 54.2 311.6 53.1 311.6ZM53.1 278.5C49.9 278.5 46.6 279.4 45.5 281.8C44.3 284.4 47.1 296.5 50.2 306.6C50.6 308 51.7 309.2 52.9 309.4C53.6 309.5 54.2 309.3 54.7 308.7C55.3 308 55.8 307 56.3 306.1C56.6 305.5 57 304.8 57.4 304.3C57.9 303.5 58.7 302.7 59.2 302.2C59 301.7 58.7 301 58.4 300.2C57.1 297.1 55.1 292.3 54.8 285.6C54.6 281.9 54.9 279.7 55.2 278.4C55 278.4 54.9 278.4 54.8 278.3C54 278.6 53.6 278.5 53.1 278.5Z" fill="black"/>
<path d="M191.7 190.1C191.7 190.1 202 180.6 203.5 179.6C205.3 178.5 206.9 180 206.4 181.2C205.9 182.4 203.7 183.9 203.3 186.3C202.9 189.1 204.4 189.7 206.2 189.7C208 189.7 213.4 188.5 214.9 188.8C216.6 189.2 217.8 191.2 215.2 192.2C212.6 193.2 208 192.2 207.3 193.1C206.5 194.1 214.5 193.5 216.4 194C218.6 194.6 219.2 197.4 216.7 197.9C214.2 198.4 207.4 196.5 207.3 197.6C207.2 198.7 214.1 198.5 215.2 200C216.3 201.5 215.5 203.3 211.9 203.1C208.3 202.9 205.6 201.4 205 202.1C204.4 202.8 209.6 203.8 210.9 205C212.3 206.3 211.8 208.4 208 207.8C204.3 207.2 199.4 203 196.8 202.2C194.2 201.4 192.8 201.4 192.8 201.4" fill="white"/>
<path d="M209.1 208.9C208.7 208.9 208.3 208.9 207.8 208.8C205.4 208.4 202.7 206.8 200.3 205.3C198.8 204.4 197.4 203.5 196.4 203.2C194 202.5 192.6 202.4 192.6 202.4C192 202.4 191.6 201.9 191.6 201.4C191.6 200.8 192.1 200.4 192.6 200.4C192.7 200.4 194.2 200.5 196.9 201.2C198.1 201.5 199.6 202.5 201.3 203.5C203.5 204.9 206 206.4 208 206.7C209.5 206.9 210.3 206.6 210.4 206.4C210.5 206.2 210.4 205.9 210.1 205.6C209.7 205.2 208.2 204.7 207.1 204.3C205.1 203.6 204.2 203.3 203.9 202.4C203.8 202 203.9 201.6 204.1 201.3C204.8 200.5 205.9 200.8 207.5 201.2C208.7 201.5 210.2 201.9 211.9 202C213.7 202.1 214.5 201.6 214.6 201.3C214.8 201 214.5 200.6 214.4 200.5C214 200 211.6 199.7 210.4 199.5C207.9 199.1 206.2 198.9 206.3 197.5C206.3 197.2 206.5 196.8 206.8 196.6C207.5 196 208.8 196.2 211.6 196.5C213.4 196.7 215.5 197 216.5 196.8C216.9 196.7 217.3 196.5 217.3 196.1C217.3 195.6 216.9 195 216.1 194.8C215.4 194.6 213.4 194.6 211.9 194.6C208.1 194.5 206.8 194.5 206.4 193.6C206.2 193.2 206.3 192.7 206.6 192.4C207.3 191.5 208.7 191.5 210.6 191.6C212.1 191.6 213.8 191.6 214.9 191.2C215.5 191 215.8 190.7 215.7 190.5C215.7 190.3 215.3 189.8 214.7 189.7C214 189.5 211.4 189.9 209.7 190.2C208.3 190.4 207 190.6 206.2 190.6C204.8 190.6 203.7 190.3 203 189.5C202.3 188.7 202.1 187.6 202.3 186.1C202.6 184.3 203.7 183 204.5 182C204.9 181.6 205.3 181.1 205.4 180.8C205.5 180.7 205.3 180.5 205.2 180.4C205.1 180.3 204.6 180 203.9 180.4C202.8 181.1 196.3 187 192.2 190.8C191.8 191.2 191.2 191.2 190.8 190.7C190.4 190.2 190.5 189.7 190.9 189.3C192 188.3 201.3 179.7 202.9 178.7C204.1 177.9 205.5 178 206.5 178.8C207.3 179.5 207.6 180.5 207.3 181.5C207.1 182.1 206.6 182.6 206.1 183.3C205.4 184.2 204.5 185.2 204.3 186.4C204.2 187 204.2 187.8 204.5 188.2C204.8 188.5 205.3 188.6 206.1 188.6C206.7 188.6 208 188.4 209.3 188.2C212.1 187.8 214 187.5 215.1 187.7C216.5 188 217.6 189.1 217.7 190.3C217.7 190.8 217.6 192 216 192.8C216.3 192.8 216.5 192.9 216.7 192.9C218.3 193.4 219.4 194.8 219.3 196.2C219.3 197.2 218.6 198.4 216.9 198.8C216.5 198.9 216.1 198.9 215.6 198.9C215.7 199 215.9 199.1 216 199.3C216.7 200.3 216.9 201.4 216.4 202.3C216 203 214.9 204.2 211.8 204C211.6 204 211.4 204 211.2 204C211.3 204.1 211.4 204.1 211.4 204.2C212.4 205.1 212.7 206.3 212.2 207.3C212.1 207.9 211.3 208.9 209.1 208.9Z" fill="black"/>
<path d="M106.9 177.9C106.9 177.9 99.8 182.6 92 182C84.2 181.4 76.9 176.4 73.9 174C70.9 171.6 64.5 164.8 64 163.7C63.5 162.6 47 174.9 47 174.9C47 174.9 47.9 187.2 56.6 194C65.3 200.9 77.8 200 82.5 208.8C86.3 215.9 86.2 218.1 83.4 224.3C80.6 230.5 69.9 241.3 69.9 241.3C69.9 241.3 83.7 246.3 104.1 247.3C119.6 248.1 129.1 249.2 150.6 240.2C165 234.2 167.6 232.5 167.6 232.5C167.6 232.5 155.7 227.8 154.1 223.7C152.5 219.6 151.7 212.8 156.2 208.8C160.3 205.2 166.6 205.6 172.8 205.4C182.7 205.1 191.7 205.2 191.7 205.2V187.3C191.7 187.3 184.1 186.2 177.7 185.6C171.3 185 150.6 182.2 147.4 180.7C144.2 179.2 140.8 177.5 140.8 177.5L106.9 177.9Z" fill="#E6ECEC"/>
<path d="M117.2 248.8C113.8 248.8 110.4 248.6 106.7 248.4L104.1 248.3C83.8 247.3 69.7 242.3 69.6 242.2C69.3 242.1 69 241.8 69 241.5C69 241.2 69 240.8 69.3 240.6C69.4 240.5 80 229.9 82.6 223.9C85.2 218 85.4 216.1 81.7 209.2C79.2 204.5 74 202.7 68.6 200.8C64.3 199.3 59.9 197.8 56.1 194.8C47.1 187.7 46.1 175.5 46.1 175C46.1 174.7 46.2 174.3 46.5 174.1C62.5 162.2 63.7 162.6 64.2 162.7C64.5 162.8 64.8 163.1 64.9 163.3C65.3 164.2 71.5 170.8 74.5 173.2C76.6 174.8 84 180.3 92.1 180.9C99.4 181.6 106.3 177.1 106.3 177C106.5 176.9 106.6 176.8 106.8 176.8L140.7 176.4C140.9 176.4 141 176.4 141.2 176.5C141.2 176.5 144.7 178.2 147.8 179.7C150.7 181.1 170.3 183.8 177.7 184.6C184.1 185.2 191.7 186.3 191.7 186.3C192.2 186.4 192.6 186.8 192.6 187.3V205.1C192.6 205.4 192.5 205.6 192.3 205.8C192.1 206 191.9 206.1 191.6 206.1C191.5 206.1 182.4 206 172.7 206.3C171.9 206.3 171.1 206.3 170.3 206.3C165 206.4 160 206.5 156.7 209.4C152.5 213.2 153.6 219.8 154.9 223.2C156.1 226.2 164.7 230.2 167.9 231.4C168.2 231.5 168.5 231.9 168.5 232.2C168.5 232.6 168.4 232.9 168.1 233.1C168 233.2 165.3 234.9 151 240.9C136 247.4 126.6 248.8 117.2 248.8ZM71.8 240.8C75.9 242.1 88 245.5 104.2 246.3L106.8 246.4C120.9 247.2 130.2 247.7 150.3 239.2C158.9 235.6 163.3 233.5 165.3 232.5C161.7 230.9 154.5 227.4 153.2 223.9C151.3 219.1 150.8 212.1 155.5 207.9C159.3 204.5 164.7 204.4 170.4 204.3C171.2 204.3 172 204.3 172.8 204.3C180.7 204.1 188.1 204.1 190.7 204.1V188.2C188.5 187.9 182.7 187.1 177.6 186.6C171.3 186 150.4 183.2 147 181.6C144.3 180.3 141.4 178.9 140.5 178.5L107.1 178.9C105.7 179.8 99.1 183.6 91.8 183C83.1 182.3 75.3 176.6 73.1 174.8C70.5 172.8 65 167 63.4 164.8C61.4 165.8 54.3 170.6 48 175.4C48.3 177.8 50 187.6 57.2 193.3C60.8 196.1 65 197.6 69.1 199C74.9 201 80.4 203 83.3 208.4C87.3 215.8 87.1 218.4 84.3 224.8C82.1 229.9 74.7 237.9 71.8 240.8Z" fill="black"/>
<path d="M103.5 226.9C103.5 226.9 97 232.9 92.3 235.9C85.7 240 79.2 244 79.2 244L84.9 254.7C84.9 254.7 90.9 248.1 95.5 242.9C100.6 237.1 105 228.8 105 228.8L103.5 226.9Z" fill="#DFB67C"/>
<path d="M84.9 255.6C84.5 255.6 84.2 255.4 84 255.1L78.3 244.4C78 243.9 78.2 243.4 78.7 243.1C78.8 243.1 85.2 239.1 91.8 235C96.4 232.1 102.8 226.2 102.9 226.2C103.1 226 103.4 225.9 103.6 225.9C103.9 225.9 104.1 226 104.3 226.3L105.8 228.1C106.1 228.4 106.1 228.9 105.9 229.2C105.7 229.5 101.3 237.7 96.3 243.5C91.8 248.6 85.8 255.2 85.7 255.3C85.4 255.5 85.2 255.6 84.9 255.6ZM80.5 244.3L85.1 252.9C87 250.8 91.3 246.1 94.7 242.2C98.9 237.5 102.7 230.9 103.8 228.9L103.4 228.4C101.5 230.1 96.7 234.4 92.8 236.8C87.6 240 82.4 243.1 80.5 244.3Z" fill="black"/>
<path d="M104.7 229.2C104.7 229.2 99 238.4 96.8 241.2C95.2 243.2 90 248.9 90 248.9L97 255.3C97 255.3 101.4 245.8 102.5 242.9C103.7 239.5 106.2 230.1 106.2 230.1L104.7 229.2Z" fill="#DFB67C"/>
<path d="M97 256.4C96.8 256.4 96.5 256.3 96.3 256.1L89.3 249.7C88.9 249.3 88.9 248.7 89.2 248.3C89.3 248.2 94.4 242.6 96 240.6C98.2 237.9 103.8 228.8 103.9 228.7C104 228.5 104.3 228.3 104.5 228.2C104.8 228.1 105 228.2 105.3 228.4L106.7 229.4C107 229.6 107.2 230.1 107.1 230.5C107 230.9 104.6 240 103.4 243.4C102.3 246.3 98.1 255.5 97.9 255.9C97.8 256.2 97.5 256.4 97.2 256.5C97.1 256.4 97 256.4 97 256.4ZM91.4 248.9L96.6 253.7C97.8 251 100.7 244.9 101.5 242.6C102.5 239.9 104.4 232.9 105 230.7C103.5 233.2 99.4 239.6 97.6 241.9C96.3 243.4 92.9 247.3 91.4 248.9Z" fill="black"/>
<path d="M83.5 224.3C83.5 224.3 96.1 226.5 101.2 226.8C108.8 227.3 128.1 226.5 134.9 225.5C142.4 224.4 153.7 222.4 153.7 222.4C153.7 222.4 154.1 223.6 154.4 224.1C154.6 224.4 155.5 225.5 155.5 225.5C155.5 225.5 144.8 227.9 134.3 229.4C123.8 231 107.5 231 99.7 230.4C93.1 229.9 81.3 228.1 81.3 228.1L83.5 224.3Z" fill="#DFB67C"/>
<path d="M111.3 231.7C106.6 231.7 102.4 231.6 99.5 231.4C93.1 230.9 81.3 229.1 81.2 229.1L79.8 228.9L83.1 223.2L83.8 223.3C83.9 223.3 96.4 225.5 101.3 225.8C108.5 226.2 128 225.5 134.8 224.5C142.2 223.4 153.4 221.4 153.6 221.4L154.4 221.2L154.7 222C154.9 222.5 155.2 223.3 155.3 223.5C155.4 223.7 155.9 224.3 156.3 224.8L157.3 226.1L155.7 226.4C155.6 226.4 144.9 228.8 134.4 230.4C127.7 231.4 118.8 231.7 111.3 231.7ZM82.9 227.3C86.2 227.8 94.6 229 99.6 229.4C107.2 229.9 123.4 230 134 228.4C142.1 227.2 150.3 225.5 153.6 224.8C153.5 224.7 153.5 224.6 153.4 224.5C153.3 224.3 153.1 223.9 152.9 223.5C150.2 224 141.1 225.6 134.9 226.5C127.8 227.5 108.5 228.3 101 227.8C96.6 227.5 86.6 225.9 83.9 225.4L82.9 227.3Z" fill="black"/>
<path d="M133.327 187.277L131.332 187.41L133.874 225.626L135.87 225.493L133.327 187.277Z" fill="black"/>
<path d="M37.3 151.2C37.3 151.2 42 171.7 43.1 173.8C44.3 175.9 46.9 177.9 50 176.8C52.6 175.9 54.8 173.4 54.6 171.1C54.5 169 49.3 148.6 49.3 148.6L37.3 151.2Z" fill="#99CCCC"/>
<path d="M48.1 178.1C45.6 178 43.5 176.4 42.4 174.5C41.1 172.3 36.9 153.8 36.4 151.6L36.2 150.6L50.2 147.4L50.4 148.3C51 150.4 55.8 168.9 55.8 171C55.8 173.7 53.6 176.1 50.6 177.6C49.9 177.9 48.9 178.1 48.1 178.1ZM38.6 152C40.5 159.9 43.4 171.9 44.1 173.3C45.1 175.1 47.2 176.8 49.9 175.8C52.1 175 54 172.8 53.9 171C53.9 169.6 50.9 157.8 48.8 149.6L38.6 152Z" fill="black"/>
<path d="M49.1 152.3C43.2 154.3 29.3 158.3 24.6 157C19.9 155.7 18.4 150.2 22.9 146.9C27.4 143.5 36.4 140.7 36.4 140.7C36.4 140.7 37.2 142 40.9 141.7C44.5 141.4 45.9 137.1 45.9 137.1C45.9 137.1 57.3 134.5 61 136.3C64.7 138.1 64.9 141.5 62.5 145.1C59.9 148.6 52.8 151.1 49.1 152.3Z" fill="#99CCCC"/>
<path d="M26 158.2C25.4 158.2 24.8 158.1 24.3 158C21.6 157.3 19.7 155.3 19.3 152.9C18.8 150.4 19.9 147.8 22.3 146.1C26.9 142.7 35.7 139.8 36.1 139.8L36.8 139.5L37.2 140.1C37.2 140.1 38 140.8 40.7 140.6C43.6 140.4 44.8 136.6 44.8 136.6L44.9 136.1L45.4 135.9C46.6 135.7 57.2 133.3 61.1 135.2C63 136.1 64.2 137.4 64.6 139C65.1 140.9 64.6 143.1 63 145.4C60.6 149 54 151.5 49.4 153C48.7 153.5 33.2 158.6 26 158.2ZM36 141.8C34 142.5 27 144.9 23.4 147.6C21.6 148.9 20.8 150.8 21.1 152.5C21.4 154.2 22.8 155.5 24.7 156C28.7 157 41.3 153.7 48.7 151.2C51.3 150.3 59 147.7 61.4 144.3C62.6 142.5 63.1 140.9 62.8 139.6C62.6 138.6 61.7 137.7 60.4 137.1C57.8 135.9 50 137.1 46.5 137.8C45.9 139.1 44.2 142.3 40.8 142.6C38.2 143 36.8 142.4 36 141.8Z" fill="black"/>
<path d="M47.9 145.3C47.1 146.4 45.1 147.7 42.9 148.4C40.6 149.1 36.8 149.3 35.9 148.3C35.6 148 35.5 147.6 35.3 146.9C32.8 136.3 13.2 55.8 4.60001 20C4.00001 17.8 3.70001 13.6 6.40001 9.09999C8.20001 5.99999 11 4.69999 13 4.09999C13.6 3.79999 14.2 4.19999 14.4 4.79999L48.1 143.9C48.1 143.8 48.3 144.6 47.9 145.3Z" fill="#E6ECEC"/>
<path d="M38.1 150C36.8 149.9 35.7 149.7 35.1 149C34.6 148.5 34.5 148 34.3 147.2L3.6 20.2C3.1 18 2.7 13.6 5.6 8.49999C7.6 5.09999 10.5 3.79999 12.7 2.99999C13.2 2.79999 13.8 2.89999 14.3 3.09999C14.8 3.29999 15.2 3.79999 15.3 4.49999L49 143.6C49 143.7 49.4 144.9 48.7 146C47.8 147.2 45.6 148.7 43.2 149.4C42 149.7 39.9 150.1 38.1 150ZM13.4 4.99999C11.3 5.69999 9 6.89999 7.3 9.69999C4.8 14 5.1 17.9 5.6 19.8L36.2 146.6C36.4 147.2 36.4 147.5 36.5 147.6C37 148 40.1 148.2 42.4 147.4C44.3 146.8 46.2 145.5 46.9 144.6C47 144.4 47 144.1 46.9 143.9L13.4 4.99999Z" fill="black"/>
<path d="M61.7 163.6C61.7 163.6 59.1 159.4 56.6 157.8C53.1 155.5 51.1 155.5 49.5 155.2C48.3 155 47.2 155.5 47.1 156.5C47 157.2 47.2 158 47.8 158.5C48.7 159.2 53.6 159.3 54.8 165.7C54.9 166.4 55.1 166.9 55.2 167.8L61.7 163.6Z" fill="white"/>
<path d="M53.4 165.3C53 165.3 52.7 165.2 52.6 164.8C51.2 161.1 49.5 160.4 48.4 160C48 159.8 47.6 159.7 47.2 159.4C46.4 158.7 46 157.6 46.1 156.5C46.2 155.8 46.5 155.2 47 154.8C47.7 154.3 48.6 154.1 49.6 154.3C49.8 154.3 50 154.4 50.2 154.4C51.8 154.6 53.9 154.9 57.1 157.1C59.7 158.9 62.4 163 62.5 163.2C62.8 163.7 62.7 164.3 62.2 164.6C61.7 164.9 61.1 164.8 60.8 164.3C60.8 164.3 58.2 160.3 56 158.8C53.2 156.9 51.4 156.7 49.9 156.5C49.7 156.5 49.5 156.4 49.3 156.4C48.9 156.3 48.5 156.4 48.2 156.6C48.1 156.7 48.1 156.8 48 156.9C47.9 157.4 48.1 157.8 48.4 158.1C48.5 158.2 48.8 158.3 49 158.4C50.3 158.9 52.8 159.8 54.5 164.3C54.7 164.8 54.5 165 53.9 165.3C53.7 165.3 53.6 165.3 53.4 165.3Z" fill="black"/>
<path d="M37 165C36.5 163.7 35.8 161.2 36.2 159.4C36.6 157.6 38.5 155.4 40.8 157.3C41.6 158 43 159.9 43.9 162C45.1 164.9 45.5 166.7 45.3 168.9C45 171.1 43.5 175.1 41.7 174.5C40 174 37.9 167.5 37 165Z" fill="white"/>
<path d="M41.9 175.5C41.7 175.5 41.5 175.5 41.3 175.4C39.7 174.9 38.3 171.7 36.3 165.8L36.1 165.2C35.6 163.8 34.8 161.1 35.3 159.1C35.6 157.8 36.6 156.2 38.1 155.6C39.2 155.2 40.4 155.5 41.5 156.4C42.4 157.2 43.9 159.3 44.9 161.5C46.3 164.7 46.6 166.6 46.3 168.9C46.1 170.7 45.1 173.9 43.3 175C42.8 175.4 42.3 175.5 41.9 175.5ZM41.9 173.5C41.9 173.5 42 173.5 42.2 173.4C43.1 172.8 44 170.4 44.3 168.7C44.6 166.7 44.2 165.2 43 162.3C42.2 160.3 40.8 158.5 40.2 158C39.4 157.3 38.9 157.5 38.8 157.6C38.1 157.9 37.5 158.8 37.3 159.6C37 161.2 37.7 163.7 38.1 164.7L38.3 165.3C39.9 170.3 41.2 173.1 41.9 173.5Z" fill="black"/>
<path d="M89.5 157.4C89.5 157.4 78 148.1 73.1 146C72.3 145.7 71.7 145.6 71.3 145.6C70.7 145.7 70.1 146 69.7 146.3C64.1 149.8 70.9 161.6 74 165.5C75.5 167.4 80.8 173.2 85.8 175C90 176.5 96.4 175.9 96.4 175.9" fill="white"/>
<path d="M93.5 177C95.2 177 96.3 176.9 96.4 176.9L96.2 174.9C96.1 174.9 89.9 175.4 86 174C81.5 172.4 76.3 167.1 74.7 164.9C72.4 161.9 67.8 154.1 68.6 149.6C68.8 148.5 69.3 147.7 70.2 147.2C70.4 147 71 146.7 71.4 146.7C71.5 146.7 71.9 146.7 72.7 147C77.4 149 88.7 158.2 88.8 158.3L90.1 156.7C89.6 156.3 78.4 147.3 73.5 145.1C72.7 144.7 71.9 144.6 71.2 144.6C70.4 144.7 69.7 145.1 69.1 145.4C67.8 146.2 66.9 147.5 66.6 149.2C65.6 154.8 71.1 163.5 73.1 166.1C74.3 167.7 79.9 173.9 85.3 175.9C88 176.9 91.2 177 93.5 177Z" fill="black"/>
<path d="M93.4 172.8C93.8 172.8 94.2 172.5 94.4 172.1C94.5 171.6 94.2 171 93.7 170.9C89.3 169.7 84.3 168.1 83.7 167.6C83.7 167.5 83.2 166.8 85.2 162.7C85.5 162.1 86.3 160.5 80.4 155.2C80.1 154.9 79.8 154.6 79.5 154.3C77 151.9 73.2 148.4 68.2 149.2C67.7 149.3 67.3 149.8 67.4 150.4C67.5 150.9 68 151.3 68.6 151.2C72.7 150.5 75.7 153.4 78.2 155.8C78.5 156.1 78.9 156.4 79.2 156.7C82.9 160 83.6 161.6 83.5 161.9C82.1 164.8 80.9 167.9 82.7 169.2C84 170.1 91.8 172.3 93.4 172.8C93.3 172.8 93.2 172.8 93.4 172.8Z" fill="black"/>
<path d="M154 156.4C154 156.4 165.5 147.1 170.4 145C171.2 144.7 171.8 144.6 172.2 144.6C172.8 144.7 173.4 145 173.8 145.3C179.4 148.8 172.6 160.6 169.5 164.5C168 166.4 162.7 172.2 157.7 174C153.5 175.5 147.1 174.9 147.1 174.9" fill="white"/>
<path d="M149.9 176C148.2 176 147.1 175.9 147 175.9L147.2 173.9C147.3 173.9 153.5 174.4 157.4 173C161.9 171.4 167.1 166.1 168.7 163.9C171 160.9 175.6 153.1 174.8 148.6C174.6 147.5 174.1 146.7 173.2 146.2C173 146 172.4 145.7 172 145.7C171.9 145.7 171.5 145.7 170.7 146C166 148 154.7 157.2 154.6 157.3L153.3 155.7C153.8 155.3 165 146.3 169.9 144.1C170.7 143.7 171.5 143.6 172.2 143.6C173 143.7 173.7 144.1 174.3 144.4C175.6 145.2 176.5 146.5 176.8 148.2C177.8 153.8 172.3 162.5 170.3 165.1C169.1 166.7 163.5 172.9 158.1 174.9C155.5 175.8 152.2 176 149.9 176Z" fill="black"/>
<path d="M150 171.7C149.6 171.7 149.2 171.4 149 171C148.9 170.5 149.2 169.9 149.7 169.8C154.1 168.6 159.1 167 159.7 166.5C159.7 166.4 160.2 165.7 158.2 161.6C157.9 161 157.1 159.4 163 154.1C163.3 153.8 163.6 153.5 163.9 153.2C166.4 150.8 170.2 147.3 175.2 148.1C175.7 148.2 176.1 148.7 176 149.3C175.9 149.8 175.4 150.2 174.8 150.1C170.7 149.4 167.7 152.3 165.2 154.7C164.9 155 164.5 155.3 164.2 155.6C160.5 158.9 159.8 160.5 159.9 160.8C161.3 163.7 162.5 166.8 160.7 168.1C159.4 169 151.6 171.2 150 171.7C150.2 171.7 150.1 171.7 150 171.7Z" fill="black"/>
<path d="M127.6 188.9C137.2 187.1 142.1 181.5 144.3 179C147.5 175.3 150.7 169.9 152.4 164.4C155 155.7 154.8 139.9 153.8 136.3C151.4 127.5 146.3 121.2 137.7 117.3C132.5 114.9 127.4 114.2 121.3 114.4C114.6 114.6 108.2 116.2 105.8 117.3C97.3 121.2 92 127.5 89.6 136.3C88.6 140 88.6 155.8 91.2 164.5C92.9 170.1 96 175.4 99.3 179.1C101.5 181.6 106.4 187.2 116 189C117.3 189.2 120.6 189.5 122.1 189.5C123.4 189.4 126.3 189.2 127.6 188.9Z" fill="white"/>
<path d="M122 190.4C120.4 190.4 117.1 190.1 115.7 189.9C105.7 188 100.6 182.2 98.5 179.7C94.9 175.6 91.8 170 90.2 164.7C87.6 156 87.6 139.9 88.6 136C91.1 126.8 96.6 120.4 105.4 116.4C107.7 115.3 114.1 113.6 121.3 113.4C128 113.2 133.2 114.2 138.1 116.4C146.7 120.4 152.2 126.8 154.7 136.1C155.8 140.2 155.9 156.1 153.3 164.8C151.7 170.1 148.6 175.7 145 179.8C142.8 182.3 137.7 188.1 127.7 190C126.5 190.2 123.5 190.4 122 190.4ZM122.8 115.3C122.3 115.3 121.9 115.3 121.4 115.3C114.9 115.5 108.6 117.1 106.3 118.1C98.1 121.9 93 127.9 90.6 136.4C89.6 140 89.7 155.8 92.2 164C93.7 169 96.6 174.3 100.1 178.3C102.1 180.6 106.9 186.1 116.2 187.8C117.4 188 120.6 188.3 122.1 188.3C123.5 188.3 126.3 188 127.5 187.8C136.8 186.1 141.6 180.6 143.6 178.3C147 174.4 150 169 151.5 164C154.1 155.2 153.8 139.7 152.9 136.4C150.5 127.7 145.4 121.7 137.4 118C133.1 116.2 128.5 115.3 122.8 115.3Z" fill="black"/>
<path d="M112.6 169.5C112.7 168.7 113.6 168.3 115.2 168.2C118.1 168 129.6 167.6 131.1 167.8C132.6 168 132.9 168.5 132.9 168.9C132.9 169.6 132.5 170.2 131.9 170.9C130.4 173 127.3 176.5 125.6 177.3C123.3 178.4 121.2 178.2 119.5 177.2C118.2 176.4 115.1 174 113.5 171.5C113 170.9 112.6 170.2 112.6 169.5Z" fill="white"/>
<path d="M122.4 179C121.2 179 120 178.7 118.9 178C117.6 177.2 114.3 174.6 112.6 172L112.4 171.7C112 171 111.5 170.3 111.5 169.3C111.6 168.4 112.2 167.2 115 167.1C117.6 167 129.4 166.5 131 166.7C133.3 167 133.7 168.1 133.7 168.8C133.7 169.8 133.2 170.5 132.7 171.2L132.6 171.4C131.1 173.5 127.9 177.2 125.9 178.1C124.8 178.8 123.6 179 122.4 179ZM113.6 169.6C113.6 169.9 113.8 170.3 114.1 170.7L114.3 171C115.8 173.3 118.8 175.6 119.9 176.4C121.4 177.3 123.1 177.3 125 176.4C126.4 175.8 129.2 172.7 130.9 170.3L131 170.1C131.4 169.6 131.6 169.3 131.6 169C131.5 168.9 131.2 168.8 130.7 168.8C129.4 168.7 118.1 169 115 169.2C114.1 169.3 113.7 169.5 113.6 169.6Z" fill="black"/>
<path d="M122.5 176.7C122.5 176.7 122.2 173.4 121.7 172.3C121.6 172 121.3 171.7 121 171.5C120.7 171.4 120.3 171.3 120 171.3C118.8 171.3 117.9 171.4 117.1 171.7C116.6 171.9 116.4 172.1 116.2 172.5C116 172.9 116.1 173.6 116.3 174.1C116.8 176.1 118.3 179.9 119.9 182.5C120.5 183.5 121.2 184.1 121.8 184.3C122.7 184.6 123.3 184.3 123.9 183.9C125.1 183.1 126 181.4 126.8 179.7C127.6 178 128.6 175.5 128.8 173.9C128.9 172.9 128.7 172.2 128 171.8C127.5 171.5 126.5 171.2 125.8 171.1C125.1 170.9 124.3 170.8 123.8 171.1C123.4 171.3 123.1 171.7 123 172.2C122.7 174 122.5 176.7 122.5 176.7Z" fill="#CC697A"/>
<path d="M122.4 185.4C122.1 185.4 121.8 185.4 121.5 185.3C120.7 185 119.8 184.3 119.1 183.1C117.5 180.5 115.9 176.6 115.3 174.4C115.2 173.9 115 172.8 115.3 172.1C115.6 171.4 116.1 171 116.7 170.8C117.5 170.4 118.6 170.3 120 170.3C120.4 170.3 120.9 170.4 121.5 170.6C121.8 170.8 122.1 171 122.3 171.3C122.5 170.8 123 170.4 123.5 170.1C124.3 169.7 125.3 169.9 126.1 170.1C126.9 170.3 128 170.5 128.6 171C129.6 171.6 130 172.7 129.8 174.1C129.5 175.9 128.5 178.5 127.7 180.2C126.9 182 126 183.8 124.5 184.8C124.1 185 123.4 185.4 122.4 185.4ZM119.8 172.3C118.8 172.3 118 172.4 117.5 172.6C117.2 172.7 117.2 172.8 117.1 172.9C117.1 173 117.1 173.4 117.2 173.9C117.7 175.7 119.1 179.4 120.7 182C121.3 182.9 121.8 183.3 122 183.4C122.4 183.5 122.8 183.5 123.3 183.1C124.3 182.4 125.1 180.8 125.8 179.3C126.5 177.7 127.6 175.3 127.8 173.7C127.9 172.9 127.7 172.7 127.5 172.6C127.1 172.4 126.2 172.2 125.6 172C124.7 171.8 124.4 171.9 124.3 171.9C124.2 171.9 124.1 172.1 124 172.3C123.7 174.1 123.5 176.7 123.5 176.7C123.5 177.2 123 177.6 122.5 177.6C122 177.6 121.5 177.2 121.5 176.7C121.4 175.5 121.1 173.3 120.8 172.6C120.8 172.5 120.6 172.4 120.6 172.3C120.5 172.2 120.2 172.2 120 172.2C119.9 172.3 119.8 172.3 119.8 172.3Z" fill="black"/>
<path d="M118.8 152.5C118 159.2 111.9 164.1 105.1 163.3C100.1 162.7 97.1 159.5 95.4 154.8C94.8 153.2 94.2 151.3 94 149.3C94 149.3 101 145.8 104.8 144.5C111.3 142.3 117.8 142.1 117.8 142.1C118.6 145.3 119.1 150.3 118.8 152.5Z" fill="#EDDCC8"/>
<path d="M106.6 164.4C106.1 164.4 105.5 164.4 105 164.3C100 163.7 96.5 160.6 94.4 155.2C93.8 153.6 93.1 151.6 92.9 149.5L92.8 148.8L93.4 148.5C93.7 148.4 100.5 145 104.3 143.7C110.8 141.5 117.4 141.2 117.6 141.2H118.4L118.6 142C119.4 145.3 119.9 150.4 119.6 152.7C119.2 156.2 117.4 159.4 114.6 161.6C112.4 163.4 109.6 164.4 106.6 164.4ZM95.1 149.9C95.3 151.5 95.9 153.1 96.4 154.4C98.2 159.2 101.1 161.7 105.3 162.2C108.3 162.6 111.2 161.7 113.6 159.9C116 158 117.5 155.4 117.8 152.4C118 150.4 117.7 146.2 117 143.2C115.1 143.3 110 143.8 105.1 145.5C102 146.6 96.8 149.1 95.1 149.9Z" fill="black"/>
<path d="M107 157.6C110.645 157.6 113.6 154.645 113.6 151C113.6 147.355 110.645 144.4 107 144.4C103.355 144.4 100.4 147.355 100.4 151C100.4 154.645 103.355 157.6 107 157.6Z" fill="white"/>
<path d="M107 158.6C102.8 158.6 99.4 155.2 99.4 151C99.4 146.8 102.8 143.4 107 143.4C111.2 143.4 114.6 146.8 114.6 151C114.6 155.2 111.2 158.6 107 158.6ZM107 145.3C103.9 145.3 101.4 147.8 101.4 150.9C101.4 154 103.9 156.5 107 156.5C110.1 156.5 112.6 154 112.6 150.9C112.6 147.8 110.1 145.3 107 145.3Z" fill="black"/>
<path d="M107 154.8C109.099 154.8 110.8 153.099 110.8 151C110.8 148.901 109.099 147.2 107 147.2C104.901 147.2 103.2 148.901 103.2 151C103.2 153.099 104.901 154.8 107 154.8Z" fill="black"/>
<path d="M124.9 151C125.7 157.7 131.8 162.6 138.6 161.8C143.6 161.2 146.6 158 148.3 153.3C148.9 151.7 149.5 149.8 149.7 147.8C149.7 147.8 142.7 144.3 138.9 143C132.4 140.8 125.9 140.6 125.9 140.6C125.1 143.7 124.6 148.7 124.9 151Z" fill="#EDDCC8"/>
<path d="M137.1 162.8C130.5 162.8 124.7 157.8 123.9 151.1C123.6 148.7 124.1 143.6 124.9 140.4L125.1 139.6H125.9C126.2 139.6 132.7 139.8 139.2 142.1C143 143.4 149.8 146.8 150.1 146.9L150.7 147.2L150.6 147.9C150.4 150 149.8 152 149.1 153.6C147 159.1 143.5 162.1 138.5 162.7C138.1 162.8 137.6 162.8 137.1 162.8ZM125.9 150.9C126.6 157.1 132.3 161.5 138.4 160.8C142.6 160.3 145.5 157.7 147.3 153C147.8 151.6 148.3 150.1 148.6 148.5C146.8 147.6 141.6 145.1 138.6 144.1C133.7 142.4 128.6 141.9 126.7 141.8C126 144.7 125.6 148.9 125.9 150.9Z" fill="black"/>
<path d="M136.4 156.3C140.045 156.3 143 153.345 143 149.7C143 146.055 140.045 143.1 136.4 143.1C132.755 143.1 129.8 146.055 129.8 149.7C129.8 153.345 132.755 156.3 136.4 156.3Z" fill="white"/>
<path d="M136.4 157.4C132.2 157.4 128.8 154 128.8 149.8C128.8 145.6 132.2 142.2 136.4 142.2C140.6 142.2 144 145.6 144 149.8C144 154 140.6 157.4 136.4 157.4ZM136.4 144.1C133.3 144.1 130.8 146.6 130.8 149.7C130.8 152.8 133.3 155.3 136.4 155.3C139.5 155.3 142 152.8 142 149.7C142 146.6 139.5 144.1 136.4 144.1Z" fill="black"/>
<path d="M136.4 153.5C138.499 153.5 140.2 151.799 140.2 149.7C140.2 147.601 138.499 145.9 136.4 145.9C134.301 145.9 132.6 147.601 132.6 149.7C132.6 151.799 134.301 153.5 136.4 153.5Z" fill="black"/>
<path d="M89.2 152.3C89.2 152.3 88.4 148.6 88.5 144.9C88.7 137.6 89.7 130 93.7 123.7C98.1 116.8 107.3 110.9 122.1 110.6C132.4 110.4 143.2 114.3 148.8 121.8C154.5 129.5 154.9 141.7 154.6 149.8C154.6 149.8 139.1 141.6 127.3 141.6C114.6 141.6 109 142.4 100.6 146.6C95.4 149.3 89.2 152.3 89.2 152.3Z" fill="#EDDCC8"/>
<path d="M88.5 153.7L88.2 152.5C88.2 152.3 87.4 148.6 87.5 144.8C87.7 137.8 88.5 129.8 92.8 123.1C98.1 114.8 108.8 109.8 122 109.5C133.3 109.3 144.1 113.8 149.5 121.1C154 127.2 156 136.8 155.5 149.7L155.4 151.3L154.1 150.6C153.9 150.5 138.7 142.6 127.3 142.6C114.9 142.6 109.4 143.3 101 147.5C95.9 150.1 89.7 153.1 89.6 153.1L88.5 153.7ZM122.9 111.6C122.6 111.6 122.3 111.6 122.1 111.6C109.5 111.9 99.5 116.5 94.5 124.2C90.5 130.5 89.7 138.2 89.5 144.9C89.4 147.1 89.7 149.4 89.9 150.8C92 149.8 96.4 147.7 100.1 145.8C108.8 141.4 114.5 140.7 127.3 140.7C137.2 140.7 149.5 146.3 153.6 148.3C153.9 136.6 152 128 147.9 122.5C143 115.8 133.3 111.6 122.9 111.6Z" fill="black"/>
<path d="M111.5 142.6C111.5 142.6 110 133.1 106.5 125.6C103.5 119.2 99.2 116.1 99.2 116.1L97.5 114.7C96.9 114.2 96.4 113.7 95.8 113.2C91.3 108.9 90.9 104.3 92.7 103.3C93.8 102.7 96.1 104.1 100.3 105.8C103 106.9 105.9 107 107.6 106.6C107.6 106.6 110.9 111 112.9 118.2C114.9 125.4 118.8 141.9 118.8 141.9L111.5 142.6Z" fill="#EDDCC8"/>
<path d="M110.7 143.7L110.6 142.8C110.6 142.7 109.1 133.3 105.7 126C102.9 120 98.7 116.9 98.7 116.9L97 115.5C96.4 115 95.8 114.4 95.2 113.9C91.6 110.4 90.6 106.9 90.8 104.8C90.9 103.7 91.4 102.8 92.2 102.4C93.4 101.7 94.9 102.3 97.7 103.5C98.6 103.9 99.6 104.3 100.7 104.8C103.2 105.8 105.9 105.9 107.4 105.6L108 105.5L108.4 106C108.5 106.2 111.9 110.6 113.9 117.9C115.9 125.1 119.8 141.4 119.8 141.6L120.1 142.7L110.7 143.7ZM93.4 104.1C93.3 104.1 93.3 104.1 93.2 104.1C93 104.2 92.8 104.6 92.8 105C92.6 106.7 93.7 109.6 96.6 112.4C97.1 112.9 97.7 113.4 98.2 113.9L99.8 115.2C99.9 115.3 104.4 118.5 107.4 125C110.3 131.3 111.8 138.8 112.3 141.4L117.6 140.9C116.7 137.1 113.7 124.4 112 118.4C110.4 112.8 108 108.9 107.2 107.6C105.3 107.9 102.6 107.6 100 106.6C98.8 106.1 97.8 105.7 96.9 105.3C95.5 104.8 94 104.1 93.4 104.1Z" fill="black"/>
<path d="M132 142.1C132 142.1 133.5 132.9 137 125.4C140 119 144.3 115.9 144.3 115.9L146 114.5C146.6 114 147.1 113.5 147.7 113C152.2 108.7 152.6 104.1 150.8 103.1C149.7 102.5 147.4 103.9 143.2 105.6C140.5 106.7 137.6 106.8 135.9 106.4C135.9 106.4 132.6 110.8 130.6 118C128.6 125.2 124.5 141.6 124.5 141.6L132 142.1Z" fill="#EDDCC8"/>
<path d="M132.8 143.2L123.1 142.6L123.4 141.4C123.4 141.2 127.5 124.9 129.5 117.7C131.6 110.4 134.9 106 135 105.8L135.4 105.3L136 105.4C137.5 105.7 140.2 105.6 142.7 104.6C143.9 104.1 144.9 103.7 145.7 103.3C148.4 102.1 149.9 101.4 151.2 102.2C152 102.6 152.5 103.5 152.6 104.6C152.9 106.7 151.9 110.2 148.2 113.7C147.6 114.2 147.1 114.8 146.5 115.3L144.8 116.7C144.7 116.8 140.5 119.8 137.7 125.8C134.3 133.1 132.8 142.1 132.8 142.2V143.2ZM125.7 140.7L131.2 141C131.7 138.5 133.2 131.2 136.1 124.9C139.1 118.3 143.6 115.1 143.8 115L145.4 113.7C145.9 113.2 146.5 112.7 147 112.2C149.9 109.4 151 106.5 150.8 104.8C150.7 104.3 150.6 104 150.4 103.9C150 103.7 148.3 104.5 146.7 105.1C145.8 105.5 144.8 105.9 143.6 106.4C141 107.4 138.3 107.6 136.4 107.4C135.5 108.7 133.1 112.6 131.6 118.2C129.8 124.3 126.7 136.9 125.7 140.7Z" fill="black"/>
<path d="M107.7 104.6C106.5 105 106 106.5 106.8 107.6C109.2 110.6 110.7 115.7 112.5 120.8C114.4 126 117 139.6 117.8 141.8C117.8 141.8 120.7 141.6 121.5 141.6C123.1 141.6 125.7 141.6 125.7 141.6C126 138.9 129.5 123.3 130.8 119.7C132.8 114.3 134.7 108.9 136.1 106.7C136.8 105.5 136.2 104 134.9 103.6C132 102.9 127 102 120.7 102.2C115.4 102.3 110.5 103.7 107.7 104.6Z" fill="#EDDCC8"/>
<path d="M117 142.8L116.8 142.1C116.4 141.2 115.8 138.5 115.1 135C114 130.1 112.6 124.1 111.5 121.1C111.1 120.1 110.8 119.1 110.5 118.2C109.1 114.2 107.8 110.5 106 108.2C105.4 107.5 105.3 106.6 105.5 105.7C105.8 104.8 106.5 104 107.4 103.7C110.6 102.6 115.4 101.3 120.7 101.2C127.1 101 132.1 101.9 135.2 102.7C136.1 102.9 136.9 103.6 137.3 104.5C137.7 105.4 137.6 106.5 137 107.3C135.7 109.3 133.9 114.3 132.1 119.2L131.7 120C130.4 123.6 126.9 139.1 126.7 141.7L126.6 142.6H125.7C125.7 142.6 123.1 142.5 121.6 142.6C120.7 142.6 117.9 142.8 117.9 142.8H117ZM122.2 103.1C121.7 103.1 121.2 103.1 120.7 103.1C115.4 103.2 110.5 104.7 108 105.5C107.7 105.6 107.5 105.8 107.4 106.1C107.3 106.4 107.3 106.7 107.5 107C109.6 109.6 110.9 113.5 112.4 117.6C112.7 118.6 113.1 119.5 113.4 120.5C114.5 123.6 115.9 129.8 117 134.7C117.6 137.2 118.1 139.5 118.4 140.8C119.3 140.7 120.8 140.7 121.4 140.7C122.4 140.7 123.8 140.7 124.7 140.7C125.4 136.4 128.4 122.9 129.7 119.5L130 118.6C131.9 113.4 133.7 108.5 135.1 106.3C135.3 106 135.3 105.7 135.2 105.3C135.1 105 134.8 104.8 134.5 104.7C131.9 103.9 127.6 103.1 122.2 103.1Z" fill="black"/>
<path d="M107.8 107.3C109.3 109.5 109.9 110.6 111.8 115.9C113.1 119.6 114.7 124 116.4 131.8C116.6 132.8 117.5 136.5 118 138.8C118.3 139.9 118.5 140.7 118.5 140.7C119.2 140.7 120.2 140.6 121.9 140.6C123.3 140.6 124.9 140.6 124.9 140.6C125 140 125.1 139.2 125.4 138C125.8 136.2 126.3 133.8 127 130.9C127.6 128.5 128.2 125.5 129 122.7C131 115.7 133.2 110.6 134.3 108.2C134.7 107.3 135 106.8 135 106.7C135.2 106.3 135.4 106 135.5 105.8C135.6 105.6 135.5 105.4 135.5 105.3C135.4 105 135.3 104.8 135.1 104.7C134.5 104.3 130.8 103.8 130.8 103.8C130.5 104.4 128.6 108.9 126.6 115.7C124.9 121.4 123.5 130 122.6 131.8C122.4 132.1 122.2 132.5 121.9 132.5C121.6 132.5 121.4 132.3 121.2 131.9C120 129.7 118.5 122.2 116.7 116.3C114.3 108.5 111.8 104.5 111.8 104.5C111.8 104.5 109.8 105 108.2 105.6C108 105.7 107.9 105.7 107.7 105.9C107.6 106 107.5 106.2 107.4 106.4C107.3 106.8 107.6 107.1 107.8 107.3Z" fill="#EACCA0"/>
</svg>
