<svg width="42" height="39" viewBox="0 0 42 39" fill="none" xmlns="http://www.w3.org/2000/svg">
<mask id="mask0_18_4196" style="mask-type:luminance" maskUnits="userSpaceOnUse" x="0" y="0" width="42" height="39">
<path d="M41.3 0H0V38.8H41.3V0Z" fill="white"/>
</mask>
<g mask="url(#mask0_18_4196)">
<path d="M40.2996 10.5C40.2996 10.5 40.2996 9.79999 39.3996 8.29999C38.5996 7.09999 37.3996 6.5 37.3996 6.5C37.3996 6.5 36.1996 9.50002 34.6996 11.4C32.5996 14.2 32.0996 14.5 32.0996 14.5C32.0996 14.5 33.2996 14.3 34.3996 14.9C35.4996 15.6 35.8996 16.7 35.8996 16.7C35.8996 16.7 36.8996 16 38.3996 13.7C39.5996 11.7 40.2996 10.5 40.2996 10.5Z" fill="#868D9E"/>
<path d="M35.8992 17.3001C35.7992 17.3001 35.7992 17.3001 35.6992 17.3001C35.4992 17.3001 35.3992 17.1001 35.3992 17.0001C35.3992 17.0001 35.0992 16.1001 34.0992 15.5001C33.1992 15.0001 32.1992 15.1001 32.1992 15.1001C31.9992 15.1001 31.6992 15.0001 31.6992 14.8001C31.6992 14.6001 31.6992 14.3001 31.8992 14.2001C31.8992 14.2001 32.3992 13.8001 34.3992 11.2001C35.7992 9.30015 37.0992 6.40016 37.0992 6.40016C37.1992 6.30016 37.2992 6.20011 37.3992 6.10011C37.4992 6.00011 37.6992 6.10011 37.7992 6.10011C37.8992 6.10011 39.0992 6.70013 39.9992 8.00013C40.9992 9.50013 40.9992 10.3002 40.9992 10.4002C40.9992 10.5002 40.9992 10.6001 40.8992 10.6001C40.8992 10.7001 40.1992 11.9002 38.8992 13.9002C37.3992 16.3002 36.2992 17.0001 36.2992 17.1001C36.0992 17.3001 35.9992 17.3001 35.8992 17.3001ZM33.1992 14.1001C33.5992 14.2001 34.0992 14.3001 34.5992 14.6001C35.2992 15.0001 35.6992 15.5001 35.9992 16.0001C36.3992 15.6001 37.0992 14.8001 37.8992 13.5001C38.8992 11.9001 39.5992 10.7002 39.7992 10.4002C39.7992 10.2002 39.5992 9.60011 38.9992 8.60011C38.5992 8.00011 38.0992 7.50012 37.6992 7.30012C37.2992 8.30012 36.2992 10.3001 35.0992 11.8001C34.1992 12.9001 33.5992 13.6001 33.1992 14.1001Z" fill="black"/>
<path d="M1.09961 10.5C1.09961 10.5 1.0996 9.79999 1.9996 8.29999C2.7996 7.09999 3.9996 6.5 3.9996 6.5C3.9996 6.5 5.1996 9.50002 6.6996 11.4C8.7996 14.2 9.29961 14.5 9.29961 14.5C9.29961 14.5 8.09961 14.4 7.09961 15C5.99961 15.7 5.59961 16.8 5.59961 16.8C5.59961 16.8 4.59961 16.1 3.09961 13.8C1.79961 11.7 1.09961 10.5 1.09961 10.5Z" fill="#868D9E"/>
<path d="M5.59961 17.2999C5.49961 17.2999 5.39961 17.2999 5.29961 17.1999C5.29961 17.1999 4.1996 16.3999 2.6996 13.9999C1.3996 11.9999 0.6996 10.6999 0.6996 10.6999C0.6996 10.5999 0.599609 10.4999 0.599609 10.4999C0.599609 10.3999 0.599609 9.59985 1.59961 8.09985C2.49961 6.69985 3.69961 6.19989 3.79961 6.19989C3.99961 5.99989 4.0996 5.99985 4.1996 6.09985C4.2996 6.19985 4.3996 6.1999 4.4996 6.3999C4.4996 6.3999 5.6996 9.39989 7.1996 11.1999C9.1996 13.7999 9.6996 14.1999 9.6996 14.1999C9.8996 14.2999 9.8996 14.5999 9.8996 14.7999C9.7996 14.9999 9.5996 15.0999 9.3996 15.0999C9.3996 15.0999 8.2996 14.8999 7.4996 15.4999C6.5996 16.0999 6.1996 16.9999 6.1996 16.9999C6.0996 17.0999 5.9996 17.2999 5.8996 17.2999C5.6996 17.2999 5.69961 17.2999 5.59961 17.2999ZM1.6996 10.3999C1.8996 10.7999 2.59961 11.8999 3.59961 13.4999C4.39961 14.7999 5.0996 15.4999 5.4996 15.9999C5.7996 15.5999 6.1996 14.9999 6.8996 14.5999C7.3996 14.2999 7.89961 14.1999 8.29961 14.0999C7.89961 13.5999 7.2996 12.8999 6.4996 11.7999C5.2996 10.2999 4.3996 8.19986 3.8996 7.29986C3.3996 7.49986 2.8996 7.89985 2.4996 8.59985C1.8996 9.49985 1.6996 10.0999 1.6996 10.3999Z" fill="black"/>
<path d="M39.4 25.3007C39.4 25.3007 37.7 24.5007 37.1 23.0007C36.1 20.5007 36.4 17.2007 36 16.5007C35 14.5007 34.5 14.1007 30.5 14.5007C28.2 14.7007 24.7 16.0007 21 16.2007H20.9C17.2 16.0007 13.7 14.8007 11.4 14.5007C7.29999 14.1007 6.89999 14.5007 5.89999 16.5007C5.49999 17.2007 5.8 20.6007 4.8 23.0007C4.2 24.5007 2.49999 25.3007 2.49999 25.3007C2.49999 25.8007 2.39999 26.7007 2.39999 27.7007C2.29999 29.3007 3.09999 30.9007 4.49999 31.8007C6.39999 33.1007 9.6 33.6007 12.6 35.1007C14 35.8007 15.3 36.6007 16.4 37.3007C16.4 37.3007 18.5 35.1007 20.9 35.0007H21C23.5 35.0007 25.5 37.4007 25.5 37.4007C26.6 36.7007 27.9 35.9007 29.3 35.1007C32.2 33.6007 35.6 33.0007 37.5 31.8007C38.9 30.9007 39.7 29.4007 39.6 27.7007C39.5 26.8007 39.4 25.8007 39.4 25.3007ZM15.4 29.1007C14.4 29.2007 13.7 29.8007 11.9 29.7007C9.99999 29.5007 8.6 28.7007 7.3 27.0007C6.4 25.7007 6.09999 25.5007 5.99999 25.5007C6.09999 25.5007 6.7 25.6007 8.3 25.1007C10.3 24.5007 12 24.7007 13.5 25.7007C14.5 26.4007 15.1 27.7007 16.1 28.3007C16.3 28.4007 16.9 28.8007 16.9 28.8007C16.9 28.8007 16.2 28.9007 15.4 29.1007ZM34.3 27.0007C33.1 28.7007 31.6 29.5007 29.7 29.6007C27.8 29.7007 27.2 29.2007 26.2 29.0007C25.4 28.9007 24.6 28.8007 24.6 28.8007C24.6 28.8007 25.2 28.4007 25.4 28.3007C26.4 27.7007 27 26.4007 28 25.7007C29.6 24.7007 31.2 24.4007 33.2 25.1007C34.9 25.6007 35.4 25.5007 35.5 25.5007C35.6 25.5007 35.3 25.7007 34.3 27.0007Z" fill="#868D9E"/>
<path d="M29.2 30.2008C28.2 30.2008 27.5 30.0008 27 29.8008C26.7 29.7008 26.4 29.6007 26.2 29.6007C25.4 29.5007 24.7 29.4008 24.7 29.4008C24.5 29.4008 24.3 29.2008 24.3 29.0008C24.2 28.8008 24.3 28.6008 24.5 28.5008C24.5 28.5008 25.1 28.1008 25.3 28.0008C25.7 27.7008 26.1 27.3008 26.5 26.8008C26.9 26.3008 27.3 25.8008 27.9 25.4008C29.6 24.3008 31.4 24.0008 33.6 24.7008C34.9 25.1008 35.5 25.1007 35.6 25.1007C35.7 25.1007 35.8 25.1007 35.9 25.1007C36.1 25.1007 36.3 25.3007 36.3 25.6007C36.3 25.8007 36.2 26.0007 36 26.1007C35.9 26.2007 35.6 26.4008 34.9 27.5008C33.6 29.3008 32 30.2008 30 30.3008C29.6 30.2008 29.4 30.2008 29.2 30.2008ZM26.1 28.5008C26.2 28.5008 26.3 28.5008 26.3 28.5008C26.7 28.6008 27 28.7008 27.3 28.8008C27.9 29.0008 28.5 29.2007 29.7 29.1007C31.5 29.0007 32.8 28.2008 33.9 26.7008C34.1 26.4008 34.3 26.1008 34.5 25.9008C34.1 25.8008 33.7 25.7007 33.1 25.6007C31.3 25.0007 29.7 25.2008 28.3 26.2008C27.9 26.5008 27.5 26.9008 27.1 27.4008C26.8 27.8008 26.5 28.2008 26.1 28.5008Z" fill="black"/>
<path d="M12.4 30.2C12.2 30.2 12 30.2 11.8 30.2C9.7 30 8.19999 29.1 6.89999 27.4C6.09999 26.4 5.8 26.1 5.8 26C5.6 25.9 5.5 25.7 5.5 25.5C5.5 25.3 5.69999 25.1 5.89999 25C5.99999 25 6.1 25 6.2 25C6.3 25 6.9 25 8.2 24.6C10.3 24 12.2 24.2 13.9 25.3C14.5 25.7 14.9 26.2 15.3 26.7C15.7 27.2 16.1 27.6 16.5 27.9C16.7 28 17.3 28.4 17.3 28.4C17.5 28.5 17.6 28.7 17.5 28.9C17.4 29.1 17.3 29.3 17.1 29.3C17.1 29.3 16.4 29.4 15.6 29.5C15.3 29.5 15.1 29.6 14.8 29.7C14.1 30 13.4 30.2 12.4 30.2ZM7.10001 25.9C7.30001 26.1 7.5 26.4 7.7 26.7C8.8 28.2 10.1 29 11.9 29.1C13 29.2 13.7 29 14.3 28.8C14.6 28.7 14.9 28.6 15.3 28.5C15.4 28.5 15.5 28.5 15.5 28.5C15.1 28.2 14.7 27.8 14.4 27.3C14 26.8 13.6 26.4 13.2 26.1C11.8 25.1 10.2 25 8.39999 25.5C7.89999 25.8 7.50001 25.9 7.10001 25.9Z" fill="black"/>
<path d="M25.0995 37.0003C26.1995 36.3003 27.4995 35.5003 28.8995 34.7003C30.3995 33.9003 31.8995 33.4003 33.2995 32.9003C34.6995 32.4003 36.0995 32.0003 37.0995 31.4003C38.2995 30.6003 38.9995 29.2003 38.9995 27.8003C38.9995 27.0003 38.8995 26.2003 38.8995 25.7003C38.2995 25.4003 37.0995 24.6003 36.5995 23.3003C35.8995 21.7003 35.7995 19.8003 35.6996 18.4003C35.6996 17.8003 35.5995 17.0003 35.4995 16.8003C34.5995 15.1003 34.3995 14.7002 30.4995 15.1002C29.5995 15.2002 28.5995 15.4003 27.3995 15.7003C25.4995 16.1003 23.2995 16.7003 20.9995 16.7003H20.7995C18.4995 16.6003 16.2995 16.1003 14.3995 15.7003C13.1995 15.4003 12.1995 15.2002 11.2995 15.1002C7.39954 14.7002 7.09954 15.1003 6.29954 16.8003C6.19954 17.0003 6.19955 17.7003 6.09955 18.4003C5.99955 19.8003 5.89954 21.7003 5.19954 23.3003C4.69954 24.6003 3.39953 25.4003 2.89953 25.7003C2.89953 26.2003 2.79954 27.0003 2.79954 27.8003C2.69954 29.3003 3.49954 30.6003 4.69954 31.4003C5.59954 32.0003 6.99953 32.5003 8.39953 33.0003C9.79953 33.5003 11.2995 34.0003 12.6995 34.7003C14.1995 35.5003 15.4995 36.3003 16.5995 37.0003L16.2995 38.0003C15.0995 37.2003 13.7995 36.4002 12.1995 35.6003C10.7995 34.9002 9.39954 34.4003 7.99954 33.9003C6.49954 33.4003 5.09955 32.9003 4.09955 32.2003C2.59955 31.2003 1.69954 29.5003 1.79954 27.7003C1.79954 26.8003 1.89953 25.8003 1.89953 25.3003V25.0003L2.19954 24.9003C2.19954 24.9003 3.79954 24.1003 4.29954 22.9003C4.89954 21.4003 4.99955 19.6003 5.09955 18.3003C5.19955 17.3003 5.19953 16.7003 5.39953 16.4003C6.49953 14.2003 7.29953 13.7002 11.3995 14.1002C12.2995 14.2002 13.3995 14.4003 14.5995 14.7003C16.4995 15.1003 18.5995 15.6003 20.7995 15.7003H20.8995C23.0995 15.6003 25.1995 15.1003 27.0995 14.7003C28.2995 14.4003 29.3995 14.2002 30.2995 14.1002C34.4995 13.7002 35.1995 14.2003 36.2995 16.4003C36.4995 16.7003 36.4995 17.3003 36.5995 18.3003C36.6995 19.6003 36.7995 21.5003 37.3995 22.9003C37.8995 24.2003 39.4995 24.9003 39.4995 24.9003L39.7995 25.0003V25.3003C39.7995 25.8003 39.8995 26.7003 39.8995 27.7003C39.9995 29.5003 39.0995 31.2003 37.5995 32.2003C36.5995 32.9003 35.0995 33.4003 33.5995 33.9003C32.1995 34.4003 30.6995 34.9002 29.2995 35.6003C27.6995 36.4002 26.3995 37.3003 25.1995 38.1003L25.0995 37.0003Z" fill="black"/>
<path d="M20.7997 1.60039C25.3997 1.50039 28.3997 2.40044 30.8997 3.40044C31.7997 3.80044 32.2997 4.70039 32.0997 5.60039C31.6997 7.30039 30.7997 9.70041 29.2997 12.5004C28.0997 14.8004 27.4997 15.6004 25.4997 17.7004C23.8997 19.4004 21.5997 20.1004 20.6997 20.1004H20.5997C19.7997 20.1004 17.4997 19.3004 15.7997 17.7004C13.7997 15.6004 13.1997 14.7004 11.9997 12.5004C10.4997 9.70041 9.49967 7.30039 9.19967 5.60039C8.99967 4.70039 9.59967 3.90041 10.4997 3.50041C12.8997 2.50041 16.1997 1.50039 20.7997 1.60039Z" fill="#868D9E"/>
<path d="M20.6997 20.7003C19.7997 20.6003 17.3997 19.9002 15.5997 18.1002C13.5997 16.0002 12.9997 15.1003 11.6997 12.8003C10.1997 10.0003 9.19968 7.60026 8.79968 5.80026C8.59968 4.60026 9.29967 3.50027 10.3997 3.00027C13.3997 1.70027 16.8997 1.00024 20.6997 1.10024H20.7997C25.5997 1.00024 28.6997 2.00027 31.0997 3.00027C32.1997 3.50027 32.8997 4.60028 32.6997 5.70028C32.2997 7.50028 31.2997 9.90028 29.7997 12.7003C28.5997 15.1003 27.9997 16.0002 25.9997 18.1002C24.1997 19.9002 21.7997 20.6003 20.8997 20.7003H20.6997ZM19.9997 2.10024C16.5997 2.10024 13.5997 2.70029 10.8997 3.90029C10.2997 4.20029 9.69967 4.80027 9.89967 5.50027C10.2997 7.20027 11.2997 9.60026 12.6997 12.3003C13.8997 14.6003 14.3997 15.4003 16.3997 17.4003C17.9997 19.0003 20.1997 19.7003 20.7997 19.7003H20.8997C21.4997 19.7003 23.6997 19.1003 25.2997 17.4003C27.2997 15.3003 27.7997 14.6003 28.9997 12.3003C30.3997 9.60026 31.3997 7.20027 31.7997 5.50027C31.8997 4.90027 31.4997 4.20029 30.8997 3.90029C28.3997 3.00029 25.3997 2.00024 20.7997 2.10024H20.6997C20.4997 2.10024 20.1997 2.10024 19.9997 2.10024Z" fill="black"/>
<path d="M20.7998 14.8C18.3998 14.8 13.2998 3 13.2998 3C13.2998 3 11.8998 3.50002 10.9998 3.90002C10.8998 3.90002 10.3998 4.20002 10.2998 4.40002C10.0998 4.50002 9.89982 4.8 9.89982 5C9.79982 5.3 9.89982 5.60002 9.99982 5.90002C10.2998 7.40002 11.5998 10.4 13.1998 13.3C14.2998 15.3 15.9998 17.2 17.3998 18.3C18.0998 18.9 20.0998 19.8 20.8998 19.8C21.7998 19.8 23.6998 18.9 24.3998 18.3C25.6998 17.3 27.4998 15.3 28.5998 13.3C30.1998 10.5 31.4998 7.40002 31.7998 5.90002C31.7998 5.70002 31.8998 5.4 31.8998 5C31.7998 4.7 31.6998 4.49999 31.4998 4.29999C31.2998 3.99999 30.8998 3.89999 30.7998 3.79999C29.7998 3.49999 28.2998 3 28.2998 3C28.2998 3 23.2998 14.8 20.7998 14.8Z" fill="#585D72"/>
<path d="M25.3 38C24.7 37.3 24.1 36.7 23.6 36.4C22.8 35.9 22.3 35.6 20.9 35.6H20.8C19.4 35.6 19 35.9 18.1 36.4C17.6 36.7 17.1 37.2 16.4 38L15.5 37.4C16.3 36.5 17 35.8 17.6 35.5C18.6 34.9 19.3 34.5 21 34.5C22.6 34.5 23.3 34.9 24.3 35.5C24.8 35.8 25.5 36.5 26.3 37.4L25.3 38Z" fill="black"/>
</g>
</svg>
