<svg width="86" height="114" viewBox="0 0 86 114" fill="none" xmlns="http://www.w3.org/2000/svg">
<path d="M71.7402 82.6784C71.7402 82.6784 79.4782 77.808 82.2422 69.3956C84.5632 62.422 85.0052 55.2272 82.9052 54.6737C80.8052 54.1202 79.1472 58.8799 74.3932 58.6586C74.3932 58.6586 74.8362 69.8383 74.5042 73.4911C73.9512 81.3501 71.7402 82.6784 71.7402 82.6784Z" fill="white"/>
<path d="M72.2932 83.6749L71.0771 81.7932C71.0771 81.7932 72.9562 80.3542 73.5092 73.4914C73.8412 69.9493 73.3982 58.8802 73.3982 58.7696V57.552H74.6142C76.9362 57.6626 78.3731 56.3344 79.5891 55.2275C80.6941 54.2312 81.8001 53.235 83.3471 53.5671C83.7891 53.6778 84.3421 54.0099 84.7841 54.8954C86.2211 57.6626 85.1161 64.4148 83.3471 69.8386C80.3621 78.3618 72.8462 83.3429 72.2932 83.6749ZM75.6092 59.7658C75.7202 62.7544 75.9412 70.6135 75.7202 73.7128C75.4992 75.7052 75.2782 77.3656 74.9462 78.6939C77.1572 76.4801 79.8102 73.27 81.2472 69.1745C83.6792 62.0903 83.5681 56.445 82.6841 55.7809C82.4631 55.6702 81.6892 56.3344 81.0262 56.8878C79.6992 57.9947 78.0412 59.5444 75.6092 59.7658Z" fill="black"/>
<path d="M14.1487 82.6784C14.1487 82.6784 6.41068 77.808 3.64768 69.3955C1.32568 62.422 0.883685 55.2271 2.98468 54.6737C5.08468 54.1202 6.63169 58.8799 11.3857 58.7692C11.3857 58.7692 10.9427 69.949 11.2747 73.6018C11.9377 81.3501 14.1487 82.6784 14.1487 82.6784Z" fill="white"/>
<path d="M13.5963 83.674C13.0443 83.342 5.52727 78.3609 2.54227 69.8377C0.77427 64.4139 -0.331742 57.6617 1.10526 54.8945C1.54826 54.009 2.21127 53.7876 2.54227 53.5662C3.97927 53.1234 5.19526 54.2303 6.30126 55.2265C7.62726 56.3335 9.06426 57.6617 11.2753 57.551H12.4913V58.7686C12.4913 58.8793 12.0493 69.9484 12.3803 73.4905C12.9333 80.3533 14.8123 81.7923 14.8123 81.7923L14.2603 82.5671L13.5963 83.674ZM3.31626 55.78C3.20626 55.78 3.20626 55.78 3.31626 55.78C2.32126 56.3335 2.21127 61.9787 4.64327 69.0629C6.08027 73.1584 8.62226 76.3685 10.9433 78.5823C10.6123 77.254 10.3913 75.7043 10.1703 73.6012C9.94926 70.5019 10.1703 62.6428 10.2803 59.6542C7.84826 59.3221 6.19026 57.8831 4.97426 56.7762C4.31126 56.4441 3.64826 55.78 3.31626 55.78Z" fill="black"/>
<path d="M65.3286 40.6155C69.1976 42.2759 68.3136 44.8217 69.5296 53.3449C70.0816 56.7763 74.6136 58.7688 74.6136 58.7688C74.6136 58.9901 74.6136 59.6543 74.6136 59.8757C74.9456 65.9637 75.3876 79.1358 72.5136 82.2352C70.3026 84.5597 57.4806 92.9722 52.2846 95.6287C49.1896 97.1784 45.4316 99.2816 42.6676 99.3926C39.2416 99.5026 36.0356 97.2891 33.2716 95.8501C28.5186 93.3042 15.5856 84.7811 13.2646 82.3459C10.2796 79.2465 10.8326 65.4102 11.1646 59.5436V58.7688C11.1646 58.7688 14.7016 57.4405 15.6966 54.0091C16.9126 50.1349 16.0276 42.0545 19.8966 40.5048C26.1976 38.0696 33.1616 43.4935 42.9996 43.1614C50.4056 42.8293 62.3436 39.2872 65.3286 40.6155Z" fill="white"/>
<path d="M42.6684 100.278C39.5734 100.278 36.6994 98.6181 34.1574 97.2896C33.7154 97.0682 33.2734 96.8468 32.9414 96.6255C28.0774 93.9689 15.0344 85.4457 12.6024 82.8998C9.61743 79.8005 9.61742 68.2887 10.1704 59.212L10.2804 57.773L10.9444 57.5517C10.9444 57.5517 13.9284 56.3341 14.8124 53.5668C15.1444 52.4599 15.3654 50.7995 15.4764 49.1392C15.9184 45.1543 16.3604 40.7267 19.5664 39.3984C23.3244 37.9594 27.0824 38.9556 31.3934 40.1732C34.8204 41.0588 38.6894 42.1657 43.0004 42.055C45.9854 41.9443 49.9644 41.2801 53.7224 40.616C59.9134 39.5091 63.6714 38.8449 65.6614 39.7305C69.1984 41.2801 69.4194 43.6046 69.9724 48.2537C70.0824 49.6926 70.3034 51.353 70.6354 53.3454C71.0774 56.1127 75.0574 57.8837 75.0574 57.8837L75.7204 58.1051V58.7693C75.7204 58.88 75.7204 59.1013 75.7204 59.3227C75.7204 59.5441 75.7204 59.7655 75.7204 59.7655C76.2734 68.6207 76.2734 79.9112 73.2884 82.8998C70.9674 85.4457 58.0344 93.8582 52.8384 96.5148L51.9544 96.9575C48.9694 98.5071 45.4324 100.278 42.7794 100.278H42.6684ZM12.4914 59.3227C11.7174 71.2773 12.3814 79.4684 14.2604 81.4608C16.3604 83.6747 28.9624 91.9765 33.9364 94.7437C34.3784 94.9651 34.8204 95.1865 35.1524 95.4079C37.4734 96.7362 40.1264 98.1751 42.7794 98.1751C44.9904 98.1751 48.0854 96.5148 50.9594 95.0758L51.8434 94.633C57.1494 91.8658 69.6404 83.6747 71.7404 81.4608C73.5094 79.5791 74.1724 71.4987 73.5094 59.9869C73.5094 59.8762 73.5094 59.7655 73.5094 59.5441C72.0724 58.7693 68.8664 56.7768 68.4244 53.5668C68.0934 51.5744 67.9824 49.8033 67.7614 48.475C67.2084 43.826 67.0984 42.8298 64.7764 41.8336C63.3394 41.1695 58.4764 42.055 54.0544 42.8298C50.1854 43.494 46.2064 44.2688 43.0004 44.2688C38.3574 44.3795 34.2674 43.2726 30.7304 42.387C26.7514 41.2801 23.3244 40.3946 20.2294 41.6122C18.2394 42.3871 17.9084 46.1505 17.4654 49.4713C17.2444 51.2423 17.1344 53.0134 16.6924 54.3416C16.1394 57.1089 13.5964 58.6586 12.4914 59.3227Z" fill="black"/>
<path d="M42.8893 18.3669C49.9643 18.3669 53.3913 19.2524 53.3913 19.2524C53.3913 19.2524 56.7073 15.821 56.1543 11.6147C55.6013 7.40854 53.0593 5.19473 50.8483 3.64506C48.7483 2.31677 45.4323 1.32055 42.8893 1.43125H42.7793C40.2363 1.43125 36.9203 2.31677 34.8203 3.64506C32.6093 5.08404 30.0673 7.40854 29.5143 11.6147C28.9613 15.821 32.2783 19.2524 32.2783 19.2524C32.2783 19.2524 35.7043 18.3669 42.8893 18.3669Z" fill="#D1CAB6"/>
<path d="M53.6118 20.4699L53.0588 20.3592C53.0588 20.3592 49.6318 19.4737 42.8888 19.4737H42.7788C36.0358 19.4737 32.6088 20.3592 32.6088 20.3592L31.9458 20.4699L31.5038 20.0271C31.3928 19.9164 27.7448 16.153 28.4088 11.3933C29.0718 6.63359 32.0558 4.1984 34.2668 2.75942C36.4778 1.32044 40.0148 0.324219 42.7788 0.324219C45.6528 0.324219 49.1898 1.20975 51.4008 2.75942C53.6118 4.1984 56.5958 6.63359 57.2598 11.5039C57.9228 16.2636 54.2748 19.9164 54.1638 20.1378L53.6118 20.4699ZM42.5578 2.53804C40.2358 2.53804 37.2518 3.42356 35.4828 4.53047C33.4928 5.85876 31.1718 7.85119 30.6188 11.7253C30.2878 14.6033 31.9458 17.0385 32.7198 18.0347C34.0458 17.8133 37.3618 17.2599 42.7788 17.2599H42.8888C48.3058 17.2599 51.6218 17.8133 52.9488 18.0347C53.7218 17.0385 55.3798 14.6033 55.0488 11.7253C54.4958 7.85119 52.1748 5.85876 50.1848 4.53047C48.3058 3.31287 45.2108 2.42735 42.8888 2.53804H42.7788C42.6678 2.53804 42.5578 2.53804 42.5578 2.53804Z" fill="black"/>
<path d="M50.5173 18.9205C50.5173 18.9205 50.0744 17.0388 48.8594 15.7105C47.9744 14.7143 45.7634 13.6074 42.8894 13.6074C39.3524 13.6074 37.6943 14.7143 36.8103 15.7105C35.5943 17.0388 35.1523 18.9205 35.1523 18.9205C35.1523 18.9205 39.2424 18.3671 42.8894 18.4777C45.8744 18.3671 50.5173 18.9205 50.5173 18.9205Z" fill="white"/>
<path d="M33.6035 20.1379L34.0455 18.5882C34.0455 18.4776 34.5985 16.4851 35.9245 14.9355C37.3615 13.2751 39.6835 12.3896 42.8885 12.3896C46.3155 12.3896 48.7475 13.7179 49.7425 14.9355C51.0685 16.4851 51.6215 18.4776 51.6215 18.5882L51.9535 20.1379L50.4055 20.0272C50.4055 20.0272 45.7625 19.5845 42.7785 19.5845C39.2415 19.5845 35.2615 20.0272 35.1515 20.0272L33.6035 20.1379ZM42.6675 17.26C42.7785 17.26 42.7785 17.26 42.8885 17.26C44.7685 17.26 47.1995 17.4813 48.8585 17.592C48.6365 17.1493 48.4155 16.7065 48.0845 16.3744C47.5315 15.7103 45.7625 14.6034 42.8885 14.6034C39.1305 14.6034 38.0255 15.9317 37.5825 16.3744C37.2515 16.7065 37.0305 17.1493 36.8095 17.592C38.2465 17.4813 40.4565 17.26 42.6675 17.26Z" fill="black"/>
<path d="M52.0645 64.8576C53.7225 65.0789 54.8285 66.0751 58.0345 65.8538C61.2395 65.6324 63.6715 64.3041 65.7715 61.4261C67.7615 58.6589 68.0934 58.7696 68.0934 58.7696C68.0934 58.7696 67.3195 59.1016 64.1135 58.1054C60.6865 57.1092 57.8124 57.4413 55.2704 59.2123C53.5014 60.4299 52.5074 62.533 50.8484 63.64C50.5174 63.8613 49.5225 64.5255 49.5225 64.5255C49.5225 64.5255 50.6275 64.6362 52.0645 64.8576Z" fill="white"/>
<path d="M57.1493 66.7386C55.4913 66.7386 54.3863 66.4065 53.3913 66.0744C52.8383 65.8531 52.3963 65.7424 51.9543 65.6317C50.6273 65.4103 49.4113 65.2996 49.4113 65.2996C49.0803 65.2996 48.7483 64.9675 48.6383 64.6355C48.5273 64.3034 48.6383 63.8606 48.9693 63.7499C48.9693 63.7499 49.9643 63.0858 50.2963 62.8644C51.0703 62.4217 51.6223 61.6468 52.2853 60.872C52.9493 59.9865 53.7223 59.1009 54.7173 58.4368C57.5913 56.5551 60.6864 56.1123 64.3344 57.2192C66.5454 57.8833 67.5403 57.8833 67.7613 57.8833C67.9823 57.7726 68.0933 57.7726 68.3143 57.8833C68.6453 57.994 68.9773 58.3261 68.9773 58.6582C68.9773 58.9902 68.7563 59.3223 68.4243 59.5437C68.3143 59.6544 67.7613 60.0972 66.4353 61.8682C64.2243 64.8569 61.5713 66.4065 58.0343 66.6279C57.7023 66.7386 57.3703 66.7386 57.1493 66.7386ZM51.7333 63.9713C51.8433 63.9713 51.9543 63.9713 52.1753 64.082C52.8383 64.1927 53.3913 64.4141 53.9443 64.5248C54.9383 64.8568 56.0443 65.1889 58.0343 65.0782C61.0183 64.8568 63.2293 63.5286 65.2193 60.9827C65.6613 60.4292 65.9923 59.9865 66.2133 59.6544C65.5503 59.5437 64.7763 59.3223 63.8923 59.1009C60.7973 58.1047 58.1443 58.4368 55.7123 60.0972C54.9383 60.6506 54.3863 61.3147 53.7223 62.2003C53.0593 62.643 52.5073 63.4179 51.7333 63.9713Z" fill="black"/>
<path d="M42.8902 18.0352C39.1312 18.0352 35.3732 18.2566 32.3882 19.0314C24.9822 20.9132 18.0182 24.2339 13.4862 30.986C7.51718 39.8413 11.2752 57.4411 11.6072 58.548C11.6072 58.548 13.7072 57.4411 14.8122 56.2235C17.0232 53.6776 16.9132 51.4638 16.9132 51.4638C16.9132 51.4638 17.2442 46.7041 17.2442 45.2651C17.2442 43.4941 18.5712 41.6123 20.0082 40.8375C21.5552 40.0626 25.9772 40.1733 28.7402 40.7268C30.1772 41.0589 36.4782 42.3871 39.2422 42.8299C40.1262 42.9406 41.4532 43.162 43.0002 43.162H43.1112C44.6582 43.162 45.9852 42.9406 46.8692 42.8299C49.7432 42.3871 56.0442 41.0589 57.3702 40.7268C59.1392 40.284 64.5552 40.0626 66.1032 40.8375C67.6502 41.6123 68.8662 43.4941 68.8662 45.2651C68.8662 46.5934 69.1982 51.4638 69.1982 51.4638C69.1982 51.4638 69.0872 53.6776 71.2982 56.2235C72.4042 57.4411 74.5042 58.548 74.5042 58.548C74.8362 57.4411 78.5942 39.8413 72.6252 30.986C67.7612 24.2339 60.7972 20.8025 53.3912 19.0314C50.4062 18.2566 46.6482 18.0352 42.8902 18.0352Z" fill="#D1CAB6"/>
<path d="M10.8332 60.2077L10.5013 58.8795C10.5013 58.6581 6.08025 40.062 12.4913 30.432C16.5813 24.2333 22.9923 20.1377 32.0573 17.9239C35.5943 17.0384 39.7943 16.9277 42.7793 16.9277H42.8893C45.8743 16.9277 50.1853 17.0384 53.6123 17.9239C62.6763 20.1377 69.0873 24.2333 73.1773 30.3213C79.6993 39.9514 75.2782 58.5474 75.1672 58.7688L74.8363 60.0971L73.6202 59.4329C73.5092 59.4329 71.2983 58.2153 70.0823 56.7763C67.8713 54.2304 67.7612 51.7953 67.7612 51.3525C67.7612 50.799 67.4292 46.4821 67.4292 45.1538C67.4292 43.8255 66.4342 42.2759 65.2192 41.6117C64.1132 41.0583 59.1393 41.0583 57.3703 41.501C55.9333 41.8331 49.6323 43.1614 46.6483 43.6041C45.7643 43.7148 44.3273 43.9362 42.7793 43.9362C41.1213 43.9362 39.6843 43.7148 38.8003 43.6041C36.5893 43.2721 32.7203 42.4972 30.1773 41.9438C29.2933 41.7224 28.5193 41.6117 28.1883 41.501C25.4243 40.9476 21.3343 40.9476 20.2293 41.501C19.0133 42.1652 18.0183 43.7148 18.0183 45.0431C18.0183 46.3714 17.6863 50.6883 17.6863 51.2418C17.6863 51.7953 17.5763 54.1198 15.3653 56.6656C14.1493 58.1046 11.9383 59.2115 11.8283 59.3222L10.8332 60.2077ZM61.6813 39.1765C63.5603 39.1765 65.5502 39.3979 66.4342 39.8407C68.3142 40.8369 69.7512 43.1614 69.8612 45.2645C69.8612 46.5928 70.1932 51.3525 70.1932 51.3525V51.4632V51.5739C70.1932 51.6846 70.1933 53.4556 71.9613 55.5587C72.4043 56.0015 72.9563 56.5549 73.5093 56.887C74.3933 52.3487 76.3833 38.8444 71.5193 31.7602C67.6503 26.115 61.6813 22.3515 53.1703 20.2484C50.6273 19.5843 47.0903 19.2522 43.0003 19.2522H42.8893C38.8003 19.2522 35.2623 19.5843 32.7203 20.2484C24.2083 22.3515 18.2393 26.115 14.3703 31.7602C9.50625 38.9551 11.4963 52.4594 12.3803 56.887C12.9333 56.5549 13.4862 56.0015 13.9282 55.5587C15.8072 53.4556 15.6973 51.6846 15.6973 51.5739V51.4632V51.3525C15.6973 51.3525 16.0283 46.5928 16.0283 45.2645C16.1393 43.1614 17.4653 40.8369 19.4553 39.8407C21.3343 38.8444 26.1983 39.0658 28.8513 39.6193C29.1833 39.73 29.9563 39.8407 30.8413 40.062C33.2733 40.6155 37.2523 41.3903 39.3523 41.7224C40.2373 41.8331 41.4523 42.0545 42.8893 42.0545C44.4373 42.0545 45.6533 41.8331 46.4273 41.7224C49.3013 41.2796 55.4913 39.9514 56.9283 39.6193C57.8123 39.2872 59.6923 39.1765 61.6813 39.1765Z" fill="black"/>
<path d="M42.7785 77.0332C42.7785 77.0332 35.7035 82.8998 33.7145 85.4457C30.8405 89.3199 29.5135 92.7513 32.6085 99.1711C35.0405 104.263 39.5725 112.343 42.7785 112.343H42.8885C46.0945 112.343 50.7375 104.152 53.0585 99.1711C56.1535 92.7513 54.8275 89.2092 51.9535 85.4457C49.9635 82.8998 42.8885 77.0332 42.7785 77.0332Z" fill="#CCD1DD"/>
<path d="M42.8896 113.672C38.5776 113.672 33.6036 103.931 31.6136 99.8352C28.4086 93.0835 29.7346 89.0986 32.8296 84.8923C34.8196 82.2358 41.7836 76.4799 42.1156 76.2585L42.4466 76.0371H43.3316L43.6626 76.2585C43.9946 76.4799 50.9586 82.2358 52.9486 84.8923C56.0436 89.0986 57.3696 93.0835 54.1646 99.8352C52.0636 103.931 47.0896 113.672 42.8896 113.672ZM42.8896 78.4723C41.1206 80.022 36.1466 84.1175 34.7096 86.1099C31.9456 89.8734 30.9506 92.9728 33.7146 98.7282C37.1406 106.034 41.0096 111.347 42.8896 111.347C44.8786 111.347 48.7476 106.034 52.1746 98.7282C54.9376 92.8621 53.9426 89.7627 51.1796 86.1099C49.5216 84.1175 44.6576 80.022 42.8896 78.4723Z" fill="black"/>
<path d="M42.889 81.3496C38.799 81.3496 36.699 84.3383 37.141 86.7735C37.141 86.7735 38.026 90.537 42.889 90.4263H43C47.864 90.537 48.748 86.7735 48.748 86.7735C49.301 84.3383 47.09 81.3496 43 81.3496H42.889Z" fill="white"/>
<path d="M42.6679 91.5337C38.2469 91.5337 36.3668 88.6557 36.0358 86.9954C35.7038 85.4457 36.1459 83.896 37.1409 82.6784C38.4679 81.1288 40.4569 80.2432 42.7789 80.2432H42.8889C45.2109 80.2432 47.3109 81.1288 48.5269 82.6784C49.5219 83.896 49.9639 85.5564 49.7429 86.9954C49.3009 88.6557 47.4209 91.5337 43.1099 91.5337C42.9999 91.5337 42.8889 91.5337 42.6679 91.5337ZM42.8889 82.457C40.6789 82.457 39.4629 83.4533 38.9099 84.1174C38.2469 84.8922 38.0258 85.7778 38.2468 86.5526C38.3568 86.774 39.1309 89.4306 42.8889 89.3199H42.9999C46.7579 89.3199 47.6429 86.774 47.6429 86.5526C47.7529 85.7778 47.5319 84.8922 46.8689 84.1174C46.3159 83.4533 45.2109 82.457 42.8889 82.457Z" fill="black"/>
<path d="M46.8693 85.0024C48.7483 86.9949 59.6913 90.4263 59.6913 90.4263C59.6913 90.4263 51.6223 79.0251 48.0853 76.8113C46.6483 75.9258 45.6533 75.2617 43.0003 75.2617C40.3473 75.2617 39.3523 75.8151 37.6943 76.8113C34.0463 79.0251 26.5303 90.537 26.5303 90.537C26.5303 90.537 37.3623 87.1055 39.3523 85.1131C39.3523 85.1131 41.0103 83.8955 43.1113 83.7848C45.2113 83.6741 46.8693 85.0024 46.8693 85.0024Z" fill="#CCD1DD"/>
<path d="M59.5807 91.5337C59.4697 91.5337 59.3597 91.5337 59.2487 91.5337C57.3697 90.9802 48.1947 87.9916 46.0947 85.8885C45.8737 85.6671 44.6577 84.7815 43.1097 84.8922C41.5627 84.8922 40.2357 85.7778 40.0147 85.9991C37.9147 88.1023 28.7397 90.9802 26.8607 91.6444C26.4187 91.7551 25.9767 91.6444 25.6447 91.2016C25.3137 90.8695 25.3137 90.3161 25.6447 89.8733C25.9767 89.4306 33.3827 78.1401 37.2517 75.8156C39.0207 74.7087 40.2357 74.1553 43.1097 74.1553C45.9847 74.1553 47.1997 74.8194 48.7477 75.9263C52.2847 78.2508 60.2437 89.4306 60.5757 89.8733C60.7967 90.2054 60.7967 90.7588 60.5757 91.2016C60.2437 91.423 59.9127 91.5337 59.5807 91.5337ZM42.6677 76.3691C40.4577 76.3691 39.6837 76.8118 38.2467 77.6973C36.0357 79.0256 31.8347 84.5602 29.1817 88.4343C33.0507 87.106 37.4727 85.335 38.4677 84.3388L38.5777 84.2281C38.6887 84.1174 40.4577 82.7891 42.9997 82.6784C45.5417 82.5677 47.4217 84.2281 47.5317 84.2281C47.5317 84.2281 47.6427 84.2281 47.6427 84.3388C48.6367 85.335 52.8377 86.9954 56.7067 88.3236C53.8327 84.4495 49.5217 79.0256 47.5317 77.6973C46.3157 76.9225 45.4317 76.3691 42.9997 76.2584C42.8887 76.3691 42.7787 76.3691 42.6677 76.3691Z" fill="black"/>
<path d="M63.2293 60.9834C63.4503 61.0941 63.4503 61.4261 63.2293 61.6475C62.3453 62.533 61.3503 63.0865 59.8023 63.5292C58.5863 63.972 57.3703 63.8613 56.7073 63.7506C56.3753 63.7506 56.1543 63.5293 56.2653 63.1972C56.4863 62.3117 57.0393 60.762 58.0333 60.2085C59.0283 59.5444 60.4653 59.4337 61.5713 59.9871C62.1233 60.4299 62.7873 60.762 63.2293 60.9834Z" fill="black"/>
<path d="M33.6042 64.8576C31.9462 65.0789 30.8402 66.0751 27.6352 65.8538C24.4292 65.6324 21.9972 64.3041 19.8972 61.4261C17.9072 58.6589 17.5762 58.7696 17.5762 58.7696C17.5762 58.7696 18.3492 59.1016 21.5552 58.1054C24.9822 57.1092 27.8562 57.4413 30.3982 59.2123C32.1672 60.4299 33.1622 62.533 34.8202 63.64C35.1522 63.8613 36.1462 64.5255 36.1462 64.5255C36.1462 64.5255 35.0412 64.6362 33.6042 64.8576Z" fill="white"/>
<path d="M27.6354 66.7393C24.0984 66.5179 21.4454 64.9682 19.2344 61.9796C17.9074 60.2085 17.4654 59.7658 17.2444 59.6551C16.9124 59.5444 16.6914 59.2123 16.6914 58.7696C16.6914 58.4375 17.0234 58.1054 17.3554 57.9947C17.4654 57.9947 17.6864 57.9947 17.9074 57.9947C18.1284 57.9947 19.1234 57.9947 21.3344 57.3306C24.9824 56.2237 28.0774 56.6664 30.9514 58.5482C31.9464 59.2123 32.6094 60.0979 33.3834 60.9834C34.0464 61.7582 34.7094 62.533 35.3734 62.9758C35.7044 63.1972 36.6994 63.8613 36.6994 63.8613C37.0314 64.0827 37.1414 64.4148 37.0314 64.7469C36.9204 65.0789 36.5894 65.3003 36.2574 65.411C36.2574 65.411 35.0414 65.5217 33.7154 65.7431C33.2724 65.8538 32.8304 65.9645 32.2784 66.1858C31.3934 66.5179 30.2884 66.85 28.5194 66.85C28.2984 66.7393 27.9664 66.7393 27.6354 66.7393ZM32.0564 61.9796C31.3934 61.2048 30.7304 60.4299 30.0674 59.8765C27.6354 58.2161 24.9824 57.884 21.8874 58.8803C20.8924 59.2123 20.1184 59.323 19.5654 59.4337C19.8974 59.7658 20.2294 60.2085 20.5604 60.762C22.4394 63.4186 24.6504 64.6362 27.7454 64.8575C29.7354 64.9682 30.7304 64.6362 31.8354 64.3041C32.3884 64.0827 32.9414 63.972 33.6044 63.8613C33.7154 63.8613 33.8254 63.8613 34.0464 63.7506C33.2724 63.4186 32.6094 62.6437 32.0564 61.9796Z" fill="black"/>
<path d="M22.4392 60.9834C22.2182 61.0941 22.2182 61.4261 22.4392 61.6475C23.3242 62.533 24.3192 63.0865 25.8662 63.5293C27.0822 63.972 28.2982 63.7506 28.9612 63.7506C29.2932 63.7506 29.5142 63.5293 29.4042 63.1972C29.1822 62.3117 28.6302 60.762 27.6352 60.2085C26.6402 59.5444 25.2032 59.4337 24.0982 59.9871C23.5452 60.4299 22.8822 60.762 22.4392 60.9834Z" fill="black"/>
</svg>
