<svg width="39" height="37" viewBox="0 0 39 37" fill="none" xmlns="http://www.w3.org/2000/svg">
<path d="M38.4 24.4004C38.4 24.4004 36.7 23.6003 36.1 22.1003C35.1 19.6003 35.4 16.3003 35 15.6003C34 13.6003 33.5 13.2003 29.5 13.6003C27.2 13.8003 23.7 15.1003 20 15.3003H19.9C16.2 15.1003 12.7 13.9003 10.4 13.6003C6.29999 13.2003 5.89999 13.6003 4.89999 15.6003C4.49999 16.3003 4.8 19.7003 3.8 22.1003C3.2 23.6003 1.49999 24.4004 1.49999 24.4004C1.49999 24.9004 1.39999 25.8003 1.39999 26.8003C1.29999 28.4003 2.09999 30.0004 3.49999 30.9004C5.39999 32.2004 8.6 32.7004 11.6 34.2004C13.1 35.0004 14.4 35.8003 15.5 36.5003C15.5 36.5003 16.9 34.3003 19.9 34.0003H20C22.8 34.2003 24.4 36.4004 24.4 36.4004C25.5 35.7004 26.8 34.8003 28.3 34.1003C31.2 32.6003 34.6 32.0003 36.5 30.8003C37.9 29.9003 38.7 28.4004 38.6 26.7004C38.5 25.8004 38.4 24.8004 38.4 24.4004ZM14.4 28.1003C13.4 28.2003 12.7 28.8004 10.9 28.7004C8.99999 28.5004 7.6 27.7003 6.3 26.0003C5.4 24.7003 5.09999 24.5003 4.99999 24.5003C5.09999 24.5003 5.7 24.6003 7.3 24.1003C9.3 23.5003 11 23.7004 12.5 24.7004C13.5 25.4004 14.1 26.7003 15.1 27.3003C15.3 27.4003 15.9 27.8003 15.9 27.8003C15.9 27.8003 15.2 27.9003 14.4 28.1003ZM33.3 26.0003C32.1 27.7003 30.6 28.5003 28.7 28.6003C26.8 28.7003 26.2 28.2003 25.2 28.0003C24.4 27.9003 23.6 27.8003 23.6 27.8003C23.6 27.8003 24.2 27.4003 24.4 27.3003C25.4 26.7003 26 25.4004 27 24.7004C28.6 23.7004 30.2 23.4003 32.2 24.1003C33.9 24.6003 34.4 24.5003 34.5 24.5003C34.6 24.5003 34.3 24.8004 33.3 26.0003Z" fill="#868D9E"/>
<path d="M28.2 29.1998C27.2 29.1998 26.5 28.9998 26 28.7998C25.7 28.6998 25.4 28.5998 25.2 28.5998C24.4 28.4998 23.7 28.3998 23.7 28.3998C23.5 28.3998 23.3 28.1998 23.3 27.9998C23.2 27.7998 23.3 27.5998 23.5 27.4998C23.5 27.4998 24.1 27.0998 24.3 26.9998C24.7 26.6998 25.1 26.2998 25.5 25.7998C25.9 25.2998 26.3 24.7998 26.9 24.3998C28.6 23.2998 30.4 22.9998 32.6 23.6998C33.9 24.0998 34.5 24.0998 34.6 24.0998C34.7 24.0998 34.8 24.0998 34.9 24.0998C35.1 24.0998 35.3 24.2998 35.3 24.5998C35.3 24.7998 35.2 24.9998 35 25.0998C34.9 25.1998 34.6 25.3998 33.9 26.4998C32.6 28.2998 31 29.1998 29 29.2998C28.6 29.1998 28.4 29.1998 28.2 29.1998ZM25.1 27.4998C25.2 27.4998 25.3 27.4998 25.3 27.4998C25.7 27.5998 26 27.6998 26.3 27.7998C26.9 27.9998 27.5 28.1998 28.7 28.0998C30.5 27.9998 31.8 27.1998 32.9 25.6998C33.1 25.3998 33.3 25.0998 33.5 24.8998C33.1 24.7998 32.7 24.6998 32.1 24.5998C30.3 23.9998 28.7 24.1998 27.3 25.1998C26.9 25.4998 26.5 25.8998 26.1 26.3998C25.8 26.7998 25.5 27.1998 25.1 27.4998Z" fill="black"/>
<path d="M31.6004 13.2998C30.8004 14.9998 30.0004 16.6998 29.2004 17.8998C28.2004 19.3998 26.4004 20.5998 24.7004 21.7998C24.4004 21.9998 24.1004 22.1998 23.8004 22.3998C22.0004 23.6998 21.0004 24.9998 20.7004 26.8998C20.5004 27.8998 20.5004 29.7998 20.5004 31.6998C20.5004 32.5998 20.5004 33.3998 20.4004 34.0998H21.4004C21.4004 33.3998 21.4004 32.5998 21.5004 31.6998C21.5004 29.9998 21.6004 27.9998 21.7004 26.9998C21.9004 25.5998 22.5004 24.4998 24.4004 23.0998C24.7004 22.8998 25.0004 22.6998 25.3004 22.4998C27.0004 21.2998 28.9004 19.9998 30.0004 18.3998C30.9004 17.0998 31.8004 15.2998 32.6004 13.3998L31.6004 13.2998Z" fill="black"/>
<path d="M7.8004 13.2998C8.6004 15.0998 9.5004 16.8998 10.3004 18.1998C11.3004 19.6998 13.1004 20.8998 14.8004 22.0998C15.1004 22.2998 15.4004 22.4998 15.7004 22.6998C17.6004 24.0998 18.5004 25.3998 18.9004 27.2998C19.1004 28.2998 19.1004 30.1998 19.1004 32.0998C19.1004 32.9998 19.1004 33.7998 19.2004 34.4998H18.2004C18.2004 33.7998 18.2004 32.9998 18.1004 32.0998C18.1004 30.3998 18.0004 28.3998 17.9004 27.3998C17.7004 25.9998 17.1004 24.8998 15.2004 23.4998C14.9004 23.2998 14.6004 23.0998 14.3004 22.8998C12.6004 21.6998 10.7004 20.3998 9.6004 18.7998C8.7004 17.4998 7.80039 15.4998 6.90039 13.5998L7.8004 13.2998Z" fill="black"/>
<path d="M11.4 29.2C11.2 29.2 11 29.2 10.8 29.2C8.7 29 7.19999 28.1 5.89999 26.4C5.09999 25.4 4.8 25.1 4.8 25C4.6 24.9 4.5 24.7 4.5 24.5C4.5 24.3 4.69999 24.1 4.89999 24C4.99999 24 5.1 24 5.2 24C5.3 24 5.9 24 7.2 23.6C9.3 23 11.2 23.2 12.9 24.3C13.5 24.7 13.9 25.2 14.3 25.7C14.7 26.2 15.1 26.6 15.5 26.9C15.7 27 16.3 27.4 16.3 27.4C16.5 27.5 16.6 27.7 16.5 27.9C16.4 28.1 16.3 28.3 16.1 28.3C16.1 28.3 15.4 28.4 14.6 28.5C14.3 28.5 14.1 28.6 13.8 28.7C13.1 29 12.4 29.2 11.4 29.2ZM6.10001 24.9C6.30001 25.1 6.5 25.4 6.7 25.7C7.8 27.2 9.09999 28 10.9 28.1C12 28.2 12.7 28 13.3 27.8C13.6 27.7 13.9 27.6 14.3 27.5C14.4 27.5 14.5 27.5 14.5 27.5C14.1 27.2 13.7 26.8 13.4 26.3C13 25.8 12.6 25.4 12.2 25.1C10.8 24.1 9.19999 24 7.39999 24.5C6.89999 24.8 6.50001 24.9 6.10001 24.9Z" fill="black"/>
<path d="M23.8995 36.0996C24.9995 35.2996 26.3995 34.4997 27.8995 33.6997C29.3995 32.8997 30.8995 32.3997 32.2995 31.8997C33.6995 31.3997 35.0995 30.9997 36.0995 30.3997C37.2995 29.5997 37.9995 28.1997 37.9995 26.7997C37.9995 25.9997 37.8995 25.1997 37.8995 24.6997C37.2995 24.3997 36.0995 23.5997 35.5995 22.2997C34.8995 20.6997 34.7995 18.7997 34.6996 17.3997C34.6996 16.7997 34.5995 15.9997 34.4995 15.7997C33.5995 14.0997 33.3995 13.6996 29.4995 14.0996C28.5995 14.1996 27.5995 14.3997 26.3995 14.6997C24.4995 15.0997 22.2995 15.6997 19.9995 15.6997H19.7995C17.4995 15.5997 15.2995 15.0997 13.3995 14.6997C12.1995 14.3997 11.1995 14.1996 10.2995 14.0996C6.39954 13.6996 6.09954 14.0997 5.29954 15.7997C5.09954 15.9997 5.09954 16.6997 4.99954 17.2997C4.89954 18.6997 4.79955 20.5997 4.09955 22.1997C3.59955 23.4997 2.29954 24.2996 1.79954 24.5996C1.79954 25.0996 1.69954 25.8997 1.69954 26.6997C1.59954 28.1997 2.39955 29.4997 3.59955 30.2997C4.49955 30.8997 5.89954 31.3997 7.29954 31.8997C8.69954 32.3997 10.1995 32.8996 11.5995 33.5996C13.0995 34.3996 14.3995 35.1997 15.5995 35.8997L15.1995 36.8997C14.8995 36.6997 14.5995 36.4997 14.2995 36.2997C13.2995 35.6997 12.2995 35.0997 11.1995 34.4997C9.79954 33.7997 8.39954 33.2997 6.99954 32.7997C5.49954 32.2997 4.09955 31.7996 3.09955 31.0996C1.59955 30.0996 0.699543 28.3996 0.799543 26.5996C0.799543 25.6996 0.899534 24.6997 0.899534 24.1997V23.8997L1.19954 23.7997C1.19954 23.7997 2.79954 22.9997 3.29954 21.7997C3.89954 20.2997 3.99955 18.4997 4.09955 17.1997C4.19955 16.1997 4.19953 15.5997 4.39953 15.2997C5.49953 13.0997 6.29953 12.5997 10.3995 12.9997C11.2995 13.0997 12.3995 13.2996 13.5995 13.5996C15.4995 13.9996 17.5995 14.4996 19.7995 14.5996H19.8995C22.0995 14.4996 24.1995 13.9996 26.0995 13.5996C27.2995 13.2996 28.3995 13.0997 29.2995 12.9997C33.4995 12.5997 34.1995 13.0997 35.2995 15.2997C35.4995 15.5997 35.4995 16.1997 35.5995 17.1997C35.6995 18.4997 35.7995 20.3997 36.3995 21.7997C36.8995 23.0997 38.4995 23.7997 38.4995 23.7997L38.7995 23.8997V24.1997C38.7995 24.6997 38.8995 25.5996 38.8995 26.5996C38.9995 28.3996 38.0995 30.0996 36.5995 31.0996C35.5995 31.7996 34.0995 32.2997 32.5995 32.7997C31.1995 33.2997 29.6995 33.7997 28.2995 34.4997C27.0995 35.0997 26.0995 35.7997 25.0995 36.3997C24.7995 36.5997 24.5995 36.6997 24.2995 36.8997L23.8995 36.0996Z" fill="black"/>
<path d="M19.7999 0.60039C24.3999 0.50039 27.3999 1.40044 29.8999 2.40044C30.7999 2.80044 31.2999 3.70041 31.0999 4.50041C30.6999 6.20041 29.7999 8.60044 28.2999 11.4004C27.0999 13.7004 26.4999 14.5004 24.4999 16.6004C22.8999 18.3004 20.5999 19.0004 19.7999 19.0004H19.6999C18.8999 19.0004 16.5999 18.2004 14.9999 16.6004C12.9999 14.5004 12.3999 13.6004 11.1999 11.4004C9.69987 8.60044 8.69987 6.20041 8.39987 4.50041C8.19987 3.60041 8.79987 2.80044 9.69987 2.40044C11.8999 1.50044 15.1999 0.50039 19.7999 0.60039Z" fill="#868D9E"/>
<path d="M19.6995 19.7003C18.7995 19.6003 16.3995 18.9002 14.5995 17.1002C12.5995 15.0002 11.9995 14.1003 10.6995 11.8003C9.19952 9.00026 8.19953 6.60026 7.79953 4.80026C7.59953 3.60026 8.29953 2.50027 9.49953 2.00027C12.4995 0.700269 15.9995 0.000244439 19.7995 0.100244H19.8995C24.5995 0.000244439 27.6995 1.00027 30.0995 2.00027C31.1995 2.50027 31.8995 3.60028 31.6995 4.70028C31.2995 6.50028 30.2995 8.90028 28.7995 11.7003C27.4995 14.1003 26.8995 14.9003 24.8995 17.0003C23.0995 18.8003 20.6995 19.5002 19.7995 19.6002L19.6995 19.7003ZM18.9995 1.10024C15.5995 1.10024 12.5995 1.70029 9.89952 2.90029C9.29952 3.20029 8.69952 3.80027 8.89952 4.50027C9.29952 6.20027 10.2995 8.60026 11.6995 11.3003C12.8995 13.6003 13.3995 14.4003 15.3995 16.4003C16.9995 18.0003 19.1995 18.7003 19.7995 18.7003H19.8995C20.4995 18.7003 22.6995 18.1003 24.2995 16.4003C26.2995 14.3003 26.7995 13.6003 27.9995 11.3003C29.3995 8.60026 30.3995 6.20027 30.7995 4.50027C30.8995 3.90027 30.4995 3.20029 29.8995 2.90029C27.3995 2.00029 24.3995 1.00024 19.7995 1.10024H19.6995C19.4995 1.10024 19.1995 1.10024 18.9995 1.10024Z" fill="black"/>
<path d="M19.7998 13.8C17.3998 13.8 12.2998 2 12.2998 2C12.2998 2 10.8998 2.50002 9.99982 2.90002C9.89982 2.90002 9.39983 3.20002 9.29983 3.40002C9.09983 3.50002 8.89982 3.8 8.89982 4C8.79982 4.3 8.89982 4.60002 8.99982 4.90002C9.29982 6.40002 10.5998 9.39999 12.1998 12.3C13.2998 14.3 14.9998 16.2 16.3998 17.3C17.0998 17.9 19.0998 18.8 19.8998 18.8C20.7998 18.8 22.6998 17.9 23.3998 17.3C24.6998 16.3 26.4998 14.3 27.5998 12.3C29.1998 9.49999 30.4998 6.40002 30.7998 4.90002C30.7998 4.70002 30.8998 4.4 30.8998 4C30.7998 3.7 30.6998 3.49999 30.4998 3.29999C30.2998 2.99999 29.8998 2.89999 29.7998 2.79999C28.7998 2.49999 27.2998 2 27.2998 2C27.2998 2 22.2998 13.8 19.7998 13.8Z" fill="#585D72"/>
<path d="M14.5 36.4999C15.3 35.5999 16 34.8998 16.6 34.5998C17.6 33.9998 18.3 33.5999 20 33.6999C21.6 33.6999 22.3 34.0999 23.3 34.6999C23.8 34.9999 24.5 35.6998 25.3 36.5998L24.3 36.9999C23.6 36.2999 23.1 35.6999 22.6 35.3999C21.8 34.8999 21.3 34.5998 19.9 34.5998H19.8C18.4 34.5998 18 34.8999 17.1 35.3999C16.6 35.6999 16.1 36.1999 15.4 36.9999L14.5 36.4999Z" fill="black"/>
</svg>
