<svg width="40" height="45" viewBox="0 0 40 45" fill="none" xmlns="http://www.w3.org/2000/svg">
<mask id="mask0_20_8" style="mask-type:luminance" maskUnits="userSpaceOnUse" x="0" y="0" width="40" height="45">
<path d="M39.8 0H0V45H39.8V0Z" fill="white"/>
</mask>
<g mask="url(#mask0_20_8)">
<path d="M4.90039 41.2006C4.90039 41.2006 5.7004 41.8006 6.3004 42.2006C6.7004 42.5006 8.3004 43.5006 8.3004 43.5006C8.3004 43.5006 9.10039 41.3006 9.70039 39.7006C10.4004 38.0006 11.2004 36.5006 11.2004 36.5006L7.70039 34.6006C7.70039 34.6006 7.1004 35.9006 6.5004 37.2006C5.7004 38.9006 4.90039 41.2006 4.90039 41.2006Z" fill="#868D9E"/>
<path d="M8.29959 44C8.19959 44 8.09959 44 7.99959 43.9C7.99959 43.9 6.39959 42.9 5.99959 42.6C5.39959 42.2 4.59959 41.6 4.59959 41.6C4.39959 41.5 4.29958 41.2 4.39958 41C4.39958 40.9 5.29959 38.6 6.09959 36.9C6.69959 35.7 7.29959 34.3 7.29959 34.3C7.39959 34.2 7.49959 34.1 7.59959 34C7.69959 34 7.89959 34 7.99959 34L11.4996 35.9C11.6996 36 11.7996 36.3 11.6996 36.6C11.6996 36.6 10.8996 38.1 10.1996 39.7C9.59958 41.3 8.79959 43.5 8.79959 43.5C8.69959 43.8 8.59959 44 8.49959 44C8.39959 44 8.29959 44 8.29959 44ZM5.49959 41C5.79959 41.2 6.19959 41.5 6.59959 41.7C6.89959 41.9 7.59959 42.3 8.09959 42.7C8.39959 41.9 8.89959 40.6 9.29959 39.5C9.79959 38.3 10.2996 37.3 10.5996 36.7L7.99959 35.3C7.79959 35.8 7.39959 36.6 6.99959 37.4C6.39959 38.7 5.79959 40.3 5.49959 41Z" fill="black"/>
<path d="M35.0002 41.3002C35.0002 41.3002 34.2002 41.9002 33.6002 42.3002C33.2002 42.6002 31.6002 43.6002 31.6002 43.6002C31.6002 43.6002 30.8002 41.4002 30.2002 39.8002C29.5002 38.1002 28.7002 36.6002 28.7002 36.6002L32.2002 34.7002C32.2002 34.7002 32.8002 36.0002 33.4002 37.3002C34.1002 38.9002 35.0002 41.3002 35.0002 41.3002Z" fill="#868D9E"/>
<path d="M31.6004 44.1006C31.5004 44.1006 31.5003 44.1006 31.4003 44.1006C31.3003 44.1006 31.1004 43.9006 31.1004 43.8006C31.1004 43.8006 30.3004 41.6006 29.7004 40.0006C29.0004 38.3006 28.2004 36.9006 28.2004 36.9006C28.1004 36.7006 28.2003 36.3006 28.4003 36.2006L31.9003 34.3006C32.0003 34.2006 32.2003 34.2006 32.3003 34.3006C32.4003 34.3006 32.5004 34.4006 32.6004 34.6006C32.6004 34.6006 33.2003 36.0006 33.8003 37.2006C34.6003 38.9006 35.4004 41.2006 35.5004 41.3006C35.6004 41.5006 35.5003 41.8006 35.3003 41.9006C35.3003 41.9006 34.4003 42.5006 33.9003 42.9006C33.5003 43.2006 31.9003 44.2006 31.9003 44.2006C31.7003 44.1006 31.7004 44.1006 31.6004 44.1006ZM29.3003 36.8006C29.6003 37.4006 30.1004 38.4006 30.6004 39.6006C31.0004 40.7006 31.5003 42.1006 31.8003 42.8006C32.3003 42.5006 33.0003 42.0006 33.3003 41.8006C33.6003 41.6006 34.1003 41.3006 34.4003 41.1006C34.1003 40.4006 33.5003 38.8006 32.9003 37.5006C32.5003 36.7006 32.2003 35.9006 31.9003 35.4006L29.3003 36.8006Z" fill="black"/>
<path d="M14.5998 38.2001C15.3998 37.2001 16.1998 36.4001 16.7998 36.1001C17.7998 35.5001 18.3998 35.2001 19.8998 35.2001C21.4998 35.2001 22.0998 35.6001 22.8998 36.1001C23.4998 36.5001 24.2998 37.3001 25.0998 38.2001C26.1998 37.7001 27.3998 37.1001 28.5998 36.4001C33.5998 33.8001 38.6998 30.3001 38.6998 30.3001C38.6998 30.3001 38.5998 26.5001 38.4998 25.3001C38.4998 25.3001 36.6998 24.5001 36.0998 23.0001C35.0998 20.5001 35.3998 17.2001 34.9998 16.4001C33.9998 14.4001 33.4998 14.0001 29.3998 14.4001C27.0998 14.6001 23.5998 15.9001 19.7998 16.1001H19.6998C15.8998 15.9001 12.3998 14.7001 10.0998 14.4001C5.99981 14.0001 5.4998 14.4001 4.4998 16.4001C4.0998 17.1001 4.3998 20.5001 3.3998 23.0001C2.7998 24.5001 0.999802 25.3001 0.999802 25.3001C0.899802 26.5001 0.799805 30.3001 0.799805 30.3001C0.799805 30.3001 5.8998 33.8001 10.8998 36.4001C12.3998 37.1001 13.4998 37.7001 14.5998 38.2001ZM24.4998 28.4001C25.4998 27.8001 26.0998 26.5001 27.0998 25.8001C28.6998 24.8001 30.2998 24.5001 32.3998 25.2001C34.0998 25.7001 34.5998 25.6001 34.7998 25.6001C34.6998 25.6001 34.3998 25.9001 33.4998 27.2001C32.1998 28.9001 30.7998 29.7001 28.8998 29.8001C26.9998 29.9001 26.3998 29.4001 25.3998 29.2001C24.5998 29.1001 23.7998 29.0001 23.7998 29.0001C23.7998 29.0001 24.2998 28.5001 24.4998 28.4001ZM6.2998 27.0001C5.2998 25.7001 4.9998 25.5001 4.9998 25.4001C5.0998 25.4001 5.6998 25.5001 7.3998 25.0001C9.3998 24.4001 11.0998 24.6001 12.6998 25.6001C13.6998 26.3001 14.2998 27.6001 15.2998 28.2001C15.4998 28.3001 16.0998 28.7001 16.0998 28.7001C16.0998 28.7001 15.3998 28.8001 14.4998 28.9001C13.4998 29.1001 12.7998 29.6001 10.9998 29.5001C8.9998 29.5001 7.4998 28.7001 6.2998 27.0001Z" fill="#868D9E"/>
<path d="M13.7002 38.4002C14.7002 37.2002 15.7002 36.1002 16.5002 35.7002C17.5002 35.1002 18.2002 34.7002 19.9002 34.7002C21.6002 34.7002 22.3002 35.1002 23.2002 35.7002C23.9002 36.2002 24.9002 37.2002 25.9002 38.4002L25.0002 38.9002C24.1002 37.8002 23.2002 36.9002 22.6002 36.5002C21.8002 36.0002 21.3002 35.7002 19.8002 35.7002H19.7002C18.3002 35.7002 17.8002 36.0002 17.0002 36.5002C16.4002 36.9002 15.5002 37.7002 14.6002 38.8002L13.7002 38.4002Z" fill="black"/>
<path d="M24.8 37.8006C25.8 37.3006 27 36.7006 28.4 36.0006C32.7 33.7006 37.2 30.8006 38.2 30.0006C38.2 29.2006 38.1 26.7006 38 25.6006C37.4 25.3006 36.2 24.5007 35.7 23.2007C35 21.6007 34.9 19.7007 34.8 18.2007C34.8 17.5007 34.7 16.8006 34.6 16.6006C33.7 14.9006 33.5 14.4007 29.5 14.9007C28.6 15.0007 27.6 15.2006 26.4 15.5006C24.5 15.9006 22.3 16.5006 19.9 16.6006H19.7C17.4 16.5006 15.2 16.0006 13.2 15.5006C12 15.2006 10.9 15.0007 10.1 14.9007C6.10001 14.5007 5.9 14.9006 5 16.6006C5.1 16.9006 5 17.6006 5 18.3006C4.9 19.7006 4.80001 21.6006 4.10001 23.3006C3.60001 24.6006 2.3 25.4007 1.8 25.7007C1.7 26.9007 1.70001 29.3006 1.60001 30.1006C2.60001 30.8006 7.09999 33.8006 11.4 36.1006C12.7 36.8006 13.9 37.4007 14.9 37.9007L14.2 38.7007C12.9 38.1007 11.7 37.5006 10.9 37.1006C5.89999 34.5006 0.799997 31.0007 0.699997 30.9007L0.5 30.7007V30.4007C0.5 30.4007 0.599997 26.5007 0.699997 25.4007V25.1006L1 24.9007C1 24.9007 2.60001 24.1007 3.10001 22.9007C3.70001 21.4007 3.79999 19.6006 3.89999 18.3006C3.99999 17.2006 4 16.7006 4.2 16.3006C5.3 14.1006 6.1 13.6006 10.3 14.0006C11.2 14.1006 12.3 14.3006 13.5 14.6006C15.4 15.0006 17.5 15.5006 19.8 15.6006H20C22.2 15.5006 24.4 15.0006 26.3 14.6006C27.5 14.3006 28.6 14.1006 29.5 14.0006C33.7 13.6006 34.5 14.1006 35.6 16.3006C35.8 16.6006 35.8 17.2006 35.9 18.3006C36 19.6006 36.1 21.5007 36.7 22.9007C37.2 24.2007 38.8 24.9007 38.8 24.9007L39.1 25.0006V25.3006C39.2 26.5006 39.3 30.3006 39.3 30.3006V30.6006L39.1 30.8006C39 30.8006 33.9 34.4006 28.9 37.0006C28.1 37.4006 26.9 38.0007 25.6 38.7007L24.8 37.8006Z" fill="black"/>
<path d="M19.9003 1.40019C24.5003 1.30019 27.5003 2.20018 30.1003 3.20018C31.0003 3.60018 31.6003 4.50019 31.4003 5.40019C31.0003 7.10019 30.1003 9.50019 28.6003 12.4002C27.4003 14.7002 26.8003 15.6002 24.8003 17.7002C23.1003 19.4002 20.8003 20.1002 20.0003 20.2002H19.9003C19.1003 20.2002 16.8003 19.4002 15.1003 17.7002C13.1003 15.6002 12.5003 14.7002 11.3003 12.4002C9.80031 9.60019 8.80031 7.20019 8.50031 5.40019C8.10031 4.50019 8.70032 3.70016 9.60032 3.30016C11.8003 2.30016 15.2003 1.30019 19.9003 1.40019Z" fill="#868D9E"/>
<path d="M19.7996 20.6003C18.8996 20.5003 16.3996 19.8003 14.5996 18.0003C12.5996 15.9003 11.9996 15.0003 10.6996 12.6003C9.19961 9.80028 8.19962 7.3003 7.79962 5.5003C7.59962 4.4003 8.19961 3.30029 9.39961 2.80029C12.4996 1.40029 15.9996 0.800327 19.7996 0.900327H19.8996C24.6996 0.800327 27.8996 1.80031 30.2996 2.70031C31.4996 3.20031 32.0996 4.30033 31.8996 5.40033C31.4996 7.20033 30.4996 9.7003 28.9996 12.5003C27.6996 15.0003 27.0996 15.9003 24.9996 18.0003C23.1996 19.9003 20.7996 20.6003 19.8996 20.6003H19.7996ZM18.9996 1.90033C15.5996 1.90033 12.4996 2.50031 9.79962 3.70031C9.19962 4.00031 8.59962 4.60029 8.79962 5.30029C9.19962 7.00029 10.1996 9.40028 11.5996 12.1003C12.7996 14.4003 13.2996 15.2003 15.2996 17.3003C16.8996 19.0003 19.0996 19.6003 19.7996 19.6003H19.8996C20.4996 19.6003 22.6996 18.9003 24.2996 17.3003C26.2996 15.2003 26.7996 14.4003 27.9996 12.1003C29.3996 9.40028 30.3996 7.00029 30.7996 5.30029C30.8996 4.70029 30.4996 4.00031 29.7996 3.70031C27.3996 2.80031 24.3996 1.80033 19.7996 1.90033H19.6996C19.4996 1.90033 19.2996 1.90033 18.9996 1.90033Z" fill="black"/>
<path d="M19.8002 14.7008C17.4002 14.7008 12.3002 2.90082 12.3002 2.90082C12.3002 2.90082 10.8002 3.30081 10.0002 3.70081C9.80021 3.70081 9.40021 4.00077 9.20021 4.10077C9.00021 4.30077 8.80021 4.60078 8.80021 4.80078C8.70021 5.10078 8.8002 5.40081 8.9002 5.70081C9.2002 7.20081 10.5002 10.3008 12.1002 13.1008C13.2002 15.1008 15.0002 17.1008 16.3002 18.1008C17.1002 18.7008 19.0002 19.6008 19.9002 19.6008C20.8002 19.6008 22.7002 18.7008 23.5002 18.1008C24.8002 17.1008 26.6002 15.1008 27.7002 13.1008C29.3002 10.2008 30.6002 7.20081 30.9002 5.70081C30.9002 5.50081 31.0002 5.20078 31.0002 4.80078C30.9002 4.50078 30.8002 4.30077 30.6002 4.10077C30.4002 3.80077 30.0002 3.70077 29.8002 3.60077C28.9002 3.20077 27.4002 2.80078 27.4002 2.80078C27.4002 2.80078 22.3002 14.7008 19.8002 14.7008Z" fill="#585D72"/>
<path d="M11.4004 30.2C11.2004 30.2 11.0004 30.2 10.8004 30.2C8.7004 30 7.1004 29.1 5.8004 27.4C5.0004 26.4 4.70039 26.1 4.70039 26C4.50039 25.9 4.40039 25.7 4.40039 25.5C4.40039 25.3 4.6004 25.1 4.8004 25C4.9004 25 5.0004 25 5.1004 25C5.2004 25 5.8004 25 7.1004 24.6C9.2004 24 11.1004 24.2 12.8004 25.3C13.4004 25.7 13.8004 26.2 14.2004 26.7C14.6004 27.2 15.0004 27.6 15.4004 27.9C15.6004 28 16.2004 28.4 16.2004 28.4C16.4004 28.5 16.5004 28.7 16.4004 29C16.3004 29.3 16.2004 29.4 15.9004 29.4C15.9004 29.4 15.2004 29.5 14.4004 29.6C14.1004 29.6 13.8004 29.7 13.5004 29.8C13.1004 30 12.4004 30.2 11.4004 30.2ZM6.0004 25.9C6.2004 26.1 6.4004 26.4 6.6004 26.7C7.7004 28.2 9.0004 29 10.8004 29.1C12.0004 29.2 12.6004 29 13.2004 28.8C13.5004 28.7 13.8004 28.6 14.2004 28.5C14.3004 28.5 14.4004 28.5 14.4004 28.5C14.0004 28.2 13.6004 27.7 13.3004 27.3C12.9004 26.8 12.5004 26.4 12.1004 26.1C10.7004 25.1 9.1004 25 7.3004 25.5C6.9004 25.7 6.4004 25.8 6.0004 25.9Z" fill="black"/>
<path d="M28.3003 30.2002C27.3003 30.2002 26.6004 30.0002 26.1004 29.8002C25.8004 29.7002 25.5004 29.6002 25.2004 29.6002C24.4004 29.5002 23.7004 29.4002 23.7004 29.4002C23.5004 29.4002 23.3004 29.2002 23.2004 29.0002C23.1004 28.8002 23.2003 28.6002 23.4003 28.4002C23.4003 28.4002 24.0004 28.0002 24.2004 27.9002C24.6004 27.6002 25.0003 27.2002 25.4003 26.7002C25.8003 26.2002 26.3003 25.7002 26.8003 25.3002C28.5003 24.2002 30.4004 23.9002 32.5004 24.6002C33.8004 25.0002 34.4004 25.0002 34.6004 25.0002C34.7004 25.0002 34.8003 25.0002 34.9003 25.0002C35.1003 25.0002 35.3003 25.2002 35.3003 25.5002C35.3003 25.7002 35.2004 25.9002 35.0004 26.0002C34.9004 26.1002 34.6003 26.4002 33.9003 27.4002C32.6003 29.2002 31.0003 30.1002 28.9003 30.2002C28.7003 30.2002 28.5003 30.2002 28.3003 30.2002ZM25.1004 28.5002C25.2004 28.5002 25.3003 28.5002 25.3003 28.5002C25.7003 28.6002 26.0003 28.7002 26.3003 28.8002C26.9003 29.0002 27.5004 29.2002 28.7004 29.1002C30.5004 29.0002 31.8003 28.2002 32.9003 26.7002C33.1003 26.4002 33.3004 26.1002 33.5004 25.9002C33.1004 25.8002 32.7004 25.7002 32.1004 25.6002C30.2004 25.0002 28.7003 25.2002 27.3003 26.2002C26.9003 26.5002 26.5004 26.9002 26.1004 27.4002C25.9004 27.8002 25.6004 28.2002 25.1004 28.5002Z" fill="black"/>
</g>
</svg>
