<svg width="77" height="103" viewBox="0 0 77 103" fill="none" xmlns="http://www.w3.org/2000/svg">
<path d="M64.5 74.5999C64.5 74.5999 71.4 70.1999 74 62.6999C76.1 56.3999 76.5 49.9999 74.6 49.3999C72.7 48.8999 71.2 53.1999 67 52.9999C67 52.9999 67.4 63.0999 67.1 66.3999C66.5 73.2999 64.5 74.5999 64.5 74.5999Z" fill="white"/>
<path d="M64.8996 75.2003L64.0996 73.9003C64.0996 73.9003 65.7996 72.6003 66.3996 66.3003C66.6996 63.1003 66.2996 53.1003 66.2996 53.0003V52.2003H67.0996C69.1996 52.3003 70.5996 51.1003 71.6996 50.0003C72.6996 49.1003 73.5996 48.3003 74.8996 48.6003C75.1996 48.7003 75.6996 49.0003 76.0996 49.6003C77.3996 52.0003 76.3996 58.1003 74.7996 62.8003C72.0996 70.6003 65.1996 75.0003 64.8996 75.2003ZM67.7996 53.8003C67.8996 56.3003 68.0996 63.7003 67.8996 66.5003C67.6996 68.7003 67.3996 70.4003 66.9996 71.7003C69.0996 69.7003 71.8996 66.6003 73.2996 62.5003C75.1996 57.0003 75.4996 52.0003 74.6996 50.5003C74.5996 50.3003 74.4996 50.2003 74.4996 50.2003C74.0996 50.1003 73.4996 50.6003 72.7996 51.3003C71.5996 52.2003 70.0996 53.6003 67.7996 53.8003Z" fill="black"/>
<path d="M12.7998 74.5999C12.7998 74.5999 5.89984 70.1999 3.29984 62.6999C1.19984 56.3999 0.799865 49.9999 2.69987 49.3999C4.59987 48.8999 6.09984 53.1999 10.2998 52.9999C10.2998 52.9999 9.89987 63.0999 10.1999 66.3999C10.7999 73.2999 12.7998 74.5999 12.7998 74.5999Z" fill="white"/>
<path d="M12.4003 75.1999C12.1003 74.9999 5.20029 70.5999 2.60029 62.8999C1.00029 58.1999 0.000268042 52.0999 1.30027 49.6999C1.70027 48.9999 2.20028 48.7999 2.50028 48.6999C3.70028 48.3999 4.70029 49.1999 5.70029 50.0999C6.90029 51.1999 8.20027 52.3999 10.3003 52.2999H11.1003V53.0999C11.1003 53.1999 10.7003 63.0999 11.0003 66.3999C11.5003 72.6999 13.2003 73.9999 13.3003 73.9999L12.4003 75.1999ZM3.00028 50.0999H2.90027C2.80027 50.0999 2.70029 50.1999 2.70029 50.3999C1.90029 51.8999 2.20029 56.8999 4.10029 62.3999C5.50029 66.4999 8.20027 69.5999 10.4003 71.5999C10.0003 70.2999 9.70028 68.6999 9.50028 66.3999C9.30028 63.5999 9.50029 56.1999 9.60029 53.6999C7.30029 53.4999 5.80029 52.1999 4.70029 51.1999C3.90029 50.6999 3.40028 50.0999 3.00028 50.0999Z" fill="black"/>
<path d="M58.8001 36.6996C62.3001 38.1996 61.5002 40.4996 62.6002 48.0996C63.1002 51.1996 67.2002 52.9996 67.2002 52.9996C67.2002 53.1996 67.2002 53.7996 67.2002 53.9996C67.5002 59.4996 67.9001 71.2996 65.3001 74.0996C63.3001 76.1996 51.8002 83.6996 47.1002 86.0996C44.3002 87.4996 40.9002 89.3996 38.5002 89.3996C35.5002 89.4996 32.5002 87.4996 30.0002 86.1996C25.7002 83.8996 14.1002 76.1996 12.1002 74.0996C9.40016 71.2996 9.90017 58.7996 10.2002 53.5996C10.2002 53.5996 10.2002 52.9996 10.2002 52.8996C10.2002 52.8996 13.3001 51.6996 14.3001 48.5996C15.4001 45.0996 14.6002 37.8996 18.0002 36.4996C23.6002 34.2996 29.9001 39.1996 38.8001 38.8996C45.4001 38.6996 56.1001 35.4996 58.8001 36.6996Z" fill="white"/>
<path d="M38.3996 90.0999C35.6996 90.0999 33.0996 88.6999 30.7996 87.3999C30.3996 87.1999 29.9996 86.9999 29.6996 86.7999C25.3996 84.4999 13.6996 76.7999 11.5996 74.5999C8.9996 71.8999 8.99959 61.5999 9.49959 53.4999L9.5996 52.2999L10.0996 52.0999C10.0996 52.0999 12.8996 50.9999 13.6996 48.2999C13.9996 47.2999 14.1996 45.7999 14.2996 44.2999C14.6996 40.7999 15.0996 36.7999 17.8996 35.6999C21.1996 34.3999 24.4996 35.2999 28.3996 36.3999C31.4996 37.1999 34.9996 38.1999 38.8996 38.0999C41.5996 37.9999 45.0996 37.3999 48.4996 36.7999C53.1996 35.9999 57.2996 35.1999 59.0996 35.9999C62.1996 37.2999 62.3996 39.1999 62.7996 43.3999C62.8996 44.6999 63.0996 46.1999 63.3996 47.8999C63.7996 50.4999 67.4996 52.1999 67.4996 52.1999L67.8996 52.3999V52.8999C67.8996 52.9999 67.8996 53.1999 67.8996 53.3999C67.8996 53.5999 67.8996 53.7999 67.8996 53.8999C68.3996 61.7999 68.3996 71.7999 65.7996 74.4999C63.5996 76.7999 51.9996 84.2999 47.3996 86.5999L46.5996 86.9999C43.8996 88.3999 40.7996 89.9999 38.4996 89.9999C38.4996 90.0999 38.3996 90.0999 38.3996 90.0999ZM10.9996 53.3999V53.5999C10.2996 64.2999 10.9996 71.6999 12.6996 73.4999C14.5996 75.4999 25.9996 82.9999 30.4996 85.3999C30.8996 85.5999 31.2996 85.7999 31.5996 85.9999C33.6996 87.1999 36.1996 88.4999 38.4996 88.4999C40.4996 88.4999 43.3996 86.9999 45.9996 85.6999L46.7996 85.2999C51.5996 82.8999 62.8996 75.3999 64.7996 73.4999C66.4996 71.7999 67.0996 64.4999 66.4996 53.9999C66.4996 53.8999 66.4996 53.6999 66.4996 53.4999C65.2996 52.8999 62.2996 51.0999 61.8996 48.1999C61.5996 46.3999 61.4996 44.7999 61.2996 43.5999C60.7996 39.3999 60.6996 38.3999 58.4996 37.3999C57.1996 36.7999 52.8996 37.5999 48.7996 38.2999C45.3996 38.8999 41.7996 39.5999 38.8996 39.5999C34.6996 39.6999 31.0996 38.6999 27.8996 37.8999C24.2996 36.8999 21.1996 36.0999 18.2996 37.1999C16.3996 37.8999 15.9996 41.3999 15.6996 44.4999C15.4996 46.0999 15.3996 47.5999 14.9996 48.7999C14.2996 51.4999 11.9996 52.8999 10.9996 53.3999Z" fill="black"/>
<path d="M38.6002 16.7996C44.9002 16.7996 48.0002 17.5996 48.0002 17.5996C48.0002 17.5996 51.0002 14.4996 50.5002 10.6996C50.0002 6.8996 47.7002 4.89961 45.7002 3.59961C43.8002 2.39961 40.9002 1.59961 38.6002 1.59961H38.5002C36.2002 1.59961 33.2001 2.39961 31.4001 3.59961C29.4001 4.89961 27.1002 6.8996 26.6002 10.6996C26.1002 14.4996 29.1002 17.5996 29.1002 17.5996C29.1002 17.5996 32.2002 16.7996 38.6002 16.7996Z" fill="white"/>
<path d="M48.2001 18.5L47.8001 18.4C47.8001 18.4 44.7001 17.6 38.6001 17.6H38.5001C32.4001 17.6 29.3001 18.4 29.3001 18.4L28.9001 18.5L28.6001 18.2C28.5001 18.1 25.3001 14.8 25.9001 10.7C26.4001 6.39999 29.0001 4.19999 31.0001 2.99999C33.0001 1.69999 36.1001 0.799987 38.6001 0.899987C41.0001 0.799987 44.2001 1.59999 46.1001 2.99999C48.0001 4.29999 50.7001 6.39999 51.2001 10.7C51.8001 14.8 48.6001 18.1 48.5001 18.2L48.2001 18.5ZM38.3001 2.39999C36.1001 2.39999 33.4001 3.2 31.8001 4.3C30.0001 5.5 27.8001 7.29999 27.4001 10.9C27.0001 13.6 28.7001 16 29.4001 16.8C30.5001 16.6 33.5001 16.1 38.5001 16.1H38.6001C43.6001 16.1 46.6001 16.6 47.7001 16.8C48.4001 16 50.1001 13.6 49.7001 10.9C49.2001 7.29999 47.1001 5.5 45.3001 4.3C43.6001 3.2 40.8001 2.39999 38.6001 2.39999H38.5001C38.4001 2.39999 38.4001 2.39999 38.3001 2.39999Z" fill="black"/>
<path d="M15.9004 77.0004C15.9004 77.0004 17.2004 77.9004 18.0004 78.5004C18.7004 78.9004 21.0004 80.5004 21.0004 80.5004C21.0004 80.5004 22.2004 77.2004 23.2004 74.7004C24.3004 72.1004 25.5004 69.9004 25.5004 69.9004L20.2004 66.9004C20.2004 66.9004 19.3004 68.9004 18.4004 70.9004C17.1004 73.5004 15.9004 77.0004 15.9004 77.0004Z" fill="#868D9E"/>
<path d="M21 81.3001C20.8 81.3001 20.7 81.3001 20.6 81.2001C20.6 81.2001 18.2 79.6001 17.6 79.2001C16.7 78.6001 15.5 77.7001 15.4 77.7001C15.1 77.5001 15 77.1001 15.1 76.8001C15.2 76.7001 16.4 73.2001 17.7 70.6001C18.6 68.7001 19.5 66.7001 19.5 66.7001C19.6 66.5001 19.8 66.3001 20 66.3001C20.2 66.2001 20.4 66.2001 20.6 66.4001L25.9 69.4001C26.3 69.6001 26.4 70.1001 26.2 70.4001C26.2 70.4001 25 72.6001 24 75.1001C23 77.5001 21.8 80.8001 21.8 80.9001C21.7 81.1001 21.5 81.3001 21.3 81.4001C21.2 81.3001 21.1 81.3001 21 81.3001ZM16.8 76.7001C17.2 77.0001 17.9 77.5001 18.4 77.8001C18.8 78.1001 19.9 78.8001 20.6 79.3001C21 78.1001 21.8 76.1001 22.5 74.4001C23.2 72.6001 24 71.0001 24.5 70.2001L20.5 68.0001C20.2 68.8001 19.6 70.0001 19 71.2001C18.2 73.2001 17.2 75.6001 16.8 76.7001Z" fill="black"/>
<path d="M45.4996 17.2004C45.4996 17.2004 45.0996 15.5004 43.9996 14.3004C43.1996 13.4004 41.2996 12.4004 38.5996 12.4004C35.3996 12.4004 33.8996 13.4004 33.0996 14.3004C31.9996 15.5004 31.5996 17.2004 31.5996 17.2004C31.5996 17.2004 35.2996 16.7004 38.4996 16.8004C41.2996 16.8004 45.4996 17.2004 45.4996 17.2004Z" fill="#868D9E"/>
<path d="M30.5996 18.2002L30.8996 17.1002C30.8996 17.0002 31.3996 15.2002 32.5996 13.9002C33.8996 12.4002 35.8996 11.7002 38.6996 11.7002C41.6996 11.7002 43.7996 12.9002 44.6996 13.9002C45.8996 15.2002 46.2996 17.0002 46.3996 17.1002L46.6996 18.2002L45.3996 18.0002C45.3996 18.0002 41.1996 17.6002 38.4996 17.6002C35.2996 17.6002 31.6996 18.0002 31.6996 18.0002L30.5996 18.2002ZM38.3996 16.0002C38.4996 16.0002 38.4996 16.0002 38.5996 16.0002C40.4996 16.0002 42.8996 16.2002 44.3996 16.3002C44.1996 15.8002 43.8996 15.3002 43.4996 14.8002C42.7996 14.0002 40.9996 13.2002 38.6996 13.2002C36.3996 13.2002 34.7996 13.7002 33.7996 14.8002C33.3996 15.3002 33.0996 15.8002 32.8996 16.3002C34.0996 16.2002 36.2996 16.0002 38.3996 16.0002Z" fill="black"/>
<path d="M38.6 38.8999C32.9 38.6999 27.6 36.6999 24.1 36.3999C17.9 35.7999 17.2 36.4999 15.6 39.4999C15 40.5999 15.5 45.6999 13.9 49.4999C13 51.7999 10.3 52.9999 10.3 52.9999C10.2 54.7999 10 60.5999 10 60.5999C10 60.5999 17.7 65.9999 25.4 69.8999C31.9 73.2999 37 75.3999 38.6 75.3999H38.8C40.4 75.3999 45.5 73.1999 52 69.8999C59.6 65.8999 67.4 60.5999 67.4 60.5999C67.4 60.5999 67.2 54.7999 67.1 52.9999C67.1 52.9999 64.4 51.7999 63.5 49.4999C62 45.6999 62.4 40.5999 61.8 39.4999C60.3 36.4999 59.5 35.7999 53.3 36.3999C49.8 36.7999 44.5 38.6999 38.8 38.8999H38.6Z" fill="#868D9E"/>
<path d="M38.7002 76.0998H38.5002C36.0002 76.0998 28.2002 72.1997 24.9002 70.4997C17.3002 66.5997 9.50018 61.1998 9.50018 61.0998L9.2002 60.8997V60.4997C9.2002 60.3997 9.40018 54.5997 9.50018 52.8997V52.3997L9.90018 52.1997C9.90018 52.1997 12.3002 50.9998 13.1002 49.0998C14.0002 46.8998 14.2002 44.0998 14.4002 42.0998C14.5002 40.4998 14.6002 39.5998 14.9002 39.0998C16.6002 35.6998 17.8002 34.9998 24.1002 35.5998C25.5002 35.6998 27.1002 36.0998 29.0002 36.5998C31.9002 37.2998 35.1002 37.9997 38.5002 38.1997H38.7002C42.1002 38.0997 45.3002 37.2998 48.2002 36.5998C50.1002 36.1998 51.7002 35.7998 53.1002 35.5998C59.5002 34.8998 60.6002 35.6998 62.3002 39.0998C62.6002 39.5998 62.6002 40.4998 62.8002 42.0998C62.9002 44.0998 63.1002 46.8998 64.1002 49.0998C64.9002 50.9998 67.3002 52.1997 67.3002 52.1997L67.7002 52.3997V52.8997C67.8002 54.6997 68.0002 60.4997 68.0002 60.4997V60.8997L67.7002 61.0998C67.6002 61.1998 59.8002 66.4997 52.3002 70.4997C49.1002 72.1997 41.2002 76.0998 38.7002 76.0998ZM10.8002 60.0998C12.4002 61.1998 19.1002 65.6998 25.7002 69.0998C33.4002 73.0998 37.5002 74.5998 38.6002 74.5998H38.8002C39.9002 74.5998 43.9002 73.1997 51.7002 69.0998C58.3002 65.6998 65.0002 61.0998 66.6002 60.0998C66.6002 58.7998 66.4002 55.0997 66.3002 53.3997C65.4002 52.8997 63.5002 51.6997 62.7002 49.6997C61.7002 47.1997 61.5002 44.2997 61.3002 42.1997C61.2002 41.1997 61.1002 40.0997 61.0002 39.7997C59.7002 37.1997 59.3002 36.4997 53.3002 37.1997C52.0002 37.2997 50.4002 37.6998 48.6002 38.0998C45.7002 38.7998 42.3002 39.5997 38.8002 39.6997H38.6002C35.1002 39.5997 31.7002 38.7998 28.8002 38.0998C27.0002 37.6998 25.4002 37.2997 24.1002 37.1997C18.1002 36.5997 17.7002 37.2997 16.4002 39.7997C16.3002 40.0997 16.2002 41.1997 16.1002 42.1997C15.9002 44.2997 15.7002 47.2997 14.7002 49.6997C13.9002 51.6997 12.0002 52.8997 11.1002 53.3997C11.0002 55.0997 10.8002 58.7998 10.8002 60.0998Z" fill="black"/>
<path d="M30.2998 58.6001C28.7998 58.8001 27.7998 59.7001 24.8998 59.5001C21.9998 59.3001 19.7998 58.1001 17.8998 55.5001C16.0998 53.1001 15.7998 53.1001 15.7998 53.1001C15.7998 53.1001 16.4998 53.4001 19.3998 52.5001C22.4998 51.6001 24.9998 51.9001 27.3998 53.5001C28.9998 54.5001 29.8998 56.5001 31.3998 57.5001C31.6998 57.7001 32.5998 58.3001 32.5998 58.3001C32.5998 58.3001 31.5998 58.4001 30.2998 58.6001Z" fill="#E1EDF9"/>
<path d="M25.7996 60.3001C25.4996 60.3001 25.1996 60.3001 24.8996 60.3001C21.6996 60.1001 19.2996 58.7001 17.2996 56.0001C16.0996 54.4001 15.6996 54.0001 15.5996 53.9001C15.2996 53.8001 15.0996 53.5001 15.0996 53.1001C15.0996 52.8001 15.3996 52.5001 15.6996 52.4001C15.8996 52.4001 15.9996 52.3001 16.1996 52.4001C16.3996 52.4001 17.1996 52.4001 19.2996 51.8001C22.4996 50.8001 25.3996 51.2001 27.9996 52.9001C28.8996 53.5001 29.4996 54.3001 30.1996 55.1001C30.7996 55.8001 31.3996 56.5001 31.9996 56.9001C32.2996 57.1001 33.1996 57.7001 33.1996 57.7001C33.4996 57.9001 33.5996 58.2001 33.4996 58.5001C33.3996 58.8001 33.0996 59.0001 32.7996 59.1001C32.7996 59.1001 31.6996 59.2001 30.4996 59.4001C30.0996 59.5001 29.6996 59.6001 29.1996 59.7001C28.2996 59.9001 27.2996 60.3001 25.7996 60.3001ZM17.5996 53.8001C17.8996 54.1001 18.1996 54.5001 18.4996 55.0001C20.1996 57.3001 22.1996 58.5001 24.8996 58.7001C26.6996 58.8001 27.5996 58.5001 28.4996 58.2001C28.9996 58.0001 29.4996 57.9001 30.0996 57.8001C30.1996 57.8001 30.2996 57.8001 30.4996 57.7001C29.8996 57.2001 29.3996 56.6001 28.7996 55.9001C28.1996 55.2001 27.5996 54.5001 26.9996 54.1001C24.7996 52.6001 22.4996 52.4001 19.6996 53.2001C18.8996 53.5001 18.1996 53.7001 17.5996 53.8001Z" fill="black"/>
<path d="M46.8996 58.6001C48.3996 58.8001 49.3996 59.7001 52.2996 59.5001C55.0996 59.3001 57.3996 58.1001 59.2996 55.5001C61.0996 53.1001 61.3996 53.1001 61.3996 53.1001C61.3996 53.1001 60.6996 53.4001 57.7996 52.5001C54.6996 51.6001 52.1996 51.9001 49.7996 53.5001C48.1996 54.5001 47.2996 56.5001 45.7996 57.5001C45.4996 57.7001 44.5996 58.3001 44.5996 58.3001C44.5996 58.3001 45.5996 58.4001 46.8996 58.6001Z" fill="#E1EDF9"/>
<path d="M51.3996 60.3001C49.8996 60.3001 48.8996 60.0001 47.9996 59.7001C47.4996 59.5001 47.0996 59.4001 46.6996 59.4001C45.4996 59.2001 44.3996 59.1001 44.3996 59.1001C44.0996 59.1001 43.7996 58.8001 43.6996 58.5001C43.5996 58.2001 43.6996 57.8001 43.9996 57.7001C43.9996 57.7001 44.8996 57.1001 45.1996 56.9001C45.8996 56.5001 46.3996 55.8001 46.9996 55.1001C47.5996 54.3001 48.2996 53.5001 49.1996 52.9001C51.7996 51.2001 54.5996 50.8001 57.8996 51.8001C59.8996 52.4001 60.7996 52.4001 60.9996 52.4001C61.1996 52.3001 61.2996 52.3001 61.4996 52.4001C61.7996 52.5001 62.0996 52.8001 62.0996 53.1001C62.0996 53.4001 61.8996 53.7001 61.5996 53.9001C61.4996 54.0001 60.9996 54.4001 59.8996 56.0001C57.8996 58.7001 55.4996 60.1001 52.2996 60.3001C51.9996 60.3001 51.6996 60.3001 51.3996 60.3001ZM46.5996 57.7001C46.6996 57.7001 46.7996 57.7001 46.9996 57.8001C47.5996 57.9001 48.0996 58.1001 48.5996 58.2001C49.4996 58.5001 50.4996 58.8001 52.1996 58.7001C54.8996 58.5001 56.8996 57.4001 58.5996 55.0001C58.9996 54.5001 59.2996 54.1001 59.4996 53.8001C58.8996 53.7001 58.2996 53.5001 57.3996 53.3001C54.5996 52.4001 52.2996 52.7001 50.0996 54.2001C49.3996 54.7001 48.8996 55.3001 48.2996 56.0001C47.7996 56.6001 47.1996 57.2001 46.5996 57.7001Z" fill="black"/>
<path d="M38.5999 16.5C35.2999 16.5 31.7999 16.7 29.1999 17.4C22.4999 19.1 16.2999 22.1 12.1999 28.2C6.79994 36.1 10.1999 51.9 10.4999 53C10.4999 53 12.3999 52 13.3999 50.9C15.3999 48.6 15.1999 46.6 15.1999 46.6C15.1999 46.6 15.4999 42.3 15.4999 41C15.4999 39.4 16.6999 37.7 17.9999 37C19.2999 36.3 23.3999 36.4 25.7999 36.9C27.0999 37.2 32.6999 38.4 35.2999 38.8C36.0999 38.9 37.2999 39.1 38.6999 39.1H38.7999C40.1999 39.1 41.3999 38.9 42.1999 38.8C44.6999 38.4 50.3999 37.2 51.6999 36.9C53.2999 36.5 58.1999 36.3 59.4999 37C60.7999 37.7 61.9999 39.4 61.9999 41C61.9999 42.2 62.2999 46.6 62.2999 46.6C62.2999 46.6 62.1999 48.6 64.0999 50.9C65.0999 52 66.9999 53 66.9999 53C67.2999 52 70.6999 36.2 65.2999 28.2C61.1999 22.1 54.8999 19.1 48.2999 17.4C45.3999 16.7 41.9999 16.5 38.5999 16.5Z" fill="white"/>
<path d="M9.89971 53.9996L9.69973 52.9996C9.69973 52.7996 5.69972 36.1996 11.4997 27.5996C15.1997 22.1996 20.8997 18.4996 28.9997 16.4996C32.0997 15.6996 35.9997 15.5996 38.5997 15.5996H38.6997C41.3997 15.5996 45.1997 15.6996 48.2997 16.4996C56.3997 18.4996 62.0997 22.0996 65.7997 27.5996C71.5997 36.0996 67.5997 52.7996 67.5997 52.9996L67.3997 53.9996L66.4997 53.4996C66.3997 53.4996 64.4997 52.3996 63.3997 51.1996C61.3997 48.8996 61.3997 46.7996 61.3997 46.3996C61.3997 45.8996 61.0997 41.9996 61.0997 40.8996C61.0997 39.5996 60.0997 38.1996 58.9997 37.5996C57.8997 37.0996 53.3997 37.0996 51.7997 37.4996C50.4997 37.7996 44.7997 38.9996 42.1997 39.3996C41.3997 39.4996 40.1997 39.6996 38.6997 39.6996H38.5997C37.1997 39.6996 35.8997 39.4996 35.1997 39.3996C33.2997 39.0996 29.7997 38.3996 27.3997 37.8996C26.5997 37.6996 25.8997 37.5996 25.5997 37.4996C23.0997 36.9996 19.2997 36.9996 18.2997 37.5996C17.1997 38.1996 16.1997 39.6996 16.1997 40.8996C16.1997 42.0996 15.8997 45.9996 15.8997 46.3996C15.8997 46.7996 15.7997 48.8996 13.8997 51.1996C12.7997 52.3996 10.8997 53.4996 10.7997 53.4996L9.89971 53.9996ZM55.4997 35.6996C57.1997 35.6996 58.7997 35.8996 59.6997 36.2996C61.2997 37.1996 62.5997 39.0996 62.5997 40.9996C62.5997 42.1996 62.8997 46.4996 62.8997 46.4996V46.5996V46.6996C62.8997 46.7996 62.7997 48.3996 64.5997 50.3996C65.0997 50.8996 65.7997 51.4996 66.2997 51.7996C66.9997 47.9996 68.9997 35.2996 64.4997 28.5996C60.9997 23.3996 55.5997 19.9996 47.8997 18.0996C45.4997 17.4996 42.3997 17.1996 38.6997 17.1996H38.5997C34.8997 17.1996 31.6997 17.4996 29.3997 18.0996C21.6997 19.9996 16.2997 23.3996 12.7997 28.4996C8.29971 35.1996 10.2997 47.8996 10.9997 51.5996C11.5997 51.1996 12.2997 50.6996 12.6997 50.1996C14.3997 48.1996 14.3997 46.4996 14.3997 46.4996V46.3996V46.2996C14.3997 46.2996 14.6997 41.9996 14.6997 40.7996C14.7997 38.9996 15.9997 36.9996 17.5997 36.0996C19.1997 35.2996 23.4997 35.3996 25.8997 35.8996C26.1997 35.9996 26.8997 36.0996 27.6997 36.2996C29.9997 36.7996 33.4997 37.4996 35.2997 37.7996C36.0997 37.8996 37.1997 38.0996 38.4997 38.0996C39.8997 38.0996 40.9997 37.8996 41.7997 37.7996C44.3997 37.3996 49.9997 36.1996 51.1997 35.8996C52.0997 35.7996 53.7997 35.6996 55.4997 35.6996Z" fill="black"/>
<path d="M61.5004 77.1C61.5004 77.1 60.2004 78 59.4004 78.6C58.7004 79 56.4004 80.6 56.4004 80.6C56.4004 80.6 55.2004 77.3 54.2004 74.8C53.1004 72.2 51.9004 70 51.9004 70L57.2004 67C57.2004 67 58.1004 69 59.0004 71C60.2004 73.6 61.5004 77.1 61.5004 77.1Z" fill="#868D9E"/>
<path d="M56.4002 81.3998C56.3002 81.3998 56.2002 81.3998 56.2002 81.3998C56.0002 81.2998 55.8002 81.0998 55.7002 80.8998C55.7002 80.8998 54.5002 77.4998 53.5002 75.0998C52.5002 72.5998 51.3002 70.3998 51.3002 70.3998C51.1002 69.9998 51.2002 69.5998 51.6002 69.3998L56.9002 66.3998C57.1002 66.2998 57.3002 66.2998 57.5002 66.2998C57.7002 66.3998 57.9002 66.4998 58.0002 66.6998C58.0002 66.6998 58.9002 68.7998 59.8002 70.5998C61.0002 73.1998 62.3002 76.5998 62.4002 76.7998C62.5002 77.0998 62.4002 77.4998 62.1002 77.6998C62.0002 77.6998 60.8002 78.6998 59.9002 79.1998C59.2002 79.5998 56.9002 81.1998 56.9002 81.1998C56.7002 81.2998 56.5002 81.3998 56.4002 81.3998ZM52.9002 70.2998C53.3002 71.1998 54.1002 72.6998 54.9002 74.4998C55.6002 76.1998 56.3002 78.1998 56.8002 79.3998C57.6002 78.8998 58.6002 78.1998 59.0002 77.8998C59.5002 77.5998 60.2002 77.0998 60.6002 76.7998C60.2002 75.6998 59.2002 73.1998 58.3002 71.2998C57.7002 70.0998 57.2002 68.8998 56.8002 68.0998L52.9002 70.2998Z" fill="black"/>
<path d="M38.6003 69.5C38.6003 69.5 32.2003 74.7 30.4003 77.1C27.8003 80.6 26.7003 83.7 29.4003 89.5C31.5003 94 35.7003 101.4 38.6003 101.4H38.7003C41.6003 101.4 45.7003 94.1 47.9003 89.5C50.6003 83.7 49.5003 80.6 46.9003 77.1C45.0003 74.7 38.6003 69.5 38.6003 69.5Z" fill="#CCD1DD"/>
<path d="M38.6003 102.1C34.9003 102.1 30.4004 93.5002 28.7004 89.8002C25.9004 83.8002 27.0003 80.3002 29.8003 76.6002C31.6003 74.2002 37.8003 69.1002 38.1003 68.9002C38.2003 68.8002 38.4003 68.7002 38.6003 68.7002H38.7004C38.9004 68.7002 39.1004 68.8002 39.2004 68.9002C39.5004 69.1002 45.7003 74.2002 47.5003 76.6002C50.3003 80.3002 51.4003 83.8002 48.6003 89.8002C46.7003 93.5002 42.3003 102.1 38.6003 102.1ZM38.6003 70.5002C37.1003 71.7002 32.4003 75.7002 31.0003 77.6002C28.5003 81.0002 27.5003 83.9002 30.1003 89.2002C33.3003 95.9002 36.8003 100.6 38.6003 100.6H38.7004C40.5004 100.6 44.0004 95.9002 47.2004 89.2002C49.7004 83.9002 48.8003 81.0002 46.3003 77.6002C44.7003 75.7002 40.1003 71.7002 38.6003 70.5002Z" fill="black"/>
<path d="M38.6001 73.2998C35.0001 73.2998 33.0001 75.9998 33.4001 78.1998C33.4001 78.1998 34.2001 81.5998 38.6001 81.4998H38.7001C43.0001 81.5998 43.9001 78.1998 43.9001 78.1998C44.4001 75.9998 42.4001 73.2998 38.7001 73.2998H38.6001Z" fill="white"/>
<path d="M38.4 82.2996C34.6 82.2996 33.0001 79.7996 32.7001 78.3996C32.4001 77.0996 32.8001 75.7996 33.7001 74.6996C34.8001 73.2996 36.6 72.5996 38.6 72.5996H38.7001C40.7001 72.5996 42.5 73.3996 43.6 74.6996C44.5 75.7996 44.9 77.0996 44.6 78.3996C44.2 79.7996 42.6 82.3996 38.6 82.2996H38.5C38.5 82.2996 38.5 82.2996 38.4 82.2996ZM38.6 74.0996C37 74.0996 35.7 74.6996 34.9 75.6996C34.3 76.3996 34.1001 77.2996 34.2001 78.0996C34.2001 78.1996 35 80.7996 38.6 80.7996H38.7001C42.4001 80.8996 43.1 78.0996 43.1 78.0996C43.3 77.2996 43 76.4996 42.4 75.6996C41.6 74.6996 40.3001 74.0996 38.7001 74.0996H38.6Z" fill="black"/>
<path d="M42.2004 76.7004C43.9004 78.5004 53.7004 81.6004 53.7004 81.6004C53.7004 81.6004 46.4004 71.3004 43.3004 69.3004C42.0004 68.5004 41.1004 67.9004 38.7004 67.9004C36.3004 67.9004 35.4004 68.4004 34.0004 69.2004C30.7004 71.2004 23.9004 81.5004 23.9004 81.5004C23.9004 81.5004 33.7004 78.4004 35.4004 76.6004C35.4004 76.6004 36.9004 75.5004 38.8004 75.4004C40.7004 75.4004 42.2004 76.7004 42.2004 76.7004Z" fill="#CCD1DD"/>
<path d="M53.5998 82.3C53.4998 82.3 53.3998 82.3 53.3998 82.3C52.3998 82 43.4998 79.2 41.5998 77.3C41.3998 77.2 40.1998 76.3 38.6998 76.3C37.1998 76.4 35.9998 77.1 35.7998 77.3C33.8998 79.2 25.0998 82 23.9998 82.3C23.6998 82.4 23.2998 82.3 23.1998 82C22.9998 81.7 22.9998 81.4 23.1998 81.1C23.4998 80.7 30.0998 70.6 33.4998 68.5C35.0998 67.5 36.0998 67 38.6998 67C41.1998 67 42.2998 67.6 43.6998 68.5C46.8998 70.6 53.9998 80.5 54.2998 81C54.4998 81.3 54.4998 81.6 54.2998 81.9C54.0998 82.2 53.8998 82.3 53.5998 82.3ZM38.3998 68.6C36.2998 68.6 35.5998 69 34.2998 69.8C32.0998 71.1 28.0998 76.6 25.6998 80C29.2998 78.8 33.7998 77 34.6998 76L34.7998 75.9C34.8998 75.8 36.4998 74.6 38.6998 74.6C40.8998 74.5 42.5998 75.9 42.5998 76C42.5998 76 42.5998 76 42.6998 76.1C43.5998 77.1 47.9998 78.8 51.5998 80C49.2998 77 44.9998 71.2 42.7998 69.9C41.4998 69.1 40.7998 68.6 38.5998 68.6C38.5998 68.6 38.4998 68.6 38.3998 68.6Z" fill="black"/>
<path d="M38.6001 16.6002C45.6001 16.4002 50.2001 17.8002 54.1001 19.3002C55.5001 19.9002 56.3001 21.2002 56.0001 22.6002C55.4001 25.2002 54.0001 28.9002 51.7001 33.2002C49.8001 36.7002 49.0001 38.0002 45.9001 41.2002C43.4001 43.8002 39.9001 44.9002 38.6001 44.9002H38.4001C37.1001 44.8002 33.6001 43.8002 31.1001 41.2002C28.0001 38.0002 27.1001 36.7002 25.3001 33.2002C23.0001 28.9002 21.5001 25.3002 21.0001 22.6002C20.7001 21.2002 21.6001 20.0002 23.0001 19.4002C26.4001 17.9002 31.5001 16.4002 38.5001 16.6002H38.6001Z" fill="#868D9E"/>
<path d="M38.4004 45.6996C37.0004 45.5996 33.3005 44.4996 30.6005 41.6996C27.5005 38.4996 26.6005 37.1997 24.7005 33.4997C22.4005 29.1997 20.9004 25.4997 20.3004 22.6996C19.9004 21.0996 20.9005 19.3997 22.7005 18.5997C27.4005 16.4997 32.7004 15.5996 38.5005 15.6996H38.6005C45.9005 15.4996 50.7004 16.9997 54.4004 18.4997C56.2004 19.1997 57.1004 20.9997 56.8004 22.6996C56.2004 25.4997 54.7004 29.1997 52.4004 33.4997C50.5004 37.0997 49.6005 38.4996 46.5005 41.6996C43.8004 44.4996 40.1005 45.5996 38.7005 45.6996H38.4004ZM37.3004 17.3996C32.2004 17.3996 27.5004 18.2997 23.4004 20.0997C22.5004 20.4997 21.6004 21.3997 21.8004 22.4997C22.4004 25.0997 23.9005 28.7996 26.0005 32.8996C27.8005 36.3996 28.6005 37.5996 31.7005 40.6996C34.1005 43.1996 37.5005 44.0996 38.5005 44.1996H38.6005C39.5005 44.0996 42.9004 43.1996 45.3004 40.6996C48.3004 37.5996 49.1005 36.2996 51.0005 32.8996C53.2005 28.7996 54.7005 25.0997 55.2005 22.4997C55.4005 21.4997 54.8004 20.4997 53.8004 20.0997C50.2004 18.6997 45.6005 17.1996 38.6005 17.3996H38.5005C38.1005 17.3996 37.7004 17.3996 37.3004 17.3996Z" fill="black"/>
<path d="M38.5998 36.7002C34.8998 36.7002 27.0998 18.7002 27.0998 18.7002C27.0998 18.7002 24.8998 19.4002 23.5998 20.0002C23.3998 20.1002 22.6998 20.5002 22.4998 20.7002C22.1998 21.0002 21.8998 21.5002 21.8998 21.7002C21.7998 22.2002 21.8998 22.7002 21.9998 23.0002C22.4998 25.3002 24.4998 29.9002 26.8998 34.3002C28.5998 37.4002 31.2998 40.3002 33.2998 41.9002C34.3998 42.8002 37.3998 44.1002 38.6998 44.1002C39.9998 44.1002 42.8998 42.8002 44.0998 41.9002C46.0998 40.3002 48.7998 37.3002 50.4998 34.3002C52.8998 29.9002 54.8998 25.3002 55.3998 23.0002C55.4998 22.7002 55.5998 22.2002 55.4998 21.7002C55.3998 21.3002 55.1998 21.0002 54.8998 20.7002C54.4998 20.3002 53.9998 20.1002 53.7998 20.0002C52.4998 19.5002 50.1998 18.8002 50.1998 18.8002C50.1998 18.8002 42.2998 36.7002 38.5998 36.7002Z" fill="#585D72"/>
</svg>
