<svg width="44" height="37" viewBox="0 0 44 37" fill="none" xmlns="http://www.w3.org/2000/svg">
<mask id="mask0_17_504" style="mask-type:luminance" maskUnits="userSpaceOnUse" x="0" y="0" width="44" height="37">
<path d="M43.9 0H0V36.1H43.9V0Z" fill="white"/>
</mask>
<g mask="url(#mask0_17_504)">
<path d="M41.601 20.7997C40.801 19.0997 38.001 16.7998 37.401 16.3998C33.901 13.8998 30.801 12.8997 29.301 12.4997C28.301 12.1997 27.201 11.8997 26.301 12.4997C25.501 13.0997 24.601 14.4997 23.901 15.1997C23.601 15.4997 22.901 15.8998 22.201 15.8998C21.401 15.8998 20.501 15.4997 20.201 15.1997C19.501 14.4997 18.601 13.0997 17.801 12.4997C16.901 11.8997 15.801 12.2997 14.801 12.4997C13.301 12.8997 10.301 13.8998 6.70099 16.3998C6.10099 16.7998 3.30099 19.0997 2.50099 20.7997C1.10099 23.7997 0.000991583 28.1997 4.90099 33.1997C7.30099 35.6997 9.40099 35.5997 10.901 34.2997C11.701 33.5997 13.501 32.1997 15.201 30.0997C15.801 29.2997 16.801 28.3997 18.101 27.6997C19.201 27.0997 20.601 26.5997 22.001 26.4997C23.501 26.5997 24.801 26.9997 25.901 27.6997C27.201 28.3997 27.901 29.3997 28.601 30.1997C30.401 32.0997 32.201 33.6998 33.001 34.3998C34.601 35.6998 36.601 35.7997 39.001 33.2997C44.101 28.2997 43.001 23.7997 41.601 20.7997ZM17.501 23.2997C16.901 24.6997 15.101 26.3998 13.701 27.3998C11.901 28.6998 10.801 29.8997 9.70099 30.1997C8.70099 30.4997 7.10099 29.7997 6.20099 27.9997C5.10099 25.6997 5.60099 20.5997 9.00099 18.4997C13.001 15.9997 16.101 18.1997 16.901 18.9997C17.801 19.9997 18.101 21.9997 17.501 23.2997ZM37.901 27.9997C37.001 29.7997 35.401 30.4997 34.401 30.1997C33.301 29.8997 32.401 28.7997 30.501 27.2997C29.101 26.1997 27.201 24.5997 26.601 23.1997C26.001 21.7997 26.301 19.7997 27.101 18.9997C27.901 18.0997 31.001 15.9997 35.001 18.4997C38.501 20.4997 39.001 25.6997 37.901 27.9997Z" fill="#D3D3D3"/>
<path d="M35.501 35.5002C34.901 35.5002 34.201 35.4001 33.701 35.1001C33.401 34.9001 32.601 34.4002 32.401 34.2002C31.501 33.5002 30.201 32.2002 28.901 30.8002C28.701 30.6002 27.701 29.5002 27.601 29.4002C27.201 28.9002 26.501 28.4002 25.801 27.9002C24.601 27.2002 23.501 26.8002 22.201 26.8002C20.901 26.8002 19.601 27.2002 18.401 27.9002C17.301 28.5002 16.401 29.3002 15.701 30.2002C15.301 30.7002 14.801 31.2001 14.401 31.6001C13.701 32.3001 12.501 33.5002 11.401 34.4002C10.701 34.9002 10.101 35.2002 9.90098 35.3002C8.60098 35.8002 6.80098 35.6002 4.70098 33.4002C-0.399022 28.2002 0.800978 23.6002 2.20098 20.6002C3.00098 18.8001 5.80098 16.5001 6.50098 16.1001C10.101 13.6001 13.201 12.6002 14.701 12.2002L15.001 12.1001C16.001 11.9001 17.101 11.6002 18.001 12.2002C18.601 12.6002 19.101 13.3002 19.601 13.9002C19.901 14.3002 20.201 14.6002 20.501 14.9002C20.801 15.2002 21.601 15.6002 22.201 15.5002C22.801 15.5002 23.401 15.1002 23.601 14.9002C23.901 14.6002 24.101 14.3002 24.501 13.9002C25.001 13.2002 25.601 12.6002 26.101 12.2002C27.001 11.6002 28.101 11.9001 29.101 12.1001L29.401 12.2002C30.901 12.6002 34.001 13.6001 37.601 16.1001C38.301 16.6001 40.901 18.6002 42.001 20.6002C43.401 23.6002 44.701 28.5002 39.401 33.4002C37.901 35.0002 36.601 35.5002 35.501 35.5002ZM22.101 26.2002C23.501 26.3002 24.701 26.6002 26.001 27.3002C26.901 27.8002 27.601 28.4002 28.101 28.9002C28.301 29.2002 29.301 30.3002 29.501 30.5002C30.601 31.7002 31.701 32.7002 32.501 33.4002C32.801 33.7002 34.201 34.5002 34.701 34.7002C36.101 35.1002 37.301 34.6001 38.901 33.1001C43.601 28.3001 42.701 24.2001 41.301 21.1002C40.501 19.4002 37.801 17.2002 37.201 16.9002C33.701 14.4002 30.701 13.5001 29.301 13.1001L29.001 13.0002C28.101 12.8002 27.201 12.6002 26.601 13.0002C26.101 13.3002 25.601 14.0001 25.101 14.6001C24.801 15.0001 24.501 15.4002 24.201 15.7002C23.901 16.0002 23.101 16.5002 22.301 16.5002C21.401 16.5002 20.401 16.0002 20.001 15.7002C19.701 15.4002 19.401 15.0001 19.101 14.6001C18.601 14.0001 18.101 13.3002 17.601 13.0002C16.901 12.5002 16.101 12.7002 15.201 13.0002C15.101 13.0002 14.901 13.1001 14.801 13.1001C13.301 13.5001 10.801 14.1002 6.90098 16.8002C6.10098 17.4002 3.60098 19.4002 2.90098 20.9002C1.50098 23.9002 0.500977 28.3001 5.30098 33.1001C6.80098 34.6001 8.10098 35.0002 9.30098 34.7002C9.50098 34.6002 10.201 34.3001 11.101 33.6001C12.401 32.5001 14.201 30.8002 15.101 29.7002C15.801 28.8002 16.701 28.0002 17.901 27.3002C19.201 26.6002 20.601 26.2002 22.101 26.2002ZM9.30098 30.8002C8.20098 30.8002 6.80098 30.0002 6.00098 28.3002C4.80098 25.8002 5.30098 20.5002 8.90098 18.3002C12.801 15.9002 16.101 17.6002 17.301 18.9002C18.301 19.9002 18.501 22.0002 17.901 23.5002C17.301 25.0002 15.401 26.8002 14.001 27.8002C13.401 28.2002 12.801 28.7001 12.301 29.1001C11.401 29.9001 10.701 30.5002 9.90098 30.7002C9.70098 30.8002 9.50098 30.8002 9.30098 30.8002ZM12.801 17.8002C11.801 17.8002 10.601 18.1002 9.30098 18.9002C6.20098 20.8002 5.60098 25.7002 6.70098 28.0002C7.50098 29.7002 9.00098 30.3002 9.70098 30.0002C10.301 29.8002 11.001 29.2002 11.901 28.5002C12.401 28.1002 12.901 27.6002 13.601 27.2002C15.001 26.2002 16.701 24.5002 17.301 23.2002C17.901 21.9002 17.501 20.1002 16.801 19.3002C16.701 19.3002 15.201 17.8002 12.801 17.8002ZM34.901 30.7002C34.701 30.7002 34.501 30.7001 34.301 30.6001C33.401 30.3001 32.701 29.7002 31.601 28.8002C31.201 28.5002 30.801 28.1002 30.301 27.7002C28.701 26.4002 26.901 24.9002 26.301 23.5002C25.701 22.0002 26.001 19.9002 26.901 18.9002C28.101 17.6002 31.401 15.9002 35.301 18.3002C38.901 20.5002 39.401 25.8002 38.201 28.3002C37.401 29.8002 36.001 30.7002 34.901 30.7002ZM31.401 17.7002C29.001 17.7002 27.501 19.2002 27.501 19.3002C26.801 20.0002 26.501 21.8002 27.001 23.2002C27.601 24.6002 29.701 26.3002 30.801 27.2002C31.301 27.6002 31.801 28.0002 32.201 28.3002C33.201 29.2002 33.901 29.7002 34.601 30.0002C35.401 30.2002 36.801 29.7002 37.601 28.0002C38.701 25.7002 38.101 20.9002 35.001 18.9002C33.601 18.0002 32.401 17.7002 31.401 17.7002Z" fill="black"/>
<path d="M17.6016 28.2998L16.6016 28.4998C17.1016 27.9998 20.1016 24.3998 20.1016 20.2998C20.1016 17.4998 18.8016 13.9998 18.8016 13.9998L19.5016 13.7998C19.6016 13.8998 20.8016 17.4998 20.9016 20.3998C20.9016 24.7998 18.2016 27.7998 17.6016 28.2998Z" fill="black"/>
<path d="M25.8012 27.8004C25.0012 27.0004 23.3012 24.6004 23.2012 20.4004C23.2012 17.5004 24.5012 14.0004 24.6012 13.9004L25.3012 14.2004C25.3012 14.2004 23.9012 17.7004 23.9012 20.5004C24.0012 24.4004 25.9012 27.1004 26.5012 27.8004H25.8012Z" fill="black"/>
<path d="M13.9 2.89966C12.7 3.79966 12.2 4.49961 12.9 5.09961C14.9 6.69961 16.4 8.19965 17.7 10.6996C18.6 12.3996 19.3 14.0997 20.1 17.3997C20.3 18.2997 20.6 18.8997 21.1 19.3997C21.4 19.6997 21.8 19.8997 22.2 19.8997C22.9 19.8997 23.9 19.3996 24.4 17.0996C25.2 14.0996 25.1 13.0996 26.4 10.4996C27.8 7.49963 29.8 6.09966 30.9 4.89966C31.6 4.19966 31.2 3.79963 30.1 2.99963C28.3 1.59963 25.4 0.899634 21.5 0.999634C18.2 1.09963 15.3 1.89966 13.9 2.89966Z" fill="#DDDDDD"/>
<path d="M22.0016 20.3C21.5016 20.3 21.1016 20.1 20.7016 19.7C20.2016 19.2 19.9016 18.5 19.6016 17.5C18.8016 14.3 18.2016 12.6 17.3016 10.8C16.1016 8.39999 14.7016 6.89999 12.6016 5.29999C12.2016 4.99999 12.1016 4.60002 12.1016 4.40002C12.1016 3.80002 12.6016 3.2 13.6016 2.5C15.2016 1.3 18.2016 0.6 21.4016 0.5C25.4016 0.5 28.4016 1.09998 30.2016 2.59998C30.9016 3.19998 31.4016 3.49998 31.4016 4.09998C31.4016 4.49998 31.2016 4.79998 31.0016 5.09998C30.7016 5.39998 30.5016 5.60002 30.2016 5.90002C29.1016 7.00002 27.7016 8.29998 26.6016 10.6C25.7016 12.5 25.5016 13.5 25.1016 15.1C25.0016 15.7 24.8016 16.4 24.6016 17.2C24.2016 19.3 23.3016 20.3 22.0016 20.3C22.1016 20.3 22.1016 20.3 22.0016 20.3ZM14.1016 3.20001C13.1016 3.90001 12.9016 4.4 12.9016 4.5C12.9016 4.6 12.9016 4.69999 13.1016 4.79999C15.2016 6.49999 16.7016 8 18.0016 10.5C18.9016 12.3 19.6016 14.1 20.4016 17.3C20.6016 18.1 20.9016 18.7 21.3016 19.1C21.6016 19.4 21.9016 19.5 22.1016 19.5C23.0016 19.5 23.6016 18.6 24.0016 16.9C24.2016 16.1 24.4016 15.4 24.5016 14.8C24.9016 13.2 25.1016 12.2 26.0016 10.2C27.2016 7.80001 28.7016 6.29999 29.8016 5.29999C30.1016 4.99999 30.4016 4.8 30.6016 4.5C30.7016 4.4 30.8016 4.19998 30.8016 4.09998C30.8016 3.89998 30.3016 3.49998 29.8016 3.09998C28.1016 1.79998 25.2016 1.10001 21.4016 1.20001C18.4016 1.50001 15.5016 2.20001 14.1016 3.20001Z" fill="black"/>
</g>
</svg>
