<svg width="44" height="29" viewBox="0 0 44 29" fill="none" xmlns="http://www.w3.org/2000/svg">
<mask id="mask0_17_560" style="mask-type:luminance" maskUnits="userSpaceOnUse" x="0" y="0" width="44" height="29">
<path d="M43.9 0H0V28.9H43.9V0Z" fill="white"/>
</mask>
<g mask="url(#mask0_17_560)">
<path d="M35.4996 2.59956C31.4996 -0.100438 26.7996 0.399586 25.1996 2.49959C23.4996 4.59959 25.5996 10.0996 22.2996 10.1996C19.7996 10.2996 20.5996 7.1996 19.7996 4.1996C18.9996 1.2996 16.2996 0.899598 15.2996 0.699598C14.2996 0.499598 11.9996 0.0995739 8.59961 2.29957C3.99961 5.29957 1.59961 13.1996 1.59961 15.7996C1.59961 15.7996 3.39961 19.0996 6.19961 22.2996C9.39961 25.9996 13.5996 28.0996 13.5996 28.0996C13.5996 28.0996 12.3996 12.1996 21.9996 12.1996C31.2996 12.1996 30.8996 27.7996 30.8996 27.7996C30.8996 27.7996 34.9996 25.9996 37.9996 22.1996C40.2996 19.2996 42.2996 15.9996 42.2996 15.9996C41.7996 12.6996 39.8996 5.59956 35.4996 2.59956ZM17.7996 9.49959C17.2996 10.7996 15.4996 12.1996 14.1996 13.1996C12.5996 14.3996 11.6996 15.5996 10.5996 15.8996C9.69961 16.1996 8.19961 15.4996 7.39961 13.8996C6.49961 11.6996 6.99961 6.99956 9.99961 5.09956C13.6996 2.79956 16.4996 4.79956 17.2996 5.59956C18.0996 6.39956 18.3996 8.19959 17.7996 9.49959ZM36.4996 13.6996C35.6996 15.3996 34.1996 15.9996 33.2996 15.6996C32.2996 15.3996 31.2996 14.0996 29.6996 12.9996C28.3996 12.0996 26.6996 10.5996 26.0996 9.29957C25.6996 7.99957 25.9996 6.19959 26.6996 5.49959C27.4996 4.69959 30.2996 2.69959 33.9996 4.99959C37.0996 6.89959 37.5996 11.5996 36.4996 13.6996Z" fill="#D3D3D3"/>
<path d="M13.9998 28.7995L13.3998 28.4996C13.1998 28.3996 9.09976 26.3995 5.89976 22.5995C3.09976 19.3995 1.29976 15.9996 1.29976 15.9996V15.8996V15.7996C1.19976 13.0996 3.69976 5.09956 8.39976 1.99956C11.9998 -0.400438 14.4998 0.0995496 15.2998 0.29955H15.4998C16.5998 0.49955 19.1998 1.09956 20.0998 3.99956C20.3998 4.99956 20.4998 5.99955 20.5998 6.79955C20.7998 8.79955 20.9998 9.69957 22.2998 9.69957C23.7998 9.59957 23.9998 8.29956 24.0998 5.99956C24.1998 4.59956 24.1998 3.09954 24.9998 2.09954C26.7998 -0.100463 31.5998 -0.600426 35.7998 2.19957C40.6998 5.49957 42.3998 13.3995 42.7998 15.7996V15.8996L42.6998 15.9996C42.6998 15.9996 40.6998 19.3995 38.3998 22.2995C35.3998 26.0995 31.2998 27.9995 31.1998 28.0995L30.6998 28.2995V27.6996C30.6998 27.5996 30.8998 18.4996 26.8998 14.3996C25.5998 13.0996 23.9998 12.3996 22.1998 12.3996C20.2998 12.3996 18.5998 13.0996 17.3998 14.4996C13.4998 18.6996 13.9998 27.7996 13.9998 27.8996V28.7995ZM1.89976 15.7996C2.19976 16.2995 3.89976 19.2996 6.39976 22.1996C8.89976 24.9996 11.8998 26.8995 13.0998 27.5995C12.9998 25.3995 12.9998 17.9996 16.5998 14.1996C17.9998 12.6996 19.7998 11.8996 21.9998 11.8996C24.0998 11.8996 25.7998 12.5995 27.2998 14.0995C30.8998 17.7995 31.2998 25.1995 31.2998 27.2995C32.4998 26.6995 35.4998 24.8996 37.7998 21.9996C39.7998 19.3996 41.5998 16.4996 41.9998 15.8996C41.5998 13.4996 39.8998 5.99959 35.2998 2.89959C31.5998 0.399586 26.9998 0.699574 25.3998 2.69957C24.7998 3.49957 24.6998 4.79957 24.6998 6.19957C24.5998 8.19957 24.4998 10.4995 22.2998 10.5995C20.1998 10.5995 19.9998 8.79956 19.7998 6.99956C19.6998 6.19956 19.5998 5.19955 19.3998 4.29955C18.6998 1.79955 16.3998 1.29954 15.3998 1.09954H15.1998C14.4998 0.899537 12.2998 0.499574 8.89976 2.69957C4.39976 5.49957 1.99976 13.0996 1.89976 15.7996ZM10.2998 16.2995C9.29976 16.2995 7.89976 15.4996 7.19976 13.9996C6.09976 11.6996 6.59976 6.89955 9.89976 4.79955C13.4998 2.59955 16.4998 4.19955 17.5998 5.29955C18.4998 6.19955 18.6998 8.19954 18.1998 9.59954C17.6998 10.6995 16.4998 11.9996 14.4998 13.3996C13.8998 13.8996 13.2998 14.2996 12.7998 14.7996C12.0998 15.3996 11.4998 15.9996 10.7998 16.1996C10.5998 16.2996 10.3998 16.2995 10.2998 16.2995ZM13.4998 4.39959C12.5998 4.39959 11.4998 4.69959 10.2998 5.39959C7.39976 7.19959 6.89976 11.5996 7.89976 13.6996C8.59976 15.1996 9.99976 15.6996 10.6998 15.4996C11.1998 15.2996 11.7998 14.8996 12.3998 14.1996C12.8998 13.7996 13.3998 13.2996 14.0998 12.7996C15.9998 11.4995 17.0998 10.2996 17.4998 9.29955C17.9998 8.09955 17.6998 6.49955 17.0998 5.79955C16.9998 5.79955 15.6998 4.39959 13.4998 4.39959ZM33.7998 16.0995C33.5998 16.0995 33.3998 16.0996 33.2998 15.9996C32.5998 15.7996 31.9998 15.1995 31.2998 14.5995C30.7998 14.1995 30.2998 13.6996 29.5998 13.1996C27.5998 11.7996 26.3998 10.4996 25.8998 9.39959C25.2998 7.99959 25.5998 6.09954 26.4998 5.09954C27.5998 3.89954 30.5998 2.29954 34.1998 4.59954C37.4998 6.59954 37.9998 11.4995 36.8998 13.7996C36.0998 15.3996 34.7998 16.0995 33.7998 16.0995ZM30.5998 4.29955C28.3998 4.29955 26.9998 5.69957 26.9998 5.69957C26.3998 6.39957 25.9998 7.99957 26.5998 9.19957C26.9998 10.1996 28.1998 11.3996 29.9998 12.6996C30.6998 13.1996 31.1998 13.6995 31.6998 14.0995C32.3998 14.6995 32.8998 15.1996 33.3998 15.3996C34.0998 15.5996 35.3998 15.0995 36.1998 13.5995C37.1998 11.4995 36.5998 7.09955 33.7998 5.29955C32.5998 4.49955 31.4998 4.29955 30.5998 4.29955Z" fill="black"/>
</g>
</svg>
