<svg width="86" height="92" viewBox="0 0 86 92" fill="none" xmlns="http://www.w3.org/2000/svg">
<path d="M32.5742 88.5527C30.1372 87.6226 26.3472 86.161 18.4942 80.182C13.8912 76.8603 6.85118 66.231 5.22718 62.5107C0.759185 52.5457 1.43618 28.7624 3.60218 21.189C4.41418 18.5317 7.66418 12.6855 8.88218 10.8254C10.6422 8.03521 14.7042 3.91632 18.4942 2.58765C23.6392 0.860382 28.1072 3.65059 28.6482 5.90933C29.8672 10.9582 16.4642 25.5736 22.2852 26.7694C26.3472 27.5666 33.2512 20.3918 37.4482 21.5876C40.4272 22.3848 41.1042 24.9093 42.8642 24.9093C43.8112 24.9093 45.9772 22.3848 47.7372 21.9862C53.5592 20.2589 60.1932 28.0981 63.0362 27.168C65.0672 26.5037 66.0142 23.8464 62.3592 18.7974C60.3282 16.0072 56.2672 8.83241 56.8082 5.51073C57.3502 2.58765 63.7132 1.52472 66.1502 1.92332C72.1072 2.98625 79.0112 11.3568 81.3132 19.7275C85.2392 33.2799 84.8332 43.5107 83.4792 50.8184C82.5312 55.7345 80.7712 60.7834 76.0332 69.6855C71.7012 77.6575 61.9532 84.9652 57.7562 86.6925C48.6852 90.1471 42.3222 92.2729 32.5742 88.5527Z" fill="white"/>
<path d="M7.93575 39.1261C7.93575 39.1261 7.12375 33.1471 9.15475 26.238C11.7268 17.8673 15.7887 13.7485 18.3607 12.0212C21.6097 9.89529 25.8067 8.69951 25.8067 11.224C25.8067 13.3499 25.2657 14.6785 24.3177 16.2729C21.6097 21.189 19.5787 25.8394 22.4227 27.1681C25.2657 28.3639 33.5238 20.7904 38.3978 21.5876C40.5638 21.9862 42.1888 25.0422 43.4068 24.9093C46.1148 24.6436 46.1147 20.5247 49.7697 21.7205C52.0717 22.3848 52.7487 22.7834 56.5387 24.5107C63.4437 27.5667 64.2557 27.5667 64.7977 26.3708C66.0157 23.8464 62.6318 19.7275 61.4128 15.6086C60.0588 11.0911 60.6007 10.1611 62.4957 10.1611C66.8287 9.89529 74.0038 14.8114 76.1698 25.175C77.2528 30.6226 77.9297 32.7485 77.9297 38.5946C77.9297 38.5946 84.2927 46.0352 84.2927 47.0981C84.2927 47.0981 81.8558 59.4548 81.7207 59.5876C81.7207 59.5876 75.4927 50.4198 73.5977 48.5597C71.7027 46.6995 67.3697 43.245 62.6317 40.5876C59.1117 38.5946 54.1027 36.7345 50.5827 37.5317C46.7917 38.3289 46.2497 41.6506 45.1667 42.182C41.7827 43.5107 39.2097 41.1191 35.6897 38.7275C30.9517 35.5387 18.9027 42.3149 13.3517 47.6296C6.58275 54.2729 3.33275 58.3918 3.33275 58.3918L1.84375 46.8324L7.93575 39.1261Z" fill="#D1CAB6"/>
<path d="M10.5075 69.9513C7.52854 65.8325 5.36255 59.5877 4.68555 57.5947C4.68555 57.5947 6.58154 54.0073 9.28854 51.6157C10.5075 50.5527 14.0275 46.1681 18.7655 43.1122C24.9935 38.9933 33.3875 37.0003 35.1475 37.3989C38.1255 38.1961 39.2085 42.9793 42.0515 42.8465C45.0305 42.7136 46.3845 37.1332 49.9045 37.266C53.5595 37.3989 62.7655 39.7905 66.6915 42.8465C75.3565 49.4898 81.3135 59.0562 81.3135 59.0562C81.3135 59.0562 77.1165 70.6157 68.9935 78.7206C63.8485 83.7695 58.7045 86.6926 58.7045 86.6926C58.7045 86.6926 57.8915 81.1122 57.3505 76.0632C56.8085 70.8814 53.2885 63.8395 50.4455 62.2451C44.8945 59.0562 42.9995 58.5248 37.9905 60.5178C33.7935 62.2451 30.4085 66.4968 29.3255 71.9444C28.6485 75.5318 27.9715 82.4409 28.2425 86.0283C28.3775 86.0283 19.4425 82.4409 10.5075 69.9513Z" fill="#E6E6E6"/>
<path d="M41.2403 91.0772C33.9293 90.8115 28.9203 88.1542 23.5053 85.0982C18.7663 82.4409 12.5383 75.3989 8.74831 69.8185C4.28031 62.9094 1.70831 55.6017 1.16631 47.8954C0.48931 39.259 1.43731 26.7695 3.06231 21.1891C4.14531 17.0702 9.15431 4.71356 17.6833 1.65762C21.3383 0.328952 25.1293 0.993282 28.9203 3.51776C32.1693 5.64363 28.9203 11.6227 25.9423 17.4688C24.4523 20.1262 22.1513 24.7765 22.6923 25.5737C24.5883 26.5038 27.0253 24.9094 29.5973 23.4479C31.2223 22.5178 32.8463 21.4549 34.6063 20.9234C37.5853 19.8604 39.8863 19.8604 41.9173 22.9164C41.9173 22.9164 41.9173 22.9164 41.9173 23.0493C41.9173 23.0493 42.4583 23.8465 43.2713 23.7136C44.0833 23.5807 44.7603 23.0493 45.0313 22.7835C47.1973 19.5947 49.7693 19.9933 52.2063 20.9234C53.8313 21.4549 55.4553 22.5178 56.9453 23.4479C59.6523 25.0423 62.2253 26.6367 64.1203 25.7066C64.6623 24.9094 62.2253 20.3919 60.8713 17.7346C57.7573 11.8884 54.6433 5.90937 57.7573 3.65062C61.2773 0.993282 64.9323 0.328952 68.5883 1.65762C76.8463 4.58069 82.1263 16.8045 83.3453 21.1891C84.9693 26.7695 85.7823 39.259 85.2403 47.8954C84.5633 58.259 80.0953 66.0982 77.6583 69.8185C73.8683 75.266 67.7753 82.4409 63.0373 85.0982C57.7573 88.1542 52.7483 90.6786 45.4373 91.0772H41.2403ZM21.3383 3.11916C20.3913 3.11916 19.3083 3.25202 18.3603 3.65062C11.3203 6.1751 6.31131 16.9374 4.95731 21.7206C3.46831 27.1681 2.52031 39.259 3.06231 47.7625C3.60331 55.2031 6.04031 62.2451 10.5083 68.6227C14.0283 74.0702 19.9853 80.8465 24.4523 83.3709C29.7323 86.4269 34.3353 88.8185 41.2403 89.0842H45.3023C52.0713 88.6856 56.6743 86.4269 61.9543 83.3709C66.2863 80.9793 72.2433 74.2031 76.0343 68.6227C78.4713 65.0353 82.6683 57.5947 83.3453 47.7625C83.8863 39.3919 83.0743 27.1681 81.4493 21.8535C80.3663 18.0003 75.3573 6.1751 67.9113 3.65062C64.9323 2.58769 61.8183 3.11916 58.7053 5.24503C56.9453 6.44083 60.1943 12.6856 62.3603 16.8045C64.9323 21.5877 66.4223 24.6437 65.7453 26.3709C65.6093 26.9024 65.2033 27.301 64.6623 27.5667C61.8183 28.8954 58.5693 27.0353 55.5913 25.308C54.1023 24.3779 52.6123 23.5807 51.1233 23.0493C48.5513 22.1192 47.4683 22.5178 46.2493 24.2451L46.1143 24.3779C45.7083 24.7765 44.6253 25.8395 43.0003 25.9723C41.2403 26.1052 40.0223 24.7765 39.7513 24.2451C38.5323 22.3849 37.5853 22.1192 34.8773 23.0493C33.3883 23.5807 31.7633 24.5108 30.2743 25.4409C27.2953 27.1681 24.1823 29.0283 21.3383 27.6996C20.7973 27.4339 20.5263 27.0353 20.2553 26.5038C19.5783 24.7765 21.2033 21.7206 23.6403 16.8045C25.8063 12.6856 29.0553 6.5737 27.2953 5.3779C25.5353 3.78349 23.3693 3.11916 21.3383 3.11916Z" fill="black"/>
<path d="M2.11465 47.8954C1.97865 47.8954 1.70866 47.8954 1.57266 47.7625C1.03166 47.4968 0.895656 46.8325 1.16666 46.4339C1.43766 46.0353 6.98866 37.0003 14.0287 31.4199C19.5787 27.0353 23.9117 25.9723 24.0467 25.9723C24.5887 25.8395 25.1297 26.1052 25.2657 26.6367C25.4007 27.1681 25.1297 27.6996 24.5887 27.8325C24.5887 27.8325 20.5267 28.8954 15.3827 33.0143C8.61266 38.329 3.06265 47.3639 2.92665 47.4968C2.79165 47.7625 2.52065 47.8954 2.11465 47.8954Z" fill="black"/>
<path d="M84.1572 47.8953C83.7512 47.8953 83.4802 47.7624 83.3452 47.3638C83.3452 47.231 77.6582 38.3289 71.0252 32.8813C65.8802 28.8953 61.8182 27.8324 61.8182 27.6995C61.2772 27.5666 61.0062 27.0352 61.1422 26.5037C61.2772 25.9722 61.6832 25.9722 62.2252 26.1051C62.3602 26.1051 66.8282 27.0352 72.3782 31.2869C79.2832 36.8673 84.8342 45.7694 85.1052 46.168C85.3752 46.6995 85.3752 47.3638 84.8342 47.6296C84.5632 47.7624 84.2922 47.8953 84.1572 47.8953Z" fill="black"/>
<path d="M4.82227 57.4614C4.82227 57.4614 8.47726 52.4125 11.7263 49.0908C13.3513 47.3635 17.2773 44.0419 18.3603 43.5104C22.8283 40.7202 29.1913 38.3286 31.4923 37.7971C33.1173 37.3985 34.8773 36.867 36.3663 37.7971C37.7203 38.7272 39.2093 40.8531 40.2923 42.0489C42.5943 44.3076 43.6773 43.1118 45.7083 41.1188C46.5203 40.3216 47.6033 38.3286 49.3633 37.7971C51.5293 37.1328 54.6433 37.2656 56.8093 38.1957C60.6003 39.7901 64.2553 40.1887 67.2343 42.8461C68.3173 43.7761 71.4313 46.1677 73.7323 48.4265C77.5233 52.4125 81.1783 59.4545 81.1783 59.4545C81.1783 59.4545 79.5543 63.1747 79.1483 63.8391C77.5233 67.0279 75.2222 70.4824 75.2222 70.4824C75.2222 70.4824 72.5143 74.2027 70.4833 76.4614C68.3173 78.8531 65.4743 81.7761 63.0373 83.3705C61.4123 84.4335 58.8403 85.6293 58.8403 85.6293C58.8403 85.6293 57.8923 78.1887 56.2683 71.4125C55.1853 66.6293 52.7483 62.2447 49.4983 60.916C41.6463 57.5943 34.6063 61.9789 32.3053 65.4335C29.8683 69.0209 28.2433 84.4335 28.2433 86.0279C28.2433 86.0279 24.1823 84.0349 22.5573 82.7062C20.3913 80.9789 18.7663 79.3845 17.6833 78.1887C15.5173 75.93 11.4553 71.0139 9.96626 68.4894C9.15426 67.1608 7.39426 64.3705 6.85226 62.909C5.90526 60.7831 4.82227 57.4614 4.82227 57.4614Z" fill="#D1CAB6"/>
<path d="M80.7723 59.9863C78.8773 56.7975 73.7323 48.6926 66.1513 43.7765C59.3823 39.3919 51.8003 38.0632 49.7693 38.329C49.2283 38.329 48.2803 39.5248 47.4683 40.4548C46.1143 42.0492 44.6253 43.9094 42.5943 43.9094C40.2923 43.9094 38.6683 41.9164 37.4493 40.322C36.9083 39.6576 35.9603 38.4618 35.6893 38.4618C33.9293 38.329 26.3483 39.6576 19.4433 44.4409C11.4553 49.7555 6.44625 56.1332 5.09225 58.7905L3.19727 57.9933C4.68627 54.9374 9.83127 48.4269 18.2253 42.8464C25.1293 38.0632 33.1173 36.336 35.8253 36.6017C37.0433 36.7346 37.9913 37.7975 39.0743 39.259C40.1573 40.5877 41.3753 42.0492 42.5943 42.0492C43.6773 42.0492 44.8953 40.5877 45.9783 39.259C47.1973 37.9304 48.2803 36.6017 49.6343 36.4688C52.2063 36.2031 60.1943 37.5318 67.3693 42.1821C75.3573 47.3639 80.6373 55.7346 82.5323 59.1891L80.7723 59.9863Z" fill="black"/>
<path d="M59.9231 86.6922H57.892C57.892 86.5593 58.163 70.7482 51.258 63.7062C49.092 61.5803 46.3851 60.5174 43.4061 60.5174C40.1571 60.5174 37.314 61.7132 35.148 63.9719C28.514 71.0139 29.597 86.2936 29.597 86.4265L27.566 86.5593C27.566 85.895 26.4831 70.2167 33.6581 62.5104C36.2311 59.853 39.4801 58.5244 43.4061 58.5244C47.0621 58.5244 50.175 59.853 52.748 62.3775C60.194 69.951 59.9231 86.0279 59.9231 86.6922Z" fill="black"/>
<path d="M36.5017 62.6434L35.0117 61.3148L35.1477 61.049C38.2617 57.5945 39.7507 53.8742 39.7507 50.0211C39.6147 45.7693 37.5847 39.9232 37.4487 39.7903L39.0737 39.2588C39.2087 39.5246 41.5107 45.3707 41.6457 49.8882C41.7817 54.2728 40.0217 58.5246 36.5017 62.3777V62.6434Z" fill="black"/>
<path d="M49.9048 62.3771C49.0918 61.5799 44.8948 57.0624 44.7598 49.8876C44.7598 45.2373 47.1968 38.5939 47.1968 38.1953L49.0918 38.461C49.0918 38.5939 46.6548 45.503 46.6548 49.8876C46.7908 56.3981 50.7168 60.517 51.2578 61.0484L49.9048 62.3771Z" fill="black"/>
<path d="M42.1884 81.5108C41.3754 81.5108 40.6984 81.3779 39.8864 80.9793C37.3144 80.0492 36.3664 77.1262 36.3664 76.9933C36.2314 76.4618 36.5024 75.9304 37.0434 75.7975C37.5854 75.6646 38.1263 75.9304 38.2623 76.4618C38.2623 76.4618 38.9384 78.5877 40.5634 79.1192C41.5114 79.5178 43.4063 79.9164 44.7603 78.0562C45.0313 77.6576 45.7084 77.5248 46.1144 77.9234C46.5204 78.1891 46.6553 78.8534 46.2493 79.252C45.4373 80.8464 43.8124 81.5108 42.1884 81.5108Z" fill="black"/>
<path d="M29.7321 60.916C32.0341 59.3216 35.0121 56.93 35.9601 54.6712C36.9081 52.4125 36.3661 49.3565 35.1481 48.0279C33.7941 46.6992 28.9201 43.2447 22.4221 47.2307C17.0061 50.5523 16.1941 58.5244 17.9541 62.2447C19.3081 65.1677 22.0151 66.2307 23.5051 65.6992C25.2651 65.1677 26.8891 62.909 29.7321 60.916Z" fill="white"/>
<path d="M22.6923 66.8953C20.7973 66.8953 18.3603 65.4337 17.0063 62.7763C15.1113 58.6574 16.0583 50.1539 21.8803 46.5665C29.7323 41.7833 35.2833 46.9651 35.8253 47.4966C37.4493 49.2239 37.8553 52.8113 36.9083 55.2029C36.0953 57.1959 33.9293 59.4546 30.2743 61.8463C29.0553 62.6435 28.1083 63.5735 27.2953 64.2379C26.0773 65.3008 24.9943 66.3637 23.7753 66.7623C23.5053 66.7623 23.0983 66.8953 22.6923 66.8953ZM28.5143 46.4338C26.8893 46.4338 24.9943 46.8323 22.9633 48.1609C18.2253 51.084 17.2773 58.3917 18.9023 61.8463C20.1203 64.3707 22.2863 65.168 23.2343 64.7694C24.0463 64.5037 24.9943 63.7064 26.0773 62.7763C27.0253 61.9791 27.9723 61.0491 29.1913 60.119C32.3053 57.9931 34.3353 55.8673 35.0123 54.2729C35.8253 52.4128 35.2833 49.7553 34.3353 48.6924C34.0653 48.4267 31.8983 46.4338 28.5143 46.4338Z" fill="black"/>
<path d="M27.1606 58.3915C29.1046 58.3915 30.6806 56.8449 30.6806 54.937C30.6806 53.0291 29.1046 51.4824 27.1606 51.4824C25.2166 51.4824 23.6406 53.0291 23.6406 54.937C23.6406 56.8449 25.2166 58.3915 27.1606 58.3915Z" fill="black"/>
<path d="M35.9609 61.8459C35.9609 61.8459 37.7209 65.699 43.0009 65.699C48.8229 65.699 50.0409 61.5801 50.0409 61.5801C50.0409 61.5801 47.6039 59.5871 43.1359 59.4543C39.3459 59.3214 35.9609 61.8459 35.9609 61.8459Z" fill="white"/>
<path d="M43.0002 66.7621C37.1782 66.7621 35.1482 62.5104 35.0122 62.3775L34.7422 61.7132L35.4182 61.1817C35.5542 61.0489 39.0742 58.5244 43.2712 58.5244C48.0092 58.6572 50.7172 60.7831 50.8522 60.916L51.3942 61.3146L51.2582 61.9789C50.9882 62.1118 49.4982 66.7621 43.0002 66.7621ZM37.3142 62.1118C37.9912 63.0419 39.7512 64.6363 43.0002 64.6363C46.6552 64.6363 48.1452 62.909 48.8222 61.8461C47.8742 61.3146 45.9782 60.3845 43.1352 60.3845C40.6982 60.3845 38.5322 61.4475 37.3142 62.1118Z" fill="black"/>
<path d="M56.8096 60.7832C54.5086 59.1888 51.5296 56.7972 50.5826 54.5385C49.6346 52.2797 50.1756 49.2238 51.3946 47.8951C52.6126 46.5664 57.6226 43.1119 64.1206 47.0979C69.5356 50.4196 70.3486 58.3916 68.5886 62.1119C67.2346 65.035 64.5266 66.0979 63.0376 65.5664C61.2776 64.9021 59.6526 62.7762 56.8096 60.7832Z" fill="white"/>
<path d="M63.8492 66.6292C63.4432 66.6292 63.0372 66.6292 62.6312 66.4963C61.4122 66.0977 60.4652 65.1676 59.2462 64.1047C58.4342 63.3075 57.3512 62.5103 56.2682 61.5802C52.7482 59.1886 50.5822 56.9299 49.6342 54.9368C48.5512 52.5452 49.0922 48.9578 50.5822 47.2306C52.2062 45.5033 57.7572 42.0487 64.6622 46.3005C70.4832 49.8879 71.4312 58.5243 69.5352 62.6431C68.3172 65.3005 65.8802 66.6292 63.8492 66.6292ZM58.0282 46.3005C54.3722 46.3005 52.2062 48.5592 52.0712 48.6921C51.1232 49.755 50.5822 52.4124 51.3942 54.2725C52.0712 55.8669 54.1022 57.8599 57.2152 60.1187C58.4342 61.0487 59.5172 61.9788 60.4652 62.776C61.5482 63.7061 62.4952 64.5033 63.3082 64.769C64.2552 65.0348 66.4222 64.3704 67.5052 61.8459C69.1292 58.3914 68.1822 50.9508 63.4432 48.0278C61.5482 46.6991 59.6522 46.3005 58.0282 46.3005Z" fill="black"/>
<path d="M59.3813 58.2587C61.3253 58.2587 62.9013 56.712 62.9013 54.8041C62.9013 52.8962 61.3253 51.3496 59.3813 51.3496C57.4363 51.3496 55.8613 52.8962 55.8613 54.8041C55.8613 56.712 57.4363 58.2587 59.3813 58.2587Z" fill="black"/>
</svg>
