<svg width="44" height="29" viewBox="0 0 44 29" fill="none" xmlns="http://www.w3.org/2000/svg">
<mask id="mask0_17_454" style="mask-type:luminance" maskUnits="userSpaceOnUse" x="0" y="0" width="44" height="29">
<path d="M43.9 0H0V28.9H43.9V0Z" fill="white"/>
</mask>
<g mask="url(#mask0_17_454)">
<path d="M38.6004 7.49938C35.9004 4.89938 32.7004 2.99936 29.5004 1.79936C28.3004 1.29936 26.6004 1.19935 25.4004 1.59935C24.4004 1.89935 23.8004 2.9994 23.4004 3.3994C22.3004 4.4994 21.7004 5.0994 20.5004 3.8994C19.9004 3.2994 19.1004 2.09939 18.4004 1.69939C17.6004 1.19939 16.5004 1.39939 15.4004 1.69939C14.1004 1.99939 12.0004 2.79938 9.40039 4.49938C8.80039 4.69938 6.40039 6.4994 5.00039 7.8994C3.20039 9.6994 0.900391 12.5994 0.900391 12.5994C0.900391 12.5994 1.40039 14.0994 2.00039 15.3994C2.30039 16.1994 3.30039 17.7994 3.90039 18.5994C4.80039 19.8994 6.40039 21.8994 9.00039 24.3994C10.4004 25.6994 14.0004 27.6994 14.0004 27.6994C14.0004 26.7994 15.4004 18.2994 16.6004 16.2994C18.1004 13.8994 21.3004 12.0994 25.5004 13.7994C27.2004 14.4994 28.6004 16.8994 29.2004 19.3994C30.1004 22.9994 30.6004 27.5994 30.6004 27.5994C30.6004 27.5994 32.1004 27.0994 33.3004 26.1994C34.6004 25.2994 36.0004 23.9994 37.2004 22.6994C38.3004 21.4994 39.3004 19.9994 39.9004 19.0994C40.5004 18.1994 41.2004 17.1994 42.1004 15.4994C42.5004 14.5994 43.1004 13.1994 43.1004 13.1994C43.1004 13.1994 40.9004 9.79938 38.6004 7.49938ZM18.1004 10.5994C17.6004 11.7994 15.9004 13.0994 14.7004 13.8994C13.2004 14.9994 12.3004 16.0994 11.3004 16.3994C10.5004 16.5994 9.00039 16.0994 8.30039 14.4994C7.30039 12.4994 7.80039 8.29938 10.7004 6.49938C14.2004 4.39938 16.9004 6.1994 17.6004 6.8994C18.3004 7.7994 18.6004 9.39935 18.1004 10.5994ZM36.0004 14.4994C35.2004 15.9994 33.8004 16.5994 33.0004 16.3994C32.0004 16.0994 31.1004 14.9994 29.6004 13.8994C28.3004 12.9994 26.7004 11.6994 26.2004 10.5994C25.7004 9.39935 26.0004 7.79938 26.7004 6.99938C27.4004 6.29938 30.1004 4.49935 33.6004 6.59935C36.5004 8.29935 37.0004 12.4994 36.0004 14.4994Z" fill="#D3D3D3"/>
<path d="M14.1004 28.0996L13.8004 27.9997C13.7004 27.8997 10.1004 25.9997 8.70039 24.6997C6.00039 22.1997 4.40039 20.0997 3.60039 18.8997C3.00039 17.9997 2.00039 16.3996 1.60039 15.5996C1.30039 14.7996 1.00039 14.0997 0.800391 13.4997C0.700391 13.0997 0.600391 12.7997 0.500391 12.6997L0.400391 12.3997L0.500391 12.2996C0.600391 12.1996 2.90039 9.29966 4.70039 7.49966C6.40039 5.99966 8.60039 4.29966 9.10039 3.99966C11.2004 2.59966 13.3004 1.69967 15.2004 1.19967C16.3004 0.899673 17.6004 0.699649 18.5004 1.29965C19.0004 1.59965 19.5004 2.19965 20.0004 2.79965C20.3004 3.09965 20.5004 3.39964 20.7004 3.59964C21.7004 4.49964 22.0004 4.19967 23.1004 3.19967C23.2004 3.09967 23.3004 2.99965 23.5004 2.79965C23.9004 2.29965 24.4004 1.59965 25.2004 1.29965C26.6004 0.899649 28.4004 1.09966 29.5004 1.49966C33.0004 2.79966 36.2004 4.79965 38.7004 7.29965C41.1004 9.59965 43.1004 13.0996 43.2004 13.2996L43.3004 13.4997L43.2004 13.6997C43.2004 13.7997 42.6004 15.1997 42.2004 15.9997C41.6004 17.1997 41.0004 18.0996 40.5004 18.7996C40.3004 19.0996 40.1004 19.2996 40.0004 19.5996C39.4004 20.4996 38.4004 21.9996 37.3004 23.2996C36.2004 24.4996 34.8004 25.6996 33.4004 26.7996C32.2004 27.6996 30.7004 28.1997 30.6004 28.1997L30.2004 28.3997L30.1004 27.8997C30.1004 27.8997 29.6004 23.2997 28.7004 19.6997C28.1004 16.9997 26.7004 14.9997 25.2004 14.3997C21.1004 12.6997 18.1004 14.4997 16.7004 16.6997C15.5004 18.5997 14.1004 26.8997 14.1004 27.8997V28.0996ZM22.2004 12.6997C23.2004 12.6997 24.4004 12.8997 25.6004 13.3997C27.6004 14.1997 29.0004 16.9997 29.5004 19.1997C30.2004 22.0997 30.7004 25.6997 30.8004 26.9997C31.3004 26.7997 32.2004 26.3997 32.9004 25.8997C34.3004 24.8997 35.7004 23.5997 36.7004 22.4997C37.8004 21.2997 38.8004 19.7997 39.4004 18.8997C39.6004 18.5997 39.7004 18.3996 39.9004 18.0996C40.4004 17.3996 40.9004 16.5997 41.6004 15.3997C41.9004 14.6997 42.4004 13.6996 42.5004 13.2996C42.1004 12.5996 40.2004 9.59967 38.2004 7.69967C35.8004 5.29967 32.7004 3.39964 29.2004 2.09964C28.0004 1.59964 26.4004 1.49969 25.3004 1.89969C24.7004 2.09969 24.2004 2.69964 23.9004 3.09964C23.8004 3.19964 23.6004 3.39967 23.4004 3.69967C23.2004 3.79967 23.1004 3.99964 23.0004 4.09964C22.5004 4.49964 22.1004 4.79965 21.6004 4.79965C21.2004 4.79965 20.7004 4.59966 20.1004 3.99966C19.8004 3.79966 19.6004 3.39964 19.3004 3.09964C18.9004 2.59964 18.4004 2.09965 18.0004 1.79965C17.3004 1.39965 16.2004 1.59965 15.3004 1.79965C13.4004 2.29965 11.4004 3.19966 9.40039 4.49966C8.70039 4.99966 6.70039 6.69964 5.20039 8.09964C3.60039 9.59964 1.70039 11.9996 1.20039 12.5996C1.40039 12.9996 1.80039 14.1997 2.20039 15.1997C2.50039 15.8997 3.50039 17.4996 4.00039 18.2996C4.70039 19.2996 6.20039 21.3997 9.00039 23.9997C10.1004 24.9997 12.4004 26.3997 13.5004 26.8997C13.8004 24.6997 15.0004 17.7997 16.1004 15.8997C17.4004 14.2997 19.4004 12.6997 22.2004 12.6997ZM10.9004 16.8997C9.90039 16.8997 8.70039 16.1996 8.00039 14.7996C6.90039 12.6996 7.40039 8.19965 10.6004 6.29965C14.0004 4.29965 16.9004 5.69965 18.0004 6.79965C18.9004 7.69965 19.1004 9.49965 18.6004 10.7996C18.2004 11.7996 17.0004 12.9996 15.1004 14.2996C14.5004 14.6996 14.0004 15.1996 13.5004 15.5996C12.8004 16.1996 12.2004 16.6997 11.6004 16.8997C11.2004 16.8997 11.0004 16.8997 10.9004 16.8997ZM14.0004 5.99966C13.1004 5.99966 12.1004 6.19969 10.9004 6.89969C8.20039 8.49969 7.70039 12.4997 8.60039 14.3997C9.30039 15.7997 10.6004 16.2996 11.2004 16.0996C11.7004 15.9996 12.2004 15.4997 12.9004 14.9997C13.4004 14.5997 13.9004 14.0997 14.5004 13.6997C16.3004 12.4997 17.4004 11.3997 17.8004 10.4997C18.3004 9.39966 18.0004 7.89969 17.4004 7.39969C17.3004 7.29969 16.0004 5.99966 14.0004 5.99966ZM33.4004 16.7996C33.2004 16.7996 33.0004 16.7997 32.9004 16.6997C32.2004 16.4997 31.7004 15.9997 31.0004 15.3997C30.5004 14.9997 30.0004 14.5996 29.4004 14.0996C27.5004 12.7996 26.3004 11.5996 25.9004 10.5996C25.3004 9.29964 25.6004 7.49964 26.5004 6.59964C27.6004 5.49964 30.5004 4.09964 33.9004 6.09964C37.1004 7.99964 37.5004 12.4996 36.5004 14.5996C35.6004 16.0996 34.4004 16.7996 33.4004 16.7996ZM30.3004 5.89969C28.2004 5.89969 26.9004 7.19967 26.9004 7.19967C26.3004 7.79967 26.0004 9.29965 26.5004 10.2996C26.9004 11.1996 28.0004 12.2997 29.8004 13.4997C30.4004 13.8997 31.0004 14.3996 31.4004 14.7996C32.0004 15.3996 32.6004 15.7997 33.1004 15.8997C33.7004 16.0997 35.0004 15.5997 35.7004 14.1997C36.7004 12.2997 36.1004 8.29967 33.4004 6.69967C32.2004 6.09967 31.2004 5.89969 30.3004 5.89969Z" fill="black"/>
<path d="M18.0004 14.7996L17.4004 14.4996C17.7004 14.1996 20.2004 11.4996 20.2004 7.99963C20.2004 5.69963 18.7004 2.39966 18.7004 2.39966L19.4004 2.09961C19.5004 2.19961 20.9004 5.59963 20.9004 7.99963C20.9004 11.7996 18.3004 14.4996 18.0004 14.7996Z" fill="black"/>
<path d="M25.3996 14.1998C25.3996 14.1998 23.0996 11.9998 23.0996 8.09979C23.0996 5.69979 24.3996 1.9998 24.3996 1.7998L25.0996 1.89984C25.0996 1.89984 23.7996 5.69982 23.7996 7.99982C23.7996 10.9998 25.2996 12.9998 25.8996 13.5998L25.3996 14.1998Z" fill="black"/>
</g>
</svg>
