<svg width="67" height="73" viewBox="0 0 67 73" fill="none" xmlns="http://www.w3.org/2000/svg">
<path d="M25.1996 70.5C23.2996 69.8 20.2996 68.6 14.0996 63.8C10.4996 61 4.99958 52.5 3.69959 49.6C0.199594 41.6 0.699593 22.5 2.39959 16.3C2.99959 14.2 5.59958 9.49998 6.59958 7.99999C7.99958 5.79998 11.1996 2.39998 14.0996 1.39998C18.0996 -2.11e-05 21.6996 2.19999 22.0996 4.09999C23.0996 8.19999 12.4996 19.9 17.0996 20.8C20.3996 21.5 25.7996 15.7 29.0996 16.6C31.4996 17.2 31.9996 19.3 33.3996 19.2C34.0996 19.2 35.8996 17.2 37.1996 16.8C41.7996 15.4 46.9996 21.7 49.2996 21C50.8996 20.5 51.5996 18.3 48.7996 14.3C47.1996 12.1 43.9996 6.29998 44.4996 3.69998C44.8996 1.29998 49.9996 0.499979 51.8996 0.899979C56.4996 1.69998 61.8996 8.49999 63.6996 15.1C66.7996 26 66.4996 34.2 65.3996 40.1C64.6996 44.1 63.2996 48.1 59.4996 55.3C56.0996 61.6 48.3996 67.6 44.9996 68.9C37.8996 71.7 32.8996 73.4 25.1996 70.5Z" fill="white"/>
<path d="M5.8 30.6999C5.8 30.6999 5.1 25.8999 6.8 20.2999C8.8 13.5999 12 10.2999 14.1 8.89989C16.7 7.19989 20 6.29989 20 8.19989C20 9.99989 19.6 10.9999 18.9 12.2999C16.7 16.2999 15.2 19.9999 17.4 20.9999C19.6 21.9999 26.1 15.7999 30 16.5999C31.7 16.8999 33 19.3999 34 19.2999C36.1 19.0999 36.1 15.7999 39 16.6999C40.8 17.2999 41.4 17.5999 44.4 18.8999C49.8 21.3999 50.4 21.3999 50.9 20.3999C51.9 18.3999 49.2 14.9999 48.2 11.6999C47.1 7.99989 47.5 7.3999 49 7.2999C52.5 7.0999 58.1 11.0999 59.8 19.2999C60.7 23.6999 61.2 25.2999 61.1 30.0999C61.1 30.0999 66.1 36.0999 66.1 36.9999C66.1 36.9999 64.2 46.8999 64.1 47.0999C64.1 47.0999 59.2 39.6999 57.7 38.1999C56.2 36.6999 52.8 33.9999 49.1 31.7999C46.4 30.1999 42.4 28.6999 39.6 29.2999C36.6 29.8999 36.2 32.6999 35.4 32.9999C32.7 33.9999 30.7 32.1999 28 30.1999C24.3 27.5999 14.7 32.9999 10.4 37.2999C5 42.6999 2.6 45.9999 2.6 45.9999L1 36.9999L5.8 30.6999Z" fill="#DDDDDD"/>
<path d="M7.79922 55.4999C5.39922 52.1999 3.69922 47.1999 3.19922 45.5999C3.19922 45.5999 4.69922 42.6999 6.79922 40.7999C7.69922 39.9999 10.4992 36.3999 14.1992 33.8999C19.1992 30.5999 25.6992 28.9999 27.0992 29.2999C29.3992 29.8999 30.2992 33.7999 32.5992 33.6999C34.9992 33.5999 35.9992 29.0999 38.7992 29.1999C41.6992 29.2999 48.8992 31.2999 52.0992 33.6999C58.9992 39.0999 63.6992 46.6999 63.6992 46.6999C63.6992 46.6999 60.3992 55.9999 53.9992 62.4999C49.9992 66.5999 45.8992 68.8999 45.8992 68.8999C45.8992 68.8999 45.2992 64.4999 44.8992 60.2999C44.3992 56.0999 41.5992 50.4999 39.4992 49.1999C35.1992 46.5999 33.5992 46.1999 29.6992 47.8999C26.3992 49.2999 23.6992 52.6999 22.7992 57.0999C22.1992 59.9999 21.6992 65.4999 21.9992 68.3999C21.8992 68.3999 14.8992 65.4999 7.79922 55.4999Z" fill="#E6E6E6"/>
<path d="M32.0006 72.2998C26.3006 71.9998 22.3006 69.9998 18.1006 67.4998C14.4006 65.2998 9.50058 59.6998 6.60058 55.1998C3.10058 49.6998 1.00058 43.7998 0.600581 37.6998C0.200581 30.9998 0.900581 20.9998 2.20058 16.3998C3.10058 13.0998 7.10058 3.0998 13.7006 0.799805C16.5006 -0.200195 19.3006 0.299805 22.1006 2.2998C24.4006 3.8998 22.0006 8.6998 19.6006 13.2998C18.2006 15.9998 16.6006 18.9998 17.0006 19.9998C17.0006 20.0998 17.1006 20.0998 17.1006 20.0998C18.7006 20.8998 20.8006 19.5998 22.9006 18.2998C24.1006 17.5998 25.4006 16.7998 26.7006 16.2998C28.9006 15.4998 30.6006 15.4998 32.2006 17.7998C32.6006 18.3998 33.0006 18.5998 33.6006 18.5998C34.5006 18.5998 35.0006 17.7998 35.0006 17.7998C36.6006 15.3998 38.3006 15.4998 40.5006 16.2998C41.8006 16.7998 43.1006 17.4998 44.3006 18.2998C46.5006 19.5998 48.5006 20.7998 50.1006 20.0998C50.1006 20.0998 50.2006 20.0998 50.2006 19.9998C50.5006 18.9998 48.9006 15.9998 47.6006 13.2998C45.2006 8.6998 42.8006 3.9998 45.1006 2.2998C47.9006 0.299805 50.8006 -0.200195 53.5006 0.799805C60.1006 3.1998 64.1006 13.0998 65.0006 16.3998C66.3006 20.9998 67.0006 30.9998 66.5006 37.6998C66.1006 43.7998 64.1006 49.6998 60.5006 55.1998C57.6006 59.5998 52.8006 65.2998 49.0006 67.4998C44.8006 69.9998 40.8006 71.9998 35.2006 72.2998H32.0006ZM16.4006 1.3998C15.6006 1.3998 14.8006 1.4998 14.0006 1.7998C8.40058 3.7998 4.30058 12.6998 3.20058 16.5998C2.00058 21.1998 1.40058 30.9998 1.80058 37.6998C2.20058 43.5998 4.20058 49.2998 7.60058 54.5998C10.3006 58.7998 15.1006 64.3998 18.7006 66.4998C22.9006 68.9998 26.6006 70.8998 32.0006 71.1998H35.1006C40.5006 70.8998 44.2006 68.9998 48.4006 66.4998C52.6006 63.5998 56.7006 58.7998 59.5006 54.5998C63.0006 49.2998 64.9006 43.5998 65.3006 37.6998C65.8006 30.9998 65.1006 21.1998 63.9006 16.7998C62.8006 12.7998 58.8006 3.9998 53.1006 1.9998C50.7006 1.0998 48.2006 1.5998 45.7006 3.3998C44.2006 4.4998 46.7006 9.2998 48.5006 12.8998C50.5006 16.6998 51.7006 19.0998 51.2006 20.4998C51.1006 20.8998 50.8006 21.0998 50.5006 21.2998C48.3006 22.2998 45.9006 20.8998 43.6006 19.4998C42.4006 18.7998 41.2006 17.9998 40.0006 17.5998C38.0006 16.6998 37.0006 16.9998 36.0006 18.5998C35.7006 19.0998 34.9006 19.7998 33.7006 19.8998C32.7006 19.8998 31.9006 19.4998 31.3006 18.5998C30.3006 16.9998 29.3006 16.7998 27.2006 17.4998C26.0006 17.8998 24.8006 18.6998 23.6006 19.3998C21.3006 20.7998 18.9006 22.1998 16.7006 21.1998C16.4006 20.9998 16.1006 20.7998 16.0006 20.3998C15.5006 18.9998 16.7006 16.5998 18.7006 12.7998C20.6006 9.1998 23.1006 4.2998 21.6006 3.2998C19.7006 1.9998 18.1006 1.3998 16.4006 1.3998Z" fill="black"/>
<path d="M31.9992 72.6C26.1992 72.3 22.1992 70.2 17.9992 67.7C14.2992 65.5 9.39918 59.8 6.49918 55.3C2.89918 49.8 0.899176 43.8 0.499176 37.7C-0.000824094 30.9 0.699176 21 1.89918 16.4C2.79918 13.1 6.89918 2.9 13.4992 0.5C16.2992 -0.5 19.2992 0 22.1992 2C24.6992 3.8 22.1992 8.6 19.7992 13.3C18.5992 15.7 16.8992 18.9 17.1992 19.8C18.6992 20.5 20.5992 19.3 22.6992 18.1L22.7992 18C23.9992 17.3 25.2992 16.5 26.5992 16.1C28.5992 15.4 30.5992 15.1 32.3992 17.7C32.6992 18.2 33.0992 18.4 33.5992 18.4C34.3992 18.4 34.7992 17.8 34.7992 17.7C36.4992 15.1 38.5992 15.4 40.5992 16.1C41.8992 16.6 43.1992 17.3 44.4992 18.1C46.5992 19.4 48.5992 20.5 50.0992 19.8C50.3992 18.9 48.6992 15.7 47.4992 13.3L47.2992 13C44.7992 8.4 42.4992 3.90001 44.9992 2.10001C47.8992 0.100006 50.7992 -0.399994 53.6992 0.600006C60.1992 2.90001 64.3992 13 65.2992 16.3C66.5992 20.9 67.2992 30.9 66.7992 37.7C66.3992 43.8 64.2992 49.8 60.7992 55.3C57.8992 59.8 52.9992 65.5 49.2992 67.7C44.9992 70.2 41.0992 72.3 35.2992 72.6H31.9992ZM31.9992 72.1H35.1992C40.7992 71.8 44.6992 69.8 48.8992 67.3C52.5992 65.1 57.3992 59.5 60.2992 55.1C63.7992 49.6 65.7992 43.8 66.2992 37.7C66.6992 31 65.9992 21 64.7992 16.5C63.8992 13.2 59.8992 3.3 53.4992 1C50.7992 0 47.9992 0.5 45.2992 2.5C43.1992 4 45.4992 8.60001 47.7992 13.1L47.8992 13.2C49.6992 16.6 50.8992 19.1 50.5992 20.1C50.5992 20.2 50.4992 20.3 50.2992 20.4C48.5992 21.2 46.4992 20 44.2992 18.6C43.0992 17.9 41.7992 17.1 40.4992 16.7C38.3992 15.9 36.7992 15.9 35.2992 18.2C35.2992 18.2 34.6992 19 33.6992 19.1C33.0992 19.1 32.4992 18.8 32.0992 18.2C30.5992 16 28.9992 16 26.8992 16.8C25.5992 17.2 24.3992 18 23.1992 18.7H23.0992C20.8992 20 18.7992 21.3 16.9992 20.5C16.8992 20.4 16.7992 20.3 16.7992 20.2C16.4992 19.2 17.6992 16.7 19.4992 13.3C21.6992 9 24.1992 4.20001 22.0992 2.60001C19.2992 0.700006 16.5992 0.200006 13.8992 1.10001C7.29918 3.30001 3.29918 13.2 2.39918 16.5C1.19918 21 0.499176 31 0.899176 37.7C1.29918 43.7 3.29918 49.6 6.89918 55.1C9.79918 59.5 14.5992 65.1 18.2992 67.3C22.4992 69.7 26.3992 71.8 31.9992 72.1ZM31.9992 71.4C26.4992 71.1 22.7992 69.2 18.4992 66.7C14.8992 64.6 10.0992 59 7.29918 54.7C3.99918 49.4 1.99918 43.6 1.59918 37.7C1.09918 31 1.79918 21.1 2.99918 16.6C4.09918 12.6 8.19918 3.60001 13.8992 1.60001C16.3992 0.700006 18.9992 1.2 21.5992 3C23.1992 4.1 21.2992 8.1 18.7992 12.8C16.7992 16.6 15.6992 18.9 16.0992 20.2C16.1992 20.5 16.3992 20.7 16.6992 20.9C18.6992 21.9 21.0992 20.5 23.2992 19.1L23.3992 19C24.5992 18.3 25.7992 17.6 26.9992 17.2C29.1992 16.4 30.2992 16.7 31.3992 18.4C31.8992 19.2 32.6992 19.6 33.5992 19.6C34.6992 19.6 35.4992 18.8 35.6992 18.4C36.7992 16.7 37.8992 16.4 40.0992 17.2C41.2992 17.6 42.4992 18.3 43.6992 19H43.7992C46.0992 20.4 48.3992 21.8 50.4992 20.8C50.7992 20.7 50.9992 20.4 51.0992 20.1C51.4992 18.9 50.2992 16.5 48.3992 12.7L48.2992 12.6C46.2992 8.80001 43.9992 4 45.6992 2.8C48.2992 1 50.7992 0.499994 53.2992 1.39999C58.9992 3.49999 63.0992 12.4 64.1992 16.4C65.3992 20.9 66.0992 30.7 65.5992 37.4C65.1992 43.4 63.1992 49.1 59.7992 54.5C57.0992 58.8 52.1992 64.4 48.5992 66.5C44.2992 69 40.7992 71.1 35.3992 71.4H32.9992H31.9992ZM16.3992 1.7C15.5992 1.7 14.8992 1.80001 14.0992 2.10001C8.59918 4.10001 4.59918 12.9 3.49918 16.8C2.29918 21.2 1.59918 31 2.09918 37.6C2.49918 43.5 4.39918 49.1 7.89918 54.4C10.5992 58.6 15.3992 64.2 18.8992 66.2C23.0992 68.7 26.7992 70.6 32.0992 70.8H35.1992C40.4992 70.5 44.1992 68.6 48.3992 66.2C51.8992 64.1 56.6992 58.6 59.3992 54.4C62.7992 49.1 64.7992 43.4 65.1992 37.6C65.6992 30.9 64.9992 21.2 63.7992 16.7C62.6992 12.8 58.6992 4 53.1992 2C50.9992 1.2 48.7992 1.6 46.4992 3C46.2992 3.1 46.0992 3.2 45.9992 3.3C45.7992 3.5 45.6992 3.7 45.6992 4C45.5992 5.7 47.3992 9.6 48.8992 12.2L48.9992 12.4C51.0992 16.4 52.1992 18.7 51.6992 20.2C51.5992 20.6 51.2992 20.9 50.8992 21.1C48.5992 22.2 46.1992 20.7 43.7992 19.3H43.6992C42.4992 18.6 41.3992 17.9 40.1992 17.5C38.1992 16.8 37.2992 17 36.3992 18.5C36.0992 19 35.1992 19.8 33.8992 19.9C32.8992 19.9 31.8992 19.4 31.2992 18.5C30.2992 17 29.4992 16.8 27.4992 17.5C26.2992 17.9 25.1992 18.6 23.9992 19.3H23.8992C21.4992 20.7 18.9992 22.2 16.7992 21.1C16.3992 20.9 16.0992 20.6 15.9992 20.2C15.4992 18.7 16.6992 16.3 18.6992 12.4C19.8992 9.99999 21.7992 6.4 21.9992 4.5C21.9992 4.2 21.9992 3.9 21.8992 3.7C21.7992 3.5 21.6992 3.3 21.5992 3.2C19.5992 2.3 17.9992 1.7 16.3992 1.7Z" fill="black"/>
<path d="M1.19975 37.6004C1.09975 37.6004 0.999755 37.6004 0.899755 37.5004C0.599755 37.3004 0.499755 37.0004 0.699755 36.7004C0.899755 36.4004 5.29975 29.2004 10.7998 24.7004C15.0998 21.3004 18.4998 20.4004 18.5998 20.3004C18.8998 20.2004 19.1998 20.4004 19.2998 20.7004C19.3998 21.0004 19.1998 21.3004 18.8998 21.4004C18.8998 21.4004 15.5998 22.3004 11.4998 25.6004C6.09975 29.9004 1.69975 37.2004 1.69975 37.3004C1.59975 37.5004 1.39975 37.6004 1.19975 37.6004Z" fill="black"/>
<path d="M1.2 37.6998C1.1 37.6998 1 37.6998 0.8 37.5998C0.6 37.4998 0.5 37.2998 0.5 37.1998C0.5 36.9998 0.5 36.7998 0.6 36.6998C0.6 36.5998 5.1 29.2998 10.7 24.6998C14.7 21.4998 17.9 20.4998 18.5 20.2998C18.7 20.2998 18.9 20.2998 19 20.3998C19.2 20.4998 19.3 20.5998 19.3 20.7998C19.3 20.9998 19.3 21.1998 19.2 21.2998C19.1 21.4998 19 21.5998 18.8 21.5998C18.5 21.6998 15.3 22.6998 11.5 25.6998C6.3 29.9998 1.9 37.2998 1.8 37.3998C1.7 37.5998 1.5 37.6998 1.2 37.6998ZM18.8 20.4998H18.7C18.1 20.6998 14.9 21.6998 11 24.8998C5.4 29.3998 1 36.6998 0.9 36.7998C0.8 36.8998 0.8 36.9998 0.8 37.0998C0.8 37.1998 0.9 37.2998 1 37.3998C1.2 37.4998 1.5 37.3998 1.6 37.2998C1.6 37.1998 6.1 29.8998 11.5 25.5998C15.4 22.4998 18.6 21.4998 18.9 21.3998C19 21.3998 19.1 21.2998 19.2 21.1998C19.3 21.0998 19.3 20.9998 19.2 20.8998C19.1 20.5998 19 20.4998 18.8 20.4998Z" fill="black"/>
<path d="M65.8995 37.6004C65.6995 37.6004 65.4995 37.5004 65.3995 37.3004C65.3995 37.2004 60.8995 29.9004 55.5994 25.6004C51.4994 22.3004 48.2995 21.5004 48.1995 21.4004C47.8995 21.3004 47.6995 21.0004 47.7995 20.7004C47.8995 20.4004 48.1995 20.2004 48.4995 20.3004C48.5995 20.3004 51.9994 21.2004 56.2994 24.7004C61.7994 29.1004 66.1995 36.3004 66.3995 36.7004C66.5995 37.0004 66.4994 37.3004 66.1994 37.5004C66.0994 37.6004 65.9995 37.6004 65.8995 37.6004Z" fill="black"/>
<path d="M65.8993 37.7004C65.6993 37.7004 65.3993 37.6004 65.2993 37.4004C65.2993 37.3004 60.7993 30.0004 55.4993 25.8004C51.5993 22.7004 48.4993 21.8004 48.1993 21.7004C47.7993 21.6004 47.5993 21.2004 47.6993 20.9004C47.6993 20.7004 47.8993 20.6004 47.9993 20.5004C48.1993 20.4004 48.2993 20.4004 48.4993 20.4004C49.0993 20.6004 52.2993 21.6004 56.2993 24.8004C61.5993 29.1004 65.8993 36.0004 66.3993 36.8004C66.5993 37.1004 66.4993 37.6004 66.1993 37.8004C66.1993 37.6004 65.9993 37.7004 65.8993 37.7004ZM48.3993 20.5004C48.2993 20.5004 48.1993 20.5004 48.1993 20.6004C48.0993 20.7004 47.9993 20.8004 47.9993 20.9004C47.8993 21.1004 48.0993 21.4004 48.2993 21.4004C48.6993 21.5004 51.7993 22.5004 55.6993 25.6004C61.0993 29.9004 65.4993 37.2004 65.5993 37.3004C65.6993 37.4004 65.7993 37.5004 65.9993 37.5004C66.0993 37.5004 66.1993 37.5004 66.1993 37.4004C66.3993 37.3004 66.4993 37.0004 66.2993 36.8004C65.7993 36.0004 61.4993 29.1004 56.1993 24.9004C52.1993 21.7004 49.0993 20.7004 48.3993 20.5004Z" fill="black"/>
<path d="M3.59961 45.2996C3.59961 45.2996 6.1996 41.4996 8.7996 38.7996C10.0996 37.4996 13.1996 34.7996 13.9996 34.2996C17.4996 31.9996 22.4996 30.1996 24.3996 29.6996C25.6996 29.3996 27.0996 28.8996 28.1996 29.6996C29.2996 30.3996 30.3996 32.1996 31.2996 33.0996C33.0996 34.8996 33.9996 33.9996 35.4996 32.3996C36.0996 31.7996 36.9996 30.1996 38.3996 29.6996C40.0996 29.0996 42.5996 29.2996 44.2996 29.9996C47.2996 31.2996 50.0996 31.6996 52.4996 33.6996C53.2996 34.3996 55.8996 36.3996 57.5996 38.1996C60.5996 41.3996 63.1996 46.8996 63.1996 46.8996C63.1996 46.8996 62.5996 48.6996 61.7996 50.2996C60.5996 52.8996 58.6996 55.6996 58.6996 55.6996C58.6996 55.6996 56.6996 58.4996 54.8996 60.4996C53.1996 62.4996 50.9996 64.6996 49.0996 65.9996C47.7996 66.7996 45.7996 67.8996 45.7996 67.8996C45.7996 67.8996 45.0996 62.0996 43.7996 56.6996C42.8996 52.8996 40.9996 49.3996 38.4996 48.2996C32.2996 45.6996 26.6996 49.1996 24.8996 51.8996C22.9996 54.7996 21.6996 66.8996 21.6996 68.1996C21.6996 68.1996 18.6996 66.5996 17.3996 65.5996C15.6996 64.1996 14.3996 62.9996 13.4996 61.9996C11.7996 60.1996 8.6996 56.3996 7.5996 54.3996C6.6996 53.0996 5.4996 50.8996 5.0996 49.7996C3.69961 46.3996 3.59961 45.2996 3.59961 45.2996Z" fill="#D3D3D3"/>
<path d="M63.5004 47.2998C63.0004 46.3998 58.7004 38.6998 51.9004 34.1998C46.8004 30.7998 40.8004 29.5998 38.8004 29.7998C38.3004 29.7998 37.6004 30.7998 36.9004 31.5998C35.9004 32.8998 34.7004 34.2998 33.2004 34.2998C31.6004 34.2998 30.4004 32.7998 29.4004 31.4998C28.8004 30.6998 28.1004 29.8998 27.7004 29.8998C25.7004 29.7998 19.7004 31.0998 14.7004 34.6998C8.5004 39.0998 4.4004 44.1998 3.40039 46.3998L2.40039 45.8998C3.60039 43.4998 7.7004 38.3998 14.1004 33.7998C19.4004 29.9998 25.6004 28.6998 27.8004 28.7998C28.8004 28.7998 29.5004 29.7998 30.3004 30.8998C31.2004 31.9998 32.1004 33.2998 33.2004 33.1998C34.1004 33.1998 35.1004 31.9998 36.0004 30.8998C36.9004 29.7998 37.7004 28.7998 38.7004 28.6998C40.9004 28.4998 47.1004 29.6998 52.5004 33.2998C59.3004 37.8998 63.6004 45.2998 64.4004 46.7998L63.5004 47.2998Z" fill="black"/>
<path d="M63.3992 47.4996C63.0992 47.0996 58.6992 38.9996 51.7992 34.2996C46.6992 30.8996 40.6992 29.7996 38.7992 29.8996C38.3992 29.8996 37.4992 30.8996 36.9992 31.5996C35.8992 32.8996 34.6992 34.2996 33.1992 34.2996C31.4992 34.2996 30.3992 32.7996 29.2992 31.4996C28.6992 30.7996 28.0992 29.8996 27.6992 29.8996C25.7992 29.7996 19.7992 31.0996 14.7992 34.6996C8.59922 39.0996 4.59922 44.1996 3.49922 46.2996L3.39922 46.3996L2.19922 45.7996L2.29922 45.6996C3.49922 43.2996 7.59922 38.0996 13.9992 33.4996C19.2992 29.6996 25.5992 28.3996 27.6992 28.4996C28.6992 28.5996 29.4992 29.4996 30.2992 30.5996L30.3992 30.6996C31.1992 31.6996 32.1992 32.8996 33.0992 32.8996C33.9992 32.8996 34.8992 31.6996 35.7992 30.6996C36.7992 29.4996 37.5992 28.5996 38.5992 28.4996C40.7992 28.2996 46.9992 29.4996 52.4992 33.0996C59.5992 37.7996 63.9992 45.7996 64.4992 46.6996L64.5992 46.7996L63.3992 47.4996ZM39.1992 29.6996C41.4992 29.6996 47.1992 30.8996 51.9992 34.0996C58.5992 38.4996 62.9992 46.0996 63.4992 47.0996L64.2992 46.6996C63.5992 45.3996 59.1992 37.8996 52.4992 33.2996C47.0992 29.6996 40.8992 28.4996 38.7992 28.6996C37.8992 28.7996 37.0992 29.6996 36.1992 30.7996C35.2992 31.8996 34.2992 33.2996 33.2992 33.2996C33.2992 33.2996 33.2992 33.2996 33.1992 33.2996C32.0992 33.2996 31.2992 31.9996 30.3992 30.8996L30.1992 30.6996C29.3992 29.5996 28.6992 28.8996 27.7992 28.8996C25.5992 28.7996 19.5992 30.0996 14.2992 33.8996C7.99922 38.3996 3.99922 43.1996 2.79922 45.6996L3.49922 45.9996C4.69922 43.7996 8.69922 38.6996 14.7992 34.3996C19.6992 30.9996 25.3992 29.5996 27.5992 29.5996C27.6992 29.5996 27.7992 29.5996 27.7992 29.5996C28.2992 29.5996 28.9992 30.4996 29.5992 31.2996C30.5992 32.5996 31.6992 33.9996 33.2992 33.9996C34.6992 33.9996 35.7992 32.5996 36.8992 31.3996C37.6992 30.3996 38.3992 29.5996 38.8992 29.5996C38.8992 29.6996 38.9992 29.6996 39.1992 29.6996Z" fill="black"/>
<path d="M46.5005 68.9004H45.4005C45.4005 68.8004 45.7005 56.0004 40.1005 50.3004C38.3005 48.5004 36.2005 47.6004 33.7005 47.6004C31.0005 47.6004 28.8005 48.6004 27.0005 50.4004C21.7005 56.1004 22.6005 68.5004 22.6005 68.6004L21.5005 68.7004C21.5005 68.2004 20.6005 55.7004 26.2005 49.6004C28.2005 47.5004 30.7005 46.4004 33.7005 46.4004C36.5005 46.4004 39.0005 47.4004 41.0005 49.4004C46.8005 55.5004 46.5005 68.4004 46.5005 68.9004Z" fill="black"/>
<path d="M46.6001 68.9998H45.2001V68.8998C45.2001 67.5998 45.2001 55.7998 39.9001 50.3998C38.2001 48.5998 36.0001 47.6998 33.5001 47.6998C30.9001 47.6998 28.6001 48.5998 26.9001 50.4998C21.7001 56.0998 22.5001 68.4998 22.5001 68.5998V68.6998L21.1001 68.7998V68.6998C21.1001 68.1998 20.2001 55.5998 25.8001 49.4998C27.8001 47.3998 30.3001 46.2998 33.4001 46.2998C36.3001 46.2998 38.7001 47.2998 40.7001 49.3998C46.8001 55.5998 46.4001 68.6998 46.4001 68.8998L46.6001 68.9998ZM45.5001 68.6998H46.4001C46.4001 67.2998 46.4001 55.2998 40.8001 49.4998C38.9001 47.4998 36.4001 46.4998 33.6001 46.4998C30.6001 46.4998 28.2001 47.6998 26.3001 49.7998C20.9001 55.5998 21.5001 67.0998 21.6001 68.4998L22.4001 68.3998C22.3001 67.0998 21.8001 55.6998 26.9001 50.1998C28.7001 48.2998 30.9001 47.2998 33.7001 47.2998C36.3001 47.2998 38.5001 48.1998 40.2001 49.9998C45.4001 55.5998 45.5001 66.9998 45.5001 68.6998Z" fill="black"/>
<path d="M27.9992 49.3998L27.1992 48.5998C28.3992 47.3998 31.0992 44.0998 30.9992 39.3998C30.9992 35.8998 29.1992 31.1998 29.1992 31.1998L30.2992 30.7998C30.3992 30.9998 32.0992 35.6998 32.0992 39.3998C32.2992 44.4998 29.2992 48.0998 27.9992 49.3998Z" fill="black"/>
<path d="M28 49.5996L27 48.5996L27.1 48.4996C28.3 47.2996 31 43.9996 30.9 39.3996C30.9 36.4996 29.7 32.7996 29.2 31.2996C29.2 31.1996 29.2 31.1996 29.2 31.1996V31.0996L30.2 30.5996L30.7 31.0996C31 31.9996 32.4 35.8996 32.4 39.2996C32.4 44.5996 29.4 48.1996 28 49.5996ZM27.4 48.6996L28 49.2996C29.3 47.8996 32.1 44.3996 32 39.4996C32 36.1996 30.6 32.0996 30.2 31.0996L29.4 31.3996C29.9 32.8996 31.1 36.5996 31.1 39.5996C31.2 43.9996 28.6 47.3996 27.4 48.6996Z" fill="black"/>
<path d="M39 49.4004C38.8 49.2004 35.1 45.6004 35 39.5004C35 35.8004 36.9 30.1004 37 29.9004L38.1 30.3004C38.1 30.4004 36.2 36.1004 36.2 39.6004C36.3 45.2004 39.7 48.6004 39.8 48.7004L39 49.4004Z" fill="black"/>
<path d="M39.0004 49.4996C38.9004 49.3996 35.0004 45.6996 34.9004 39.3996C34.9004 35.7996 36.6004 30.3996 36.9004 29.6996V29.5996H37.0004L38.2004 29.9996V30.0996C38.1004 30.2996 36.3004 35.8996 36.3004 39.2996C36.4004 43.5996 38.1004 46.2996 39.2004 47.4996C39.5004 47.7996 39.8004 48.1996 39.9004 48.2996C40.0004 48.3996 40.3004 48.6996 40.3004 48.6996L40.0004 48.8996L39.0004 49.4996ZM37.1004 29.9996C36.8004 30.9996 35.2004 36.0996 35.2004 39.4996C35.3004 45.0996 38.5004 48.5996 39.1004 49.1996L39.7004 48.5996C39.1004 47.8996 36.2004 44.6996 36.1004 39.4996C36.1004 36.2996 37.7004 31.1996 38.0004 30.2996L37.1004 29.9996Z" fill="black"/>
<path d="M32.8006 64.6C32.2006 64.6 31.7006 64.5 31.1006 64.2C29.2006 63.4 28.5006 61.2 28.5006 61.1C28.4006 60.8 28.6006 60.5 28.9006 60.4C29.2006 60.3 29.5006 60.5 29.6006 60.8C29.6006 60.8 30.2006 62.6 31.6006 63.2C32.6006 63.6 34.1006 63.8 35.2006 62.2C35.4006 61.9 35.7006 61.9 36.0006 62.1C36.3006 62.3 36.3006 62.6 36.1006 62.9C35.2006 64 34.1006 64.6 32.8006 64.6Z" fill="black" stroke="black" stroke-width="0.25" stroke-miterlimit="10"/>
<path d="M22.9005 48.3002C24.7005 47.0002 27.1005 45.0002 27.8005 43.3002C28.6005 41.5002 28.1005 39.0002 27.1005 37.9002C26.1005 36.8002 22.1005 34.1002 17.1005 37.2002C12.8005 39.9002 12.2005 46.3002 13.6005 49.2002C14.7005 51.5002 16.8005 52.4002 18.0005 52.0002C19.4005 51.6002 20.7005 49.9002 22.9005 48.3002Z" fill="white"/>
<path d="M17.3999 52.6999C15.8999 52.6999 14.0999 51.5999 13.0999 49.4999C11.5999 46.2999 12.2999 39.5999 16.7999 36.6999C21.7999 33.5999 25.9999 35.7999 27.4999 37.4999C28.6999 38.7999 29.0999 41.4999 28.2999 43.4999C27.6999 44.9999 25.8999 46.7999 23.1999 48.7999C22.2999 49.3999 21.5999 50.0999 20.8999 50.6999C19.8999 51.5999 18.9999 52.3999 18.0999 52.6999C17.8999 52.6999 17.6999 52.6999 17.3999 52.6999ZM21.8999 36.2999C20.5999 36.2999 19.0999 36.6999 17.4999 37.6999C13.5999 40.0999 12.7999 46.0999 14.1999 48.9999C15.1999 51.0999 16.9999 51.7999 17.8999 51.4999C18.5999 51.2999 19.3999 50.5999 20.2999 49.7999C20.9999 49.1999 21.7999 48.4999 22.6999 47.7999C25.1999 45.9999 26.8999 44.2999 27.3999 42.9999C28.0999 41.2999 27.6999 39.0999 26.7999 38.2999C26.6999 38.1999 24.8999 36.2999 21.8999 36.2999Z" fill="black"/>
<path d="M17.4006 52.8003C16.0006 52.8003 14.1006 51.8003 13.0006 49.5003C11.4006 46.2003 12.2006 39.4003 16.8006 36.6003C21.9006 33.5003 26.1006 35.7002 27.7006 37.4002C29.0006 38.7002 29.4006 41.5003 28.5006 43.5003C27.8006 45.1003 26.1006 46.9003 23.3006 48.8003C22.5006 49.4003 21.8006 50.0003 21.1006 50.6003L20.8006 50.9002C19.8006 51.8002 19.1006 52.4003 18.2006 52.7003C18.0006 52.8003 17.7006 52.8003 17.4006 52.8003ZM21.9006 35.3003C20.4006 35.3003 18.7006 35.7003 16.9006 36.8003C12.4006 39.6003 11.7006 46.2002 13.2006 49.4002C14.2006 51.6002 16.0006 52.5003 17.4006 52.5003C17.7006 52.5003 17.9006 52.5002 18.1006 52.4002C19.0006 52.1002 19.9006 51.4003 20.8006 50.5003L20.9006 50.4002C21.5006 49.8002 22.2006 49.2003 23.1006 48.6003C25.8006 46.6003 27.5006 44.9002 28.2006 43.4002C29.0006 41.5002 28.6006 38.8003 27.4006 37.6003C26.5006 36.6003 24.5006 35.3003 21.9006 35.3003ZM17.4006 51.7003C16.4006 51.7003 14.9006 50.9003 14.0006 49.1003C12.6006 46.2003 13.4006 40.1003 17.3006 37.6003C18.8006 36.7003 20.3006 36.2002 21.8006 36.2002C24.7006 36.2002 26.6006 38.0002 26.8006 38.2002C27.7006 39.1002 28.1006 41.4003 27.4006 43.1003C26.8006 44.4003 25.2006 46.1003 22.6006 48.0003C21.7006 48.7003 20.9006 49.4003 20.2006 50.0003C19.3006 50.9003 18.5006 51.5002 17.8006 51.7003C17.8006 51.7003 17.6006 51.7003 17.4006 51.7003ZM21.9006 36.4002C20.5006 36.4002 19.0006 36.9003 17.5006 37.8003C13.7006 40.2003 12.9006 46.1002 14.2006 48.9002C15.2006 50.9002 16.9006 51.6003 17.8006 51.3003C18.5006 51.1003 19.2006 50.4003 20.1006 49.6003C20.8006 49.0003 21.6006 48.3003 22.5006 47.6003C25.0006 45.8003 26.6006 44.1002 27.2006 42.9002C27.9006 41.3002 27.5006 39.1003 26.6006 38.3003C26.6006 38.3003 24.7006 36.4002 21.9006 36.4002Z" fill="black"/>
<path d="M20.8992 46.1998C22.3904 46.1998 23.5992 44.9908 23.5992 43.4998C23.5992 42.0088 22.3904 40.7998 20.8992 40.7998C19.408 40.7998 18.1992 42.0088 18.1992 43.4998C18.1992 44.9908 19.408 46.1998 20.8992 46.1998Z" fill="black"/>
<path d="M27.8008 48.8997C27.8008 48.8997 29.2008 51.9997 33.3008 51.9997C37.9008 51.9997 38.9008 48.6997 38.9008 48.6997C38.9008 48.6997 37.0008 47.1997 33.5008 46.9997C30.6008 46.8997 27.8008 48.8997 27.8008 48.8997Z" fill="#E6ECEC"/>
<path d="M33.3996 52.5998C28.8996 52.5998 27.3996 49.2997 27.2996 49.1997L27.0996 48.7998L27.4996 48.4997C27.5996 48.3997 30.4996 46.2997 33.4996 46.4997C37.0996 46.6997 39.1996 48.2997 39.1996 48.3997L39.4996 48.5998L39.3996 48.9997C39.3996 49.0997 38.2996 52.5998 33.3996 52.5998ZM28.5996 49.0998C29.0996 49.8998 30.4996 51.3997 33.3996 51.3997C36.5996 51.3997 37.7996 49.6997 38.1996 48.8997C37.4996 48.4997 35.8996 47.5997 33.4996 47.4997C31.3996 47.4997 29.3996 48.5998 28.5996 49.0998Z" fill="black"/>
<path d="M33.4 52.6996C28.8 52.6996 27.2 49.1996 27.2 49.1996L27 48.6996L27.5 48.3996C27.5 48.3996 30.4 46.1996 33.6 46.3996C37.4 46.5996 39.4 48.2996 39.4 48.2996L39.8 48.5996L39.6 48.9996C39.5 49.3996 38.2 52.6996 33.4 52.6996ZM27.3 48.7996L27.4 49.0996C27.4 49.0996 28.9 52.4996 33.3 52.4996C38 52.4996 39.1 49.2996 39.3 48.8996L39.4 48.5996L39.2 48.3996C39.2 48.3996 37.2 46.6996 33.5 46.5996C30.4 46.4996 27.6 48.5996 27.5 48.5996L27.3 48.7996ZM33.4 51.5996C30.4 51.5996 29 49.8996 28.5 49.1996L28.4 49.0996L28.5 48.9996C29.5 48.3996 31.5 47.3996 33.5 47.4996C35.9 47.5996 37.5 48.3996 38.3 48.8996L38.4 48.9996H38.3C37.9 49.7996 36.7 51.5996 33.4 51.5996ZM28.8 49.1996C29.3 49.8996 30.7 51.3996 33.4 51.3996C36.3 51.3996 37.6 49.9996 38.1 49.0996C37.3 48.5996 35.8 47.8996 33.5 47.7996C31.5 47.6996 29.6 48.6996 28.8 49.1996Z" fill="black"/>
<path d="M44.4002 48.1C42.6002 46.8 40.2002 44.8 39.5002 43.1C38.7002 41.3 39.2002 38.8 40.2002 37.7C41.2002 36.6 45.2002 33.9 50.2002 37C54.5002 39.7 55.1002 46.1 53.7002 49C52.6002 51.3 50.5002 52.2 49.3002 51.8C47.9002 51.4 46.6002 49.7 44.4002 48.1Z" fill="white"/>
<path d="M49.9006 52.5C49.6006 52.5 49.4006 52.5 49.1006 52.4C48.1006 52.1 47.3006 51.3 46.3006 50.4C45.6006 49.8 44.9006 49.1 44.0006 48.5C41.2006 46.5 39.5006 44.7 38.9006 43.2C38.1006 41.3 38.5006 38.5 39.7006 37.2C41.2006 35.6 45.5006 33.4 50.4006 36.4C55.0006 39.2 55.7006 46 54.1006 49.2C53.2006 51.5 51.4006 52.5 49.9006 52.5ZM44.7006 47.6C45.6006 48.3 46.4006 49 47.1006 49.6C48.0006 50.4 48.8006 51.1 49.5006 51.3C50.4006 51.6 52.2006 50.9 53.2006 48.8C54.6006 45.9 53.8006 39.9 49.9006 37.5C44.4006 34.1 40.6006 38 40.6006 38.1C39.8006 39 39.3006 41.2 40.0006 42.8C40.5006 44.1 42.2006 45.8 44.7006 47.6Z" fill="black"/>
<path d="M49.9007 52.6999C49.6007 52.6999 49.3007 52.6999 49.1007 52.5999C48.2007 52.2999 47.3007 51.5999 46.4007 50.6999L46.2007 50.4999C45.6007 49.8999 44.9007 49.2999 44.0007 48.6999C41.2007 46.6999 39.5007 44.8999 38.8007 43.3999C38.0007 41.3999 38.3007 38.5999 39.6007 37.2999C41.2007 35.6999 45.5007 33.3999 50.5007 36.4999C55.1007 39.3999 55.8007 46.1999 54.3007 49.3999C53.3007 51.5999 51.3007 52.6999 49.9007 52.6999ZM45.4007 35.0999C42.8007 35.0999 40.8007 36.3999 39.8007 37.3999C38.6007 38.6999 38.2007 41.2999 39.0007 43.1999C39.6007 44.6999 41.3007 46.4999 44.1007 48.3999C45.0007 48.9999 45.7007 49.6999 46.3007 50.1999L46.5007 50.3999C47.4007 51.1999 48.3007 51.9999 49.1007 52.1999C49.3007 52.2999 49.6007 52.2999 49.8007 52.2999C51.1007 52.2999 52.9007 51.2999 54.0007 49.1999C55.5007 45.9999 54.8007 39.3999 50.3007 36.5999C48.6007 35.4999 46.9007 35.0999 45.4007 35.0999ZM49.9007 51.4999C49.7007 51.4999 49.6007 51.4999 49.4007 51.3999C48.7007 51.1999 47.9007 50.4999 47.0007 49.6999C46.3007 49.0999 45.5007 48.3999 44.6007 47.6999C42.0007 45.8999 40.4007 44.1999 39.8007 42.7999C39.1007 41.0999 39.5007 38.7999 40.4007 37.8999C40.6007 37.6999 44.4007 33.8999 49.9007 37.2999C53.9007 39.7999 54.6007 45.8999 53.2007 48.7999C52.4007 50.6999 50.9007 51.4999 49.9007 51.4999ZM44.8007 47.4999C45.7007 48.1999 46.5007 48.7999 47.2007 49.4999C48.1007 50.2999 48.8007 50.9999 49.5007 51.1999C50.4007 51.4999 52.1007 50.7999 53.1007 48.7999C54.5007 45.9999 53.7007 39.9999 49.8007 37.6999C44.5007 34.3999 40.8007 37.8999 40.6007 38.1999C39.8007 39.0999 39.4007 41.1999 40.0007 42.7999C40.7007 44.0999 42.3007 45.6999 44.8007 47.4999Z" fill="black"/>
<path d="M46.3992 45.9996C47.8904 45.9996 49.0992 44.7906 49.0992 43.2996C49.0992 41.8086 47.8904 40.5996 46.3992 40.5996C44.908 40.5996 43.6992 41.8086 43.6992 43.2996C43.6992 44.7906 44.908 45.9996 46.3992 45.9996Z" fill="black"/>
</svg>
