<svg width="96" height="92" viewBox="0 0 96 92" fill="none" xmlns="http://www.w3.org/2000/svg">
<path d="M62.5859 24.4916C62.5859 24.4916 73.6819 18.0267 75.4279 14.297C77.1729 10.5673 75.553 2.36185 78.295 1.98887C81.038 1.6159 83.283 3.97806 85.153 7.45915C87.023 10.9403 92.3839 21.0105 93.3819 24.6159C94.5039 28.9673 93.3819 33.1943 92.2589 35.5565C90.3889 39.2862 87.8959 43.3889 85.2769 46.9943C85.2769 46.9943 82.0359 37.7943 77.4229 31.3294C71.4379 22.9997 64.3309 25.2376 62.5859 24.4916Z" fill="#D1CAB6"/>
<path d="M84.9028 49.6057L84.1548 47.4922C84.1548 47.3679 80.9138 38.4165 76.4248 32.076C72.1858 26.1084 67.3238 25.9841 64.4558 25.8598C63.4588 25.8598 62.7108 25.8598 62.2118 25.6111L59.8428 24.7409L61.9628 23.4976C64.9548 21.7571 73.0588 16.6598 74.3058 13.8003C74.9288 12.4327 75.0538 10.0706 75.1778 7.95708C75.4278 4.476 75.5528 1.11924 78.1708 0.746264C81.2878 0.497615 83.9058 2.48681 86.1498 6.96249C86.3998 7.58411 86.8978 8.33005 87.2718 9.20032C89.6408 13.676 93.6308 21.2598 94.5038 24.4922C95.7498 28.9679 94.6278 33.4436 93.2568 36.303C91.2618 40.2814 88.7678 44.3841 86.1498 47.9895L84.9028 49.6057ZM66.3258 23.6219C69.5678 23.8706 74.1808 24.9895 78.2948 30.7084C81.6618 35.4327 84.2798 41.4003 85.5268 44.6327C87.6458 41.649 89.5168 38.2922 91.1368 35.1841C92.2588 32.8219 93.2568 28.9679 92.1348 25.1138C91.3868 22.13 87.2718 14.4219 85.1528 10.3192C84.6538 9.44897 84.2798 8.70303 84.0308 8.0814C82.2848 4.60032 80.4148 2.98411 78.4198 3.23276C77.7968 3.35708 77.5468 6.71383 77.5468 8.20572C77.4228 10.5679 77.2978 13.0544 76.4248 14.9192C75.1778 17.53 69.8168 21.3841 66.3258 23.6219Z" fill="black"/>
<path d="M32.6631 24.4923C32.6631 24.4923 21.5671 18.1517 19.8211 14.422C18.0761 10.6923 19.6971 2.48685 16.9541 2.11387C14.2111 1.7409 11.9671 4.10306 10.0961 7.58414C8.22606 11.0653 2.86507 21.1355 1.86807 24.8653C0.746066 29.2166 1.86808 33.4436 2.99008 35.8058C4.86008 39.5355 7.35307 43.6382 9.97207 47.2436C9.97207 47.2436 13.2131 38.0436 17.8261 31.5788C23.8111 23.249 30.6681 25.2382 32.6631 24.4923Z" fill="#D1CAB6"/>
<path d="M10.3455 49.73L8.97353 47.8652C6.35553 44.3841 3.86152 40.2814 1.86752 36.1787C0.495522 33.4435 -0.501472 28.8435 0.620528 24.3679C1.49353 21.1354 5.48253 13.676 7.85153 9.07598C8.35053 8.20571 8.72453 7.45977 8.97353 6.83815C11.2175 2.36248 13.8365 0.373282 16.9535 0.746255C19.5715 1.11923 19.6965 4.35167 19.9455 7.95707C20.0705 10.0706 20.1945 12.4327 20.8185 13.8003C22.0645 16.5354 30.1695 21.6327 33.1615 23.249L35.4055 24.4922L33.0365 25.3625C32.4135 25.6111 31.6655 25.6111 30.6675 25.6111C27.8005 25.7354 23.0625 25.8598 18.6985 31.9517C14.2105 38.1679 10.9685 47.2435 10.9685 47.3679L10.3455 49.73ZM16.4545 3.35707C14.5845 3.35707 12.9635 4.97329 11.2175 8.20572C10.8435 8.70302 10.4695 9.57329 9.97153 10.4435C7.85153 14.5462 3.73753 22.2544 2.98953 25.2381C1.99153 29.0922 2.86453 32.9462 3.98653 35.3084C5.60753 38.5408 7.60253 41.7733 9.59753 44.7571C10.8435 41.649 13.4625 35.5571 16.8285 30.8327C20.9425 24.9895 25.6805 23.8706 28.7975 23.6219C25.1815 21.3841 19.9455 17.6544 18.6985 14.9192C17.8255 13.1787 17.7015 10.6922 17.5765 8.20572C17.4515 6.71383 17.3275 3.35707 16.7035 3.23275C16.7035 3.35707 16.5795 3.35707 16.4545 3.35707Z" fill="black"/>
<path d="M33.9102 24.8647C30.5442 24.8647 25.9312 24.3674 20.8192 28.5944C15.5822 33.0701 3.73821 54.3295 7.72821 69.9944C9.97221 78.6971 27.9262 86.2809 37.6502 88.5187C37.6502 88.5187 43.8842 90.2593 47.7492 90.0106C52.6122 89.762 57.5992 88.5187 57.5992 88.5187C67.1992 86.2809 85.1532 78.6971 87.5222 69.9944C91.6362 54.3295 79.7922 33.0701 74.4312 28.5944C69.3192 24.243 64.7062 24.8647 61.3392 24.8647H33.9102Z" fill="white"/>
<path d="M47.1261 91.1296C43.1361 91.1296 37.5261 89.6377 37.2761 89.5134C28.7981 87.5242 9.0991 80.0648 6.6051 70.2432C2.2421 53.4594 14.9591 32.0756 20.0711 27.7242C25.0581 23.4972 29.6711 23.6215 33.0371 23.6215H33.9101H62.3371C65.7031 23.6215 70.3161 23.4972 75.3031 27.7242C80.4151 32.0756 93.1321 53.4594 88.7691 70.2432C86.2751 80.0648 66.5761 87.6486 57.9731 89.5134C57.8481 89.5134 52.8611 90.881 47.8741 91.1296C47.6251 91.1296 47.3751 91.1296 47.1261 91.1296ZM31.6661 25.9837C28.7981 25.9837 25.3071 26.3567 21.5671 29.4648C16.8291 33.4432 4.86011 54.081 8.97411 69.6215C10.9691 77.2053 27.3021 84.7891 38.0241 87.2756C38.1491 87.2756 44.2581 89.0161 47.7491 88.7675C52.4871 88.5188 57.3501 87.2756 57.3501 87.2756C67.9471 84.9134 84.4051 77.2053 86.2751 69.6215C90.2651 54.081 78.2961 33.4432 73.5581 29.4648C69.3191 25.8594 65.3291 25.8594 62.2121 25.9837H61.2151H32.7881C32.5391 25.9837 32.1641 25.9837 31.6661 25.9837Z" fill="black"/>
<path d="M8.47602 56.5674C8.47602 56.5674 6.73002 65.3944 9.22402 70.989C10.969 74.9674 14.585 77.0809 17.328 78.9457C17.826 79.3187 20.32 80.6863 20.32 80.6863C20.32 80.6863 23.811 72.2322 28.299 67.0106C28.299 67.0106 30.918 64.0268 33.037 62.162C35.281 60.2971 37.401 58.8052 39.77 55.8214C43.136 51.7187 45.38 47.4917 45.256 43.6376C44.632 27.7241 34.658 25.4863 32.663 25.4863C27.676 25.4863 23.312 26.4809 18.949 32.0755C10.72 42.8917 8.47602 56.5674 8.47602 56.5674Z" fill="#D1CAB6"/>
<path d="M86.7741 56.3193C86.7741 56.3193 88.6441 65.2707 86.1501 70.8653C84.4051 74.8436 80.7891 76.9571 78.0461 78.822C77.5471 79.195 74.0561 81.0598 74.0561 81.0598C74.0561 81.0598 71.3141 69.8707 65.9521 65.6436C62.7111 63.2815 56.3521 60.5463 52.6121 53.3355C50.6171 49.4815 49.2451 46.249 50.6171 38.7896C52.4871 29.2166 58.8461 26.7301 60.3421 26.1085C64.3321 24.6166 70.8151 24.7409 76.5501 32.449C84.6541 43.1409 86.7741 56.3193 86.7741 56.3193Z" fill="#D1CAB6"/>
<path d="M68.0719 55.946C71.7209 55.946 74.6799 52.9959 74.6799 49.3568C74.6799 45.7177 71.7209 42.7676 68.0719 42.7676C64.4219 42.7676 61.4639 45.7177 61.4639 49.3568C61.4639 52.9959 64.4219 55.946 68.0719 55.946Z" fill="white"/>
<path d="M68.0716 56.8161C66.2016 56.8161 64.4556 56.1945 63.0846 54.9513C61.5886 53.5837 60.7156 51.7188 60.5906 49.7296C60.3416 45.6269 63.5826 42.0215 67.6976 41.8972C69.6926 41.7729 71.5626 42.5188 73.0586 43.7621C74.5546 45.1296 75.4276 46.9945 75.5526 48.9837C75.6766 50.9729 74.9286 52.8377 73.6816 54.3296C72.3106 55.8215 70.4406 56.6918 68.4456 56.8161C68.3206 56.8161 68.1966 56.8161 68.0716 56.8161ZM68.0716 43.7621C67.9466 43.7621 67.8216 43.7621 67.8216 43.7621C64.7056 43.8864 62.3366 46.4972 62.4606 49.6053C62.5856 51.0972 63.2086 52.4648 64.3306 53.4594C65.4536 54.454 66.8246 54.9513 68.3206 54.8269C69.8166 54.7026 71.1886 54.081 72.1856 52.9621C73.1836 51.8432 73.6816 50.4756 73.5576 48.9837C73.4326 47.4918 72.8096 46.1242 71.6876 45.1296C70.8146 44.2594 69.4426 43.7621 68.0716 43.7621Z" fill="black"/>
<path d="M68.072 53.0865C70.138 53.0865 71.812 51.4166 71.812 49.3568C71.812 47.2969 70.138 45.627 68.072 45.627C66.006 45.627 64.332 47.2969 64.332 49.3568C64.332 51.4166 66.006 53.0865 68.072 53.0865Z" fill="black"/>
<path d="M27.1773 55.946C30.8273 55.946 33.7853 52.9959 33.7853 49.3568C33.7853 45.7177 30.8273 42.7676 27.1773 42.7676C23.5283 42.7676 20.5693 45.7177 20.5693 49.3568C20.5693 52.9959 23.5283 55.946 27.1773 55.946Z" fill="white"/>
<path d="M27.1772 56.8161C23.1882 56.8161 19.9462 53.708 19.6972 49.7296C19.5722 47.7404 20.3202 45.8756 21.5672 44.3837C22.9382 42.8918 24.8081 42.0215 26.8031 41.8972C30.9181 41.6485 34.5332 44.881 34.6582 48.9837C34.9072 53.0864 31.6661 56.6918 27.5511 56.8161C27.4271 56.8161 27.3022 56.8161 27.1772 56.8161ZM27.1772 43.7621C27.0532 43.7621 26.9281 43.7621 26.9281 43.7621C25.4321 43.8864 24.0602 44.508 23.0632 45.6269C22.0652 46.7458 21.5671 48.1134 21.6911 49.6053C21.8161 51.0972 22.4401 52.4648 23.5621 53.4594C24.6841 54.4539 26.0551 54.9512 27.5511 54.8269C30.6681 54.7026 33.0371 52.0918 32.9131 48.9837C32.7881 47.4918 32.1642 46.1242 31.0422 45.1296C29.9202 44.2594 28.5492 43.7621 27.1772 43.7621Z" fill="black"/>
<path d="M27.1765 53.0865C29.2425 53.0865 30.9175 51.4166 30.9175 49.3567C30.9175 47.2969 29.2425 45.627 27.1765 45.627C25.1115 45.627 23.4365 47.2969 23.4365 49.3567C23.4365 51.4166 25.1115 53.0865 27.1765 53.0865Z" fill="black"/>
<path d="M73.5579 81.8057C73.5579 81.6814 70.9399 70.1192 60.0919 63.0327C53.2349 58.5571 48.7469 50.2273 48.4969 45.2544C48.1229 34.1895 53.4849 25.7354 62.5859 23.249L63.2089 25.4868C55.2299 27.7246 50.4919 35.1841 50.8659 45.13C50.9909 48.9841 54.7309 56.6922 61.3389 61.0435C72.9339 68.6273 75.6769 80.8111 75.8019 81.3084L73.5579 81.8057Z" fill="black"/>
<path d="M32.0399 86.6544L29.6709 86.4057C29.6709 86.0327 30.4189 78.6976 33.5359 74.2219C35.6549 71.2382 37.6499 69.4976 39.8949 67.6327C42.6369 65.2706 44.7569 61.2922 45.1309 60.1733C45.8789 57.6868 46.0039 53.5841 45.2559 53.0868C44.7569 53.2111 43.2609 54.8273 41.8889 56.1949C39.8949 58.3084 37.1519 61.2922 33.6609 63.6544L32.2889 61.7895C35.5309 59.4273 38.1489 56.8165 40.2689 54.5787C42.5129 52.2165 43.8839 50.7246 45.3799 50.7246C46.1279 50.7246 46.8769 51.0976 47.3749 51.7192C48.9959 53.8327 47.9989 59.1787 47.6249 60.7949C47.1259 62.4111 44.7569 66.7625 41.6399 69.3733C39.1459 71.4868 37.5259 72.8544 35.6549 75.5895C32.6629 79.5679 32.0399 86.6544 32.0399 86.6544Z" fill="black"/>
<path d="M21.4422 81.8057L19.0732 81.3084C19.1982 80.8111 21.9412 68.6273 33.5362 61.0435C40.1442 56.6922 43.8842 48.9841 44.0092 45.13C44.3832 35.1841 39.6452 27.7246 31.6662 25.4868L32.2892 23.249C41.3912 25.7354 46.7523 34.1895 46.3783 45.2544C46.2533 50.3517 41.7652 58.5571 34.7832 63.0327C24.0602 70.1192 21.4422 81.6814 21.4422 81.8057Z" fill="black"/>
<path d="M62.8352 86.53C62.8352 86.4057 62.2122 79.4436 59.3442 75.5895C57.4742 72.9787 55.8533 71.4868 53.3603 69.3733C50.2433 66.7625 47.8743 62.4111 47.3753 60.7949C46.8773 59.1787 46.0043 53.8327 47.6253 51.7192C48.1233 51.0976 48.7472 50.7246 49.6202 50.7246C50.9912 50.7246 52.3623 52.2165 54.7313 54.5787C56.8513 56.6922 59.3443 59.4273 62.7113 61.7895L61.3392 63.6544C57.8482 61.1679 55.1052 58.3084 53.1112 56.1949C51.8642 54.8273 50.2433 53.2111 49.7443 53.0868C49.1213 53.5841 49.1213 57.6868 49.8693 60.1733C50.2433 61.2922 52.3622 65.2706 55.1052 67.6327C57.3502 69.4976 59.3442 71.2382 61.4642 74.2219C64.5812 78.5733 65.3293 86.0327 65.3293 86.4057L62.8352 86.53Z" fill="black"/>
</svg>
