<svg width="75" height="73" viewBox="0 0 75 73" fill="none" xmlns="http://www.w3.org/2000/svg">
<path d="M49.4004 19.8995C49.4004 19.8995 58.2004 14.7995 59.5004 11.8995C60.8004 8.89954 59.6004 2.39955 61.8004 2.19955C64.0004 1.89955 65.7004 3.69955 67.2004 6.49955C68.6004 9.29955 72.9004 17.1996 73.7004 20.0996C74.6004 23.4996 73.7004 26.8995 72.8004 28.6995C71.3004 31.5995 69.4004 34.8995 67.3004 37.6995C67.3004 37.6995 64.7004 30.3996 61.1004 25.2996C56.4004 18.6996 50.8004 20.3995 49.4004 19.8995Z" fill="#E4DDC8"/>
<path d="M67.1002 39.2002L66.6002 37.9002C66.6002 37.8002 64.0002 30.7002 60.5002 25.7002C57.1002 20.9002 53.2002 20.8002 50.9002 20.7002C50.2002 20.7002 49.6002 20.7002 49.1002 20.5002L47.7002 20.0002L49.1002 19.2002C51.5002 17.8002 57.9002 13.7002 58.9002 11.5002C59.4002 10.4002 59.5002 8.60022 59.6002 6.80022C59.7002 4.10022 59.9002 1.50022 61.8002 1.30022C64.1002 1.00022 66.1002 2.60022 67.9002 6.00022C68.1002 6.50022 68.4002 7.10022 68.8002 7.70022C70.7002 11.2002 73.8002 17.2002 74.4002 19.7002C75.3002 23.2002 74.5002 26.7002 73.5002 28.9002C71.9002 32.0002 70.0002 35.3002 67.9002 38.1002L67.1002 39.2002ZM51.8002 19.3002C54.3002 19.4002 58.2002 20.0002 61.7002 24.9002C64.5002 28.8002 66.6002 33.8002 67.5002 36.1002C69.2002 33.7002 70.8002 30.9002 72.1002 28.3002C73.0002 26.4002 73.8002 23.3002 72.9002 20.2002C72.3002 17.8002 69.2002 12.0002 67.4002 8.50022C67.0002 7.80022 66.7002 7.20022 66.5002 6.70022C65.0002 3.90022 63.5002 2.60022 61.9002 2.80022C61.3002 2.90022 61.1002 5.30022 61.0002 6.90022C60.9002 8.80022 60.8002 10.7002 60.2002 12.1002C59.2002 14.4002 54.6002 17.5002 51.8002 19.3002Z" fill="black"/>
<path d="M25.9003 19.9001C25.9003 19.9001 17.1003 14.9001 15.8003 12.0001C14.5003 9.00008 15.7003 2.50009 13.5003 2.30009C11.3003 2.10009 9.60033 3.80009 8.10033 6.60009C6.60033 9.40009 2.40033 17.2001 1.60033 20.1001C0.700333 23.5001 1.60033 26.9001 2.50033 28.7001C4.00033 31.6001 5.90033 34.9001 8.00033 37.7001C8.00033 37.7001 10.6003 30.4001 14.2003 25.3001C18.9003 18.8001 24.3003 20.4001 25.9003 19.9001Z" fill="#E4DDC8"/>
<path d="M8.19955 39.2997L7.39955 38.1997C5.39955 35.3997 3.39956 32.1997 1.79956 28.9997C0.69956 26.7997 -0.100449 23.2997 0.899551 19.7997C1.59955 17.2997 4.69956 11.3997 6.49956 7.7997C6.89956 7.0997 7.19955 6.4997 7.39955 6.0997C9.19955 2.5997 11.1996 1.09969 13.4996 1.39969C15.3996 1.59969 15.4996 4.19969 15.6996 6.89969C15.7996 8.59969 15.8996 10.3997 16.3996 11.5997C17.3996 13.7997 23.7996 17.7997 26.1996 19.1997L27.5996 19.9997L26.0996 20.5997C25.5996 20.7997 25.0995 20.7997 24.2995 20.7997C21.9995 20.8997 18.1996 20.9997 14.7996 25.8997C11.2996 30.8997 8.69955 37.9997 8.69955 38.0997L8.19955 39.2997ZM13.0996 2.89969C11.5996 2.89969 10.1996 4.1997 8.79956 6.7997C8.59956 7.2997 8.29955 7.8997 7.89955 8.5997C6.09955 12.0997 2.99956 17.8997 2.29956 20.2997C1.49956 23.3997 2.19956 26.4997 3.09956 28.3997C4.39956 30.9997 5.99955 33.7997 7.69955 36.1997C8.59955 33.7997 10.7996 28.7997 13.4996 24.9997C16.9996 20.0997 20.8996 19.4997 23.3996 19.2997C20.5996 17.5997 15.9996 14.4997 14.9996 12.1997C14.3996 10.7997 14.2996 8.8997 14.1996 6.9997C14.0996 5.3997 13.9996 2.99969 13.2996 2.89969C13.2996 2.89969 13.1996 2.89969 13.0996 2.89969Z" fill="black"/>
<path d="M26.8003 20.0999C24.2003 20.0999 20.5003 19.6999 16.5003 23.0999C12.4003 26.5999 3.10031 43.2999 6.30031 55.6999C8.10031 62.5999 22.2003 68.5999 29.8003 70.2999C29.8003 70.2999 34.8003 71.6999 37.7003 71.4999C41.6003 71.2999 45.5003 70.2999 45.5003 70.2999C53.1003 68.5999 67.2003 62.5999 69.0003 55.6999C72.2003 43.2999 62.9003 26.5999 58.7003 22.9999C54.7003 19.5999 51.1003 19.9999 48.4003 19.9999H26.8003V20.0999Z" fill="white"/>
<path d="M37.3004 72.3001C34.2004 72.3001 29.8004 71.1001 29.6004 71.0001C22.9004 69.5001 7.50042 63.5001 5.50042 55.9001C2.30042 43.6001 11.4004 26.4001 16.0004 22.5001C19.9004 19.2001 23.4004 19.3001 26.0004 19.3001C26.2004 19.3001 26.5004 19.3001 26.7004 19.3001H48.3004C48.5004 19.3001 48.8004 19.3001 49.0004 19.3001C51.6004 19.3001 55.2004 19.2001 59.0004 22.5001C63.7004 26.5001 72.7004 43.6001 69.5004 55.9001C67.5004 63.6001 52.1004 69.5001 45.4004 71.0001C45.3004 71.0001 41.4004 72.1001 37.5004 72.2001C37.6004 72.3001 37.4004 72.3001 37.3004 72.3001ZM25.1004 20.8001C22.8004 20.8001 20.0004 21.1001 17.0004 23.6001C13.3004 26.8001 3.80042 43.2001 7.00042 55.5001C8.70042 62.1001 22.8004 67.9001 30.0004 69.5001C30.1004 69.5001 34.9004 70.8001 37.7004 70.7001C41.4004 70.5001 45.3004 69.5001 45.3004 69.5001C52.5004 67.9001 66.6004 62.1001 68.3004 55.4001C71.5004 43.0001 62.0004 26.7001 58.3004 23.5001C54.9004 20.6001 51.8004 20.7001 49.3004 20.7001C49.0004 20.7001 48.8004 20.7001 48.6004 20.7001H26.8004C26.6004 20.7001 26.3004 20.7001 26.1004 20.7001C25.8004 20.8001 25.4004 20.8001 25.1004 20.8001Z" fill="black"/>
<path d="M63.3996 62.5002C63.3996 62.4002 61.2996 52.5002 51.0996 45.4002L51.9996 44.2002C62.6996 51.6002 64.7996 61.8002 64.8996 62.2002L63.3996 62.5002Z" fill="black"/>
<path d="M58.2998 65.2004C58.2998 65.1004 54.9998 53.9004 47.2998 49.7004L47.9998 48.4004C56.2998 53.0004 59.5998 64.4004 59.6998 64.8004L58.2998 65.2004Z" fill="black"/>
<path d="M12.5996 62.5998L11.0996 62.2998C11.1996 61.8998 12.8996 52.5998 21.8996 45.2998L22.7996 46.4998C14.3996 53.3998 12.5996 62.4998 12.5996 62.5998Z" fill="black"/>
<path d="M18.0996 65.9002L16.5996 65.6002C16.6996 65.1002 18.9996 54.0002 26.0996 49.2002L26.8996 50.4002C20.3996 54.9002 18.0996 65.8002 18.0996 65.9002Z" fill="black"/>
<path d="M59.0004 17.3004C65.9004 30.8004 65.9004 37.4004 65.9004 37.4004C65.9004 37.4004 55.2004 34.4004 45.8004 33.4004C44.6004 33.3004 41.2004 32.9004 38.0004 32.9004C34.8004 32.9004 31.7004 33.2004 30.8004 33.3004C21.1004 34.2004 9.40039 37.5004 9.40039 37.5004C9.40039 37.5004 9.4004 30.9004 16.3004 17.4004C21.0004 8.10039 29.7004 1.40039 37.6004 1.40039C45.3004 1.40039 54.2004 8.1004 59.0004 17.3004Z" fill="#CC9687"/>
<path d="M9.3996 38.1996C9.1996 38.1996 9.0996 38.0996 8.8996 37.9996C8.6996 37.8996 8.59961 37.5996 8.59961 37.3996C8.59961 37.0996 8.69961 30.4996 15.5996 16.9996C20.5996 7.1996 29.3996 0.599609 37.5996 0.599609C45.4996 0.599609 54.7996 7.4996 59.5996 16.9996C66.4996 30.4996 66.5996 37.0996 66.5996 37.3996C66.5996 37.5996 66.4996 37.8996 66.2996 37.9996C66.0996 38.0996 65.8996 38.1996 65.5996 38.0996C65.4996 38.0996 54.8996 35.0996 45.6996 34.0996H45.4996C44.1996 33.9996 40.9996 33.5996 37.9996 33.5996C35.1996 33.5996 32.5996 33.7996 31.2996 33.9996H30.7996C21.2996 34.7996 9.69961 38.0996 9.59961 38.0996C9.49961 38.1996 9.4996 38.1996 9.3996 38.1996ZM37.5996 2.09961C30.0996 2.09961 21.5996 8.49961 16.8996 17.5996C11.6996 27.7996 10.4996 33.9996 10.1996 36.2996C13.2996 35.4996 22.6996 33.0996 30.6996 32.3996H31.1996C32.4996 32.2996 35.1996 31.9996 37.9996 31.9996C41.0996 31.9996 44.2996 32.3996 45.6996 32.4996H45.8996C53.5996 33.2996 62.0996 35.4996 64.9996 36.2996C64.6996 33.9996 63.4996 27.7996 58.2996 17.5996C53.6996 8.69961 44.9996 2.09961 37.5996 2.09961Z" fill="black"/>
<path d="M37.7998 53.4004C37.7998 53.4004 37.2998 56.9004 37.8998 57.7004C38.4998 58.5004 40.0998 59.0004 42.4998 58.1004C44.8998 57.2004 43.5998 53.4004 43.5998 53.4004H37.7998Z" fill="#CC9687"/>
<path d="M40.2004 59.3996C38.8004 59.3996 37.9004 58.8996 37.3004 58.1996C36.5004 57.1996 36.8004 54.3996 37.0004 53.2996L37.1004 52.5996L44.1004 52.6996L44.3004 53.1996C44.8004 54.8996 45.1004 57.8996 42.7004 58.7996C41.8004 59.2996 41.0004 59.3996 40.2004 59.3996ZM38.5004 54.1996C38.3004 55.6996 38.4004 56.9996 38.6004 57.2996C39.1004 57.8996 40.4004 58.1996 42.3004 57.4996C43.5004 56.9996 43.3004 55.1996 43.1004 54.2996L38.5004 54.1996Z" fill="black"/>
<path d="M37.7005 53.5998C37.7005 53.5998 37.9005 56.9998 37.3005 57.7998C36.7005 58.6998 34.1005 58.8998 32.6005 57.9998C30.7005 56.8998 31.7005 53.2998 31.7005 53.2998L37.7005 53.5998Z" fill="#CC9687"/>
<path d="M34.9002 59.3996C33.9002 59.3996 32.9002 59.1996 32.1002 58.6996C29.8002 57.2996 30.8002 53.3996 30.9002 53.1996L31.1002 52.5996L38.4002 52.8996V53.5996C38.5002 54.6996 38.5002 57.3996 37.8002 58.2996C37.3002 58.9996 36.2002 59.3996 34.9002 59.3996ZM32.3002 54.0996C32.1002 55.0996 32.1002 56.7996 33.0002 57.2996C34.3002 58.0996 36.4002 57.7996 36.7002 57.2996C36.9002 56.9996 37.0002 55.6996 37.0002 54.1996L32.3002 54.0996Z" fill="black"/>
<path d="M25.2999 48.6996C25.2999 49.2996 25 50.9996 25.1 52.2996C25.2 55.1996 24.5 58.1996 25.9 59.1996C27.9 60.5996 30.3999 57.3996 30.7999 56.3996C30.9999 55.8996 31.3 55.0996 31.4 54.0996C31.5 53.5996 31.9 53.1996 32.4 53.1996L37 53.4996L42.7999 53.2996C43.4 53.2996 43.5999 53.5996 43.7999 54.3996C44 55.4996 44.6 56.7996 44.9 57.3996C45.8 58.9996 47.7 60.2996 49.2 59.7996C50.4 59.3996 50.5 55.4996 50.4 53.0996C50.3 51.3996 49.6999 49.0996 49.2999 47.9996C48.2999 45.2996 43.9 39.6996 37.2999 39.5996C30.6999 39.7996 25.3999 46.5996 25.2999 48.6996Z" fill="#CC9687"/>
<path d="M48.6003 60.8C46.9003 60.8 45.1003 59.4 44.2003 57.9C43.8003 57.3 43.2003 55.9 43.0003 54.7C43.0003 54.3 43.0003 54.2 43.0003 54.1H42.9003L37.2003 54.3L32.5003 54C32.4003 54 32.3003 54.1 32.3003 54.2C32.1003 55.2 31.9003 56 31.6003 56.7C31.3003 57.4 29.7003 59.7 27.9003 60.2C27.1003 60.4 26.3003 60.3 25.6003 59.8C24.2003 58.8 24.3003 56.8 24.4003 54.6C24.4003 53.8 24.5003 53.1 24.4003 52.3C24.4003 51.3 24.5003 50 24.6003 49.2C24.6003 49 24.6003 48.7 24.7003 48.6C24.9003 46.2 30.3003 39 37.5003 39C37.5003 39 37.5003 39 37.6003 39C44.8003 39 49.3003 45.1 50.3003 47.9C50.7003 49 51.3003 51.4 51.4003 53.2C51.5003 56.3 51.3003 60.1 49.7003 60.6C49.2003 60.7 48.9003 60.8 48.6003 60.8ZM42.8003 52.6C44.2003 52.6 44.4003 53.6 44.5003 54.3C44.7003 55.2 45.2003 56.5 45.5003 57.1C46.3003 58.5 47.9003 59.5 48.9003 59.2C49.3003 59 49.7003 56.9 49.6003 53.3C49.5003 51.8 49.0003 49.5 48.6003 48.5C47.6003 45.8 43.4003 40.7 37.3003 40.6C37.3003 40.6 37.3003 40.6 37.2003 40.6C30.7003 40.6 26.0003 47.2 25.9003 48.8C25.9003 48.9 25.9003 49.2 25.8003 49.4C25.7003 50.2 25.6003 51.4 25.6003 52.3C25.6003 53.1 25.6003 53.9 25.6003 54.7C25.5003 56.5 25.5003 58.1 26.2003 58.6C26.5003 58.8 26.8003 58.9 27.2003 58.8C28.4003 58.5 29.7003 56.8 30.0003 56.2C30.2003 55.7 30.4003 54.9 30.6003 54.1C30.7003 53.2 31.5003 52.6 32.4003 52.6L37.1003 52.9L42.8003 52.6Z" fill="black"/>
<path d="M32.4002 54.1004C27.0002 53.8004 23.8002 51.7004 23.7002 51.6004L24.5002 50.4004C24.5002 50.4004 27.5002 52.4004 32.4002 52.6004V54.1004Z" fill="black"/>
<path d="M42.5996 54.2004V52.7004C47.4996 52.7004 51.8996 50.9004 51.8996 50.9004L52.4996 52.3004C52.2996 52.3004 47.7996 54.2004 42.5996 54.2004Z" fill="black"/>
<path d="M38.5996 40.5H37.0996V53.4H38.5996V40.5Z" fill="black"/>
<path d="M28.4004 30.1C28.4004 30.1 32.2004 32.1 33.4004 37.5C34.1004 40.7 32.6004 44.6 32.6004 44.6C33.9004 41.3 36.8004 40.8 37.6004 40.8C38.8004 40.8 41.6004 41.8 42.7004 44.3C42.7004 44.3 41.1004 40.1 41.7004 37.6C42.6004 33.4 47.2004 30 47.2004 30C45.1004 31 42.0004 32.2 37.7004 32.1C33.2004 32 28.4004 30.1 28.4004 30.1Z" fill="#A86D62"/>
<path d="M32.4996 45.5002C32.3996 45.5002 32.2996 45.5002 32.1996 45.4002C31.7996 45.2002 31.5996 44.8002 31.7996 44.4002C31.8996 44.1002 33.1996 40.6002 32.5996 37.7002C31.4996 32.7002 27.9996 30.8002 27.9996 30.8002C27.6996 30.6002 27.4996 30.2002 27.6996 29.8002C27.8996 29.4002 28.2996 29.3002 28.6996 29.4002C28.6996 29.4002 33.4996 31.2002 37.6996 31.3002C40.9996 31.4002 43.9996 30.7002 46.7996 29.3002C47.0996 29.1002 47.5996 29.2002 47.7996 29.6002C47.9996 29.9002 47.8996 30.4002 47.5996 30.6002C47.5996 30.6002 43.1996 33.9002 42.3996 37.8002C41.9996 39.7002 42.9996 43.0002 43.3996 44.1002C43.4996 44.5002 43.3996 44.9002 42.9996 45.1002C42.5996 45.3002 42.1996 45.1002 41.9996 44.7002C40.9996 42.6002 38.5996 41.7002 37.5996 41.7002C37.5996 41.7002 34.5996 41.7002 33.2996 45.0002V45.1002C33.0996 45.3002 32.7996 45.5002 32.4996 45.5002ZM37.4996 40.2002C38.3996 40.2002 39.7996 40.6002 40.9996 41.4002C40.6996 40.1002 40.5996 38.7002 40.8996 37.5002C41.3996 35.4002 42.5996 33.5002 43.8996 32.1002C41.8996 32.7002 39.7996 32.9002 37.6996 32.9002C35.4996 32.9002 33.2996 32.4002 31.4996 31.9002C32.4996 33.2002 33.5996 34.9002 34.0996 37.4002C34.3996 38.7002 34.3996 40.1002 34.1996 41.3002C35.7996 40.2002 37.3996 40.2002 37.4996 40.2002Z" fill="black"/>
<path d="M41.5996 40.0003C41.8996 46.7003 47.5996 51.9003 54.2996 51.6003C61.4996 51.2003 65.8996 45.6003 65.8996 38.9003C65.8996 34.7003 65.1996 29.5003 62.4996 27.4003C60.2996 25.7003 56.8996 25.8003 53.0996 27.1003C46.7996 29.3003 41.2996 33.3003 41.5996 40.0003Z" fill="#CC9687"/>
<path d="M53.6998 52.4002C50.4998 52.4002 47.4998 51.2002 45.0998 49.1002C42.4998 46.8002 40.9998 43.6002 40.8998 40.1002C40.5998 34.0002 44.7998 29.2002 52.8998 26.4002C57.1998 24.9002 60.6998 25.1002 62.9998 26.8002C66.2998 29.4002 66.6998 35.5002 66.6998 38.9002C66.6998 46.4002 61.5998 52.0002 54.3998 52.3002C54.0998 52.4002 53.8998 52.4002 53.6998 52.4002ZM42.3998 40.0002C42.4998 43.1002 43.8998 45.9002 46.0998 48.0002C48.2998 50.0002 51.1998 51.1002 54.2998 50.9002C60.6998 50.6002 65.1998 45.7002 65.1998 39.0002C65.1998 36.5002 64.8998 30.3002 61.9998 28.1002C59.6998 26.3002 55.9998 27.0002 53.3998 27.9002C48.1998 29.6002 42.0998 33.2002 42.3998 40.0002Z" fill="black"/>
<path d="M44.5004 39.9003C44.7004 45.0003 49.0004 48.9003 54.1004 48.7003C59.2004 48.5003 62.7004 44.2003 62.9004 39.1003C63.0004 36.0003 62.8004 31.9003 60.7004 30.3003C59.0004 29.1003 55.5004 29.8003 53.3004 30.3003C48.9004 31.2003 44.3004 34.8003 44.5004 39.9003Z" fill="#A86D62"/>
<path d="M53.8002 44.6004C56.6172 44.6004 58.9002 42.3174 58.9002 39.5004C58.9002 36.6834 56.6172 34.4004 53.8002 34.4004C50.9842 34.4004 48.7002 36.6834 48.7002 39.5004C48.7002 42.3174 50.9842 44.6004 53.8002 44.6004Z" fill="white"/>
<path d="M53.8004 45.3C53.7004 45.3 53.7004 45.3 53.6004 45.3C52.0004 45.2 50.6004 44.6 49.5004 43.4C48.4004 42.3 47.9004 40.8 47.9004 39.2C48.0004 37.6 48.6004 36.2 49.8004 35.1C50.9004 34 52.4004 33.5 54.0004 33.5C55.6004 33.6 57.0004 34.2 58.1004 35.4C59.2004 36.5 59.7004 38 59.7004 39.6C59.5004 42.8 56.9004 45.3 53.8004 45.3ZM53.8004 35.1C52.7004 35.1 51.6004 35.5 50.8004 36.3C49.9004 37.1 49.5004 38.2 49.4004 39.3C49.4004 40.5 49.8004 41.6 50.6004 42.4C51.4004 43.3 52.5004 43.7 53.6004 43.8C54.8004 43.8 55.9004 43.4 56.7004 42.6C57.6004 41.8 58.0004 40.7 58.1004 39.6C58.1004 38.4 57.7004 37.3 56.9004 36.5C56.1004 35.6 55.0004 35.2 53.9004 35.1H53.8004Z" fill="black"/>
<path d="M53.8004 42.3996C55.4024 42.3996 56.7004 41.1016 56.7004 39.4996C56.7004 37.8976 55.4024 36.5996 53.8004 36.5996C52.1994 36.5996 50.9004 37.8976 50.9004 39.4996C50.9004 41.1016 52.1994 42.3996 53.8004 42.3996Z" fill="black"/>
<path d="M33.7004 40.0003C33.4004 46.7003 27.7004 51.9003 21.0004 51.6003C13.8004 51.2003 9.40039 45.6003 9.40039 38.9003C9.40039 34.7003 10.1004 29.5003 12.8004 27.4003C15.0004 25.7003 18.4004 25.8003 22.2004 27.1003C28.5004 29.3003 34.0004 33.3003 33.7004 40.0003Z" fill="#CC9687"/>
<path d="M21.5996 52.3997C21.3996 52.3997 21.1996 52.3997 20.8996 52.3997C13.6996 51.9997 8.59961 46.4997 8.59961 38.9997C8.59961 35.5997 9.09961 29.3997 12.2996 26.8997C14.5996 25.0997 17.9996 24.9997 22.3996 26.4997C30.4996 29.2997 34.6996 33.9997 34.3996 40.1997C34.1996 43.6997 32.6996 46.8997 30.1996 49.1997C27.7996 51.1997 24.7996 52.3997 21.5996 52.3997ZM17.0996 26.8997C15.6996 26.8997 14.3996 27.1997 13.2996 27.9997C10.3996 30.1997 10.0996 36.3997 10.0996 38.8997C10.0996 45.5997 14.5996 50.4997 20.9996 50.7997C23.9996 50.9997 26.8996 49.8997 29.1996 47.8997C31.4996 45.7997 32.7996 42.9997 32.8996 39.8997C33.1996 33.0997 27.0996 29.4997 21.8996 27.6997C20.4996 27.2997 18.6996 26.8997 17.0996 26.8997Z" fill="black"/>
<path d="M30.8002 39.9003C30.6002 45.0003 26.3002 48.9003 21.2002 48.7003C16.1002 48.5003 12.6002 44.2003 12.4002 39.1003C12.3002 36.0003 12.5002 31.9003 14.6002 30.3003C16.3002 29.1003 19.8002 29.8003 22.0002 30.3003C26.4002 31.2003 31.0002 34.8003 30.8002 39.9003Z" fill="#A86D62"/>
<path d="M21.5004 44.6004C24.3174 44.6004 26.6004 42.3174 26.6004 39.5004C26.6004 36.6834 24.3174 34.4004 21.5004 34.4004C18.6834 34.4004 16.4004 36.6834 16.4004 39.5004C16.4004 42.3174 18.6834 44.6004 21.5004 44.6004Z" fill="white"/>
<path d="M21.4996 45.3C18.3996 45.3 15.7996 42.8001 15.5996 39.6001C15.4996 36.4001 17.9996 33.6 21.2996 33.5C22.8996 33.4 24.3996 34.0001 25.4996 35.1001C26.5996 36.2001 27.2996 37.6 27.3996 39.2C27.4996 40.8 26.8996 42.3 25.7996 43.4C24.6996 44.5 23.2996 45.2 21.6996 45.3C21.6996 45.3 21.5996 45.3 21.4996 45.3ZM21.4996 35.1001C21.3996 35.1001 21.3996 35.1001 21.2996 35.1001C18.8996 35.2001 16.9996 37.2001 17.0996 39.6001C17.1996 42.0001 19.1996 43.9 21.5996 43.8C22.7996 43.8 23.7996 43.3 24.5996 42.4C25.3996 41.5 25.7996 40.4 25.7996 39.3C25.7996 38.1 25.2996 37.1 24.3996 36.3C23.6996 35.5 22.5996 35.1001 21.4996 35.1001Z" fill="black"/>
<path d="M21.4996 42.3996C23.1016 42.3996 24.3996 41.1016 24.3996 39.4996C24.3996 37.8976 23.1016 36.5996 21.4996 36.5996C19.8976 36.5996 18.5996 37.8976 18.5996 39.4996C18.5996 41.1016 19.8976 42.3996 21.4996 42.3996Z" fill="black"/>
</svg>
