<svg width="43" height="41" viewBox="0 0 43 41" fill="none" xmlns="http://www.w3.org/2000/svg">
<mask id="mask0_29_5" style="mask-type:luminance" maskUnits="userSpaceOnUse" x="0" y="0" width="43" height="41">
<path d="M42.8 0H0V40.4H42.8V0Z" fill="white"/>
</mask>
<g mask="url(#mask0_29_5)">
<path d="M35 14.0002C39.4 22.7002 39.4 26.9002 39.4 26.9002C39.4 26.9002 37 18.5002 28.5 21.2002C22.7 23.1002 25.2 30.2002 20.8 30.1002C17.3 30.0002 19.8 22.5002 12.5 21.4002C4 20.1002 3 26.9002 3 26.9002C3 26.9002 2.99999 22.7002 7.39999 14.0002C10.5 8.00018 16 3.7002 21.1 3.7002C26.2 3.7002 32 8.00018 35 14.0002Z" fill="#CC9687"/>
<path d="M39.0006 26.6002C38.9006 25.5002 38.3006 21.4002 34.6006 14.2002C31.6006 8.4002 26.0006 4.2002 21.3006 4.2002C16.5006 4.2002 11.0006 8.3002 8.00058 14.2002C4.40058 21.3002 3.70059 25.4002 3.60059 26.6002L2.90057 27.4002C2.70057 27.3002 2.60059 27.1002 2.60059 26.9002C2.60059 26.7002 2.70059 22.5002 7.10059 13.8002C10.3006 7.50017 16.0006 3.2002 21.3006 3.2002C26.4006 3.2002 32.3006 7.6002 35.5006 13.7002C39.9006 22.4002 40.0006 26.7002 40.0006 26.8002C40.0006 27.0002 39.9006 27.2002 39.7006 27.2002L39.0006 26.6002Z" fill="black"/>
<path d="M34.2004 35.8997C36.2004 35.8997 38.2004 35.1996 39.5004 33.5996C40.5004 32.2996 41.1004 30.9997 41.4004 29.4997C41.8004 27.5997 41.4004 24.8997 40.9004 23.7997C40.0004 21.6997 38.9004 20.1997 36.8004 18.9997C34.4004 17.4997 35.0004 19.7996 33.4004 20.0996C33.4004 20.0996 38.0004 21.3997 39.4004 26.4997C41.1004 33.2997 34.2004 35.8997 34.2004 35.8997Z" fill="#A86D62"/>
<path d="M31.9004 19.9999C32.3004 19.8999 32.7004 19.7999 33.2004 19.6999C33.7004 19.5999 33.9004 19.2999 34.1004 18.9999C34.6004 18.1999 35.3004 17.5999 37.0004 18.6999C39.1004 19.9999 40.3004 21.4999 41.3004 23.7999C41.8004 24.9999 42.3004 27.6999 41.8004 29.7999C41.5004 31.4999 40.8004 32.7998 39.8004 34.0998C38.5004 35.6998 36.5004 36.4999 34.1004 36.4999C33.5004 36.4999 33.0004 36.4999 32.6004 36.4999L34.1004 35.5998C36.2004 35.5998 37.9004 34.8999 39.0004 33.4999C39.9004 32.3999 40.5004 31.1999 40.8004 29.6999C41.2004 27.7999 40.8004 25.2999 40.3004 24.2999C39.4004 22.1999 38.3004 20.8999 36.4004 19.6999C35.3004 18.9999 35.2004 19.1999 34.8004 19.6999C34.5004 20.0999 34.1004 20.6999 33.3004 20.7999L31.9004 19.9999Z" fill="black"/>
<path d="M8.40037 35.8997C6.40037 35.8997 4.40038 35.1996 3.10038 33.5996C2.10038 32.2996 1.50037 30.9997 1.20037 29.4997C0.800375 27.5997 1.20037 24.8997 1.70037 23.7997C2.60037 21.6997 3.70038 20.1997 5.80038 18.9997C8.20038 17.4997 7.60037 19.7996 9.20037 20.0996C9.20037 20.0996 2.80038 21.8997 3.00038 27.8997C3.20038 33.7997 8.40037 35.8997 8.40037 35.8997Z" fill="#A86D62"/>
<path d="M9.20037 20.6003C8.40037 20.4003 8.00037 19.9003 7.70037 19.5003C7.40037 19.2003 7.30038 19.0003 7.10038 19.0003C6.90038 19.0003 6.60038 19.1003 6.10038 19.4003C4.20038 20.6003 3.10037 21.9003 2.20037 24.0003C1.80037 25.0003 1.30037 27.6003 1.70037 29.4003C2.00037 31.0003 2.50038 32.3003 3.50038 33.4003C4.60038 34.7003 6.40037 35.5003 8.40037 35.5003L10.3004 36.4003C9.70038 36.5003 9.10037 36.5003 8.40037 36.5003C6.00037 36.4003 4.00037 35.6003 2.70037 34.0003C1.70037 32.8003 1.10037 31.4003 0.700375 29.7003C0.300375 27.6003 0.700375 24.9003 1.20037 23.7003C2.20037 21.4003 3.40038 19.9003 5.50038 18.6003C7.20038 17.5003 7.80037 18.1003 8.40037 18.9003C8.60037 19.2003 8.90038 19.5003 9.30038 19.6003C9.70038 19.7003 10.1004 19.8003 10.5004 19.9003L9.20037 20.6003Z" fill="black"/>
<path d="M21.1 30.1003C19.4 30.2003 18.6 30.8004 18.6 30.8004C18.6 30.8004 19 21.2003 19 19.6003C19 17.7003 18.9 10.0004 18.4 7.30035C17.9 4.60035 17 3.60034 17 3.60034C17 3.60034 19 2.90039 21.5 2.90039C23.8 2.90039 25.8 3.60034 25.8 3.60034C25.8 3.60034 24.8 4.60035 24.4 7.30035C23.9 10.0004 23.8 17.7003 23.8 19.6003C23.8 21.3003 24.2 30.9004 24.2 30.9004C24.2 30.9004 23.3 30.2003 21.6 30.1003H21.5H21.1Z" fill="#A86D62"/>
<path d="M24.0004 31.4C23.9004 31.4 23.8004 31.4 23.7004 31.3C23.7004 31.3 22.9004 30.7 21.4004 30.6H21.1004C19.6004 30.7 18.8004 31.2 18.8004 31.2C18.6004 31.3 18.5004 31.3 18.3004 31.2C18.1004 31.1 18.0004 30.9 18.1004 30.8C18.1004 30.7 18.5004 21.3 18.5004 19.6V19C18.5004 16.5 18.3004 9.90002 17.9004 7.40002C17.5004 4.90002 16.6004 3.90002 16.6004 3.90002C16.5004 3.80002 16.4004 3.6 16.5004 3.5C16.5004 3.3 16.7004 3.20001 16.8004 3.20001C16.9004 3.20001 18.9004 2.5 21.4004 2.5C23.8004 2.5 25.8004 3.20001 25.9004 3.20001C26.1004 3.30001 26.2004 3.4 26.2004 3.5C26.2004 3.7 26.2004 3.80002 26.1004 3.90002C26.1004 3.90002 25.2004 4.90002 24.8004 7.40002C24.4004 9.90002 24.3004 16.5 24.2004 19V19.6C24.2004 21.3 24.6004 30.8 24.6004 30.9C24.6004 31.1 24.5004 31.3 24.3004 31.3C24.2004 31.3 24.1004 31.4 24.0004 31.4ZM21.1004 29.6H21.4004C22.3004 29.7 23.0004 29.9 23.5004 30.1C23.4004 27.7 23.1004 21 23.2004 19.6V19C23.2004 16.2 23.4004 9.80001 23.8004 7.20001C24.1004 5.50001 24.6004 4.39999 24.9004 3.79999C24.2004 3.59999 22.8004 3.29999 21.4004 3.29999C19.8004 3.29999 18.5004 3.59999 17.7004 3.79999C18.1004 4.39999 18.5004 5.50001 18.8004 7.20001C19.2004 9.70001 19.4004 16.2 19.4004 19V19.6C19.4004 21 19.2004 27.7 19.1004 30.1C19.6004 29.8 20.2004 29.7 21.1004 29.6Z" fill="black"/>
<path d="M31.9 20.3C27.5 20.2 23.9 23.6 23.8 28C23.7 32.4 27.1 36 31.5 36.1C35.9 36.2 39.5 32.8 39.6 28.4C39.7 24.1 36.2 20.4 31.9 20.3ZM34.5 30.8C33.8 31.6 32.9 32 31.9 32.1C31.8 32.1 31.8 32.1 31.7 32.1C30.8 32.1 29.9 31.8 29.2 31.1C28.4 30.4 28 29.5 27.9 28.5C27.8 26.4 29.4 24.6 31.5 24.5C32.5 24.4 33.5 24.8 34.2 25.5C35 26.2 35.4 27.1 35.5 28.1C35.5 29 35.2 30 34.5 30.8Z" fill="#CC9687"/>
<path d="M31.8004 22.2001C28.5004 22.1001 25.7004 24.7 25.6004 28C25.5004 31.3 28.1004 34.1001 31.4004 34.2001C34.7004 34.3001 37.5004 31.7001 37.6004 28.4001C37.7004 25.1001 35.1004 22.3001 31.8004 22.2001ZM31.8004 31.5C30.0004 31.6 28.4004 30.2001 28.3004 28.4001C28.2004 26.6001 29.6004 25.0001 31.4004 24.9001C33.2004 24.8001 34.8004 26.2 34.9004 28C35.1004 29.9 33.7004 31.4 31.8004 31.5Z" fill="#A86D62"/>
<path d="M31.7005 36.6003C31.6005 36.6003 31.5005 36.6003 31.5005 36.6003C29.3005 36.5003 27.2005 35.6003 25.6005 34.0003C24.1005 32.4003 23.2005 30.2003 23.3005 28.0003C23.4005 23.4003 27.3005 19.7003 31.9005 19.9003C34.1005 20.0003 36.2005 20.9003 37.8005 22.5003C39.3005 24.1003 40.2005 26.3003 40.1005 28.5003C40.0005 30.7003 39.1005 32.8003 37.5005 34.4003C35.8005 35.8003 33.8005 36.6003 31.7005 36.6003ZM31.6005 20.8003C27.6005 20.8003 24.3005 24.0003 24.2005 28.0003C24.1005 30.0003 24.9005 31.9003 26.2005 33.3003C27.6005 34.7003 29.4005 35.6003 31.4005 35.6003C33.4005 35.7003 35.3005 34.9003 36.7005 33.6003C38.1005 32.2003 39.0005 30.4003 39.0005 28.4003C39.1005 26.4003 38.3005 24.5003 37.0005 23.1003C35.6005 21.7003 33.8005 20.8003 31.8005 20.8003C31.8005 20.8003 31.7005 20.8003 31.6005 20.8003Z" fill="black"/>
<path d="M11.1002 20.3C6.7002 20.2 3.1002 23.6 3.0002 28C2.9002 32.4 6.30019 36 10.7002 36.1C15.1002 36.2 18.7002 32.8 18.8002 28.4C18.9002 24 15.5002 20.4 11.1002 20.3ZM11.1002 32C11.0002 32 11.0002 32 10.9002 32C8.90019 32 7.2002 30.4 7.1002 28.4C7.0002 27.4 7.4002 26.4 8.1002 25.7C8.8002 24.9 9.70019 24.5 10.7002 24.4C12.8002 24.3 14.6002 25.9 14.7002 28C14.8002 30.1 13.2002 31.9 11.1002 32Z" fill="#CC9687"/>
<path d="M11.1003 22.2001C7.80026 22.1001 5.00025 24.7 4.90025 28C4.80025 31.3 7.40025 34.1001 10.7003 34.2001C14.0003 34.3001 16.8003 31.7001 16.9003 28.4001C17.0003 25.1001 14.4003 22.3001 11.1003 22.2001ZM11.1003 31.5C9.30026 31.6 7.70026 30.2001 7.60026 28.4001C7.50026 26.6001 8.90025 25.0001 10.7003 24.9001C12.5003 24.8001 14.1003 26.2 14.2003 28C14.3003 29.9 12.9003 31.4 11.1003 31.5Z" fill="#A86D62"/>
<path d="M10.9007 36.5995C10.8007 36.5995 10.7007 36.5995 10.7007 36.5995C8.50071 36.4995 6.40072 35.5996 4.80072 33.9996C3.30072 32.3996 2.40071 30.1996 2.50071 27.9996C2.60071 25.7996 3.50072 23.6995 5.10072 22.0995C6.70072 20.5995 8.90072 19.6995 11.1007 19.7995C13.3007 19.8995 15.4007 20.7996 17.0007 22.3996C18.5007 23.9996 19.4007 26.1996 19.3007 28.3996C19.2007 32.9996 15.4007 36.5995 10.9007 36.5995ZM10.9007 20.7995C9.00071 20.7995 7.20072 21.4995 5.80072 22.7995C4.40072 24.1995 3.60071 25.9996 3.50071 27.9996C3.40071 29.9996 4.20071 31.8995 5.50071 33.2995C6.90071 34.6995 8.70071 35.5995 10.7007 35.5995C14.8007 35.6995 18.2007 32.4996 18.3007 28.3996C18.4007 26.3996 17.6007 24.4995 16.3007 23.0995C14.9007 21.6995 13.1007 20.7995 11.1007 20.7995C11.1007 20.7995 11.0007 20.7995 10.9007 20.7995Z" fill="black"/>
<path d="M10.9002 31.9999C8.90016 31.9999 7.20017 30.4 7.10017 28.4C7.00017 27.4 7.40017 26.3999 8.10017 25.6999C8.80017 24.8999 9.70016 24.5 10.7002 24.4C12.8002 24.3 14.6002 25.8999 14.7002 27.9999C14.8002 30.0999 13.2002 31.8999 11.1002 31.9999C11.0002 31.9999 11.0002 31.9999 10.9002 31.9999ZM10.9002 25.4C10.8002 25.4 10.8002 25.4 10.7002 25.4C9.90016 25.4 9.20016 25.7999 8.70016 26.2999C8.20016 26.8999 7.90016 27.5999 8.00016 28.2999C8.00016 29.0999 8.40015 29.7999 8.90015 30.2999C9.50015 30.7999 10.2002 31.0999 10.9002 30.9999C12.5002 30.8999 13.7002 29.5999 13.6002 27.9999C13.6002 27.1999 13.2002 26.4999 12.7002 25.9999C12.3002 25.5999 11.6002 25.4 10.9002 25.4Z" fill="black"/>
<path d="M31.7 31.9004C29.7 31.9004 28 30.3003 27.9 28.3003C27.8 27.3003 28.2 26.3003 28.9 25.6003C29.6 24.8003 30.5 24.4003 31.5 24.3003C33.6 24.2003 35.4 25.8004 35.5 27.9004C35.6 30.0004 34 31.8004 31.9 31.9004C31.9 31.9004 31.8 31.9004 31.7 31.9004ZM31.7 25.3003C31.6 25.3003 31.6 25.3003 31.5 25.3003C30.7 25.3003 30 25.7004 29.5 26.2004C29 26.8004 28.7 27.5004 28.8 28.2004C28.8 29.0004 29.2 29.7004 29.7 30.2004C30.3 30.7004 31 31.0004 31.7 30.9004C33.3 30.8004 34.5 29.5004 34.4 27.9004C34.4 27.1004 34 26.4004 33.5 25.9004C33.1 25.5004 32.4 25.3003 31.7 25.3003Z" fill="black"/>
</g>
</svg>
