<svg width="38" height="34" viewBox="0 0 38 34" fill="none" xmlns="http://www.w3.org/2000/svg">
<path d="M32.8002 11.2002C37.3002 20.0002 37.3002 24.2002 37.3002 24.2002C37.3002 24.2002 32.8002 19.4002 28.0002 20.3002C25.0002 20.9002 22.9002 27.5002 18.6002 27.4002C14.9002 27.3002 12.3002 22.9002 9.3002 22.3002C4.9002 21.4002 0.700195 24.1002 0.700195 24.1002C0.700195 24.1002 0.700195 19.8002 5.2002 11.1002C8.3002 5.10016 13.9002 0.700195 19.1002 0.700195C23.9002 0.800195 29.7002 5.2002 32.8002 11.2002Z" fill="#CC9687"/>
<path d="M0.0996094 24.1998C0.0996094 23.9998 0.0996094 19.6998 4.59961 10.8998C7.79961 4.49984 13.5996 0.299805 18.8996 0.299805C23.9996 0.299805 29.9996 4.79984 33.1996 10.8998C37.6996 19.6998 37.6996 23.9998 37.6996 24.1998L36.6996 23.8998C36.5996 22.7998 35.9996 18.5998 32.2996 11.3998C29.2996 5.59984 23.6996 1.2998 18.8996 1.2998C13.9996 1.2998 8.4996 5.49984 5.4996 11.3998C1.7996 18.5998 1.19961 22.6998 1.09961 23.8998L0.0996094 24.1998Z" fill="black"/>
<path d="M13.4004 31.8C17.6004 29 20.3004 29.1 24.0004 31.5C24.0004 31.5 22.1004 29.5 21.7004 27.6C21.2004 25.7 21.9004 23 21.9004 23C21.1004 24.9 20.3004 26 19.0004 26C17.4004 26 16.5004 24 16.0004 23C16.0004 23 16.7004 25.6 15.9004 28.1C15.5004 29.6 13.4004 31.8 13.4004 31.8Z" fill="#A86D62"/>
<path d="M13.3996 32.3002C13.2996 32.3002 13.0996 32.2001 12.9996 32.1001C12.7996 31.9001 12.7996 31.6002 12.9996 31.5002C13.4996 30.9002 14.9996 29.1002 15.3996 28.0002C16.0996 25.7002 15.4996 23.2001 15.4996 23.1001C15.3996 22.9001 15.5996 22.6002 15.7996 22.5002C15.9996 22.4002 16.2996 22.5002 16.3996 22.7002L16.4996 22.9002C16.9996 23.9002 17.7996 25.5002 18.8996 25.5002C19.8996 25.5002 20.5996 24.7002 21.3996 22.8002C21.4996 22.6002 21.7996 22.4002 21.9996 22.5002C22.1996 22.6002 22.3996 22.8001 22.2996 23.1001C22.2996 23.1001 21.6996 25.7002 22.0996 27.5002C22.4996 29.2002 24.2996 31.2002 24.2996 31.2002C24.4996 31.4002 24.4996 31.7002 24.2996 31.8002C24.0996 32.0002 23.8996 32.0002 23.6996 31.9002C19.9996 29.5002 17.5996 29.5002 13.5996 32.2002C13.5996 32.3002 13.4996 32.3002 13.3996 32.3002ZM16.6996 25.3002C16.6996 26.2002 16.5996 27.2002 16.2996 28.3002C16.0996 28.9002 15.6996 29.5002 15.2996 30.2002C17.6996 29.0002 19.7996 29.0001 22.0996 30.1001C21.6996 29.4001 21.2996 28.6002 21.0996 27.9002C20.9996 27.0002 20.9996 26.2002 20.9996 25.5002C20.4996 26.1002 19.7996 26.5002 18.8996 26.5002C17.9996 26.5002 17.2996 26.0002 16.6996 25.3002Z" fill="black"/>
<path d="M29.5996 17.5998C25.1996 17.4998 21.4996 20.8998 21.3996 25.2998C21.2996 29.6998 24.6996 33.3998 29.0996 33.4998C33.4996 33.5998 37.1996 30.1998 37.2996 25.7998C37.4996 21.3998 33.9996 17.6998 29.5996 17.5998ZM32.1996 28.0998C31.4996 28.8998 30.5996 29.2999 29.4996 29.3999C29.3996 29.3999 29.3996 29.3999 29.2996 29.3999C28.2996 29.3999 27.3996 29.0999 26.6996 28.3999C25.8996 27.6999 25.4996 26.7998 25.3996 25.6998C25.2996 23.5998 26.8996 21.7998 28.9996 21.6998C29.9996 21.5998 30.9996 21.9998 31.7996 22.6998C32.5996 23.3998 32.9996 24.2999 33.0996 25.3999C33.2996 26.3999 32.8996 27.3998 32.1996 28.0998Z" fill="#CC9687"/>
<path d="M29.4997 19.4999C26.1997 19.3999 23.3997 21.9999 23.2997 25.3999C23.1997 28.6999 25.7997 31.4998 29.1997 31.5998C32.4997 31.6998 35.2997 29.0999 35.3997 25.6999C35.4997 22.3999 32.8997 19.5999 29.4997 19.4999ZM29.5997 28.8999C27.7997 28.9999 26.1997 27.5999 26.0997 25.6999C25.9997 23.8999 27.3997 22.2999 29.2997 22.1999C31.0997 22.0999 32.6997 23.4999 32.7997 25.3999C32.7997 27.1999 31.3997 28.7999 29.5997 28.8999Z" fill="#A86D62"/>
<path d="M29.3996 34.0003C29.2996 34.0003 29.1996 34.0003 29.1996 34.0003C26.8996 33.9003 24.7996 33.0003 23.2996 31.4003C21.6996 29.8003 20.8996 27.6003 20.9996 25.4003C21.0996 20.7003 24.9996 17.1003 29.6996 17.2003C31.9996 17.3003 34.0996 18.2003 35.5996 19.8003C37.1996 21.4003 37.9996 23.6003 37.8996 25.8003C37.7996 28.1003 36.8996 30.2003 35.2996 31.7003C33.5996 33.2003 31.5996 34.0003 29.3996 34.0003ZM29.3996 18.1002C25.3996 18.1002 21.9996 21.3003 21.8996 25.4003C21.7996 27.4003 22.5996 29.3003 23.8996 30.8003C25.2996 32.3003 27.0996 33.1002 29.0996 33.1002C31.0996 33.2002 32.9996 32.4002 34.4996 31.1002C35.9996 29.7002 36.7996 27.9003 36.7996 25.9003C36.8996 23.9003 36.0996 22.0003 34.7996 20.5003C33.3996 19.0003 31.5996 18.2003 29.5996 18.2003C29.4996 18.1003 29.3996 18.1002 29.3996 18.1002Z" fill="black"/>
<path d="M8.70019 17.5998C4.30019 17.4998 0.600197 20.8998 0.500197 25.2998C0.400197 29.6998 3.80019 33.3998 8.20019 33.4998C12.6002 33.5998 16.3002 30.1998 16.4002 25.7998C16.5002 21.3998 13.1002 17.6998 8.70019 17.5998ZM8.70019 29.3999C8.60019 29.3999 8.6002 29.3999 8.5002 29.3999C6.5002 29.3999 4.80019 27.7998 4.70019 25.7998C4.60019 24.7998 5.00019 23.7998 5.70019 22.9998C6.40019 22.1998 7.30019 21.7998 8.40019 21.6998C10.5002 21.5998 12.3002 23.1998 12.4002 25.2998C12.4002 27.4998 10.8002 29.2999 8.70019 29.3999Z" fill="#CC9687"/>
<path d="M8.60026 19.4999C5.30026 19.3999 2.50025 21.9999 2.40025 25.3999C2.30025 28.6999 4.90026 31.4998 8.30026 31.5998C11.6003 31.6998 14.4003 29.0999 14.5003 25.6999C14.6003 22.3999 12.0003 19.5999 8.60026 19.4999ZM8.60026 28.8999C6.80026 28.9999 5.20026 27.5999 5.10026 25.6999C5.00026 23.8999 6.40026 22.2999 8.30026 22.1999C10.1003 22.0999 11.7003 23.4999 11.8003 25.3999C11.9003 27.1999 10.5003 28.7999 8.60026 28.8999Z" fill="#A86D62"/>
<path d="M8.49956 33.9997C8.39956 33.9997 8.29956 33.9997 8.29956 33.9997C5.99956 33.9997 3.89956 32.9998 2.29956 31.3998C0.699565 29.7998 -0.100439 27.5998 -0.000438529 25.3998C0.0995615 23.0998 0.999568 20.9997 2.59957 19.4997C4.19957 17.8997 6.39957 17.0998 8.59957 17.1998C10.8996 17.2998 12.9996 18.1997 14.4996 19.7997C16.0996 21.3997 16.8996 23.5997 16.7996 25.7997C16.7996 30.3997 12.9996 33.9997 8.49956 33.9997ZM8.49956 18.0997C6.59956 18.0997 4.79956 18.7997 3.39956 20.0997C1.89956 21.4997 0.999561 23.3998 0.999561 25.3998C0.899561 27.3998 1.69956 29.2997 2.99956 30.7997C4.39956 32.1997 6.29956 32.9997 8.19956 32.9997C12.2996 33.0997 15.7996 29.8998 15.8996 25.6998C15.9996 23.6998 15.1996 21.7997 13.8996 20.2997C12.5996 18.7997 10.6996 17.9997 8.69956 17.9997C8.59956 18.0997 8.49956 18.0997 8.49956 18.0997Z" fill="black"/>
<path d="M8.49978 29.3998C6.49978 29.3998 4.79978 27.7997 4.69978 25.7997C4.59978 24.7997 4.99978 23.7997 5.69978 22.9997C6.39978 22.1997 7.29977 21.7998 8.39977 21.6998C10.4998 21.5998 12.2998 23.1997 12.3998 25.2997C12.4998 27.3997 10.8998 29.1997 8.79978 29.2997C8.59978 29.3997 8.49978 29.3998 8.49978 29.3998ZM8.49978 22.6998C8.39978 22.6998 8.39978 22.6998 8.29978 22.6998C7.49978 22.6998 6.79978 23.0997 6.29978 23.5997C5.79978 24.1997 5.49979 24.8998 5.59979 25.6998C5.59979 26.4998 5.99978 27.1998 6.49978 27.6998C7.09978 28.1998 7.79979 28.4998 8.59979 28.3998C10.1998 28.2998 11.3998 26.9998 11.2998 25.3998C11.2998 24.5998 10.8998 23.8998 10.3998 23.3998C9.79977 22.9998 9.19978 22.6998 8.49978 22.6998Z" fill="black"/>
<path d="M29.3996 29.3998C28.3996 29.3998 27.4996 29.0998 26.7996 28.3998C25.9996 27.6998 25.5996 26.7998 25.4996 25.6998C25.3996 23.5998 26.9996 21.7998 29.0996 21.6998C30.0996 21.5998 31.0996 21.9998 31.8996 22.6998C32.6996 23.3998 33.0996 24.2998 33.1996 25.3998C33.2996 26.3998 32.8996 27.3998 32.1996 28.1998C31.4996 28.9998 30.5996 29.3998 29.4996 29.4998C29.4996 29.3998 29.3996 29.3998 29.3996 29.3998ZM29.3996 22.6998C29.2996 22.6998 29.2996 22.6998 29.1996 22.6998C27.5996 22.7998 26.3996 24.0998 26.4996 25.6998C26.4996 26.4998 26.8996 27.1998 27.3996 27.6998C27.9996 28.1998 28.6996 28.4998 29.4996 28.3998C30.2996 28.3998 30.9996 27.9998 31.4996 27.4998C31.9996 26.8998 32.2996 26.1998 32.1996 25.3998C32.1996 24.5998 31.7996 23.8998 31.2996 23.3998C30.7996 22.9998 30.0996 22.6998 29.3996 22.6998Z" fill="black"/>
</svg>
