<svg width="39" height="40" viewBox="0 0 39 40" fill="none" xmlns="http://www.w3.org/2000/svg">
<path d="M33.3 11.4996C37.8 20.2996 37.8 24.5996 37.8 24.5996C37.8 24.5996 30.8 22.5996 24.7 21.9996C23.9 21.8996 21.7 21.6996 19.6 21.5996C17.5 21.5996 15.5 21.7997 14.9 21.8997C8.59999 22.3997 1 24.5996 1 24.5996C1 24.5996 1 20.2996 5.5 11.4996C8.6 5.39963 14.2 1.09961 19.4 1.09961C24.4 1.09961 30.2 5.39963 33.3 11.4996Z" fill="#CC9687"/>
<path d="M1 25.0996C0.9 25.0996 0.799997 25.0996 0.699997 24.9996C0.599997 24.8996 0.5 24.7996 0.5 24.5996C0.5 24.3996 0.600006 20.0996 5.10001 11.2996C8.40001 4.89962 14.1 0.599609 19.5 0.599609C24.7 0.599609 30.7 5.09962 33.9 11.2996C38.4 20.0996 38.5 24.3996 38.5 24.5996C38.5 24.7996 38.4 24.8996 38.3 24.9996C38.2 25.0996 38 25.0996 37.9 25.0996C37.8 25.0996 31.7 22.4996 24.9 22.4996H24.8C23.9 22.3996 21.8 22.1996 19.9 22.1996C18.1 22.1996 16.4 22.3997 15.5 22.3997H15.2C7.3 22.6997 1.20001 24.9996 1.10001 24.9996C1.10001 25.0996 1 25.0996 1 25.0996ZM19.4 1.59961C14.5 1.59961 8.99999 5.69965 5.89999 11.6996C2.49999 18.3996 1.7 22.3997 1.5 23.8997C3.5 23.3997 9.69999 21.7997 14.9 21.3997H15.2C16 21.2997 17.8 21.0996 19.7 21.1996C21.7 21.1996 23.8 21.3996 24.7 21.4996H24.8C29.8 21.9996 35.4 23.4996 37.3 23.9996C37.1 22.4996 36.3 18.3996 32.9 11.7996C29.9 5.79962 24.2 1.59961 19.4 1.59961Z" fill="black"/>
<path d="M19.4996 35C19.4996 35 19.1996 37.3 19.5996 37.8C19.9996 38.4 21.0996 38.7 22.5996 38.1C24.0996 37.5 23.2996 35 23.2996 35H19.4996Z" fill="#CC9687"/>
<path d="M21.1 38.9C20.2 38.9 19.6 38.5 19.2 38.1C18.7 37.5 18.9 35.6 19 34.9L19.1 34.5L23.7 34.6L23.8 34.9C24.1 36 24.3 38 22.8 38.6C22.1 38.8 21.6 38.9 21.1 38.9ZM20 35.5C19.9 36.4 19.9 37.3 20.1 37.5C20.4 37.9 21.3 38.1 22.5 37.6C23.3 37.3 23.1 36.1 23 35.5H20Z" fill="black"/>
<path d="M19.4 35.1996C19.4 35.1996 19.5 37.3996 19.1 37.9996C18.7 38.5996 17 38.6996 16 38.0996C14.8 37.3996 15.4 35.0996 15.4 35.0996L19.4 35.1996Z" fill="#CC9687"/>
<path d="M17.6001 38.9004C17.0001 38.9004 16.3001 38.7004 15.8001 38.4004C14.3001 37.5004 15.0001 34.9004 15.0001 34.8004L15.1001 34.4004L19.9 34.6003V35.0004C19.9 35.7004 20.0001 37.5003 19.5001 38.1003C19.2001 38.7003 18.4001 38.9004 17.6001 38.9004ZM15.9 35.5004C15.8 36.2004 15.7001 37.3003 16.3001 37.6003C17.1001 38.1003 18.5 37.9003 18.7 37.6003C18.8 37.4003 18.9 36.5003 18.9 35.6003L15.9 35.5004Z" fill="black"/>
<path d="M11.3001 31.9004C11.3001 32.3004 11.1001 33.4004 11.1001 34.2004C11.2001 36.1004 10.7001 38.1004 11.7001 38.7004C13.0001 39.6004 14.6001 37.5004 14.9001 36.9004C15.1001 36.6004 15.2001 36.0004 15.3001 35.4004C15.4001 35.1004 15.6001 34.8004 16.0001 34.8004L19.0001 35.0004L22.8001 34.9004C23.2001 34.9004 23.3001 35.1003 23.4001 35.6003C23.5001 36.3003 23.9001 37.2004 24.1001 37.5004C24.7001 38.5004 26.0001 39.4003 26.9001 39.1003C27.7001 38.9003 27.8001 36.3004 27.7001 34.7004C27.7001 33.6004 27.3001 32.1004 27.0001 31.4004C26.4001 29.6004 23.5001 26.0004 19.2001 25.9004C14.9001 26.1004 11.4001 30.6004 11.3001 31.9004Z" fill="#CC9687"/>
<path d="M26.6 39.8002C25.5 39.8002 24.3 38.9002 23.8 37.9002C23.6 37.5002 23.2 36.6002 23 35.8002C23 35.6002 22.9 35.5002 22.9 35.5002C22.9 35.5002 22.9 35.5002 22.8 35.5002L19 35.6002L16 35.5002C15.9 35.5002 15.9 35.6002 15.8 35.7002C15.7 36.3002 15.5 36.9002 15.3 37.3002C15.1 37.8002 14.1 39.2002 12.9 39.6002C12.4 39.7002 11.9 39.7002 11.4 39.3002C10.5 38.7002 10.6 37.3002 10.6 35.9002C10.6 35.4002 10.6 34.9002 10.6 34.4002C10.6 33.7002 10.7 32.9002 10.7 32.4002C10.7 32.2002 10.7 32.1002 10.7 32.0002C10.8 30.4002 14.4 25.7002 19.1 25.7002C23.8 25.7002 26.7 29.7002 27.4 31.5002C27.7 32.2002 28.1 33.8002 28.1 34.9002C28.2 36.9002 28.1 39.4002 27 39.8002C26.9 39.8002 26.7 39.8002 26.6 39.8002ZM22.8 34.5002C23.7 34.5002 23.8 35.2002 23.9 35.6002C24 36.2002 24.4 37.0002 24.6 37.4002C25.1 38.3002 26.2 39.0002 26.8 38.8002C27 38.6002 27.4 37.3002 27.3 34.9002C27.3 33.9002 26.9 32.5002 26.6 31.7002C26 29.9002 23.2 26.6002 19.2 26.6002C15 26.6002 11.9 30.9002 11.8 32.0002C11.8 32.1002 11.8 32.2002 11.8 32.4002C11.7 32.9002 11.7 33.7002 11.7 34.3002C11.7 34.8002 11.7 35.4002 11.7 35.9002C11.7 37.1002 11.6 38.1002 12.1 38.5002C12.3 38.6002 12.5 38.7002 12.8 38.6002C13.6 38.4002 14.4 37.3002 14.6 36.9002C14.8 36.6002 14.9 36.1002 15 35.5002C15.1 34.9002 15.6 34.5002 16.2 34.5002L19.2 34.7002L22.8 34.5002Z" fill="black"/>
<path d="M15.9998 35.4996C12.4998 35.2996 10.3998 33.8997 10.2998 33.8997L10.8998 33.0996C10.8998 33.0996 12.7998 34.3996 16.0998 34.5996L15.9998 35.4996Z" fill="black"/>
<path d="M22.5996 35.4998V34.4998C25.7996 34.4998 28.5996 33.2998 28.6996 33.2998L29.0996 34.1998C28.9996 34.2998 25.9996 35.4998 22.5996 35.4998Z" fill="black"/>
<path d="M20 26.5996H19V34.9996H20V26.5996Z" fill="black"/>
<path d="M13.2998 19.7998C13.2998 19.7998 15.7998 21.0998 16.5998 24.6998C17.0998 26.7998 15.9998 29.3998 15.9998 29.3998C16.7998 27.2998 18.6998 26.8998 19.2998 26.8998C20.0998 26.8998 21.8998 27.5998 22.5998 29.1998C22.5998 29.1998 21.5998 26.4998 21.8998 24.7998C22.4998 21.9998 25.4998 19.7998 25.4998 19.7998C24.1998 20.4998 22.0998 21.1998 19.2998 21.1998C16.4998 21.0998 13.2998 19.7998 13.2998 19.7998Z" fill="#A86D62"/>
<path d="M16 29.8002C15.9 29.8002 15.9 29.8002 15.8 29.8002C15.6 29.7002 15.4 29.4002 15.5 29.2002C15.6 29.0002 16.4 26.7002 16 24.9002C15.3 21.6002 13 20.4002 13 20.4002C12.8 20.3002 12.7 20.0002 12.8 19.8002C12.9 19.6002 13.2 19.5002 13.4 19.5002C13.4 19.5002 16.5 20.7002 19.3 20.8002C21.4 20.8002 23.4 20.4002 25.2 19.5002C25.4 19.4002 25.7 19.5002 25.8 19.7002C25.9 19.9002 25.9 20.2002 25.7 20.4002C25.7 20.4002 22.9 22.6001 22.3 25.1001C22 26.3001 22.7 28.5002 22.9 29.2002C23 29.4002 22.9 29.7002 22.6 29.8002C22.4 29.9002 22.1 29.8001 22 29.6001C21.4 28.2001 19.8 27.6001 19.1 27.6001C19.1 27.6001 17.1 27.6002 16.3 29.7002C16.4 29.7002 16.2 29.8002 16 29.8002ZM19.3 26.4002C19.9 26.4002 20.8 26.7002 21.6 27.2002C21.4 26.4002 21.3 25.4002 21.5 24.7002C21.8 23.3002 22.6 22.1002 23.4 21.2002C22.1 21.6002 20.8 21.7002 19.4 21.7002C18 21.7002 16.5 21.4001 15.4 21.1001C16.1 21.9001 16.7 23.1002 17.1 24.7002C17.3 25.6002 17.3 26.5002 17.1 27.3002C18.2 26.4002 19.3 26.4002 19.3 26.4002Z" fill="black"/>
<path d="M35.6001 18.0999C34.2001 16.9999 32.0001 16.9999 29.5001 17.8999C25.4001 19.2999 21.8001 21.9999 22.0001 26.2999C22.2001 30.6999 25.9001 34.0999 30.3001 33.8999C35.0001 33.6999 37.9001 29.9999 37.9001 25.5999C37.8001 22.7999 37.4001 19.3999 35.6001 18.0999ZM29.9001 29.6999H29.8001C28.8001 29.6999 27.8001 29.1999 27.1001 28.4999C26.4001 27.7999 26.0001 26.7999 26.1001 25.7999C26.1001 24.7999 26.6001 23.7999 27.3001 23.0999C28.0001 22.3999 29.0001 21.9999 30.0001 22.0999C31.0001 22.0999 32.0001 22.5999 32.7001 23.2999C33.4001 23.9999 33.8001 24.9999 33.7001 25.9999C33.7001 28.0999 32.0001 29.6999 29.9001 29.6999Z" fill="#CC9687"/>
<path d="M34.4999 19.8998C33.3999 19.0998 31.0999 19.5998 29.6999 19.8998C26.7999 20.5998 23.7999 22.8998 23.8999 26.1998C23.9999 29.4998 26.8999 32.0997 30.1999 31.9997C33.4999 31.8997 35.7999 28.9998 35.9999 25.6998C35.9999 23.5998 35.8999 20.9998 34.4999 19.8998ZM29.7999 29.2997C27.9999 29.1997 26.4999 27.6997 26.5999 25.7997C26.6999 23.9997 28.1999 22.4997 30.0999 22.5997C31.8999 22.6997 33.3999 24.1997 33.2999 26.0997C33.1999 27.8997 31.5999 29.2997 29.7999 29.2997Z" fill="#A86D62"/>
<path d="M22.4996 26.3C22.5996 28.3 23.4996 30.1 24.8996 31.5C26.3996 32.8 28.2996 33.5 30.1996 33.4C34.3996 33.2 37.2996 30 37.2996 25.6C37.2996 23.9 37.0996 19.9 35.1996 18.5C33.6996 17.3 31.2996 17.8 29.5996 18.4C26.2996 19.5 22.2996 21.8 22.4996 26.3ZM29.8996 34.3C27.7996 34.3 25.8996 33.5 24.2996 32.1C22.5996 30.6 21.5996 28.5 21.4996 26.2C21.2996 22.2 23.9996 19.1 29.2996 17.3C32.0996 16.3 34.3996 16.4 35.8996 17.6C37.9996 19.3 38.2996 23.3 38.2996 25.5C38.2996 30.4 34.9996 34 30.2996 34.3C30.0996 34.3 29.9996 34.3 29.8996 34.3Z" fill="black"/>
<path d="M9.3 17.8003C6.8 16.9003 4.6 16.9003 3.2 18.0003C1.4 19.4003 1 22.8003 1 25.6003C1 30.0003 3.90001 33.6003 8.60001 33.9003C13 34.1003 16.7 30.7003 16.9 26.3003C17 21.9003 13.5 19.3003 9.3 17.8003ZM11.7 28.5003C11 29.3003 10 29.7003 9 29.7003H8.89999C6.89999 29.7003 5.20001 28.1003 5.10001 26.0003C5.00001 23.9003 6.7 22.1003 8.8 22.0003C9.8 22.0003 10.8 22.3003 11.5 23.0003C12.2 23.7003 12.7 24.6003 12.7 25.7003C12.7 26.8003 12.4 27.8003 11.7 28.5003Z" fill="#CC9687"/>
<path d="M9.20039 19.8998C7.80039 19.5998 5.40039 19.0998 4.40039 19.8998C3.00039 20.8998 2.90039 23.5997 2.90039 25.5997C3.00039 28.8997 5.30039 31.6998 8.70039 31.8998C12.0004 31.9998 14.8004 29.4997 15.0004 26.0997C15.1004 22.8997 12.0004 20.5998 9.20039 19.8998ZM9.0004 29.2997C7.2004 29.3997 5.6004 27.8997 5.5004 26.0997C5.4004 24.2997 6.90039 22.6997 8.70039 22.5997C10.5004 22.4997 12.1004 23.9997 12.2004 25.7997C12.3004 27.5997 10.8004 29.1997 9.0004 29.2997Z" fill="#A86D62"/>
<path d="M8.89999 34.3C8.79999 34.3 8.6 34.3 8.5 34.3C3.8 34.1 0.5 30.5 0.5 25.5C0.5 23.3 0.799994 19.3 2.89999 17.6C4.39999 16.4 6.6 16.3 9.5 17.3C14.8 19.1 17.5 22.2 17.3 26.2C17.2 28.5 16.2 30.5 14.5 32.1C13 33.6 11 34.3 8.89999 34.3ZM6 17.7C5.1 17.7 4.2 17.9 3.5 18.4C1.6 19.9 1.39999 23.9 1.39999 25.5C1.39999 29.9 4.3 33.1 8.5 33.3C10.5 33.4 12.4 32.7 13.8 31.4C15.3 30.1 16.1 28.2 16.2 26.2C16.4 21.7 12.4 19.4 9 18.3C8.2 18 7.1 17.7 6 17.7Z" fill="black"/>
<path d="M8.89989 29.7C6.89989 29.7 5.1999 28.1 5.0999 26C4.9999 23.9 6.6999 22.1 8.7999 22C9.7999 22 10.7999 22.3 11.4999 23C12.1999 23.7 12.6999 24.6 12.6999 25.7C12.6999 26.7 12.3999 27.7 11.6999 28.4C10.9999 29.3 9.99989 29.7 8.99989 29.7H8.89989ZM8.89989 23.1H8.7999C7.1999 23.1 5.99989 24.5 5.99989 26C6.09989 27.6 7.39989 28.8 8.89989 28.7C9.69989 28.7 10.3999 28.4 10.8999 27.8C11.3999 27.2 11.6999 26.5 11.6999 25.8C11.6999 25 11.3999 24.3 10.7999 23.8C10.2999 23.3 9.59989 23.1 8.89989 23.1Z" fill="black"/>
<path d="M29.9998 29.7002H29.8998C28.8998 29.7002 27.8998 29.2002 27.1998 28.5002C26.4998 27.8002 26.0998 26.8002 26.1998 25.8002C26.1998 24.8002 26.6998 23.8002 27.3998 23.1002C28.0998 22.4002 29.0998 22.0002 30.0998 22.1002C31.0998 22.1002 32.0998 22.6002 32.7998 23.3002C33.4998 24.0002 33.8998 25.0002 33.7998 26.0002C33.7998 28.1002 32.0998 29.7002 29.9998 29.7002ZM29.9998 23.1002C29.2998 23.1002 28.5998 23.4002 28.0998 23.9002C27.4998 24.4002 27.1998 25.1002 27.1998 25.9002C27.1998 26.7002 27.3998 27.4002 27.9998 27.9002C28.4998 28.5002 29.1998 28.8002 29.9998 28.8002C30.7998 28.8002 31.4998 28.6002 31.9998 28.0002C32.5998 27.5002 32.8998 26.8002 32.8998 26.0002C32.8998 25.2002 32.6998 24.5002 32.0998 24.0002C31.5998 23.4002 30.8998 23.1002 30.0998 23.1002H29.9998Z" fill="black"/>
</svg>
