<svg width="40" height="37" viewBox="0 0 40 37" fill="none" xmlns="http://www.w3.org/2000/svg">
<mask id="mask0_18_3365" style="mask-type:luminance" maskUnits="userSpaceOnUse" x="0" y="0" width="40" height="37">
<path d="M39.8 0H0V36.4H39.8V0Z" fill="white"/>
</mask>
<g mask="url(#mask0_18_3365)">
<path d="M2.89961 22.5991C2.89961 22.5991 0.899611 18.2991 1.19961 13.6991C1.49961 9.09913 2.89961 5.9991 3.49961 5.0991C4.09961 4.1991 5.49961 2.6991 6.89961 4.0991C8.29961 5.4991 9.29962 7.99911 10.0996 8.79911C11.2996 9.89911 12.5996 10.0991 13.5996 10.9991" fill="#869DC8"/>
<path d="M2.49966 22.7998C2.39966 22.5998 0.499663 18.3998 0.799663 13.6998C0.999663 9.19982 2.39966 5.99984 3.19966 4.89984C3.49966 4.39984 4.39966 3.29982 5.49966 3.19982C6.09966 3.09982 6.59967 3.39984 7.09967 3.89984C7.89967 4.69984 8.59966 5.89984 9.19966 6.89984C9.59966 7.59984 9.99966 8.29979 10.2997 8.59979C10.8997 9.19979 11.5997 9.4998 12.1997 9.7998C12.7997 10.0998 13.2997 10.2998 13.7997 10.7998L13.2997 11.3998C12.8997 10.9998 12.3997 10.7998 11.8997 10.4998C11.1997 10.1998 10.4997 9.79979 9.79966 9.09979C9.39966 8.69979 8.99967 7.99982 8.59967 7.19982C7.99967 6.19982 7.39967 5.09984 6.59967 4.39984C6.29967 4.09984 5.99967 3.89981 5.59967 3.99981C4.79967 3.99981 3.99966 4.9998 3.79966 5.2998C3.09966 6.2998 1.79966 9.29982 1.49966 13.6998C1.29966 18.1998 3.19966 22.3998 3.19966 22.3998L2.49966 22.7998Z" fill="black"/>
<path d="M37.3996 22.6997C37.3996 22.6997 39.3996 18.3997 39.0996 13.7997C38.7996 9.19966 37.3996 6.09968 36.7996 5.19968C36.1996 4.29968 34.7996 2.79968 33.3996 4.19968C31.9996 5.59968 30.8996 8.09966 30.1996 8.79966C28.9996 9.99966 27.5996 10.0997 26.5996 10.9997" fill="#869DC8"/>
<path d="M37.7 22.7996L37 22.4996C37 22.4996 38.9 18.1996 38.7 13.7996C38.5 9.49962 37.1 6.39966 36.4 5.39966C36.2 5.09966 35.5 4.09963 34.6 3.99963C34.3 3.99963 33.9 4.09966 33.6 4.39966C32.9 5.09966 32.2 6.19965 31.6 7.19965C31.1 7.99965 30.7 8.69963 30.3 8.99963C29.6 9.69963 28.9 9.99966 28.2 10.3997C27.7 10.6997 27.2 10.8996 26.8 11.2996L25.5 11.3997C25.5 11.3997 26 10.8996 26.3 10.6996C26.8 10.2996 27.4 9.99965 27.9 9.69965C28.5 9.39965 29.2 9.09963 29.8 8.49963C30.1 8.19963 30.5 7.49962 30.9 6.79962C31.5 5.79962 32.2 4.59962 33 3.79962C33.5 3.29962 34 3.09961 34.6 3.09961C35.7 3.19961 36.6 4.29962 36.9 4.79962C37.7 5.89962 39 9.09961 39.3 13.5996C39.7 18.3996 37.8 22.6996 37.7 22.7996Z" fill="black"/>
<path d="M32.8999 32.6C33.3999 31.9 33.8999 31.2 34.3999 30.5C35.4999 28.8 37.2999 25.4 36.9999 21.1C36.6999 16.5 34.8999 14.8 31.4999 13.1C29.8999 12.3 27.9999 11.7 26.1999 11.2C26.0999 11.2 25.9999 11.1 25.8999 11.1L26.5999 10.5C28.3999 11 30.1999 11.6 31.7999 12.4C35.3999 14.2 37.3999 16.1 37.6999 21.1C37.9999 25.6 36.0999 29.2 34.9999 31C34.4999 31.8 33.7999 32.7 33.1999 33.5H33.0999L32.8999 32.6ZM7.09988 33.3C7.09988 33.4 6.89988 33.5 6.79988 33.4C6.19988 32.6 5.59988 31.9 5.09988 31C3.99988 29.2 2.09987 25.6 2.39987 21.1C2.69987 16.1 4.69988 14.2 8.29988 12.4C9.89988 11.6 11.8999 11 13.6999 10.5L14.4999 11.1C14.2999 11.2 14.0999 11.2 13.8999 11.3C12.0999 11.8 10.1999 12.4 8.59988 13.2C5.19988 14.9 3.39988 16.6 3.09988 21.2C2.79988 25.5 4.59987 28.9 5.69987 30.6C6.19987 31.3 6.69987 32 7.19987 32.7L7.09988 33.3Z" fill="black"/>
<path d="M32.9992 32.6992C32.9992 32.6992 32.2992 29.5992 29.1992 26.7992L29.6992 26.1992C32.8992 29.1992 33.6992 32.3992 33.6992 32.4992L32.9992 32.6992Z" fill="black"/>
<path d="M7.3 32.6992L6.5 32.4992C6.5 32.3992 7.3 29.1992 10.5 26.1992L11 26.7992C8 29.5992 7.3 32.5992 7.3 32.6992Z" fill="black"/>
<path d="M18.0996 20.8998C18.6996 16.9998 17.5996 14.4998 14.1996 11.6998C13.9996 11.4998 13.3996 11.0998 13.0996 10.9998L13.4996 10.2998C13.5996 10.3998 14.3996 10.8998 14.5996 11.0998C18.1996 13.9998 19.3996 16.7998 18.7996 20.9998L18.0996 20.8998Z" fill="black"/>
<path d="M21.4999 21.2C20.8999 17 22.0999 14.2 25.6999 11.3C25.9999 11.1 26.6999 10.6 26.7999 10.5L27.1999 11.2C26.9999 11.3 26.2999 11.8 26.0999 11.9C22.6999 14.7 21.5999 17.1 22.1999 21.1L21.4999 21.2Z" fill="black"/>
<path d="M33.5 31.7994C33.5 31.7994 33.3 31.0994 32.8 30.0994C32.3 29.0994 31.6 27.9994 30.3 26.6994C30.3 26.6994 36.8 23.1994 31.9 16.9994C29 13.2994 22.5 16.6994 22.5 16.6994C22.9 15.7994 23.2 15.1994 23.7 14.4994C24.7 13.0994 26 11.9994 27 11.3994C27 11.3994 31.2 12.3994 34 14.4994C35.2 15.3994 36.1 16.6994 36.6 17.9994C37.6 21.4994 37 24.4994 36.6 25.9994C36.3 27.0994 35.8 28.2994 35.2 29.3994C34.4 30.7994 33.5 31.7994 33.5 31.7994Z" fill="#869DC8"/>
<path d="M6.6996 31.8998C6.6996 31.8998 6.8996 31.1998 7.3996 30.1998C7.8996 29.1998 8.5996 28.0998 9.8996 26.7998C9.8996 26.7998 4.29961 23.4998 8.09961 17.3998C10.3996 13.4998 17.8996 16.6998 17.8996 16.6998C17.5996 15.7998 17.1996 15.0998 16.6996 14.3998C15.6996 12.9998 14.3996 11.8998 13.4996 11.2998C13.4996 11.2998 8.9996 12.3998 6.1996 14.4998C4.9996 15.3998 4.0996 16.6998 3.6996 17.9998C2.6996 21.4998 3.2996 24.4998 3.6996 25.9998C3.9996 27.0998 4.49961 28.2998 5.09961 29.3998C5.89961 30.7998 6.6996 31.8998 6.6996 31.8998Z" fill="#869DC8"/>
<path d="M15.5996 16.0994C15.5996 16.0994 17.2996 16.5994 18.0996 19.3994C18.6996 21.6994 17.9996 23.0994 17.9996 23.0994C18.6996 21.3994 19.7996 21.0994 20.2996 21.0994C20.8996 21.0994 21.9996 21.5994 22.5996 22.8994C22.5996 22.8994 21.4996 21.3994 22.1996 19.1994C22.8996 16.9994 24.7996 15.8994 24.7996 15.8994C23.6996 16.4994 22.2996 16.4994 20.2996 16.5994C17.9996 16.7994 15.5996 16.0994 15.5996 16.0994Z" fill="#4E6582"/>
<path d="M22.5994 23L22.2994 23.2C22.2994 23.2 22.0994 23 21.9994 22.6C21.4994 21.8 20.6994 21.5 20.2994 21.5C20.0994 21.5 19.0994 21.6 18.4994 23.1C18.4994 23.2 18.3994 23.2 18.3994 23.2L17.6994 22.9V22.8C17.7994 22.5 18.1994 21.2 17.6994 19.4C16.9994 16.8 15.4994 16.3 15.3994 16.3L15.5994 15.5C15.5994 15.5 17.9994 16.2 20.1994 16.1H20.7994C22.3994 16 23.5994 16 24.4994 15.5L24.8994 16.2C24.8994 16.2 23.0994 17.3 22.3994 19.3C21.9994 20.6 22.1994 21.6 22.4994 22.1C22.5994 22.3 22.6994 22.5 22.7994 22.6L22.5994 23ZM17.1994 16.9C17.6994 17.4 18.0994 18.2 18.4994 19.4C18.6994 20.2 18.7994 20.9 18.7994 21.5C19.4994 20.9 20.0994 20.9 20.2994 20.9C20.6994 20.9 21.0994 21 21.5994 21.3C21.4994 20.7 21.5994 20 21.7994 19.3C22.0994 18.3 22.6994 17.5 23.1994 17C22.4994 17 21.7994 17 20.9994 17.1H20.3994C19.1994 17.1 18.0994 17 17.1994 16.9Z" fill="black"/>
<path d="M12.4996 15.2998C9.1996 15.2998 6.59961 17.9998 6.59961 21.1998C6.59961 24.3998 9.2996 27.0998 12.4996 27.0998C15.6996 27.0998 18.3996 24.3998 18.3996 21.1998C18.3996 17.9998 15.7996 15.2998 12.4996 15.2998ZM14.6996 23.0998C14.1996 23.6998 13.4996 23.9998 12.6996 24.0998C12.5996 24.0998 12.4996 24.0998 12.4996 24.0998C10.9996 24.0998 9.69961 22.8998 9.59961 21.3998C9.49961 19.7998 10.6996 18.3998 12.2996 18.2998C13.0996 18.1998 13.7996 18.4998 14.3996 18.9998C14.9996 19.4998 15.2996 20.1998 15.3996 20.9998C15.4996 21.6998 15.1996 22.4998 14.6996 23.0998Z" fill="#869DC8"/>
<path d="M12.5 16.6992C10 16.6992 8 18.6992 8 21.1992C8 23.6992 10 25.6992 12.5 25.6992C15 25.6992 17 23.6992 17 21.1992C17 18.6992 15 16.6992 12.5 16.6992ZM12.7 23.6992C11.3 23.7992 10.1 22.7992 10 21.3992C9.9 19.9992 10.9 18.7992 12.3 18.6992C13.7 18.5992 14.9 19.5992 15 20.9992C15.1 22.3992 14.1 23.5992 12.7 23.6992Z" fill="#4E6582"/>
<path d="M12.4992 27.4994C8.99922 27.4994 6.19922 24.6994 6.19922 21.1994C6.19922 17.6994 8.99922 14.8994 12.4992 14.8994C15.9992 14.8994 18.7992 17.6994 18.7992 21.1994C18.7992 24.6994 15.9992 27.4994 12.4992 27.4994ZM12.4992 15.6994C9.39922 15.6994 6.99922 18.1994 6.99922 21.1994C6.99922 24.2994 9.49922 26.6994 12.4992 26.6994C15.5992 26.6994 17.9992 24.1994 17.9992 21.1994C18.0992 18.0994 15.5992 15.6994 12.4992 15.6994Z" fill="black"/>
<path d="M12.4996 24.0994C10.9996 24.0994 9.69957 22.8995 9.59957 21.3995C9.49957 19.7995 10.6996 18.3994 12.2996 18.2994C13.0996 18.1994 13.7996 18.4994 14.3996 18.9994C14.9996 19.4994 15.2996 20.1994 15.3996 20.9994C15.4996 21.7994 15.1996 22.4994 14.6996 23.0994C14.1996 23.6994 13.4996 23.9994 12.6996 24.0994C12.6996 24.0994 12.5996 24.0994 12.4996 24.0994ZM12.5996 19.0994C12.4996 19.0994 12.4996 19.0994 12.3996 19.0994C11.1996 19.1994 10.3996 20.1995 10.4996 21.3995C10.4996 21.9995 10.7996 22.4994 11.1996 22.7994C11.5996 23.1994 12.1996 23.2994 12.6996 23.2994C13.2996 23.2994 13.7996 22.9994 14.0996 22.5994C14.4996 22.1994 14.5996 21.5994 14.5996 21.0994C14.5996 20.5994 14.2996 19.9995 13.8996 19.6995C13.4996 19.2995 13.0996 19.0994 12.5996 19.0994Z" fill="black"/>
<path d="M27.7994 15.2998C24.4994 15.2998 21.8994 17.9998 21.8994 21.1998C21.8994 24.3998 24.5994 27.0998 27.7994 27.0998C30.9994 27.0998 33.6994 24.3998 33.6994 21.1998C33.6994 17.9998 31.0994 15.2998 27.7994 15.2998ZM29.9994 23.0998C29.4994 23.6998 28.7994 23.9998 27.9994 24.0998C27.8994 24.0998 27.7994 24.0998 27.7994 24.0998C26.2994 24.0998 24.9994 22.8998 24.8994 21.3998C24.7994 19.7998 25.9994 18.3998 27.5994 18.2998C28.3994 18.1998 29.0994 18.4998 29.6994 18.9998C30.2994 19.4998 30.5994 20.1998 30.6994 20.9998C30.6994 21.6998 30.4994 22.4998 29.9994 23.0998Z" fill="#869DC8"/>
<path d="M27.7998 16.6992C25.2998 16.6992 23.2998 18.6992 23.2998 21.1992C23.2998 23.6992 25.2998 25.6992 27.7998 25.6992C30.2998 25.6992 32.2998 23.6992 32.2998 21.1992C32.2998 18.6992 30.2998 16.6992 27.7998 16.6992ZM27.9998 23.6992C26.5998 23.7992 25.3998 22.7992 25.2998 21.3992C25.1998 19.9992 26.1998 18.7992 27.5998 18.6992C28.9998 18.5992 30.1998 19.5992 30.2998 20.9992C30.3998 22.3992 29.3998 23.5992 27.9998 23.6992Z" fill="#4E6582"/>
<path d="M27.8 27.4994C24.3 27.4994 21.5 24.6994 21.5 21.1994C21.5 17.6994 24.3 14.8994 27.8 14.8994C31.3 14.8994 34.1 17.6994 34.1 21.1994C34.1 24.6994 31.3 27.4994 27.8 27.4994ZM27.8 15.6994C24.7 15.6994 22.3 18.1994 22.3 21.1994C22.3 24.2994 24.8 26.6994 27.8 26.6994C30.9 26.6994 33.3 24.1994 33.3 21.1994C33.3 18.0994 30.8 15.6994 27.8 15.6994Z" fill="black"/>
<path d="M27.7994 24.0994C26.2994 24.0994 24.9994 22.8995 24.8994 21.3995C24.7994 19.7995 25.9994 18.3994 27.5994 18.2994C28.3994 18.1994 29.0994 18.4994 29.6994 18.9994C30.2994 19.4994 30.5994 20.1994 30.6994 20.9994C30.7994 21.7994 30.4994 22.4994 29.9994 23.0994C29.4994 23.6994 28.7994 23.9994 27.9994 24.0994C27.9994 24.0994 27.8994 24.0994 27.7994 24.0994ZM27.7994 19.0994C27.6994 19.0994 27.6994 19.0994 27.5994 19.0994C26.3994 19.1994 25.5994 20.1995 25.6994 21.3995C25.6994 21.9995 25.9994 22.4994 26.3994 22.7994C26.7994 23.1994 27.3994 23.2994 27.8994 23.2994C28.4994 23.2994 28.9994 22.9994 29.2994 22.5994C29.6994 22.1994 29.7994 21.5994 29.7994 21.0994C29.7994 20.4994 29.4994 19.9995 29.0994 19.6995C28.7994 19.2995 28.2994 19.0994 27.7994 19.0994Z" fill="black"/>
</g>
</svg>
