<svg width="33" height="15" viewBox="0 0 33 15" fill="none" xmlns="http://www.w3.org/2000/svg">
<path d="M11.2998 1.69962C11.2998 1.69962 13.2998 2.2996 14.1998 5.4996C14.8998 8.0996 14.0998 9.79959 14.0998 9.79959C14.8998 7.79959 16.1998 7.4996 16.6998 7.4996C17.3998 7.4996 18.6998 8.09961 19.2998 9.59961C19.2998 9.59961 17.9998 7.8996 18.7998 5.3996C19.5998 2.8996 21.7998 1.59961 21.7998 1.59961C20.5998 2.19961 18.8998 2.1996 16.5998 2.3996C14.0998 2.5996 11.2998 1.69962 11.2998 1.69962Z" fill="#4E6582"/>
<path d="M19.2996 9.7998L18.9996 9.99982C18.9996 9.99982 18.7996 9.69981 18.5996 9.39981C17.9996 8.39981 17.1996 7.99982 16.6996 7.99982C16.4996 7.99982 15.2996 8.09981 14.5996 9.89981C14.5996 9.99981 14.4996 9.99982 14.4996 10.0998L13.6996 9.69983V9.59982C13.7996 9.19982 14.2996 7.79983 13.6996 5.69983C12.8996 2.69983 11.0996 2.19983 11.0996 2.19983L11.3996 1.2998C11.3996 1.2998 14.0996 2.09982 16.6996 1.99982H17.3996C19.1996 1.89982 20.6996 1.89981 21.6996 1.39981L22.1996 1.99982C22.1996 1.99982 20.0996 3.29982 19.3996 5.59982C18.8996 7.09982 19.1996 8.19981 19.4996 8.89981C19.5996 9.09981 19.6996 9.29982 19.7996 9.49982L19.2996 9.7998ZM13.1996 2.59982C13.6996 3.19982 14.2996 4.09981 14.5996 5.39981C14.8996 6.39981 14.9996 7.19981 14.9996 7.89981C15.7996 7.19981 16.4996 7.19983 16.7996 7.19983C17.1996 7.19983 17.7996 7.39983 18.2996 7.69983C18.1996 6.99983 18.2996 6.29981 18.5996 5.39981C18.9996 4.29981 19.5996 3.39983 20.1996 2.69983C19.3996 2.79983 18.5996 2.79981 17.5996 2.89981H16.8996C15.4996 2.89981 14.1996 2.79982 13.1996 2.59982Z" fill="black"/>
<path d="M7.8 0.799805C4 0.799805 1 3.79982 1 7.59982C1 11.3998 4.1 14.3998 7.8 14.3998C11.5 14.3998 14.6 11.2998 14.6 7.59982C14.6 3.89982 11.6 0.799805 7.8 0.799805ZM10.3 9.69983C9.7 10.3998 8.9 10.7998 8 10.8998C7.9 10.8998 7.8 10.8998 7.7 10.8998C6 10.8998 4.49999 9.5998 4.39999 7.7998C4.39999 5.9998 5.7 4.3998 7.5 4.2998C8.4 4.1998 9.3 4.49982 10 5.09982C10.7 5.69982 11.1 6.49981 11.2 7.39981C11.3 8.29981 10.9 9.09983 10.3 9.69983Z" fill="#869DC8"/>
<path d="M7.79961 2.40039C4.89961 2.40039 2.59961 4.7004 2.59961 7.6004C2.59961 10.5004 4.89961 12.8004 7.79961 12.8004C10.6996 12.8004 12.9996 10.5004 12.9996 7.6004C12.9996 4.7004 10.6996 2.40039 7.79961 2.40039ZM7.9996 10.5004C6.3996 10.6004 4.9996 9.40039 4.8996 7.90039C4.7996 6.40039 5.9996 4.90038 7.4996 4.80038C8.9996 4.70038 10.4996 5.90039 10.5996 7.40039C10.7996 8.90039 9.5996 10.3004 7.9996 10.5004Z" fill="#4E6582"/>
<path d="M7.79954 10.9002C6.09954 10.9002 4.59954 9.6002 4.49954 7.8002C4.39954 6.0002 5.69954 4.4002 7.49954 4.3002C8.39954 4.2002 9.29954 4.50022 9.99954 5.10022C10.6995 5.70022 11.0995 6.50021 11.1995 7.40021C11.2995 8.30021 10.9995 9.1002 10.3995 9.8002C9.79953 10.5002 8.99955 10.9002 8.09955 11.0002C7.99955 10.9002 7.89954 10.9002 7.79954 10.9002ZM7.79954 5.20022C7.69954 5.20022 7.69955 5.20022 7.59955 5.20022C6.29955 5.30022 5.29953 6.5002 5.39953 7.8002C5.49953 8.4002 5.79954 9.00021 6.19954 9.40021C6.69954 9.90021 7.39954 10.1002 7.99954 10.0002C8.59954 10.0002 9.19955 9.70022 9.59955 9.20022C9.99955 8.70022 10.1995 8.10021 10.1995 7.40021C10.0995 6.80021 9.79953 6.2002 9.39953 5.8002C8.89953 5.4002 8.39954 5.20022 7.79954 5.20022Z" fill="black"/>
<path d="M7.8 14.8998C3.8 14.8998 0.5 11.5998 0.5 7.59982C0.5 3.59982 3.8 0.299805 7.8 0.299805C11.8 0.299805 15.1 3.59982 15.1 7.59982C15.1 11.5998 11.8 14.8998 7.8 14.8998ZM7.8 1.19983C4.3 1.19983 1.39999 4.09982 1.39999 7.59982C1.39999 11.0998 4.3 13.9998 7.8 13.9998C11.3 13.9998 14.2 11.0998 14.2 7.59982C14.2 4.09982 11.3 1.19983 7.8 1.19983Z" fill="black"/>
<path d="M25.3996 0.799805C21.5996 0.799805 18.5996 3.89982 18.5996 7.59982C18.5996 11.2998 21.6996 14.3998 25.3996 14.3998C29.0996 14.3998 32.1996 11.2998 32.1996 7.59982C32.1996 3.89982 29.1996 0.799805 25.3996 0.799805ZM27.9996 9.69983C27.3996 10.3998 26.5996 10.7998 25.6996 10.8998C25.5996 10.8998 25.4996 10.8998 25.3996 10.8998C23.6996 10.8998 22.1996 9.5998 22.0996 7.7998C21.9996 5.9998 23.2996 4.39983 25.0996 4.19983C25.9996 4.09983 26.7996 4.39982 27.4996 4.99982C28.1996 5.59982 28.5996 6.3998 28.6996 7.2998C28.7996 8.1998 28.5996 9.09983 27.9996 9.69983Z" fill="#869DC8"/>
<path d="M25.4002 2.40039C22.5002 2.40039 20.2002 4.7004 20.2002 7.6004C20.2002 10.5004 22.5002 12.8004 25.4002 12.8004C28.3002 12.8004 30.6002 10.5004 30.6002 7.6004C30.6002 4.7004 28.3002 2.40039 25.4002 2.40039ZM25.7002 10.5004C24.1002 10.6004 22.7002 9.40039 22.6002 7.90039C22.5002 6.40039 23.7002 4.90038 25.2002 4.80038C26.7002 4.70038 28.2002 5.90039 28.3002 7.40039C28.4002 8.90039 27.3002 10.3004 25.7002 10.5004Z" fill="#4E6582"/>
<path d="M25.4001 10.8996C23.7001 10.8996 22.2001 9.59959 22.1001 7.79959C22.0001 5.99959 23.3001 4.39961 25.1001 4.19961C26.0001 4.09961 26.8001 4.3996 27.5001 4.9996C28.2001 5.5996 28.6001 6.39959 28.7001 7.29959C28.8001 8.19959 28.5001 8.99961 27.9001 9.69961C27.3001 10.3996 26.5001 10.7996 25.6001 10.8996C25.6001 10.8996 25.5001 10.8996 25.4001 10.8996ZM25.5001 5.19961C25.4001 5.19961 25.4001 5.19961 25.3001 5.19961C24.0001 5.29961 23.0001 6.49959 23.1001 7.79959C23.2001 8.39959 23.5001 8.9996 23.9001 9.3996C24.4001 9.7996 25.0001 9.9996 25.7001 9.9996C26.3001 9.8996 26.9001 9.59961 27.3001 9.19961C27.7001 8.69961 27.9001 8.0996 27.9001 7.3996C27.9001 6.6996 27.5001 6.19959 27.0001 5.79959C26.6001 5.39959 26.0001 5.19961 25.5001 5.19961Z" fill="black"/>
<path d="M25.3996 14.8998C21.3996 14.8998 18.0996 11.5998 18.0996 7.59982C18.0996 3.59982 21.3996 0.299805 25.3996 0.299805C29.3996 0.299805 32.6996 3.59982 32.6996 7.59982C32.6996 11.5998 29.4996 14.8998 25.3996 14.8998ZM25.3996 1.19983C21.8996 1.19983 18.9996 4.09982 18.9996 7.59982C18.9996 11.0998 21.8996 13.9998 25.3996 13.9998C28.8996 13.9998 31.7996 11.0998 31.7996 7.59982C31.7996 4.09982 28.9996 1.19983 25.3996 1.19983Z" fill="black"/>
</svg>
