<svg width="73" height="71" viewBox="0 0 73 71" fill="none" xmlns="http://www.w3.org/2000/svg">
<path d="M4.09999 37.5001C4.09999 37.5001 0.399982 29.4001 0.899982 20.7001C1.39998 12.0001 4.1 6.20014 5.2 4.50014C6.3 2.80014 8.99999 0.00014782 11.5 2.60015C14 5.20015 16.1 9.90015 17.6 11.3001C19.8 13.5001 22.3 13.8001 24.3 15.4001" fill="#CCD1DD"/>
<path d="M3.40031 37.7997C3.20031 37.4997 -0.399673 29.3997 0.100327 20.6997C0.600327 12.1997 3.10033 6.29967 4.60033 4.19967C5.20033 3.19967 6.90032 0.999667 9.00032 0.899667C10.1003 0.799667 11.1003 1.19967 12.1003 2.19967C13.6003 3.69967 14.9003 5.89968 16.0003 7.79968C16.8003 9.09968 17.6003 10.3997 18.1003 10.9997C19.2003 12.0997 20.5003 12.6997 21.7003 13.2997C22.7003 13.7997 23.8003 14.2997 24.7003 15.0997L23.7003 16.1997C22.9003 15.4997 22.0003 15.0997 21.0003 14.5997C19.7003 13.9997 18.3003 13.2997 17.0003 11.9997C16.3003 11.2997 15.5003 9.99967 14.6003 8.49967C13.5003 6.69967 12.3003 4.59967 10.9003 3.19967C10.3003 2.59967 9.70032 2.29967 9.00032 2.39967C7.50032 2.49967 6.10033 4.39967 5.70033 4.99967C4.40033 6.89967 1.90032 12.5997 1.50032 20.7997C1.00032 29.1997 4.60033 37.1997 4.70033 37.1997L3.40031 37.7997Z" fill="black"/>
<path d="M68.8996 37.5998C68.8996 37.5998 72.5996 29.4998 72.0996 20.7998C71.5996 12.0998 68.8996 6.29976 67.6996 4.59976C66.4996 2.89976 63.9996 0.0997541 61.3996 2.69975C58.8996 5.29975 56.7996 9.99975 55.2996 11.3998C53.0996 13.5998 50.5996 13.8998 48.5996 15.4998" fill="#CCD1DD"/>
<path d="M69.5998 37.8999L68.2998 37.2999C68.2998 37.1999 71.8998 29.2999 71.4998 20.8999C71.0998 12.6999 68.4998 6.99993 67.2998 5.09993C66.8998 4.49993 65.4998 2.59992 63.9998 2.49992C63.2998 2.39992 62.6998 2.69993 62.0998 3.29993C60.6998 4.69993 59.4998 6.79993 58.3998 8.59993C57.4998 10.0999 56.6998 11.3999 55.9998 12.0999C54.6998 13.3999 53.2998 14.0999 51.9998 14.6999C50.9998 15.1999 50.0998 15.5999 49.2998 16.2999L48.2998 15.1999C49.1998 14.3999 50.2998 13.8999 51.2998 13.3999C52.4998 12.7999 53.7998 12.1999 54.8998 11.0999C55.4998 10.4999 56.1998 9.29992 56.9998 7.89992C58.0998 5.99992 59.3998 3.89993 60.8998 2.29993C61.7998 1.39993 62.8998 0.899923 63.9998 0.999923C66.0998 1.19992 67.7998 3.29993 68.3998 4.29993C69.8998 6.49993 72.3998 12.3999 72.8998 20.7999C73.2998 29.4999 69.6998 37.4999 69.5998 37.8999Z" fill="black"/>
<path d="M38.6999 69.8999C44.3999 69.5999 48.2999 67.8999 52.5999 65.0999C56.5999 62.3999 61.0999 57.3999 64.0999 52.7999C66.4999 49.1999 69.5999 42.4999 69.0999 34.5999C68.5999 25.4999 64.8998 22.0999 58.3998 18.8999C53.8998 16.6999 47.5998 15.2999 43.8998 13.9999C41.7998 13.1999 40.2999 13.2999 38.9999 15.3999C38.8999 15.4999 38.1999 16.8999 36.5999 16.8999C34.6999 16.8999 33.9999 15.5999 33.9999 15.3999C32.6999 13.3999 31.1999 13.2999 29.0999 13.9999C25.3999 15.2999 19.0999 16.6999 14.5999 18.8999C8.09986 22.0999 4.49985 25.4999 3.89985 34.5999C3.39985 42.4999 6.59985 49.0999 8.89985 52.7999C11.8998 57.3999 16.2998 62.4999 20.3998 65.0999C24.6998 67.8999 28.4998 69.6999 34.2998 69.8999C34.2998 69.8999 36.0998 69.8999 36.7998 69.8999C37.1998 69.8999 38.6999 69.8999 38.6999 69.8999Z" fill="white"/>
<path d="M36.6 70.6999C35.9 70.6999 34.2 70.6999 34.2 70.6999C28.1 70.3999 24.1 68.4999 19.9 65.6999C16.1 63.1999 11.5 58.1999 8.20005 53.0999C6.10005 49.7999 2.60004 42.9999 3.10004 34.4999C3.60004 25.1999 7.40005 21.5999 14.2 18.1999C17.2 16.6999 21.1 15.5999 24.4 14.5999C26 14.0999 27.6 13.6999 28.8 13.2999C30.7 12.5999 32.6 12.2999 34.3 14.4999C34.3 14.5999 34.5 14.7999 34.6 14.9999C34.7 15.0999 34.7 15.2999 34.8 15.2999C35.2 15.7999 35.8 16.0999 36.6 16.0999C37.3 16.0999 37.8 15.7999 38.2 15.2999C38.3 15.1999 38.5 14.6999 38.6 14.5999C40.3 12.2999 42.3 12.5999 44.2 13.2999C45.4 13.6999 46.9 14.1999 48.6 14.5999C52 15.5999 55.8 16.6999 58.8 18.1999C65.6 21.5999 69.3 25.1999 69.9 34.4999C70.4 42.9999 66.9 49.7999 64.8 53.0999C61.5 58.1999 56.9 63.0999 53.1 65.6999C48.9 68.4999 44.9 70.3999 38.9 70.6999C38.9 70.6999 37.4 70.7999 36.9 70.7999C36.7 70.6999 36.6 70.6999 36.6 70.6999ZM34.3 69.1999C34.3 69.1999 36.1 69.1999 36.7 69.1999C37.2 69.1999 38.6 69.0999 38.6 69.0999C44.3 68.7999 48.1 66.9999 52.1 64.3999C55.8 61.9999 60.2 57.1999 63.4 52.2999C65.4 49.0999 68.8 42.5999 68.3 34.5999C67.8 25.8999 64.4 22.6999 58 19.4999C55.1 17.9999 51.3 16.9999 48 15.9999C46.4 15.4999 44.8 15.0999 43.6 14.5999C41.5 13.8999 40.6 14.0999 39.6 15.6999C38.9 16.8999 37.8 17.4999 36.6 17.4999C35.2 17.4999 34 16.8999 33.3 15.6999C32.3 14.0999 31.3 13.8999 29.3 14.5999C28.1 14.9999 26.5 15.4999 24.9 15.9999C21.6 16.9999 17.9 17.9999 14.9 19.4999C8.50003 22.6999 5.10004 25.8999 4.60004 34.5999C4.10004 42.6999 7.50004 49.1999 9.50004 52.2999C12.7 57.1999 17.1 61.9999 20.8 64.3999C24.8 67.0999 28.6 68.8999 34.3 69.1999Z" fill="black"/>
<path d="M60.5996 56.3996C60.5996 56.2996 59.2996 50.5996 53.5996 45.1996L54.5996 44.0996C60.6996 49.7996 61.9996 55.7996 62.0996 55.9996L60.5996 56.3996Z" fill="black"/>
<path d="M12.3004 56.2996L10.9004 55.9996C11.0004 55.6996 12.3004 49.7996 18.4004 44.0996L19.4004 45.1996C13.7004 50.4996 12.4004 56.2996 12.3004 56.2996Z" fill="black"/>
<path d="M16.1002 60.8L14.7002 60.4C14.8002 59.9 18.3002 48.3 26.7002 44.4C31.7002 42 32.3002 37.7 32.7002 34.5V34.3C33.7002 26.9 31.7002 22.3 25.3002 17.1C24.9002 16.8 23.7002 16 23.3002 15.7L24.1002 14.5C24.3002 14.6 25.7002 15.6 26.2002 15.9C33.0002 21.4 35.2002 26.6 34.1002 34.5V34.7C33.6002 38 32.9002 43 27.2002 45.7C19.5002 49.4 16.1002 60.7 16.1002 60.8Z" fill="black"/>
<path d="M16.0996 60.4996C16.0996 60.4996 16.6996 58.5996 17.4996 56.9996C18.3996 55.1996 18.8996 54.0996 19.8996 52.6996C21.5996 50.1996 22.7996 48.7996 24.4996 47.3996C26.2996 45.9996 27.5996 45.5996 29.2996 44.4996C30.9996 43.2996 33.3996 42.0996 36.1996 42.0996C39.0996 42.0996 40.1996 42.6996 44.1996 44.9996C45.8996 45.9996 47.3996 46.5996 49.2996 48.2996C51.7996 50.5996 53.7996 53.8996 54.8996 55.8996C55.8996 57.6996 56.8996 60.4996 56.8996 60.4996C56.8996 60.4996 55.6996 61.6996 53.8996 63.1996C52.6996 64.1996 51.5996 64.8996 49.1996 66.1996C43.6996 69.0996 40.3996 68.9996 36.4996 69.2996C32.7996 69.4996 29.0996 68.6996 26.2996 67.5996C23.8996 66.5996 21.4996 65.0996 19.6996 63.7996C17.4996 61.9996 16.0996 60.4996 16.0996 60.4996Z" fill="#CCD1DD"/>
<path d="M57.0997 61.0998C57.0997 60.9998 53.5997 49.6998 45.8997 45.9998C40.1997 43.2998 39.4997 38.2998 38.9997 34.9998V34.7998C37.8997 26.8998 40.0997 21.6998 46.8997 16.1998C47.3997 15.7998 48.7997 14.8998 48.9997 14.7998L49.7997 15.9998C49.3997 16.2998 48.1997 17.0998 47.7997 17.3998C41.3997 22.5998 39.3997 27.1998 40.3997 34.5998V34.7998C40.7997 37.9998 41.4997 42.2998 46.3997 44.6998C54.6997 48.6998 58.1997 60.2998 58.3997 60.6998L57.0997 61.0998Z" fill="black"/>
<path d="M35.7 55.3002C33.9 54.7002 33.3 52.4002 31.9 49.1002C31.1 47.2002 30.2 45.7002 28.5 43.8002C28.5 43.8002 30.7 42.2002 31.8 40.2002C32.7 38.6002 32.9 36.7002 32.9 36.7002C33.8 35.6002 34.4 35.3002 35.2 34.9002C35.5 34.8002 35.9 34.7002 36.2 34.7002C36.8 34.7002 37.2 34.8002 37.2 34.8002C38 35.0002 38.7 35.5002 39.7 36.7002C39.7 36.7002 40.1 38.5002 41 40.2002C42.1 42.1002 44.3 43.8002 44.3 43.8002C42.6 45.7002 41.7 47.2002 40.9 49.1002C39.5 52.4002 38.9 54.7002 37.1 55.3002C37.1 55.3002 36.8 55.4002 36.5 55.4002C36.1 55.4002 35.7 55.3002 35.7 55.3002Z" fill="#F9B485"/>
<path d="M36.4004 56.1C35.9004 56.1 35.5004 55.9 35.4004 55.9C33.5004 55.2 32.8004 53.3 31.7004 50.7C31.5004 50.3 31.4004 49.8 31.2004 49.4C30.4004 47.5 29.5004 46.1 27.9004 44.3L27.4004 43.7L28.1004 43.2C28.1004 43.2 30.2004 41.7 31.2004 39.9C32.0004 38.4 32.2004 36.7 32.2004 36.6V36.4L32.4004 36.2C33.4004 35.1 34.0004 34.7 35.0004 34.2C35.4004 34 35.9004 34 36.3004 34C37.0004 34 37.5004 34.2 37.5004 34.2C38.6004 34.5 39.3004 35.2 40.3004 36.3L40.4004 36.4V36.6C40.4004 36.6 40.8004 38.3 41.6004 39.9C42.6004 41.7 44.7004 43.2 44.7004 43.2L45.4004 43.7L44.9004 44.3C43.3004 46.1 42.4004 47.5 41.6004 49.4C41.4004 49.9 41.2004 50.3 41.1004 50.7C40.0004 53.4 39.3004 55.3 37.3004 56C37.3004 56 36.9004 56.1 36.4004 56.1ZM36.0004 54.6C36.1004 54.6 36.3004 54.7 36.5004 54.7C36.7004 54.7 36.9004 54.6 36.9004 54.6C38.2004 54.2 38.8004 52.6 39.8004 50.2C40.0004 49.8 40.1004 49.3 40.3004 48.8C41.1004 47 41.9004 45.5 43.3004 43.9C42.5004 43.2 41.2004 42 40.4004 40.6C39.6004 39.2 39.2004 37.6 39.1004 37.1C38.2004 36.1 37.7004 35.7 37.1004 35.6C37.0004 35.6 36.7004 35.5 36.3004 35.5C36.1004 35.5 35.8004 35.6 35.6004 35.6C35.0004 35.9 34.5004 36.1 33.7004 37C33.6004 37.6 33.3004 39.2 32.5004 40.6C31.7004 42 30.4004 43.2 29.6004 43.9C31.0004 45.5 31.9004 47 32.6004 48.8C32.8004 49.3 33.0004 49.7 33.1004 50.1C34.1004 52.6 34.7004 54.1 36.0004 54.6Z" fill="black"/>
<path d="M37.9998 44.4998C37.7998 43.6998 37.7998 41.6998 38.4998 41.0998C39.0998 40.5998 39.7998 40.8998 39.9998 41.8998C40.1998 42.7998 38.2998 45.6998 37.9998 44.4998Z" fill="black"/>
<path d="M35.1004 44.3996C35.3004 43.4996 35.1004 41.5997 34.3004 40.9997C33.7004 40.5997 33.0004 40.7996 32.9004 41.8996C32.9004 42.8996 34.9004 45.6996 35.1004 44.3996Z" fill="black"/>
<path d="M27.9004 25.2C27.9004 25.2 31.1004 26.2 32.6004 31.5C33.8004 35.8 32.5004 38.5 32.5004 38.5C33.8004 35.2 35.9004 34.7 36.7004 34.7C37.9004 34.7 39.9004 35.7 41.0004 38.1C41.0004 38.1 38.9004 35.3 40.2004 31.2C41.6004 27.2 45.1004 25 45.1004 25C43.1004 26 40.3004 26 36.6004 26.2C32.5004 26.5 27.9004 25.2 27.9004 25.2Z" fill="#4E6582"/>
<path d="M41.1002 38.2004L40.5002 38.6004C40.5002 38.6004 40.2002 38.2004 39.9002 37.5004C38.9002 36.0004 37.5002 35.4004 36.8002 35.4004C36.4002 35.4004 34.6002 35.6004 33.3002 38.5004C33.2002 38.7004 33.2002 38.7004 33.2002 38.8004L31.8002 38.2004C31.8002 38.1004 31.9002 38.1004 31.9002 38.0004C32.1002 37.4004 32.9002 35.0004 31.9002 31.6004C30.5002 26.8004 27.7002 25.8004 27.7002 25.8004L28.1002 24.4004C28.1002 24.4004 32.6002 25.7004 36.8002 25.5004H38.0002C41.0002 25.4004 43.7002 25.2004 45.4002 24.4004L45.6002 25.6004C45.6002 25.6004 42.2002 27.7004 41.0002 31.4004C40.2002 33.8004 40.7002 35.7004 41.2002 36.7004C41.4002 37.0004 41.6002 37.4004 41.8002 37.7004L41.1002 38.2004ZM31.0002 26.6004C31.9002 27.6004 32.8002 29.1004 33.4002 31.3004C33.8002 32.8004 34.0002 34.1004 33.9002 35.2004C35.2002 34.1004 36.4002 34.0004 36.8002 34.0004C37.5002 34.0004 38.4002 34.3004 39.2002 34.8004C39.1002 33.7004 39.2002 32.4004 39.7002 31.0004C40.3002 29.2004 41.4002 27.7004 42.3002 26.6004C41.0002 26.8004 39.6002 26.8004 38.0002 26.9004L36.9002 27.0004C34.8002 27.1004 32.7002 26.9004 31.0002 26.6004Z" fill="black"/>
<path d="M22.2 45.9996C28.386 45.9996 33.4 40.9856 33.4 34.7996C33.4 28.6136 28.386 23.5996 22.2 23.5996C16.014 23.5996 11 28.6136 11 34.7996C11 40.9856 16.014 45.9996 22.2 45.9996Z" fill="#869DC8"/>
<path d="M22.1998 46.7004C15.5998 46.7004 10.2998 41.4004 10.2998 34.8004C10.2998 28.2004 15.5998 22.9004 22.1998 22.9004C28.7998 22.9004 34.0998 28.2004 34.0998 34.8004C34.0998 41.4004 28.7998 46.7004 22.1998 46.7004ZM22.1998 24.3004C16.3998 24.3004 11.7998 29.0004 11.7998 34.7004C11.7998 40.5004 16.4998 45.1004 22.1998 45.1004C27.9998 45.1004 32.5998 40.4004 32.5998 34.7004C32.5998 29.0004 27.8998 24.3004 22.1998 24.3004Z" fill="black"/>
<path d="M22.2002 43.2998C26.8942 43.2998 30.7002 39.4938 30.7002 34.7998C30.7002 30.1058 26.8942 26.2998 22.2002 26.2998C17.5062 26.2998 13.7002 30.1058 13.7002 34.7998C13.7002 39.4938 17.5062 43.2998 22.2002 43.2998Z" fill="#4E6582"/>
<path d="M22.2 39.4996C24.796 39.4996 26.9 37.3956 26.9 34.7996C26.9 32.2036 24.796 30.0996 22.2 30.0996C19.604 30.0996 17.5 32.2036 17.5 34.7996C17.5 37.3956 19.604 39.4996 22.2 39.4996Z" fill="white"/>
<path d="M22.1998 40.2001C19.3998 40.2001 16.9997 38.0001 16.7997 35.2001C16.5997 32.2001 18.7997 29.6001 21.7997 29.3001C23.1997 29.2001 24.6997 29.6001 25.7997 30.6001C26.8997 31.5001 27.5998 32.9001 27.6998 34.3001C27.7998 35.7001 27.3997 37.2001 26.3997 38.3001C25.4997 39.4001 24.0998 40.1001 22.6998 40.2001C22.4998 40.2001 22.2998 40.2001 22.1998 40.2001ZM22.1998 30.8001C22.0998 30.8001 21.9997 30.8001 21.8997 30.8001C19.6997 31.0001 18.0997 32.9001 18.2997 35.1001C18.3997 36.2001 18.8998 37.1001 19.6998 37.8001C20.4998 38.5001 21.4997 38.8001 22.5997 38.7001C23.6997 38.6001 24.5997 38.1001 25.2997 37.3001C25.9997 36.5001 26.2998 35.5 26.1998 34.4C26.0998 33.3 25.5997 32.4001 24.7997 31.7001C23.9997 31.2001 23.0998 30.8001 22.1998 30.8001Z" fill="black"/>
<path d="M22.2 37.4996C23.691 37.4996 24.9 36.2906 24.9 34.7996C24.9 33.3086 23.691 32.0996 22.2 32.0996C20.709 32.0996 19.5 33.3086 19.5 34.7996C19.5 36.2906 20.709 37.4996 22.2 37.4996Z" fill="black"/>
<path d="M51.2 45.9996C57.386 45.9996 62.4 40.9856 62.4 34.7996C62.4 28.6136 57.386 23.5996 51.2 23.5996C45.014 23.5996 40 28.6136 40 34.7996C40 40.9856 45.014 45.9996 51.2 45.9996Z" fill="#869DC8"/>
<path d="M51.1998 46.7004C44.5998 46.7004 39.2998 41.4004 39.2998 34.8004C39.2998 28.2004 44.5998 22.9004 51.1998 22.9004C57.7998 22.9004 63.0998 28.2004 63.0998 34.8004C63.0998 41.4004 57.7998 46.7004 51.1998 46.7004ZM51.1998 24.4004C45.4998 24.4004 40.7998 29.1004 40.7998 34.8004C40.7998 40.5004 45.4998 45.2004 51.1998 45.2004C56.8998 45.2004 61.5998 40.5004 61.5998 34.8004C61.5998 29.1004 56.8998 24.4004 51.1998 24.4004Z" fill="black"/>
<path d="M51.2002 43.2998C55.8942 43.2998 59.7002 39.4938 59.7002 34.7998C59.7002 30.1058 55.8942 26.2998 51.2002 26.2998C46.5062 26.2998 42.7002 30.1058 42.7002 34.7998C42.7002 39.4938 46.5062 43.2998 51.2002 43.2998Z" fill="#4E6582"/>
<path d="M51.2 39.4996C53.796 39.4996 55.9 37.3956 55.9 34.7996C55.9 32.2036 53.796 30.0996 51.2 30.0996C48.604 30.0996 46.5 32.2036 46.5 34.7996C46.5 37.3956 48.604 39.4996 51.2 39.4996Z" fill="white"/>
<path d="M51.1998 40.1997C49.8998 40.1997 48.6998 39.6997 47.6998 38.8997C46.5998 37.9997 45.8997 36.5997 45.7997 35.1997C45.5997 32.1997 47.7997 29.5997 50.7997 29.2997C53.7997 29.0997 56.3998 31.2997 56.6998 34.2997C56.8998 37.2997 54.6998 39.8997 51.6998 40.1997C51.4998 40.1997 51.2998 40.1997 51.1998 40.1997ZM51.1998 30.7997C51.0998 30.7997 50.9997 30.7997 50.8997 30.7997C48.6997 30.9997 47.0997 32.8997 47.2997 35.0997C47.3997 36.1997 47.8998 37.0997 48.6998 37.7997C49.4998 38.4997 50.4997 38.7997 51.5997 38.6997C53.7997 38.4997 55.3998 36.5997 55.1998 34.3997C54.9998 32.3997 53.1998 30.7997 51.1998 30.7997Z" fill="black"/>
<path d="M51.2 37.4996C52.691 37.4996 53.9 36.2906 53.9 34.7996C53.9 33.3086 52.691 32.0996 51.2 32.0996C49.709 32.0996 48.5 33.3086 48.5 34.7996C48.5 36.2906 49.709 37.4996 51.2 37.4996Z" fill="black"/>
</svg>
