<svg width="36" height="27" viewBox="0 0 36 27" fill="none" xmlns="http://www.w3.org/2000/svg">
<path d="M6.90042 26.8004C6.00042 26.0004 5.20042 25.0004 4.40042 24.0004L4.70042 23.0004C5.50042 24.1004 6.40043 25.1004 7.30043 26.0004L7.00042 26.8004C7.00042 26.9004 6.90042 26.9004 6.90042 26.8004ZM31.7004 24.0004C30.9004 25.1004 30.1004 26.0004 29.2004 26.8004H29.1004L28.9004 26.0004C29.8004 25.1004 30.6004 24.1004 31.5004 23.0004L31.8004 23.8004C31.7004 23.9004 31.7004 23.9004 31.7004 24.0004ZM33.1004 20.5004C34.1004 18.6004 35.2004 15.8004 35.0004 12.3004C34.7004 7.70041 33.0004 6.00041 29.5004 4.30041C27.9004 3.50041 26.0004 2.90045 24.2004 2.40045C23.3004 2.10045 22.5004 1.90043 21.8004 1.70043C20.7004 1.30043 20.2004 1.40041 19.7004 2.30041C19.3004 2.90041 18.8004 3.30041 18.1004 3.30041C17.4004 3.30041 16.7004 3.00041 16.4004 2.30041C15.8004 1.50041 15.3004 1.30043 14.3004 1.70043C13.6004 1.90043 12.8004 2.20045 11.9004 2.40045C10.1004 3.00045 8.10043 3.50041 6.60043 4.30041C3.20043 6.00041 1.40043 7.70041 1.10043 12.3004C0.900429 15.7004 2.00042 18.5004 3.00042 20.4004L2.70042 21.3004H2.60043C1.50043 19.4004 0.200417 16.2004 0.400417 12.3004C0.700417 7.30041 2.70043 5.4004 6.30043 3.6004C7.90043 2.8004 9.90042 2.20043 11.7004 1.70043C12.5004 1.50043 13.3004 1.20042 14.0004 1.00042C15.0004 0.600422 16.1004 0.500446 17.1004 1.90045C17.3004 2.30045 17.7004 2.50042 18.1004 2.50042C18.5004 2.50042 18.8004 2.30045 19.0004 1.90045C19.9004 0.500446 21.0004 0.700422 22.1004 1.00042C22.7004 1.20042 23.6004 1.50043 24.4004 1.70043C26.2004 2.20043 28.2004 2.8004 29.8004 3.6004C33.4004 5.4004 35.4004 7.30041 35.7004 12.3004C35.9004 16.1004 34.6004 19.4004 33.5004 21.4004C33.5004 21.5004 33.4004 21.4004 33.4004 21.4004L33.1004 20.5004Z" fill="black"/>
<path d="M30.9002 23.9004C30.9002 23.9004 30.2002 20.8004 27.2002 18.0004L27.7002 17.4004C30.9002 20.4004 31.6002 23.6004 31.7002 23.7004L30.9002 23.9004Z" fill="black"/>
<path d="M5.20039 23.9004L4.40039 23.7004C4.40039 23.6004 5.20039 20.4004 8.40039 17.4004L8.90039 18.0004C5.90039 20.8004 5.20039 23.8004 5.20039 23.9004Z" fill="black"/>
<path d="M16.0004 12.2002C15.8004 13.9002 15.4004 16.2002 12.8004 17.5002C8.4004 19.6002 6.50039 25.8002 6.40039 26.0002L7.20039 26.2002C7.20039 26.1002 9.0004 20.1002 13.1004 18.2002C16.1004 16.8002 16.5004 14.1002 16.7004 12.3002L16.0004 12.2002Z" fill="black"/>
<path d="M19.4004 12.5004C19.6004 14.3004 20.0004 16.9004 23.0004 18.4004C27.1004 20.4004 28.9004 26.4004 28.9004 26.4004L29.7004 26.2004C29.6004 25.9004 27.8004 19.8004 23.3004 17.7004C20.7004 16.4004 20.3004 14.1004 20.1004 12.4004L19.4004 12.5004Z" fill="black"/>
<path d="M11.5 2.59979C9.59998 3.09979 6.99998 3.69983 4.19998 5.69983C2.99998 6.59983 1.99999 7.89983 1.59999 9.19983C0.599989 12.6998 1.19999 15.6998 1.59999 17.1998C1.89999 18.2998 1.99998 18.5998 2.39998 19.4998L2.59999 19.8998C2.59999 19.8998 3.19999 18.5998 3.79999 17.6998C4.19999 17.0998 4.19998 16.8998 5.49998 15.5998C5.49998 15.5998 2.59999 10.3998 8.29999 6.89984C9.39999 6.29984 12.2 6.19984 14.2 7.89984C16.3 9.69984 16.7 12.5998 16.7 12.5998C17 12.4998 17.8 12.2998 18.1 12.2998C18.5 12.2998 19.3 12.6998 19.7 12.9998C19.7 12.9998 20.1 5.19982 26.2 6.49982C34.6 8.29982 30.5 15.5998 30.5 15.5998C31.7 16.8998 31.8 17.2998 32.4 18.2998C32.9 19.2998 33.2 20.0998 33.2 20.0998C33.2 20.0998 33.4 19.8998 33.7 19.0998C33.9 18.4998 34.1 18.1998 34.4 17.0998C34.8 15.5998 35.4 12.5998 34.4 9.09979C34 7.79979 33.1 6.49979 31.9 5.59979C29.1 3.59979 24.9 2.49982 24.9 2.49982C24.9 2.49982 22.9 1.8998 22.7 1.7998C22.5 1.6998 21.6 1.2998 20.9 1.2998C20.4 1.2998 20.2 1.59984 19.9 1.89984C19.5 2.39984 19.1 3.09979 18.1 3.09979C16.5 3.09979 16.7 2.09982 15.8 1.49982C15.6 1.39982 15.4 1.2998 15.2 1.2998C14.8 1.2998 14.7 1.39979 14 1.59979C13.1 2.09979 12.1 2.39979 11.5 2.59979Z" fill="#869DC8"/>
<path d="M19.5004 13.6996C19.1004 13.1996 18.7004 12.8997 18.4004 12.8997C18.4004 12.8997 18.2004 12.7996 18.0004 12.7996C17.9004 12.7996 17.7004 12.7997 17.6004 12.8997C17.3004 12.9997 17.0004 13.1996 16.6004 13.5996L15.9004 13.1996C16.4004 12.5996 16.8004 12.3996 17.3004 12.1996C17.5004 12.0996 17.8004 12.0996 18.0004 12.0996C18.4004 12.0996 18.6004 12.1996 18.7004 12.1996C19.3004 12.2996 19.7004 12.6996 20.2004 13.2996L19.5004 13.6996Z" fill="black"/>
<path d="M2.8996 20.3998H2.09961C2.79961 18.4998 3.7996 16.7998 5.1996 15.2998L5.79961 15.7998C4.69961 16.9998 3.7996 18.2998 3.1996 19.7998C3.0996 20.0998 2.9996 20.1998 2.8996 20.3998Z" fill="black"/>
<path d="M33.0996 20.6998L33.7996 20.3998C33.0996 18.4998 32.0996 16.7998 30.6996 15.2998L30.0996 15.7998C31.4996 17.1998 32.4996 18.8998 33.0996 20.6998Z" fill="black"/>
<path d="M5.2002 23.9C5.2002 23.9 5.6002 22.3 6.6002 20.7C7.6002 19.2 8.40019 18.5 8.40019 18.5C8.40019 18.5 8.7002 18.6 9.6002 18.8C10.0002 18.9 10.6002 18.8 10.9002 18.8C10.9002 18.8 9.60019 19.8 8.40019 21.8C7.20019 23.8 6.6002 25.6 6.6002 25.6L5.2002 23.9Z" fill="#869DC8"/>
<path d="M30.7996 23.8002C30.7996 23.8002 30.3996 22.2002 29.3996 20.6002C28.3996 19.1002 27.3996 18.2002 27.3996 18.2002C27.3996 18.2002 26.9996 18.3002 26.1996 18.4002C25.3996 18.5002 24.8996 18.4002 24.5996 18.3002C24.5996 18.3002 26.3996 19.6002 27.5996 21.6002C28.7996 23.6002 29.3996 25.3002 29.3996 25.3002C29.3996 25.3002 29.8996 24.7002 30.0996 24.5002C30.4996 24.3002 30.7996 23.8002 30.7996 23.8002Z" fill="#869DC8"/>
<path d="M10.4 6.5C7.09999 6.5 4.5 9.20002 4.5 12.4C4.5 15.6 7.19999 18.3 10.4 18.3C13.6 18.3 16.3 15.6 16.3 12.4C16.3 9.20002 13.7 6.5 10.4 6.5ZM12.6 14.3C12.1 14.9 11.4 15.2 10.6 15.3C10.5 15.3 10.4 15.3 10.4 15.3C8.89999 15.3 7.6 14.2 7.5 12.6C7.4 11 8.60001 9.6 10.1 9.5C10.9 9.4 11.6 9.70001 12.2 10.2C12.8 10.7 13.1 11.4 13.2 12.2C13.4 12.9 13.1 13.7 12.6 14.3Z" fill="#869DC8"/>
<path d="M10.4004 7.90039C7.90039 7.90039 5.90039 9.90039 5.90039 12.4004C5.90039 14.9004 7.90039 16.9004 10.4004 16.9004C12.9004 16.9004 14.9004 14.9004 14.9004 12.4004C14.9004 9.90039 12.9004 7.90039 10.4004 7.90039ZM10.6004 14.9004C9.2004 15.0004 8.00039 14.0003 7.90039 12.6003C7.80039 11.2003 8.80039 10.0004 10.2004 9.90039C11.6004 9.80039 12.8004 10.8004 12.9004 12.2004C13.0004 13.6004 12.0004 14.8004 10.6004 14.9004Z" fill="#4E6582"/>
<path d="M10.3996 18.6996C6.8996 18.6996 4.09961 15.8997 4.09961 12.3997C4.09961 8.89966 6.8996 6.09961 10.3996 6.09961C13.8996 6.09961 16.6996 8.89966 16.6996 12.3997C16.6996 15.8997 13.8996 18.6996 10.3996 18.6996ZM10.3996 6.89966C7.2996 6.89966 4.8996 9.39966 4.8996 12.3997C4.8996 15.4997 7.3996 17.8997 10.3996 17.8997C13.4996 17.8997 15.8996 15.3997 15.8996 12.3997C15.9996 9.39966 13.4996 6.89966 10.3996 6.89966Z" fill="black"/>
<path d="M10.4996 15.2996C8.99957 15.2996 7.69958 14.1996 7.59958 12.5996C7.49958 10.9996 8.69957 9.59963 10.1996 9.49963C10.9996 9.39963 11.6996 9.69964 12.2996 10.1996C12.8996 10.6996 13.1996 11.3996 13.2996 12.1996C13.3996 12.9996 13.0996 13.6996 12.5996 14.2996C12.0996 14.8996 11.3996 15.1996 10.5996 15.2996H10.4996ZM10.4996 10.2996C10.3996 10.2996 10.3996 10.2996 10.2996 10.2996C9.09957 10.3996 8.29957 11.3996 8.39957 12.5996C8.39957 13.1996 8.69958 13.6996 9.09958 13.9996C9.49958 14.3996 10.0996 14.4996 10.5996 14.4996C11.1996 14.4996 11.6996 14.1996 11.9996 13.7996C12.3996 13.3996 12.4996 12.7996 12.4996 12.2996C12.4996 11.7996 12.1996 11.1997 11.7996 10.8997C11.3996 10.4997 10.9996 10.2996 10.4996 10.2996Z" fill="black"/>
<path d="M25.6998 6.5C22.3998 6.5 19.7998 9.20002 19.7998 12.4C19.7998 15.6 22.4998 18.3 25.6998 18.3C28.8998 18.3 31.5998 15.6 31.5998 12.4C31.5998 9.20002 28.8998 6.5 25.6998 6.5ZM27.8998 14.3C27.3998 14.9 26.6998 15.2 25.8998 15.3C25.7998 15.3 25.6998 15.3 25.6998 15.3C24.1998 15.3 22.8998 14.2 22.7998 12.6C22.6998 11 23.8998 9.6 25.3998 9.5C26.1998 9.4 26.8998 9.70001 27.4998 10.2C28.0998 10.7 28.3998 11.4 28.4998 12.2C28.5998 12.9 28.3998 13.7 27.8998 14.3Z" fill="#869DC8"/>
<path d="M25.7002 7.90039C23.2002 7.90039 21.2002 9.90039 21.2002 12.4004C21.2002 14.9004 23.2002 16.9004 25.7002 16.9004C28.2002 16.9004 30.2002 14.9004 30.2002 12.4004C30.2002 9.90039 28.1002 7.90039 25.7002 7.90039ZM25.9002 14.9004C24.5002 15.0004 23.3002 14.0003 23.2002 12.6003C23.1002 11.2003 24.1002 10.0004 25.5002 9.90039C26.9002 9.80039 28.1002 10.8004 28.2002 12.2004C28.3002 13.6004 27.2002 14.8004 25.9002 14.9004Z" fill="#4E6582"/>
<path d="M25.7004 18.6996C22.2004 18.6996 19.4004 15.8997 19.4004 12.3997C19.4004 8.89966 22.2004 6.09961 25.7004 6.09961C29.2004 6.09961 32.0004 8.89966 32.0004 12.3997C32.0004 15.8997 29.1004 18.6996 25.7004 18.6996ZM25.7004 6.89966C22.6004 6.89966 20.2004 9.39966 20.2004 12.3997C20.2004 15.4997 22.7004 17.8997 25.7004 17.8997C28.8004 17.8997 31.2004 15.3997 31.2004 12.3997C31.2004 9.39966 28.7004 6.89966 25.7004 6.89966Z" fill="black"/>
<path d="M25.6998 15.2996C24.1998 15.2996 22.8998 14.1996 22.7998 12.5996C22.6998 10.9996 23.8998 9.59963 25.3998 9.49963C26.1998 9.39963 26.8998 9.69964 27.4998 10.1996C28.0998 10.6996 28.3998 11.3996 28.4998 12.1996C28.5998 12.9996 28.2998 13.6996 27.7998 14.2996C27.2998 14.8996 26.5998 15.1996 25.7998 15.2996C25.7998 15.2996 25.7998 15.2996 25.6998 15.2996ZM25.6998 10.2996C25.5998 10.2996 25.5998 10.2996 25.4998 10.2996C24.2998 10.3996 23.4998 11.3996 23.5998 12.5996C23.5998 13.1996 23.8998 13.6996 24.2998 13.9996C24.6998 14.3996 25.2998 14.4996 25.7998 14.4996C26.3998 14.4996 26.8998 14.1996 27.1998 13.7996C27.5998 13.3996 27.6998 12.7996 27.6998 12.2996C27.6998 11.7996 27.3998 11.1997 26.9998 10.8997C26.6998 10.4997 26.1998 10.2996 25.6998 10.2996Z" fill="black"/>
</svg>
