<svg width="88" height="85" viewBox="0 0 88 85" fill="none" xmlns="http://www.w3.org/2000/svg">
<path d="M5.36175 44.5676C5.36175 44.5676 0.965744 35.0338 1.54474 24.696C2.12274 14.3581 5.36175 7.58106 6.75075 5.51349C8.13875 3.44593 11.2617 0.229709 14.2697 3.33106C17.2777 6.43241 19.7067 11.946 21.4417 13.6689C24.1027 16.196 27.1097 16.5406 29.4237 18.4933" fill="#D1CAB6"/>
<path d="M4.32061 45.0271C4.08961 44.6825 -0.19039 35.0339 0.38761 24.5812C0.96661 14.4731 4.08961 7.46631 5.82461 4.93928C6.63461 3.79063 8.6016 1.26361 11.2616 0.919014C12.1876 0.804149 13.6916 1.03388 15.0796 2.52712C16.9306 4.36496 18.4336 6.89199 19.8226 9.18928C20.7476 10.7974 21.6736 12.2906 22.3676 12.865C23.6396 14.1285 25.0276 14.8177 26.5316 15.5069C27.8046 16.0812 29.0766 16.7704 30.2336 17.6893L28.7296 19.4123C27.8046 18.6082 26.7626 18.1488 25.6066 17.5744C24.1026 16.8852 22.3676 16.0812 20.7476 14.4731C19.9376 13.669 19.0126 12.0609 17.8556 10.3379C16.5836 8.1555 15.0796 5.74334 13.4596 4.13523C12.8816 3.44604 12.1876 3.21631 11.4936 3.21631C10.1046 3.33117 8.60162 4.82442 7.79162 6.2028C6.28762 8.38523 3.27961 15.1623 2.81661 24.696C2.23861 34.5744 6.51861 43.8785 6.51861 43.9933L4.32061 45.0271Z" fill="black"/>
<path d="M4.55329 44.9119C4.43729 44.4524 0.157295 35.0335 0.735295 24.5808C1.31429 14.5875 4.32129 7.58077 6.05629 5.05375C6.75129 4.01996 8.71729 1.37807 11.2623 1.26321C12.5353 1.14834 13.8073 1.6078 14.9643 2.75645C16.6993 4.59429 18.3193 7.12131 19.5913 9.30375C20.5173 10.9119 21.4423 12.4051 22.1363 13.0943C23.5243 14.3578 24.9123 15.047 26.4163 15.7362C27.6893 16.3105 28.9613 16.8848 30.0023 17.9186L28.8463 19.297C27.9203 18.3781 26.8793 17.9186 25.6073 17.3443C24.1033 16.6551 22.3683 15.8511 20.8643 14.3578C20.0543 13.5538 19.1283 12.0605 18.0873 10.2227C16.8153 8.04023 15.3113 5.62807 13.6913 4.01996C12.9973 3.33077 12.1883 2.98618 11.4933 2.98618C9.64329 3.10104 8.02329 5.39834 7.56029 6.08753C5.94129 8.26996 2.9333 15.047 2.4703 24.6956C1.8923 34.6889 6.17229 43.9929 6.17229 44.1078L4.55329 44.9119Z" fill="black"/>
<path d="M82.6382 44.6827C82.6382 44.6827 87.0342 35.149 86.4552 24.8111C85.8772 14.4733 82.6382 7.6963 81.2492 5.62873C79.8612 3.56116 76.7382 0.344944 73.7302 3.4463C70.7222 6.54765 68.2932 12.0611 66.5582 13.7841C63.8972 16.3111 60.8902 16.6557 58.5762 18.6084" fill="#D1CAB6"/>
<path d="M83.6786 45.1424L81.5956 44.2235C81.5956 44.1086 85.8766 34.8046 85.2976 24.9262C84.7196 15.2775 81.8276 8.61533 80.3236 6.4329C79.3986 4.93966 77.8946 3.44641 76.5056 3.33155C75.8116 3.21668 75.1176 3.56128 74.5396 4.25047C72.9196 5.85858 71.4156 8.27074 70.1436 10.4532C69.1026 12.1762 68.1766 13.7843 67.2516 14.5883C65.6316 16.0816 64.0126 16.8856 62.3926 17.6897C61.2366 18.264 60.0796 18.7235 59.2696 19.5275L57.7656 17.8046C58.9226 16.7708 60.1946 16.1965 61.4676 15.6221C62.9716 14.9329 64.3596 14.2437 65.6316 12.9802C66.3266 12.291 67.1356 10.9127 68.1766 9.30452C69.5656 7.00722 71.0686 4.4802 72.9196 2.64236C74.4236 1.14912 75.8116 0.919384 76.7376 1.03425C79.3986 1.26398 81.4806 3.90587 82.1746 5.05452C83.9096 7.58155 87.0326 14.7032 87.6116 24.6965C88.1896 35.1492 83.7936 44.6829 83.6786 45.1424Z" fill="black"/>
<path d="M83.447 45.0271L81.828 44.3379C81.828 44.2231 86.108 34.8042 85.53 24.9258C84.951 15.2771 81.944 8.50006 80.44 6.31763C79.977 5.51358 78.357 3.21628 76.507 3.10142C75.697 2.98655 75.0031 3.33115 74.3091 4.1352C72.6891 5.74331 71.185 8.15547 69.913 10.3379C68.872 12.0609 67.946 13.5542 67.136 14.4731C65.633 15.9663 63.8971 16.7704 62.3931 17.4596C61.2371 18.0339 60.0801 18.6082 59.1541 19.4123L57.998 18.0339C59.154 17.115 60.427 16.4258 61.584 15.8515C62.972 15.1623 64.476 14.4731 65.864 13.2096C66.558 12.5204 67.483 11.0271 68.409 9.41898C69.797 7.12169 71.301 4.59466 73.036 2.87169C74.193 1.72304 75.3501 1.26358 76.7381 1.37844C79.2831 1.60817 81.249 4.1352 81.944 5.16898C83.679 7.69601 86.6871 14.7028 87.2651 24.696C87.8431 35.1488 83.563 44.5677 83.447 45.0271Z" fill="black"/>
<path d="M52.0984 82.128C56.1474 81.209 59.5014 79.4861 63.2034 77.0739C68.0624 73.8577 73.3834 67.8847 76.8534 62.4861C79.6304 58.1212 83.4473 50.3104 82.8693 41.0063C82.2903 30.209 77.8954 26.3036 70.1444 22.5131C64.8234 19.8712 57.3034 18.2631 52.9074 16.7699C50.3624 15.8509 48.6274 15.9658 47.1234 18.378C47.0084 18.4928 46.1984 20.1009 44.2314 20.2158C42.0334 20.2158 41.2244 18.6077 41.1084 18.4928C39.4884 16.0807 37.8694 15.9658 35.3244 16.8847C30.9284 18.378 23.4094 19.9861 18.0874 22.628C10.3374 26.4185 6.05736 30.4388 5.36236 41.1212C4.78436 50.4253 8.60236 58.2361 11.3784 62.6009C14.9644 67.9996 20.2854 73.9725 25.0284 77.1888C29.1934 79.9455 33.1264 81.8982 38.2164 82.5874C39.2574 82.7023 41.6864 83.0469 44.4634 83.0469C47.0084 83.0469 50.3624 82.4726 52.0984 82.128Z" fill="white"/>
<path d="M44.2307 84.1959C42.2647 84.1959 40.0667 84.0811 37.8687 83.7365C33.1257 83.0473 29.1927 81.4392 24.2187 78.1081C19.5907 75.1216 14.1537 69.2635 10.2207 63.1757C7.67572 59.2703 3.39573 51.1149 4.08973 41.0068C4.78373 29.8649 9.29574 25.5 17.3927 21.4797C20.9787 19.6419 25.4907 18.3784 29.5397 17.2297C31.5057 16.6554 33.2417 16.1959 34.7457 15.6216C37.1747 14.8176 39.7197 14.473 41.9177 17.6892C42.4957 18.6081 43.1897 18.9527 44.1157 18.9527C44.9247 18.9527 45.5037 18.4932 45.9667 17.804L46.0817 17.6892C48.2797 14.473 50.8247 14.8176 53.2547 15.6216C54.6427 16.0811 56.4937 16.6554 58.4597 17.2297C62.5087 18.3784 67.0207 19.6419 70.7217 21.4797C78.8197 25.5 83.4467 29.8649 84.0257 41.0068C84.6037 51.1149 80.4397 59.2703 77.8947 63.1757C73.9607 69.2635 68.4087 75.1216 63.8967 78.1081C59.7327 80.8649 56.2617 82.3581 52.4447 83.277C50.8247 83.5068 47.2387 84.1959 44.2307 84.1959ZM37.5217 17.3446C36.9427 17.3446 36.2487 17.4595 35.4397 17.804C33.9357 18.3784 32.0847 18.8378 30.1177 19.4122C26.1847 20.5608 21.7887 21.8243 18.3187 23.5473C10.7987 27.3378 6.86573 31.0135 6.28773 41.1216C5.70973 50.5405 9.64274 58.2365 12.0717 61.9122C15.8887 67.7703 21.0947 73.2838 25.3747 76.1554C30.0027 79.2568 33.7037 80.75 38.0997 81.4392C40.1827 81.7838 42.2647 81.8987 44.1157 81.8987C46.6607 81.8987 50.0147 81.3243 51.6347 80.9797C55.1047 80.1757 58.3437 78.6824 62.2777 76.1554C66.5577 73.2838 71.8787 67.6554 75.5807 61.9122C78.0097 58.2365 81.9427 50.5405 81.3647 41.1216C81.0177 31.0135 77.0847 27.223 69.5657 23.5473C66.0947 21.8243 61.6987 20.5608 57.7657 19.4122C55.7987 18.8378 53.9487 18.2635 52.4447 17.804C50.1307 17 49.0897 17.2297 47.9327 18.9527C47.1227 20.4459 45.7347 21.25 44.1157 21.25C42.3797 21.25 40.8767 20.4459 39.9507 18.9527C39.2567 17.9189 38.5627 17.3446 37.5217 17.3446Z" fill="black"/>
<path d="M19.707 71.7908C19.707 71.7908 20.401 69.6084 21.327 67.6557C22.368 65.4733 22.946 64.2098 24.103 62.4868C26.185 59.5003 27.573 57.7773 29.656 56.1692C31.738 54.5611 33.357 54.1016 35.324 52.7233C37.291 51.3449 40.183 49.8516 43.537 49.8516C46.892 49.8516 48.28 50.6557 53.139 53.2976C55.221 54.4462 56.956 55.1354 59.154 57.203C62.162 59.8449 64.476 63.7503 65.864 66.1625C67.021 68.3449 68.293 71.5611 68.293 71.5611C68.293 71.5611 66.905 73.0543 64.707 74.7773C63.203 75.926 62.046 76.8449 59.154 78.3381C52.676 81.7841 48.743 82.0138 44 82.1287C39.604 82.2435 35.093 81.3246 31.854 79.9462C28.962 78.7976 26.069 77.0746 23.987 75.4665C21.327 73.5138 19.707 71.7908 19.707 71.7908Z" fill="#D1CAB6"/>
<path d="M72.8053 66.9661C72.8053 66.8513 71.1854 60.0742 64.3604 53.7567L65.5173 52.4932C72.6893 59.2702 74.3083 66.2769 74.4243 66.6215L72.8053 66.9661Z" fill="black"/>
<path d="M72.5735 67.3112L72.4585 67.0815C72.4585 66.9666 70.8385 60.3045 64.1295 53.9869L63.8975 53.7572L65.5175 52.0342L65.7485 52.2639C73.0365 59.0409 74.6565 66.1626 74.7715 66.5072L74.8875 66.7369L72.5735 67.3112ZM64.8235 53.7572C70.7225 59.3855 72.6895 65.2436 73.0365 66.622L74.1935 66.3923C73.8465 65.0139 71.8795 58.8112 65.6325 52.9531L64.8235 53.7572Z" fill="black"/>
<path d="M15.195 66.8509L13.46 66.5063C13.576 66.1617 15.195 59.1549 22.367 52.3779L23.524 53.6414C16.815 59.959 15.195 66.736 15.195 66.8509Z" fill="black"/>
<path d="M15.4273 67.1963L13.1133 66.7369L13.2293 66.5072C13.3443 66.1626 14.9643 59.0409 22.2523 52.2639L22.4833 52.0342L24.1033 53.7572L23.8713 53.9869C17.1623 60.3045 15.5423 66.9666 15.5423 67.0815L15.4273 67.1963ZM13.8073 66.2774L14.9643 66.5072C15.3113 65.1288 17.2783 59.2707 23.1773 53.6423L22.3683 52.8382C16.1213 58.6963 14.2703 64.899 13.8073 66.2774Z" fill="black"/>
<path d="M19.7067 72.1352L17.9717 71.6758C18.0867 71.1015 22.2517 57.4325 32.1997 52.7231C38.0997 49.8515 38.9097 44.7974 39.3727 41.0069V40.7771C40.6447 32.0474 38.2157 26.5339 30.5807 20.4461C30.1177 20.1015 28.7297 19.1825 28.2667 18.8379L29.1927 17.3447C29.4237 17.4596 31.1587 18.6082 31.7377 19.0677C39.8347 25.5001 42.4957 31.7028 41.1077 41.0069V41.2366C40.5297 45.142 39.7197 51.115 32.8947 54.3312C23.7557 58.5812 19.7067 72.0204 19.7067 72.1352Z" fill="black"/>
<path d="M19.823 72.4794L17.625 71.7902L17.74 71.5605C17.972 70.9862 22.136 57.2024 32.201 52.3781C37.985 49.6213 38.679 44.5673 39.257 40.8916V40.6619C40.53 32.047 38.1 26.6483 30.581 20.5605C30.234 20.2159 28.846 19.4119 28.267 18.9524L27.92 18.8375L29.193 16.8848L29.424 16.9997C29.54 16.9997 31.391 18.2632 31.969 18.7227C40.183 25.27 42.843 31.4727 41.455 40.8916V41.1213C40.877 45.1416 40.067 51.1146 33.126 54.3308C24.103 58.6956 19.938 71.9051 19.938 72.02L19.823 72.4794ZM18.319 71.4456L19.476 71.7902C20.17 69.8375 24.334 58.1213 32.895 53.9862C39.489 50.8848 40.414 45.0267 40.877 41.1213V40.8916C42.149 31.7024 39.604 25.6146 31.622 19.1821C31.159 18.8375 29.887 18.0335 29.424 17.6889L28.73 18.7227C29.309 19.0673 30.465 19.8713 30.928 20.2159C38.679 26.4186 41.108 31.9321 39.836 40.7767V41.0065C39.257 44.797 38.563 50.0808 32.432 52.9524C23.177 57.2024 19.013 69.3781 18.319 71.4456Z" fill="black"/>
<path d="M68.524 72.4796C68.524 72.3648 64.36 58.9256 55.221 54.5607C48.396 51.3445 47.586 45.3715 47.008 41.4661V41.2364C45.735 31.9324 48.28 25.7296 56.378 19.2972C56.956 18.8378 58.691 17.6891 58.923 17.5742L59.848 19.0675C59.385 19.4121 57.882 20.331 57.535 20.6756C49.9 26.8783 47.586 32.3918 48.743 41.1215V41.3513C49.321 45.1418 50.015 50.1959 55.915 53.0675C65.864 57.7769 70.028 71.4459 70.144 72.0202L68.524 72.4796Z" fill="black"/>
<path d="M68.4094 72.8248L68.2934 72.5951C68.2934 72.4802 64.2444 59.2708 55.1054 54.9059C48.1644 51.5748 47.3554 45.6019 46.7764 41.6965V41.4667C45.3884 32.0478 48.0494 25.8451 56.2624 19.2978C56.8414 18.8384 58.3444 17.9194 58.8074 17.5748L59.0384 17.46L60.3114 19.4127L60.0804 19.5275C59.6174 19.8721 58.1134 20.7911 57.7664 21.1356C50.2474 27.2235 47.8174 32.6221 49.0904 41.237V41.4667C49.6684 45.1424 50.3624 50.1965 56.1464 52.9532C66.2114 57.7775 70.3754 71.5613 70.6074 72.1356L70.7224 72.3654L68.4094 72.8248ZM58.9234 18.1492C58.3444 18.4938 57.0724 19.2978 56.7254 19.6424C48.7434 26.0748 46.0824 32.1627 47.4704 41.3519V41.5816C48.0494 45.487 48.8584 51.2302 55.4524 54.4465C64.1284 58.5816 68.1774 70.2978 68.8714 72.2505L70.0284 71.9059C69.3344 69.8383 65.1704 57.7775 56.0314 53.4127C50.0154 50.5411 49.2064 45.2573 48.6274 41.4667V41.237C47.3554 32.3924 49.7844 26.764 57.5354 20.6762C57.8824 20.3316 59.1544 19.5275 59.7334 19.1829L58.9234 18.1492Z" fill="black"/>
<path d="M43.0747 65.5874C40.8767 64.7834 40.1827 62.1415 38.5627 58.351C37.6377 56.1685 36.5957 54.4455 34.5137 52.1483C34.5137 52.1483 37.1747 50.1955 38.4467 47.8983C39.6037 45.9455 39.8347 43.7631 39.8347 43.7631C40.8767 42.4996 41.5707 42.155 42.6117 41.6955C42.9587 41.5807 43.4217 41.4658 43.7687 41.4658C44.4627 41.4658 44.9247 41.5807 44.9247 41.5807C45.9667 41.8104 46.6607 42.3847 47.9327 43.7631C47.9327 43.7631 48.3957 45.9455 49.4367 47.8983C50.7097 50.1955 53.3697 52.1483 53.3697 52.1483C51.2877 54.4455 50.2467 56.1685 49.3207 58.351C47.7017 62.2564 47.0077 64.8983 44.6937 65.7023C44.6937 65.7023 44.3467 65.8172 43.8837 65.8172C43.5367 65.7023 43.0747 65.5874 43.0747 65.5874Z" fill="#8C867D"/>
<path d="M43.8838 66.6218C43.3058 66.6218 42.8428 66.3921 42.7268 66.3921C40.5298 65.588 39.6038 63.2907 38.3318 60.1894C38.0998 59.7299 37.8688 59.1556 37.6378 58.5813C36.7118 56.284 35.6708 54.6759 33.7038 52.6083L33.0098 51.9191L33.8198 51.3448C33.8198 51.3448 36.3648 49.507 37.5218 47.4394C38.5628 45.7164 38.7938 43.6489 38.7938 43.534V43.3043L39.0258 43.0745C40.1818 41.6961 40.9918 41.2367 42.0328 40.7772C42.4958 40.5475 43.1898 40.4326 43.5368 40.4326C44.3468 40.4326 44.9248 40.6624 45.0408 40.6624C46.3138 41.007 47.2388 41.811 48.3958 43.1894L48.5118 43.4191V43.6488C48.5118 43.6488 48.9738 45.7164 49.8998 47.5543C51.0568 49.6218 53.6018 51.4597 53.6018 51.4597L54.4108 52.034L53.7168 52.7232C51.8658 54.7907 50.7088 56.5137 49.7838 58.6961C49.5528 59.2705 49.3208 59.7299 49.0898 60.3043C47.8168 63.5205 46.8918 65.8178 44.5778 66.507C44.9248 66.507 44.4628 66.6218 43.8838 66.6218ZM43.4218 64.784C43.5368 64.784 43.7688 64.8988 43.9998 64.8988C44.2308 64.8988 44.4628 64.784 44.4628 64.784C45.9668 64.3245 46.7758 62.3718 47.8168 59.6151C48.0488 59.1556 48.2798 58.5813 48.5118 58.007C49.4368 55.8245 50.4778 54.1016 52.0978 52.1489C51.1718 51.3448 49.5528 49.9664 48.6268 48.2434C47.7018 46.5205 47.2388 44.7975 47.0078 44.1083C45.9668 42.9597 45.3878 42.5002 44.6938 42.2705C44.5778 42.2705 44.2308 42.1556 43.6528 42.1556C43.4218 42.1556 43.0748 42.2705 42.8428 42.2705C42.0328 42.6151 41.5708 42.8448 40.6448 43.9934C40.5298 44.6826 40.1818 46.5205 39.2568 48.2434C38.3318 49.9664 36.7118 51.3448 35.7868 52.1489C37.4058 54.1016 38.4468 55.8245 39.3728 58.007C39.6038 58.5813 39.8348 59.0407 40.0668 59.6151C41.1078 62.3718 41.9178 64.2097 43.4218 64.784Z" fill="black"/>
<path d="M43.8835 66.7366C43.3055 66.7366 42.8425 66.6217 42.7265 66.5068C40.4135 65.7028 39.4875 63.4055 38.2155 60.1893C37.9845 59.7298 37.7525 59.1555 37.5215 58.5812C36.5955 56.2839 35.5545 54.6758 33.7035 52.6082L32.8945 51.8041L33.8195 51.115C33.8195 51.115 36.2485 49.2771 37.5215 47.2095C38.4465 45.4866 38.6785 43.5339 38.6785 43.419V43.0744L38.9095 42.8447C40.0665 41.4663 40.8765 41.0068 42.0325 40.4325C42.4955 40.2028 43.1895 40.0879 43.6525 40.0879C44.4625 40.0879 45.0405 40.3177 45.1565 40.3177C46.4285 40.6623 47.3545 41.4663 48.6265 42.8447L48.8585 43.0744V43.3041C48.8585 43.3041 49.3205 45.3717 50.2465 47.0947C51.4035 49.1623 53.8325 51.0001 53.9485 51.0001L54.8735 51.6893L54.0635 52.4933C52.2125 54.5609 51.1715 56.169 50.2465 58.4663C50.0145 59.0406 49.7835 59.5001 49.6675 60.0744C48.3955 63.2906 47.4695 65.5879 45.0405 66.392C45.0405 66.6217 44.5775 66.7366 43.8835 66.7366ZM42.8425 66.2771C42.9585 66.2771 43.4215 66.5068 43.9995 66.5068C44.5775 66.5068 45.0405 66.392 45.0405 66.392C47.2385 65.7028 48.1635 63.4055 49.4365 60.3041C49.6675 59.8447 49.8995 59.2704 50.1305 58.696C51.0555 56.3987 52.0975 54.7906 54.0635 52.6082L54.6425 52.0339L53.9485 51.5744C53.9485 51.5744 51.4035 49.7366 50.2465 47.5541C49.2055 45.7163 48.7425 43.6487 48.7425 43.6487V43.419L48.6265 43.3041C47.4695 41.9258 46.5445 41.1217 45.3875 40.892C45.2715 40.892 44.6935 40.6623 43.8835 40.6623C43.5365 40.6623 42.9585 40.7771 42.3795 40.892C41.2235 41.3514 40.5285 41.8109 39.3725 43.1893L39.2565 43.419V43.6487C39.2565 43.7636 39.0255 45.8312 37.9845 47.5541C36.8275 49.7366 34.2825 51.4596 34.2825 51.5744L33.5885 52.0339L34.1665 52.6082C36.1335 54.7906 37.1745 56.3987 38.0995 58.696C38.3315 59.2704 38.5625 59.7298 38.6785 60.3041C39.7195 63.2906 40.6445 65.4731 42.8425 66.2771ZM43.8835 65.0136C43.6525 65.0136 43.3055 64.8987 43.3055 64.8987C41.8015 64.3244 40.9915 62.4866 39.8345 59.615C39.6035 59.1555 39.3725 58.5812 39.1405 58.0068C38.2155 55.8244 37.1745 54.1014 35.5545 52.2636L35.4395 52.1487L35.5545 52.0339C36.3645 51.3447 37.9845 49.8514 38.9095 48.1285C39.8345 46.5204 40.1815 44.6825 40.2975 43.8785C41.2235 42.8447 41.8015 42.5001 42.6115 42.1555C42.8425 42.0406 43.1895 42.0406 43.4215 42.0406C43.7685 42.0406 44.1155 42.0406 44.4625 42.1555C45.2715 42.3852 45.8505 42.8447 46.8915 43.9933V44.1082C47.0075 44.7974 47.5855 46.5204 48.5105 48.2433C49.4365 49.9663 51.0555 51.3447 51.8655 52.1487L51.9815 52.2636H52.2125C50.5935 54.2163 49.5525 55.8244 48.6265 58.0068C48.3955 58.5812 48.1635 59.0406 48.0485 59.5001V59.615C46.8915 62.4866 46.1975 64.4393 44.5775 64.8987C44.3465 64.8987 44.1155 65.0136 43.8835 65.0136ZM43.4215 64.669C43.5365 64.669 43.7685 64.7839 43.8835 64.7839C44.1155 64.7839 44.2305 64.7839 44.3465 64.669C45.8505 64.2095 46.5445 62.3717 47.7015 59.5001V59.3852C47.9325 58.9258 48.0485 58.4663 48.2795 57.892C49.2055 55.7096 50.2465 54.1014 51.7505 52.1487C50.8245 51.3447 49.3205 49.9663 48.3955 48.3582C47.4695 46.7501 47.0075 44.9123 46.7755 44.2231C45.8505 43.0744 45.1565 42.7298 44.4625 42.5001C44.1155 42.3852 43.7685 42.3852 43.5365 42.3852C43.3055 42.3852 42.9585 42.3852 42.8425 42.5001C42.1485 42.8447 41.5705 43.0744 40.6445 44.1082C40.5285 44.9123 40.1815 46.6352 39.2565 48.3582C38.3315 49.9663 36.8275 51.4596 35.9015 52.1487C37.5215 54.1014 38.5625 55.7096 39.3725 57.892C39.6035 58.4663 39.8345 59.0406 40.0665 59.5001C41.3385 62.2568 42.0325 64.0947 43.4215 64.669Z" fill="black"/>
<path d="M45.8507 52.7225C45.6197 51.6887 45.6197 49.3914 46.4287 48.7022C47.1227 48.1279 48.0486 48.3576 48.1646 49.6211C48.3956 50.8847 46.1977 54.2157 45.8507 52.7225Z" fill="black"/>
<path d="M42.3798 52.723C42.6118 51.6892 42.3798 49.3919 41.4548 48.7027C40.7608 48.2433 39.8358 48.473 39.7198 49.7365C39.6038 51 42.0328 54.2162 42.3798 52.723Z" fill="black"/>
<path d="M61.0052 54.5605C68.3522 54.5605 74.3082 48.6464 74.3082 41.3511C74.3082 34.0557 68.3522 28.1416 61.0052 28.1416C53.6582 28.1416 47.7021 34.0557 47.7021 41.3511C47.7021 48.6464 53.6582 54.5605 61.0052 54.5605Z" fill="#D1CAB6"/>
<path d="M61.0049 55.7094C53.0229 55.7094 46.5449 49.2769 46.5449 41.3513C46.5449 33.4256 53.0229 26.9932 61.0049 26.9932C68.9869 26.9932 75.4649 33.4256 75.4649 41.3513C75.4649 49.2769 68.9869 55.7094 61.0049 55.7094ZM61.0049 29.2905C54.2959 29.2905 48.8589 34.6891 48.8589 41.3513C48.8589 48.0134 54.2959 53.4121 61.0049 53.4121C67.7149 53.4121 73.1519 48.0134 73.1519 41.3513C73.1519 34.6891 67.7149 29.2905 61.0049 29.2905Z" fill="black"/>
<path d="M61.0054 51.2296C66.5644 51.2296 71.0694 46.7555 71.0694 41.2364C71.0694 35.7173 66.5644 31.2432 61.0054 31.2432C55.4474 31.2432 50.9414 35.7173 50.9414 41.2364C50.9414 46.7555 55.4474 51.2296 61.0054 51.2296Z" fill="#AFA99A"/>
<path d="M61.468 47.2097C64.534 47.2097 67.0201 44.7412 67.0201 41.6961C67.0201 38.6511 64.534 36.1826 61.468 36.1826C58.401 36.1826 55.915 38.6511 55.915 41.6961C55.915 44.7412 58.401 47.2097 61.468 47.2097Z" fill="white"/>
<path d="M61.4677 48.1282C59.9637 48.1282 58.4597 47.5539 57.3027 46.6349C56.0307 45.4863 55.2207 43.9931 54.9897 42.2701C54.7577 38.7093 57.4187 35.6079 60.8887 35.3782C64.4747 35.1485 67.5987 37.7904 67.8297 41.2363C68.0617 44.7971 65.4007 47.8985 61.9297 48.1282C61.8147 48.1282 61.6987 48.1282 61.4677 48.1282ZM61.4677 36.9863C61.3517 36.9863 61.2357 36.9863 61.1207 36.9863C58.5757 37.216 56.6087 39.3985 56.8407 42.0404C56.9557 43.3039 57.5347 44.4525 58.4597 45.2566C59.3847 46.0606 60.6577 46.4052 61.9297 46.4052C64.4747 46.1755 66.4417 43.9931 66.2107 41.3512C65.9787 38.939 63.8967 36.9863 61.4677 36.9863Z" fill="black"/>
<path d="M61.4675 44.912C63.2565 44.912 64.7065 43.472 64.7065 41.6958C64.7065 39.9195 63.2565 38.4795 61.4675 38.4795C59.6785 38.4795 58.2285 39.9195 58.2285 41.6958C58.2285 43.472 59.6785 44.912 61.4675 44.912Z" fill="black"/>
<path d="M26.9954 54.5605C34.3424 54.5605 40.2984 48.6464 40.2984 41.3511C40.2984 34.0557 34.3424 28.1416 26.9954 28.1416C19.6484 28.1416 13.6914 34.0557 13.6914 41.3511C13.6914 48.6464 19.6484 54.5605 26.9954 54.5605Z" fill="#D1CAB6"/>
<path d="M26.9951 55.7094C19.0131 55.7094 12.5352 49.2769 12.5352 41.3513C12.5352 33.4256 19.0131 26.9932 26.9951 26.9932C34.9771 26.9932 41.4552 33.4256 41.4552 41.3513C41.4552 49.2769 34.9771 55.7094 26.9951 55.7094ZM26.9951 29.2905C20.2851 29.2905 14.8482 34.6891 14.8482 41.3513C14.8482 48.0134 20.2851 53.4121 26.9951 53.4121C33.7041 53.4121 39.1412 48.0134 39.1412 41.3513C39.1412 34.6891 33.7041 29.2905 26.9951 29.2905Z" fill="black"/>
<path d="M26.9947 51.3449C32.5527 51.3449 37.0587 46.8708 37.0587 41.3517C37.0587 35.8326 32.5527 31.3584 26.9947 31.3584C21.4367 31.3584 16.9307 35.8326 16.9307 41.3517C16.9307 46.8708 21.4367 51.3449 26.9947 51.3449Z" fill="#AFA99A"/>
<path d="M26.9954 46.8649C30.0624 46.8649 32.5484 44.3964 32.5484 41.3514C32.5484 38.3063 30.0624 35.8379 26.9954 35.8379C23.9284 35.8379 21.4424 38.3063 21.4424 41.3514C21.4424 44.3964 23.9284 46.8649 26.9954 46.8649Z" fill="white"/>
<path d="M26.995 47.7834C23.64 47.7834 20.864 45.2564 20.517 41.8104C20.285 38.2496 22.946 35.1483 26.416 34.9185C28.152 34.8037 29.771 35.2631 31.159 36.4118C32.432 37.5604 33.242 39.0537 33.473 40.7767C33.589 42.4996 33.126 44.1077 31.969 45.4861C30.812 46.7496 29.308 47.5537 27.573 47.7834C27.342 47.7834 27.111 47.7834 26.995 47.7834ZM26.995 36.6415C26.879 36.6415 26.763 36.6415 26.648 36.6415C24.103 36.8712 22.136 39.0537 22.368 41.6956C22.483 42.9591 23.062 44.1077 23.987 44.9118C24.913 45.7158 26.185 46.0604 27.458 46.0604C28.73 45.9456 29.887 45.3712 30.697 44.4523C31.506 43.5334 31.853 42.2699 31.853 41.0064C31.853 39.7429 31.159 38.5942 30.234 37.7902C29.193 37.101 28.036 36.6415 26.995 36.6415Z" fill="black"/>
<path d="M26.9949 44.5672C28.7839 44.5672 30.2339 43.1272 30.2339 41.351C30.2339 39.5747 28.7839 38.1348 26.9949 38.1348C25.2059 38.1348 23.7559 39.5747 23.7559 41.351C23.7559 43.1272 25.2059 44.5672 26.9949 44.5672Z" fill="black"/>
</svg>
