<svg width="42" height="40" viewBox="0 0 42 40" fill="none" xmlns="http://www.w3.org/2000/svg">
<path d="M18.5008 25.9004C18.5008 25.9004 14.5008 26.0004 10.5008 27.4004C8.20078 28.2004 3.80078 30.4004 3.80078 30.4004C3.90078 31.6004 4.30078 32.8004 4.70078 33.8004C5.70078 36.7004 7.60078 38.7004 10.7008 39.0004C14.9008 39.5004 18.6008 36.5004 19.1008 32.3004C19.3008 31.0004 19.0008 27.9004 18.5008 25.9004ZM11.9008 35.5004C9.70078 35.5004 7.80078 33.7004 7.80078 31.4004C7.80078 29.1004 9.60078 27.3004 11.9008 27.3004C14.2008 27.3004 16.0008 29.1004 16.0008 31.4004C16.0008 33.7004 14.1008 35.5004 11.9008 35.5004Z" fill="#EDDCC8"/>
<path d="M11.6008 39.5C11.3008 39.5 11.0008 39.5 10.6008 39.4C7.60078 39.1 5.40078 37.2 4.20078 33.9C3.70078 32.6 3.40078 31.4 3.30078 30.4V30.1L3.60078 30C3.80078 29.9 8.10078 27.8 10.4008 27C14.4008 25.6 18.4008 25.5 18.5008 25.5H18.8008L18.9008 25.8C19.4008 27.9 19.7008 31 19.5008 32.4C19.2008 34.5 18.2008 36.4 16.5008 37.8C15.1008 38.9 13.4008 39.5 11.6008 39.5ZM4.30078 30.7C4.40078 31.6 4.70078 32.5 5.10078 33.7C6.10078 36.7 8.00078 38.4 10.7008 38.6C12.6008 38.8 14.5008 38.3 16.0008 37.1C17.5008 35.9 18.4008 34.2 18.7008 32.3C18.9008 31.1 18.6008 28.4 18.2008 26.4C17.4008 26.4 15.5008 26.6 13.2008 27.1C15.1008 27.7 16.4008 29.4 16.4008 31.4C16.4008 33.9 14.4008 35.9 11.9008 35.9C9.40078 35.9 7.40078 33.9 7.40078 31.4C7.40078 30.4 7.70078 29.5 8.20078 28.8C6.50078 29.5 4.90078 30.3 4.30078 30.7ZM11.9008 27.7C9.80078 27.7 8.20078 29.3 8.20078 31.4C8.20078 33.4 9.80078 35.1 11.9008 35.1C14.0008 35.1 15.6008 33.5 15.6008 31.4C15.6008 29.3 14.0008 27.7 11.9008 27.7Z" fill="black"/>
<path d="M31.5005 26.5C27.5005 25.1 23.5005 25 23.5005 25C23.0005 26.9 22.7005 30 22.9005 31.4C23.4005 35.5 27.1005 38.5 31.3005 38.1C34.4005 37.7 36.2005 35.8 37.3005 32.9C37.7005 31.9 38.0005 30.7 38.2005 29.5C38.2005 29.4 33.9005 27.3 31.5005 26.5ZM30.0005 34.7C27.8005 34.7 25.9005 32.9 25.9005 30.6C25.9005 28.3 27.7005 26.5 30.0005 26.5C32.3005 26.5 34.1005 28.3 34.1005 30.6C34.1005 32.9 32.2005 34.7 30.0005 34.7Z" fill="#EDDCC8"/>
<path d="M30.5005 38.5996C26.4005 38.5996 22.9005 35.5996 22.4005 31.4996C22.2005 30.0996 22.5005 26.8997 23.0005 24.8997L23.1005 24.5996H23.4005C23.6005 24.5996 27.5005 24.6996 31.5005 26.0996C31.7005 26.1996 38.5005 28.7996 38.5005 29.4996C38.3005 30.8996 38.0005 32.0996 37.6005 33.0996C36.4005 36.3996 34.3005 38.1996 31.3005 38.5996C31.1005 38.4996 30.8005 38.5996 30.5005 38.5996ZM23.8005 25.3997C23.4005 27.2997 23.1005 29.9996 23.3005 31.2996C23.8005 35.1996 27.3005 37.9996 31.2005 37.5996C33.9005 37.2996 35.7005 35.6996 36.8005 32.6996C37.1005 31.8996 37.4005 30.7996 37.6005 29.6996C37.0005 29.3996 35.2005 28.4996 33.4005 27.6996C34.0005 28.4996 34.4005 29.4996 34.4005 30.5996C34.4005 33.0996 32.4005 35.0996 29.9005 35.0996C27.4005 35.0996 25.4005 33.0996 25.4005 30.5996C25.4005 28.3996 26.9005 26.6996 28.9005 26.1996C26.6005 25.5996 24.6005 25.4997 23.8005 25.3997ZM30.0005 26.8997C27.9005 26.8997 26.3005 28.4996 26.3005 30.5996C26.3005 32.5996 27.9005 34.2996 30.0005 34.2996C32.1005 34.2996 33.7005 32.6996 33.7005 30.5996C33.7005 28.4996 32.1005 26.8997 30.0005 26.8997Z" fill="black"/>
<path d="M0.899553 32.2005C0.899553 32.2005 0.399551 29.9004 0.499551 27.6004C0.599551 23.1004 1.19955 18.4004 3.69955 14.5004C6.39955 10.3004 12.0995 6.60046 21.1995 6.40046C27.4995 6.30046 34.1995 8.70043 37.5995 13.3004C41.0995 18.0004 41.3995 25.6004 41.1995 30.5004C41.1995 30.5004 31.6996 25.5004 24.3996 25.5004C16.5996 25.5004 13.0996 26.0004 7.99955 28.6004C4.69955 30.4004 0.899553 32.2005 0.899553 32.2005Z" fill="#EDDCC8"/>
<path d="M0.599161 32.7997L0.499162 32.2997C0.499162 32.1996 -0.000839397 29.8996 0.0991606 27.5996C0.199161 23.5996 0.599164 18.4997 3.39916 14.2997C6.59916 9.19965 13.0992 6.19966 21.1992 5.99966C28.0992 5.89966 34.6992 8.69964 37.9992 13.0996C41.3992 17.6996 41.8992 25.1996 41.6992 30.5996V31.2997L40.9992 30.8997C40.8992 30.8997 31.4992 25.8997 24.3992 25.8997C16.6992 25.8997 13.2992 26.2997 8.19916 28.9997C4.89916 30.7997 1.09916 32.5996 1.09916 32.5996L0.599161 32.7997ZM21.5992 6.79965C21.4992 6.79965 21.2992 6.79965 21.1992 6.79965C13.3992 6.99965 7.19916 9.89968 4.09916 14.6997C1.49916 18.7997 1.09916 23.6996 0.999162 27.5996C0.899162 29.1996 1.19916 30.7996 1.29916 31.5996C2.39916 31.0996 5.29916 29.5997 7.89916 28.1997C13.1992 25.4997 16.7992 24.9997 24.4992 24.9997C30.8992 24.9997 38.6992 28.5997 40.8992 29.6997C41.0992 24.4997 40.4992 17.6997 37.3992 13.3997C34.1992 9.39969 28.0992 6.79965 21.5992 6.79965Z" fill="black"/>
<path d="M14.7004 26.1996C14.7004 26.1996 13.8004 20.3996 11.6004 15.6996C9.80043 11.7996 7.10043 9.89959 7.10043 9.89959L6.00043 9.09954C5.70043 8.69954 5.40043 8.39954 5.00043 8.09954C2.20043 5.49954 2.00043 2.69957 3.10043 1.99957C3.80043 1.59957 5.20043 2.49957 7.80043 3.49957C9.50043 4.19957 11.2004 4.19957 12.3004 3.99957C12.3004 3.99957 14.3004 6.69954 15.6004 11.0995C16.9004 15.4995 19.2004 25.6996 19.2004 25.6996L14.7004 26.1996Z" fill="#EDDCC8"/>
<path d="M14.2991 26.7001L14.1991 26.3001C14.1991 26.2001 13.2991 20.5001 11.0991 15.9001C9.39908 12.2001 6.79908 10.3001 6.69908 10.3001C6.69908 10.3001 5.89908 9.70009 5.59908 9.40009C5.29908 9.10009 4.99908 8.80007 4.59908 8.50007C2.39908 6.50007 1.79908 4.50008 1.89908 3.20008C1.99908 2.50008 2.19908 2.00008 2.69908 1.70008C3.39908 1.30008 4.29908 1.70006 5.79908 2.30006C6.39908 2.50006 6.99908 2.80004 7.79908 3.10004C9.79908 3.90004 11.5991 3.70004 12.0991 3.60004H12.3991L12.5991 3.80006C12.6991 3.90005 14.6991 6.60007 15.9991 11.0001C17.2991 15.4001 19.5991 25.5 19.5991 25.6L19.7991 26.0001L14.2991 26.7001ZM6.39908 8.80006L7.39908 9.60004C7.49908 9.70004 10.1991 11.6 11.9991 15.6C13.8991 19.6 14.7991 24.4001 15.0991 25.8001L18.6991 25.4001C18.1991 23.4001 16.2991 15.1001 15.1991 11.3001C14.0991 7.70006 12.5991 5.20007 12.0991 4.50007C11.1991 4.60007 9.49908 4.70009 7.59908 3.90009C6.79908 3.60009 6.19908 3.30004 5.59908 3.10004C4.49908 2.60004 3.59908 2.20009 3.29908 2.40009C3.09908 2.50009 2.99908 2.80008 2.89908 3.20008C2.79908 4.30008 3.39908 6.00006 5.29908 7.80006C5.69908 8.10006 5.99908 8.40005 6.39908 8.80006Z" fill="black"/>
<path d="M27.3 25.9C27.3 25.9 28.2 20.1999 30.4 15.5999C32.2 11.6999 34.9 9.79992 34.9 9.79992L35.9 8.89996C36.3 8.59996 36.6 8.29993 36.9 7.99993C39.7 5.39993 39.9 2.49996 38.8 1.89996C38.1 1.49996 36.7 2.39996 34.1 3.39996C32.4 4.09996 30.7 4.09996 29.6 3.89996C29.6 3.89996 27.6 6.59993 26.3 10.9999C25.1 15.3999 22.5 25.4999 22.5 25.4999L27.3 25.9Z" fill="#EDDCC8"/>
<path d="M27.8 26.2005L22 25.9005L22.1 25.4005C22.1 25.3005 24.7 15.2005 25.9 10.9005C27.2 6.50051 29.2 3.80049 29.3 3.7005L29.5 3.50048H29.8C30.2 3.60048 32 3.80048 33.9 3.00048C34.7 2.70048 35.3 2.4005 35.9 2.2005C37.4 1.6005 38.3 1.20046 39 1.60046C39.4 1.80046 39.7 2.30048 39.8 3.00048C40 4.20048 39.4 6.40051 37.2 8.40051C36.9 8.70051 36.6 9.00047 36.2 9.30047L35.2 10.2005C35.1 10.2005 32.5 12.1005 30.8 15.9005C28.6 20.4005 27.7 26.0005 27.7 26.1005L27.8 26.2005ZM23 25.1005L26.9 25.4005C27.1 24.0005 28.1 19.3005 30 15.4005C31.8 11.4005 34.5 9.50051 34.6 9.40051L35.6 8.50048C36 8.20048 36.3 7.90046 36.6 7.60046C38.4 6.00046 39.1 4.10048 39 3.00048C39 2.60048 38.8 2.40047 38.6 2.30047C38.3 2.10047 37.4 2.50048 36.3 3.00048C35.7 3.20048 35.1 3.50047 34.3 3.80047C32.4 4.60047 30.7 4.50051 29.8 4.40051C29.3 5.10051 27.8 7.60049 26.7 11.2005C25.7 14.9005 23.6 23.0005 23 25.1005Z" fill="black"/>
<path d="M12.3006 2.8005C11.6006 3.0005 11.3006 4.00048 11.7006 4.60048C13.2006 6.40048 14.1006 9.60052 15.2006 12.7005C16.4006 15.9005 18.0006 24.3005 18.5006 25.6005C18.5006 25.6005 20.3006 25.5005 20.8006 25.5005C21.8006 25.5005 23.4006 25.5005 23.4006 25.5005C23.6006 23.8005 25.7006 14.2005 26.5006 12.0005C27.7006 8.70051 28.9007 5.30051 29.8006 4.00051C30.2006 3.30051 29.9006 2.30048 29.1006 2.10048C27.3006 1.70048 24.2006 1.10052 20.4006 1.20052C17.1006 1.40052 14.0006 2.3005 12.3006 2.8005Z" fill="#EDDCC8"/>
<path d="M18.1998 26.0001L18.0998 25.7002C17.8998 25.2002 17.4998 23.5001 17.0998 21.5001C16.3998 18.5001 15.5998 14.7001 14.7998 12.8001C14.5998 12.2001 14.3998 11.7001 14.1998 11.1001C13.2998 8.60012 12.4998 6.20013 11.3998 4.80013C11.0998 4.30013 10.9998 3.80013 11.1998 3.30013C11.3998 2.80013 11.6998 2.50013 12.1998 2.30013C13.6998 1.90013 16.9998 1.00013 20.3998 0.800129C24.1998 0.700129 27.1998 1.30015 29.1998 1.70015C29.6998 1.80015 30.0998 2.20012 30.2998 2.60012C30.4998 3.10012 30.4998 3.70015 30.1998 4.20015C29.3998 5.40015 28.2998 8.40017 27.1998 11.4002L26.8998 12.1001C26.0998 14.2001 23.9998 23.7001 23.7998 25.5001V25.9002H20.7998C20.2998 25.9002 18.4998 26.0001 18.4998 26.0001H18.1998ZM21.2998 1.60012C20.9998 1.60012 20.6998 1.60012 20.4998 1.60012C17.1998 1.80012 13.9998 2.70015 12.4998 3.20015C12.2998 3.30015 12.1998 3.40012 12.0998 3.60012C11.9998 3.90012 11.9998 4.10013 12.0998 4.30013C13.3998 5.80013 14.1998 8.20013 15.0998 10.8001C15.2998 11.3001 15.4998 11.9001 15.6998 12.5001C16.3998 14.4001 17.2998 18.3001 17.9998 21.3001C18.3998 22.9001 18.6998 24.4001 18.8998 25.1001C19.3998 25.1001 20.4998 25.0001 20.8998 25.0001H22.9998C23.3998 22.5001 25.2998 13.8001 26.0998 11.8001L26.3998 11.1001C27.4998 8.00012 28.5998 5.00013 29.4998 3.80013C29.5998 3.60013 29.5998 3.30014 29.4998 3.00014C29.3998 2.90014 29.2998 2.60012 28.9998 2.60012C27.1998 2.10012 24.4998 1.60012 21.2998 1.60012Z" fill="black"/>
<path d="M12.3004 4.70001C12.9004 5.60001 13.4004 6.49999 14.6004 9.79999C15.4004 12.1 16.4004 14.8 17.4004 19.6C17.5004 20.2 18.1004 22.5 18.4004 23.9C18.6004 24.6 18.7004 25.3 18.7004 25.3C19.1004 25.3 19.8004 25.2 20.9004 25.2C21.8004 25.2 23.0004 25.2 23.0004 25.2C23.1004 24.8 23.2004 24.1 23.3004 23.6C23.5004 22.5 23.8004 21 24.2004 19.2C24.6004 17.7 24.9004 15.9 25.4004 14.2C26.1004 11.8 26.7004 10 27.3004 8.40002C27.8004 7.10002 28.2004 6.00002 28.5004 5.40002C28.6004 5.20002 28.9004 4.70002 29.0004 4.40002C29.1004 4.20002 29.4004 3.80001 29.4004 3.70001C29.5004 3.50001 29.4004 3.1 29.4004 3C29.3004 2.8 29.2004 2.69998 29.0004 2.59998C28.8004 2.39998 26.5004 2 26.5004 2C26.3004 2.4 25.0004 5.39998 23.8004 9.59998C22.8004 13.1 21.9004 18.4 21.3004 19.5C21.2004 19.7 21.1004 19.9 20.9004 19.9C20.7004 19.9 20.6004 19.8 20.5004 19.5C19.8004 18.1 18.8004 13.5 17.7004 9.90002C16.2004 5.10002 14.7004 2.59998 14.7004 2.59998C14.7004 2.59998 13.1004 3.00001 12.4004 3.20001C12.2004 3.30001 12.2004 3.30002 12.1004 3.40002C12.1004 3.50002 12.0004 3.49998 12.0004 3.59998C12.0004 3.69998 12.0004 3.79999 11.9004 3.79999C11.9004 4.29999 12.2004 4.60001 12.3004 4.70001Z" fill="#EACCA0"/>
</svg>
