<svg width="44" height="41" viewBox="0 0 44 41" fill="none" xmlns="http://www.w3.org/2000/svg">
<mask id="mask0_17_1365" style="mask-type:luminance" maskUnits="userSpaceOnUse" x="0" y="0" width="44" height="41">
<path d="M43.8 0H0V40.4H43.8V0Z" fill="white"/>
</mask>
<g mask="url(#mask0_17_1365)">
<path d="M35.4003 38.3004C35.9003 39.9004 38.6003 40.2004 39.1003 38.8004C39.4003 37.6004 39.7003 35.2004 39.9003 32.9004C40.4003 29.6004 40.7003 26.3004 40.7003 26.3004L37.4003 24.4004C37.4003 24.4004 37.1003 28.8004 36.4003 32.3004C35.9003 35.2004 35.2003 37.8004 35.4003 38.3004Z" fill="#EDDCC8"/>
<path d="M37.5 40.2002C36.4 40.2002 35.3 39.6002 34.9 38.5002C34.8 38.0002 35 37.0002 35.5 34.5002C35.6 33.8002 35.8 33.1002 36 32.4002C36.7 28.9002 36.9 24.6002 37 24.5002V23.7002L41.3 26.1002V26.6002C41.3 26.6002 40.9 29.7002 40.4 33.0002L40.2 34.5002C40 36.3002 39.8 38.0002 39.5 39.0002C39.3 39.7002 38.5 40.2002 37.5 40.2002ZM37.9 25.3002C37.8 26.7002 37.5 29.9002 37 32.5002C36.8 33.2002 36.7 34.0002 36.5 34.6002C36.2 36.1002 35.8 37.8002 35.9 38.2002C36.1 38.9002 36.9 39.2002 37.5 39.2002C38 39.2002 38.5 39.1002 38.7 38.6002C39 37.7002 39.1 36.0002 39.4 34.3002L39.6 32.8002C40 30.1002 40.4 27.5002 40.5 26.6002L37.9 25.3002Z" fill="black"/>
<path d="M8.19844 38.3C7.79844 40 4.99844 40.2 4.49844 38.8C4.19844 37.6 3.89844 35.2 3.69844 32.9C3.19844 29.6 2.89844 26.4 2.89844 26.4L6.19844 25C6.19844 25 6.39843 28.9 7.09843 32.5C7.69843 35.2 8.29844 37.8 8.19844 38.3Z" fill="#EDDCC8"/>
<path d="M6.09883 40.2002C5.09883 40.2002 4.29883 39.7002 4.09883 38.9002C3.79883 37.9002 3.59883 36.2002 3.39883 34.4002C3.29883 33.9002 3.29883 33.4002 3.19883 32.9002C2.69883 29.6002 2.39883 27.9002 2.39883 27.9002L2.29883 26.0002L6.59883 24.2002V24.9002C6.59883 24.9002 6.89883 28.8002 7.49883 32.3002L7.99883 33.9002C8.59883 36.7002 8.79883 37.9002 8.69883 38.4002C8.39883 39.6002 7.19883 40.2002 6.09883 40.2002ZM3.29883 26.7002C3.39883 27.6002 3.79883 30.2002 4.19883 32.8002C4.29883 33.3002 4.29883 33.8002 4.39883 34.3002C4.59883 36.0002 4.79883 37.7002 5.09883 38.6002C5.19883 39.0002 5.79883 39.2002 6.29883 39.2002C6.89883 39.2002 7.69883 38.9002 7.89883 38.2002C7.99883 37.8002 7.49883 35.8002 7.19883 34.1002L6.89883 32.5002C6.39883 29.8002 6.09883 26.9002 5.99883 25.6002L3.29883 26.7002Z" fill="black"/>
<path d="M23.1991 4.20062C30.1991 4.70062 35.8991 8.20063 38.1991 11.4006C40.5991 14.9006 41.3991 18.6006 41.0991 23.5006C40.9991 25.6006 40.6991 27.7006 40.6991 27.7006C40.6991 27.7006 36.0991 24.5006 33.0991 23.1006C29.0991 21.1006 27.2991 21.9006 22.0991 21.7006C21.9991 21.7006 21.4991 21.7006 21.3991 21.7006C16.2991 21.9006 13.4991 22.5006 9.49911 24.5006C6.59911 26.0006 2.89911 27.7006 2.89911 27.7006C2.89911 27.7006 2.59911 25.5006 2.49911 23.5006C2.29911 18.5006 2.99911 14.8006 5.39911 11.4006C7.79911 8.20063 13.4991 4.80062 20.4991 4.20062C20.7991 4.20062 21.5991 4.10059 21.8991 4.10059C22.2991 4.10059 22.8991 4.20062 23.1991 4.20062Z" fill="#EDDCC8"/>
<path d="M40.9993 28.6002L40.4993 28.1002C40.4993 28.1002 35.8993 24.9002 32.9993 23.5002C30.1993 22.1002 28.4993 22.1002 25.7993 22.2002C24.7993 22.2002 23.5993 22.3002 22.1993 22.2002H21.4993C16.2993 22.4002 13.6993 23.0002 9.79932 25.0002C6.89932 26.5002 3.29932 28.2002 3.19932 28.2002L2.59932 28.5002L2.49932 27.8002C2.49932 27.8002 2.19932 25.6002 2.09932 23.5002C1.89932 18.2002 2.79932 14.5002 5.09932 11.1002C7.49932 7.80016 13.1993 4.3002 20.5993 3.7002C20.7993 3.7002 20.9993 3.7002 21.2993 3.7002C21.5993 3.7002 21.8993 3.7002 22.0993 3.7002C22.2993 3.7002 22.5993 3.7002 22.7993 3.7002C22.9993 3.7002 23.1993 3.7002 23.2993 3.7002C30.6993 4.2002 36.3993 7.90016 38.6993 11.1002C41.0993 14.5002 41.9993 18.2002 41.6993 23.4002C41.5993 25.5002 41.2993 27.4002 41.2993 27.5002L40.9993 28.6002ZM21.9993 4.60016C21.7993 4.60016 21.4993 4.60016 21.2993 4.60016C20.9993 4.60016 20.7993 4.60016 20.5993 4.60016C13.5993 5.20016 8.09932 8.60016 5.89932 11.6002C3.59932 14.8002 2.69932 18.3002 2.99932 23.4002C2.99932 24.8002 3.19932 26.2002 3.29932 27.0002C4.39932 26.5002 7.09932 25.2002 9.29932 24.1002C13.2993 22.1002 16.0993 21.4002 21.3993 21.2002H22.1993C23.5993 21.2002 24.7993 21.2002 25.7993 21.2002C28.5993 21.1002 30.3993 21.1002 33.4993 22.6002C35.8993 23.8002 39.0993 25.9002 40.4993 26.8002C40.5993 26.0002 40.6993 24.7002 40.7993 23.4002C40.9993 18.4002 40.1993 14.9002 37.8993 11.6002C35.7993 8.60016 30.2993 5.10016 23.2993 4.60016C23.1993 4.60016 22.8993 4.60016 22.6993 4.60016C22.3993 4.60016 22.0993 4.60016 21.9993 4.60016Z" fill="black"/>
<path d="M14.4996 22.5C14.4996 22.5 14.9996 20 13.7996 15.3C12.9996 12.2 11.4996 8.69998 10.5996 7.09998L12.8996 6C13.1996 6.5 14.0996 7.79998 14.8996 9.59998C15.5996 11.3 16.7996 13.8 17.7996 18.6C18.0996 19.7 18.6996 22.9 18.6996 22.9L14.4996 22.5Z" fill="#EDDCC8"/>
<path d="M19.3 23.4008L14 22.9008L14.1 22.4008C14.1 22.4008 14.6 19.9008 13.4 15.4008C12.6 12.4008 11.2 9.00078 10.3 7.30078L10 6.90082L13.1 5.30078L13.3 5.70081C13.4 5.80081 13.5 6.00081 13.6 6.20081C14 6.90081 14.7 7.90082 15.3 9.40082L15.6 10.1008C16.3 11.8008 17.3 14.3008 18.3 18.4008C18.6 19.5008 19.2 22.6008 19.2 22.7008L19.3 23.4008ZM15.1 22.0008L18.2 22.3008C18 21.3008 17.6 19.5008 17.4 18.7008C16.5 14.6008 15.5 12.1008 14.8 10.5008L14.5 9.80078C14 8.40078 13.3 7.40078 12.9 6.80078L12.8 6.70081L11.4 7.40082C12.4 9.20082 13.7 12.5008 14.4 15.3008C15.2 18.7008 15.2 21.1008 15.1 22.0008Z" fill="black"/>
<path d="M28.4 22.3C28.4 22.3 27.9 19.7 29.1 15C29.8 12.2 31.7 7.80001 32.2 6.70001L29.6 5.5C29.4 6 28.5 8.30002 28.1 8.90002C27.4 10.5 26.6 12.9 25.4 17.5C24.9 19.3 24.5 22.6 24.5 22.6L28.4 22.3Z" fill="#EDDCC8"/>
<path d="M23.8984 23.2004L23.9984 22.6003C23.9984 22.5003 24.4984 19.2004 24.9984 17.4004C26.0984 13.1004 26.8984 10.6004 27.6984 8.70038C27.8984 8.30038 28.2984 7.30034 28.5984 6.60034C28.7984 6.00034 29.0984 5.50035 29.0984 5.30035L29.2984 4.90039L32.6984 6.50037L32.2984 7.60034C31.5984 9.30034 30.1984 12.9004 29.4984 15.2004C28.2984 19.7004 28.7984 22.3004 28.7984 22.3004L28.8984 22.8004L23.8984 23.2004ZM29.7984 6.10034C29.6984 6.30034 29.5984 6.60039 29.4984 6.90039C29.0984 7.70039 28.7984 8.70034 28.4984 9.10034C27.6984 10.8003 26.8984 13.4003 25.7984 17.6003C25.4984 18.9003 25.0984 21.1003 24.9984 22.1003L27.8984 21.9004C27.7984 20.9004 27.7984 18.5004 28.6984 14.9004C29.2984 12.5004 30.7984 8.90038 31.4984 7.20038L31.5984 7.00037L29.7984 6.10034Z" fill="black"/>
<path d="M13.5992 4.0005C13.0992 4.5005 12.1992 5.10051 12.6992 5.70051C14.0992 7.40051 15.1992 10.3005 16.2992 13.2005C17.3992 16.1005 18.8992 23.6005 19.3992 24.9005C19.4992 25.2005 20.9992 25.2005 21.5992 25.1005C22.4992 25.1005 24.3992 24.9005 24.3992 24.8005C24.8992 21.9005 26.1992 14.6005 26.8992 12.6005C27.9992 9.50048 29.0992 6.50051 29.8992 5.20051C30.2992 4.50051 29.9992 3.80049 29.3992 3.30049C28.2992 2.40049 25.4992 0.500478 21.9992 0.600478C19.4992 0.600478 16.6992 1.70053 14.9992 2.90053C14.3992 3.30053 13.9992 3.6005 13.5992 4.0005Z" fill="#EDDCC8"/>
<path d="M20.6 25.7003C19.9 25.7003 19 25.6003 18.8 25.1003C18.6 24.6003 18.3 23.1003 17.8 21.3003C17.2 18.6003 16.3 15.1003 15.7 13.4003C14.7 10.6003 13.5 7.70029 12.2 6.00029C11.5 5.20029 12.4 4.40031 12.9 3.90031C13 3.80031 13.1 3.7003 13.1 3.7003C13.5 3.4003 13.8 3.20029 14 3.00029C14.2 2.90029 14.3 2.70027 14.5 2.60027C16.3 1.40027 19.2 0.200302 21.8 0.200302C25.9 0.100302 28.9 2.50029 29.5 3.00029C30.4 3.70029 30.6 4.60029 30.1 5.50029C29.4 6.60029 28.5 9.00027 27.6 11.6003L27.2 12.8003C26.5 14.7003 25.2 21.8003 24.7 24.9003C24.7 25.1003 24.7 25.6003 21.5 25.6003C21.4 25.6003 21.1 25.7003 20.6 25.7003ZM19.7 24.6003C20 24.7003 20.9 24.7003 21.4 24.7003C22.2 24.7003 23.3 24.6003 23.8 24.5003C24.3 21.6003 25.5 14.5003 26.3 12.5003L26.7 11.3003C27.7 8.70028 28.6 6.20029 29.3 5.00029C29.6 4.50029 29.2 4.00028 28.9 3.80028C28.4 3.40028 25.5 1.1003 21.8 1.2003C19.4 1.2003 16.7 2.30031 15.1 3.40031C15 3.50031 14.8 3.70028 14.6 3.80028C14.3 4.00028 14.1 4.20031 13.9 4.40031C13.8 4.50031 13.7 4.60027 13.6 4.60027C13.3 4.80026 12.9 5.30031 13 5.40031C14.4 7.20031 15.6 10.2003 16.6 13.1003C17.3 14.9003 18.1 18.4003 18.7 21.1003C19.2 22.7003 19.5 24.0003 19.7 24.6003Z" fill="black"/>
<path d="M13.4996 6.40082C14.0996 7.40082 14.7996 8.40078 15.6996 10.8008C16.3996 12.6008 17.2996 15.0008 18.2996 19.2008C18.4996 20.0008 19.6996 24.7008 19.6996 24.7008C19.6996 24.7008 20.8996 24.7008 21.6996 24.7008C22.6996 24.6008 23.9996 24.5008 23.9996 24.5008C24.0996 23.8008 24.2996 22.4008 24.7996 19.6008C24.9996 18.3008 25.2996 16.6008 25.7996 14.7008C26.4996 12.0008 27.9996 8.00081 28.5996 6.70081C29.1996 5.30081 29.3996 5.10079 29.4996 5.00079C29.5996 4.90079 29.6996 4.70079 29.6996 4.50079C29.7996 4.30079 29.5996 3.80081 29.4996 3.70081C29.3996 3.60081 29.1996 3.30081 29.0996 3.20081C28.2996 2.60081 27.5996 2.30078 27.5996 2.30078C27.3996 2.70078 25.7996 6.10082 24.4996 10.4008C23.4996 13.7008 22.4996 18.5008 21.9996 19.7008C21.8996 19.9008 21.7996 20.0008 21.7996 20.0008C21.6996 20.0008 21.5996 19.9008 21.4996 19.7008C21.0996 18.4008 20.1996 13.9008 18.8996 10.6008C17.3996 6.60077 15.4996 2.70081 15.4996 2.70081C15.4996 2.70081 15.1996 3.00077 14.4996 3.60077C14.2996 3.80077 13.8996 4.20079 13.6996 4.50079C13.3996 4.80079 13.0996 5.30078 13.0996 5.30078C13.0996 5.30078 13.2996 6.10082 13.4996 6.40082Z" fill="#EACCA0"/>
<path d="M28.7988 7.00057C27.8988 5.40057 27.6988 2.50054 28.0988 2.60054C28.6988 2.80054 31.6988 3.10058 33.6988 2.20058C36.0988 1.20058 37.3988 0.40058 37.9988 0.70058C38.9988 1.30058 38.7988 3.90059 36.2988 6.40059C34.2988 8.40059 30.8988 9.70058 30.8988 9.70058C30.8988 9.70058 29.5988 8.50057 28.7988 7.00057Z" fill="#EDDCC8"/>
<path d="M30.6987 10.2001L30.4987 10.0001C30.3987 9.9001 29.1987 8.70011 28.2987 7.20011C27.4987 5.80011 27.0987 2.90009 27.4987 2.30009L27.6987 2.10007L28.0987 2.20011C28.6987 2.40011 31.4987 2.60009 33.3987 1.80009C33.9987 1.50009 34.5987 1.30007 35.0987 1.10007C36.5987 0.400075 37.3987 0.000123739 38.0987 0.400124C38.4987 0.600124 38.7987 1.10011 38.8987 1.70011C39.0987 2.90011 38.4987 4.80009 36.4987 6.80009C34.3987 8.90009 31.0987 10.1001 30.9987 10.2001H30.6987ZM29.1987 6.70011C29.7987 7.80011 30.5987 8.70008 30.9987 9.10007C31.7987 8.80007 34.2987 7.6001 35.8987 6.0001C37.4987 4.4001 38.0987 2.60011 37.9987 1.70011C37.9987 1.40011 37.7987 1.20007 37.6987 1.10007C37.4987 1.00007 36.4987 1.40009 35.4987 1.80009C34.9987 2.00009 34.3987 2.30008 33.7987 2.60008C31.8987 3.40007 29.3987 3.30008 28.2987 3.10008C28.2987 3.90007 28.4987 5.60011 29.1987 6.70011Z" fill="black"/>
<path d="M14.3 6.90041C15.2 5.10041 15.3 2.80041 15 2.90041C13.7 3.30041 11.3 2.80038 9.20003 2.00038C6.80003 1.00038 5.50003 0.200385 4.90003 0.500385C3.90003 1.10038 4.10003 3.7004 6.60003 6.2004C8.60003 8.2004 11.8 9.7004 11.8 9.7004C11.8 9.7004 13.1 9.20041 14.3 6.90041Z" fill="#EDDCC8"/>
<path d="M11.7987 10.1003L11.5987 10.0003C11.4987 10.0003 8.39874 8.60033 6.29874 6.50033C4.29874 4.50033 3.79874 2.50036 3.89874 1.40036C3.99874 0.800357 4.29874 0.300308 4.69874 0.100308C5.39874 -0.299692 6.19874 0.10032 7.69874 0.80032C8.19874 1.00032 8.79874 1.30031 9.39874 1.60031C11.3987 2.50031 13.6987 2.80033 14.8987 2.50033L15.1987 2.40036L15.4987 2.60031C15.9987 3.10031 15.5987 5.60031 14.7987 7.10031C13.4987 9.50031 12.1987 10.0003 12.0987 10.0003L11.7987 10.1003ZM5.29874 0.900357C5.19874 0.900357 5.19874 0.900357 5.19874 0.900357C4.99874 1.00036 4.89874 1.20033 4.89874 1.50033C4.69874 2.50033 5.29874 4.20032 6.99874 5.80032C8.69874 7.50032 11.0987 8.70031 11.8987 9.10031C12.1987 8.90031 13.0987 8.30034 13.8987 6.70034C14.4987 5.50034 14.6987 4.10033 14.6987 3.50033C13.0987 3.70033 10.7987 3.20033 9.09874 2.50033C8.39874 2.20033 7.79874 1.90034 7.29874 1.70034C6.49874 1.30034 5.59874 0.900357 5.29874 0.900357Z" fill="black"/>
<path d="M13.8 21.1006C9.9 21.1006 6.5 23.3006 6.5 27.1006C6.5 30.9006 9.6 34.1006 13.5 34.1006C17.3 34.1006 20.5 31.0006 20.5 27.1006C20.5 23.2006 17.6 21.1006 13.8 21.1006ZM13.7 30.6006C11.6 30.6006 10 28.9006 10 26.9006C10 24.9006 11.7 23.2006 13.7 23.2006C15.7 23.2006 17.4 24.9006 17.4 26.9006C17.4 28.9006 15.8 30.6006 13.7 30.6006Z" fill="#EDDCC8"/>
<path d="M13.4 34.5006C9.3 34.5006 6 31.2006 6 27.1006C6 23.3006 9.2 20.6006 13.8 20.6006C18.1 20.6006 20.9 23.1006 20.9 27.1006C20.9 31.2006 17.5 34.5006 13.4 34.5006ZM13.8 21.5006C10.5 21.5006 7 23.2006 7 27.0006C7 30.6006 9.9 33.5006 13.5 33.5006C17.1 33.5006 20 30.6006 20 27.0006C19.9 23.7006 17.5 21.5006 13.8 21.5006ZM13.7 31.0006C11.4 31.0006 9.5 29.1006 9.5 26.8006C9.5 24.5006 11.4 22.6006 13.7 22.6006C16 22.6006 17.9 24.5006 17.9 26.8006C17.9 29.1006 16 31.0006 13.7 31.0006ZM13.7 23.6006C11.9 23.6006 10.4 25.1006 10.4 26.9006C10.4 28.7006 11.9 30.2006 13.7 30.2006C15.5 30.2006 17 28.7006 17 26.9006C17 25.0006 15.5 23.6006 13.7 23.6006Z" fill="black"/>
<path d="M29.8988 20.4004C26.0988 20.4004 23.2988 22.6004 23.2988 26.4004C23.2988 30.2004 26.3988 33.4004 30.2988 33.4004C34.1988 33.4004 37.2988 30.3004 37.2988 26.4004C37.2988 22.5004 33.7988 20.4004 29.8988 20.4004ZM30.2988 29.8004C28.1988 29.8004 26.5988 28.1003 26.5988 26.1003C26.5988 24.1003 28.2988 22.4004 30.2988 22.4004C32.2988 22.4004 33.9988 24.1003 33.9988 26.1003C33.9988 28.1003 32.3988 29.8004 30.2988 29.8004Z" fill="#EDDCC8"/>
<path d="M30.1988 33.8004C26.0988 33.8004 22.7988 30.5004 22.7988 26.4004C22.7988 22.5004 25.5988 19.9004 29.8988 19.9004C34.4988 19.9004 37.6988 22.6004 37.6988 26.4004C37.6988 30.5004 34.2988 33.8004 30.1988 33.8004ZM29.8988 20.9004C26.0988 20.9004 23.7988 23.0004 23.7988 26.4004C23.7988 30.0004 26.6988 32.9004 30.2988 32.9004C33.8988 32.9004 36.7988 30.0004 36.7988 26.4004C36.6988 22.6004 33.1988 20.9004 29.8988 20.9004ZM30.2988 30.3004C27.9988 30.3004 26.0988 28.4003 26.0988 26.1003C26.0988 23.8003 27.9988 21.9004 30.2988 21.9004C32.5988 21.9004 34.4988 23.8003 34.4988 26.1003C34.4988 28.4003 32.6988 30.3004 30.2988 30.3004ZM30.2988 22.8004C28.4988 22.8004 26.9988 24.3003 26.9988 26.1003C26.9988 27.9003 28.4988 29.4004 30.2988 29.4004C32.0988 29.4004 33.5988 27.9003 33.5988 26.1003C33.5988 24.3003 32.0988 22.8004 30.2988 22.8004Z" fill="black"/>
</g>
</svg>
