<svg width="44" height="41" viewBox="0 0 44 41" fill="none" xmlns="http://www.w3.org/2000/svg">
<mask id="mask0_17_1497" style="mask-type:luminance" maskUnits="userSpaceOnUse" x="0" y="0" width="44" height="41">
<path d="M43.8 0H0V40.4H43.8V0Z" fill="white"/>
</mask>
<g mask="url(#mask0_17_1497)">
<path d="M19.4992 23.0996C17.0992 23.3996 15.0992 23.7996 12.7992 24.4996C7.89922 26.0996 5.69922 27.5996 5.69922 27.5996C6.49922 29.8996 8.79922 34.6996 12.7992 35.1996C16.1992 35.6996 19.0992 33.3997 19.5992 30.3997C19.9992 27.8997 19.4992 23.0996 19.4992 23.0996ZM13.4992 32.2996C11.3992 32.2996 9.69921 30.5996 9.69921 28.4996C9.69921 26.3996 11.3992 24.6996 13.4992 24.6996C15.5992 24.6996 17.2992 26.3996 17.2992 28.4996C17.2992 30.5996 15.5992 32.2996 13.4992 32.2996Z" fill="#DDDDDD"/>
<path d="M13.6992 35.8C13.3992 35.8 13.0992 35.8 12.7992 35.7C8.19922 35.1 5.89922 29.5 5.29922 27.8L5.19922 27.5L5.49922 27.3C5.59922 27.2 7.79921 25.7 12.6992 24.1C14.9992 23.4 16.9992 23 19.4992 22.6L19.9992 22.5L20.0992 23C20.0992 23.2 20.5992 27.9 20.1992 30.4C19.4992 33.6 16.7992 35.8 13.6992 35.8ZM6.29922 27.8C6.89922 29.4 9.09922 34.2 12.8992 34.7C15.8992 35.1 18.6992 33.2 19.1992 30.3C19.4992 28.3 19.1992 24.9 19.0992 23.6C17.5992 23.8 16.1992 24.1 14.8992 24.4C16.5992 25 17.8992 26.6 17.8992 28.5C17.8992 30.9 15.9992 32.8 13.5992 32.8C11.1992 32.8 9.29922 30.9 9.29922 28.5C9.29922 27.6 9.59922 26.7 10.0992 26C7.99922 26.8 6.79922 27.5 6.29922 27.8ZM13.4992 25.2C11.6992 25.2 10.1992 26.7 10.1992 28.5C10.1992 30.3 11.6992 31.8 13.4992 31.8C15.2992 31.8 16.7992 30.3 16.7992 28.5C16.7992 26.7 15.3992 25.2 13.4992 25.2Z" fill="black"/>
<path d="M31.2004 23.8997C29.0004 23.3997 26.5004 23.1996 24.2004 23.0996C24.2004 23.0996 24.0004 27.3997 24.4004 29.8997C24.9004 32.5997 27.3004 35.2996 31.2004 34.6996C35.5004 34.0996 37.7004 28.7996 38.1004 26.2996C38.1004 26.3996 35.6004 24.7997 31.2004 23.8997ZM30.4004 31.5996C28.3004 31.5996 26.6004 29.8996 26.6004 27.7996C26.6004 25.6996 28.3004 23.9996 30.4004 23.9996C32.5004 23.9996 34.2004 25.6996 34.2004 27.7996C34.2004 29.8996 32.5004 31.5996 30.4004 31.5996Z" fill="#DDDDDD"/>
<path d="M30.2002 35.3C26.8002 35.3 24.5002 32.8 24.0002 30C23.5002 27.4 23.8002 23.2 23.8002 23V22.5H24.3002C27.1002 22.6 29.4002 22.9 31.3002 23.3C35.8002 24.2 38.3002 25.8 38.4002 25.8L38.7002 26L38.6002 26.3C38.3002 28.4 36.2002 34.4 31.3002 35.1C30.9002 35.3 30.6002 35.3 30.2002 35.3ZM24.7002 23.6C24.7002 24.8 24.6002 27.9 24.9002 29.9C25.4002 32.4 27.5002 34.9 31.1002 34.3C34.9002 33.7 37.0002 29.1 37.5002 26.6C37.0002 26.3 35.6002 25.6 33.6002 25C34.2002 25.7 34.6002 26.7 34.6002 27.7C34.6002 30.1 32.7002 32 30.3002 32C27.9002 32 26.0002 30.1 26.0002 27.7C26.0002 26 27.0002 24.6 28.3002 23.9C27.3002 23.8 26.1002 23.7 24.7002 23.6ZM30.4002 24.4C28.6002 24.4 27.1002 25.9 27.1002 27.7C27.1002 29.5 28.6002 31 30.4002 31C32.2002 31 33.7002 29.5 33.7002 27.7C33.7002 25.9 32.3002 24.4 30.4002 24.4Z" fill="black"/>
<path d="M6.20074 12.1002C8.20074 10.0002 10.2007 9.1002 10.0007 9.2002C9.40074 9.5002 7.20074 8.7002 5.60074 7.2002C3.70074 5.4002 2.80074 4.2002 2.10074 4.2002C1.00074 4.3002 0.200735 6.80016 1.60074 10.1002C2.70074 12.8002 4.40074 15.2002 4.40074 15.2002C4.40074 15.2002 5.50074 12.9002 6.20074 12.1002Z" fill="#EACCA0"/>
<path d="M4.50016 16.0998L4.00016 15.3999C4.00016 15.2999 2.30016 12.9999 1.20016 10.1999C0.100163 7.59988 0.300164 5.59984 0.900164 4.59984C1.20016 4.09984 1.60016 3.69988 2.10016 3.69988C2.90016 3.59988 3.50016 4.29987 4.70016 5.49987C5.00016 5.79987 5.50016 6.29985 6.00016 6.79985C7.50016 8.29986 9.50016 8.89988 9.80017 8.69988C10.0002 8.59988 10.1002 8.59984 10.2002 8.59984L10.5002 8.69988V9.29985L10.2002 9.39989C10.0002 9.49989 8.20016 10.4999 6.60016 12.1999C6.00016 12.7999 5.20016 14.5999 4.90016 15.1999L4.50016 16.0998ZM2.20016 4.59984C2.00016 4.59984 1.80016 4.79984 1.70016 5.09984C1.30016 5.79984 1.10016 7.59989 2.10016 9.89989C2.90016 11.6999 3.80016 13.2999 4.40016 14.1999C4.80016 13.3999 5.40016 12.2999 5.90016 11.6999C6.60016 10.8999 7.70016 9.99989 8.60016 9.39989C7.60016 9.09989 6.30016 8.39989 5.30016 7.39989C4.80016 6.89989 4.30016 6.39987 3.90016 5.99987C3.20016 5.29987 2.50016 4.59984 2.20016 4.59984Z" fill="black"/>
<path d="M37.101 11.2996C35.601 9.59962 33.601 8.99961 33.801 9.09961C34.401 9.39961 36.601 8.59961 38.201 7.09961C40.101 5.29961 41.001 4.09961 41.701 4.09961C42.801 4.29961 43.601 6.69963 42.201 9.99963C41.101 12.6996 39.401 15.2996 39.401 15.2996C39.401 15.2996 38.401 12.6996 37.101 11.2996Z" fill="#EACCA0"/>
<path d="M39.3992 16.3002L38.9992 15.5002C38.9992 15.5002 37.9992 13.0002 36.6992 11.6002C35.6992 10.4002 34.2992 9.80016 33.7992 9.60016C33.6992 9.60016 33.5992 9.60018 33.4992 9.50018L33.1992 9.40021V8.80017L33.4992 8.7002C33.5992 8.7002 33.6992 8.70017 33.8992 8.80017C34.3992 8.90017 36.2992 8.30021 37.6992 6.90021C38.1992 6.40021 38.6992 5.90018 38.9992 5.50018C40.0992 4.30018 40.7992 3.7002 41.4992 3.7002C42.1992 3.7002 42.6992 4.00018 42.9992 4.50018C43.5992 5.50018 43.7992 7.50016 42.6992 10.1002C41.4992 12.8002 39.9992 15.3002 39.8992 15.5002L39.3992 16.3002ZM37.3992 10.9002C38.2992 11.9002 38.9992 13.3002 39.4992 14.2002C40.0992 13.2002 40.9992 11.5002 41.7992 9.80017C42.7992 7.50017 42.5992 5.80018 42.1992 5.00018C42.0992 4.70018 41.8992 4.60018 41.6992 4.50018C41.3992 4.40018 40.6992 5.20018 39.9992 6.00018C39.5992 6.40018 39.1992 6.90021 38.5992 7.40021C37.6992 8.30021 36.4992 9.00017 35.5992 9.30017C36.0992 9.70017 36.8992 10.3002 37.3992 10.9002Z" fill="black"/>
<path d="M3.2 29.1C3.2 29.1 3 26.2 3 24.1C3.1 19.9 3.1 16.3 5.6 12.8C8 9.40003 14.1 5.80005 21.5 5.50005C25.8 5.30005 34.4 7.90006 37.4 11.7001C40.8 16.0001 41.1 23.1 41 27.8C41 27.8 31.8 23.1 25 23.1C17.6 23.1 14.4 23.6 9.5 26C6.6 27.5 3.2 29.1 3.2 29.1Z" fill="#EACCA0"/>
<path d="M2.8 29.9001L2.7 29.2C2.7 29.1 2.5 26.3 2.5 24.1V23.6C2.6 19.5 2.7 16 5.2 12.5C7.6 9.00004 14 5.30004 21.5 5.00004C25.9 4.80004 34.7 7.40006 37.8 11.4001C41.2 15.7001 41.7 22.7 41.5 27.8V28.5L40.8 28.2C40.7 28.2 31.6 23.5 25 23.5C17.8 23.5 14.6 23.9 9.7 26.3C6.8 27.8 3.3 29.4 3.3 29.5L2.8 29.9001ZM21.9 6.00004C21.8 6.00004 21.6 6.00004 21.5 6.00004C14.4 6.30004 8.3 9.80001 6 13.1C3.7 16.4 3.6 19.8 3.5 23.7V24.2C3.5 25.7 3.6 27.5 3.6 28.5C4.7 27.9 7.2 26.7 9.3 25.6C14.3 23.1 17.7 22.7 25 22.7C30.8 22.7 38.3 26 40.5 27.1C40.6 22.2 40.1 15.9 37 12C34.3 8.40004 26.2 6.00004 21.9 6.00004Z" fill="black"/>
<path d="M28 23.4998L27 23.3998C27.1 23.1998 27.9 18.2998 29.9 13.9998C31.6 10.2998 32.9 8.2998 33 8.2998L33.8 8.7998C33.8 8.7998 32.4 10.8998 30.8 14.4998C28.8 18.5998 28 23.3998 28 23.4998Z" fill="black"/>
<path d="M16.5992 23.4998C16.5992 23.3998 15.7992 18.6998 13.7992 14.4998C12.0992 10.8998 10.6992 8.7998 10.6992 8.7998L11.4992 8.2998C11.5992 8.3998 12.8992 10.3998 14.5992 13.9998C16.5992 18.3998 17.3992 23.1998 17.4992 23.3998L16.5992 23.4998Z" fill="black"/>
</g>
</svg>
