<svg width="79" height="64" viewBox="0 0 79 64" fill="none" xmlns="http://www.w3.org/2000/svg">
<path d="M16.6998 40.1002C16.6998 40.1002 8.49983 33.5002 4.99983 32.0002C4.39983 31.8002 3.99983 31.7002 3.69983 31.7002C3.39983 31.8002 2.99983 32.0002 2.69983 32.2002C-1.30017 34.7002 3.59984 43.1002 5.79984 45.9002C6.89984 47.3002 10.5998 51.4002 14.1998 52.7002C17.1998 53.8002 21.6998 53.3002 21.6998 53.3002" fill="white"/>
<path d="M19.5997 54.1C20.7997 54.1 21.5997 54 21.6997 54L21.5997 52.6C21.4997 52.6 17.0997 53 14.2997 52C11.0997 50.9 7.39974 47.1 6.29974 45.5C4.69974 43.4 1.39974 37.8 1.99974 34.6C1.99974 33.8 2.39974 33.2 2.99974 32.9C3.09974 32.8 3.59974 32.5 3.89974 32.5C3.99974 32.5 4.29974 32.5 4.79974 32.7C8.09974 34.1 16.4997 40.9 16.4997 40.9L17.0997 39.6C16.6997 39.3 8.79974 32.9 5.29974 31.4C4.79974 31.1 4.19973 31 3.69973 31C3.09973 31.1 2.59973 31.4 2.19973 31.6C1.29973 32.2 0.599738 33.1 0.399738 34.3C-0.300262 38.3 3.59974 44.5 4.99974 46.3C5.89974 47.4 9.79973 51.8 13.6997 53.3C15.6997 54 17.9997 54.1 19.5997 54.1Z" fill="black"/>
<path d="M19.9 51.1996C20.2 51.1996 20.1 50.8996 20.2 50.5996C20.3 50.1996 20.1 49.7996 19.7 49.6996C16.6 48.7996 13 47.6996 12.6 47.3996C12.6 47.2996 12.2 46.7996 13.7 43.8996C13.9 43.4996 14.5 42.2996 10.3 38.5996C10.1 38.3996 9.9 38.1996 9.7 37.9996C7.9 36.2996 5.2 33.7996 1.7 34.3996C1.2 34.3996 1 34.6996 1 35.0996C1.1 35.4996 1.4 35.6996 1.9 35.6996C4.8 35.1996 6.9 37.2996 8.7 38.9996C8.9 39.1996 9.2 39.3996 9.4 39.5996C12 41.8996 12.5 43.0996 12.5 43.2996C11.5 45.3996 10.7 47.5996 11.9 48.4996C12.8 49.1996 18.4 50.6996 19.5 51.0996C19.7 51.0996 19.9 51.1996 19.9 51.1996Z" fill="black"/>
<path d="M62.5992 39.4C62.5992 39.4 70.7992 32.8 74.2992 31.3C74.8992 31.1 75.2992 31 75.5992 31C75.9992 31.1 76.4992 31.3 76.6992 31.5C80.6992 34 75.7992 42.4 73.5992 45.2C72.4992 46.6 68.7992 50.7 65.1992 52C62.1992 53.1 57.6992 52.6 57.6992 52.6" fill="white"/>
<path d="M59.6996 53.3002C58.4996 53.3002 57.6996 53.2002 57.5996 53.2002L57.6996 51.8002C57.7996 51.8002 62.1996 52.2002 64.9996 51.2002C68.1996 50.1002 71.8996 46.3002 72.9996 44.7002C74.5996 42.6002 77.8996 37.0002 77.2996 33.8002C77.1996 33.0002 76.7996 32.4002 76.1996 32.1002C76.0996 32.0002 75.5996 31.7002 75.2996 31.7002C75.1996 31.7002 74.8996 31.7002 74.3996 31.9002C71.0996 33.3002 62.9996 39.9002 62.9996 39.9002L62.0996 38.8002C62.4996 38.5002 70.3996 32.1002 73.8996 30.6002C74.4996 30.3002 74.9996 30.2002 75.4996 30.2002C76.0996 30.3002 76.5996 30.6002 76.9996 30.8002C77.8996 31.4002 78.5996 32.3002 78.7996 33.5002C79.4996 37.5002 75.5996 43.7002 74.1996 45.5002C73.2996 46.6002 69.3996 51.0002 65.4996 52.5002C63.6996 53.2002 61.2996 53.3002 59.6996 53.3002Z" fill="black"/>
<path d="M59.7997 50.2998C59.4997 50.2998 59.1997 50.0998 59.0997 49.7998C58.9997 49.3998 59.1997 48.9998 59.5997 48.8998C62.6997 47.9998 66.2997 46.8998 66.6997 46.5998C66.6997 46.4998 67.0997 45.9998 65.5997 43.0998C65.3997 42.6998 64.7997 41.4998 68.9997 37.7998C69.1997 37.5998 69.3997 37.3998 69.5997 37.1998C71.3997 35.4998 74.0997 32.9998 77.5997 33.5998C77.9997 33.6998 78.1997 33.9998 78.1997 34.4998C78.0997 34.8998 77.7997 35.0998 77.2997 35.0998C74.3997 34.5998 72.2997 36.6998 70.4997 38.3998C70.2997 38.5998 69.9997 38.7998 69.7997 38.9998C67.1997 41.2998 66.6997 42.4998 66.6997 42.6998C67.6997 44.7998 68.4997 46.9998 67.2997 47.8998C66.3997 48.3998 60.8997 49.8998 59.7997 50.2998Z" fill="black"/>
<path d="M43.8003 62.5005C50.6003 61.2005 54.1003 57.2005 55.7003 55.5005C58.0003 52.9005 60.3003 49.0005 61.5003 45.1005C63.3003 38.9005 63.2003 27.7005 62.5003 25.1005C60.8003 18.8005 57.2003 14.4005 51.1003 11.6005C47.4003 9.90046 43.8003 9.40045 39.4003 9.50045C34.6003 9.60045 30.1003 10.8005 28.4003 11.6005C22.4003 14.4005 18.6003 18.9005 16.9003 25.1005C16.1003 27.7005 16.1003 39.0005 18.0003 45.2005C19.2003 49.2005 21.4003 53.0005 23.8003 55.6005C25.4003 57.4005 28.8003 61.4005 35.7003 62.6005C36.6003 62.7005 39.0003 63.0005 40.0003 63.0005C40.9003 62.9005 42.9003 62.7005 43.8003 62.5005Z" fill="white"/>
<path d="M39.9001 63.6004C38.8001 63.6004 36.4001 63.4004 35.4001 63.2004C28.3001 61.8004 24.7001 57.7004 23.2001 55.9004C20.6001 53.0004 18.4001 49.0004 17.3001 45.2004C15.5001 39.0004 15.5001 27.6004 16.2001 24.8004C18.0001 18.3004 21.9001 13.7004 28.1001 10.9004C29.7001 10.1004 34.3001 8.90039 39.4001 8.80039C44.2001 8.70039 47.9001 9.40038 51.3001 10.9004C57.4001 13.7004 61.3001 18.3004 63.1001 24.9004C63.9001 27.8004 64.0001 39.1004 62.1001 45.3004C61.0001 49.1004 58.8001 53.1004 56.2001 56.0004C54.6001 57.8004 51.0001 61.9004 43.9001 63.3004C43.1001 63.4004 40.9001 63.6004 39.9001 63.6004ZM40.4001 10.2004C40.0001 10.2004 39.8001 10.2004 39.4001 10.2004C34.8001 10.3004 30.3001 11.5004 28.7001 12.2004C22.9001 14.9004 19.2001 19.2004 17.5001 25.2004C16.8001 27.8004 16.9001 39.0004 18.6001 44.8004C19.7001 48.4004 21.7001 52.1004 24.2001 55.0004C25.6001 56.6004 29.0001 60.5004 35.6001 61.8004C36.5001 61.9004 38.7001 62.2004 39.8001 62.2004C40.8001 62.2004 42.8001 62.0004 43.6001 61.8004C50.2001 60.6004 53.6001 56.7004 55.0001 55.0004C57.4001 52.2004 59.6001 48.4004 60.6001 44.8004C62.4001 38.5004 62.2001 27.5004 61.6001 25.2004C59.9001 19.0004 56.3001 14.7004 50.6001 12.1004C47.7001 10.8004 44.5001 10.2004 40.4001 10.2004Z" fill="black"/>
<path d="M33.1992 48.6996C33.2992 48.0996 33.8992 47.7996 34.9992 47.7996C37.0992 47.6996 45.1992 47.3996 46.2992 47.4996C47.3992 47.5996 47.5992 47.9996 47.5992 48.2996C47.5992 48.7996 47.2992 49.1996 46.8992 49.6996C45.7992 51.1996 43.5992 53.6996 42.3992 54.2996C40.7992 55.0996 39.2992 54.8996 38.0992 54.1996C37.1992 53.5996 34.9992 51.8996 33.7992 50.0996C33.4992 49.6996 33.1992 49.1996 33.1992 48.6996Z" fill="white"/>
<path d="M40.1004 55.4998C39.2004 55.4998 38.4004 55.2998 37.6004 54.7998C36.7004 54.1998 34.3004 52.3998 33.1004 50.4998L33.0004 50.2998C32.7004 49.7998 32.4004 49.2998 32.4004 48.5998C32.5004 47.9998 32.9004 47.0998 34.9004 46.9998C36.7004 46.8998 45.1004 46.5998 46.3004 46.6998C47.9004 46.8998 48.2004 47.6998 48.2004 48.1998C48.2004 48.8998 47.8004 49.3998 47.5004 49.8998L47.4004 49.9998C46.3004 51.4998 44.1004 54.0998 42.6004 54.7998C41.8004 55.2998 41.0004 55.4998 40.1004 55.4998ZM33.9004 48.7998C33.9004 48.9998 34.0004 49.2998 34.3004 49.5998L34.4004 49.7998C35.5004 51.3998 37.6004 53.0998 38.4004 53.5998C39.5004 54.1998 40.7004 54.1998 42.0004 53.5998C43.0004 53.1998 45.0004 50.9998 46.2004 49.2998L46.3004 49.1998C46.6004 48.7998 46.7004 48.5998 46.7004 48.3998C46.6004 48.2998 46.4004 48.2998 46.1004 48.2998C45.2004 48.1998 37.1004 48.3998 34.9004 48.5998C34.2004 48.5998 34.0004 48.6998 33.9004 48.7998Z" fill="black"/>
<path d="M40.2004 53.7997C40.2004 53.7997 40.0005 51.4997 39.6005 50.6997C39.5005 50.4997 39.3005 50.2997 39.1005 50.0997C38.9005 49.9997 38.6005 49.9997 38.4005 49.9997C37.5005 49.9997 36.9005 50.0997 36.3005 50.2997C35.9005 50.3997 35.8004 50.5996 35.7004 50.8996C35.6004 51.1996 35.6005 51.6997 35.8005 51.9997C36.2005 53.3997 37.2005 56.0997 38.4005 57.9997C38.8005 58.6997 39.3005 59.0997 39.8005 59.2997C40.4005 59.4997 40.9005 59.2997 41.3005 58.9997C42.2005 58.3997 42.8005 57.1997 43.4005 55.9997C44.0005 54.7997 44.7005 52.9996 44.8005 51.8996C44.9005 51.1996 44.7004 50.6996 44.2004 50.3996C43.8004 50.1996 43.1005 49.9996 42.6005 49.8996C42.1005 49.7996 41.5004 49.6996 41.2004 49.8996C40.9004 49.9996 40.7005 50.2997 40.6005 50.6997C40.4005 51.8997 40.2004 53.7997 40.2004 53.7997Z" fill="#CC697A"/>
<path d="M40.0998 60.0002C39.8998 60.0002 39.6998 60.0002 39.4998 59.9002C38.8998 59.7002 38.2998 59.2002 37.7998 58.3002C36.6998 56.5002 35.4998 53.7002 35.0998 52.1002C34.9998 51.7002 34.8998 51.0002 35.0998 50.5002C35.2998 50.0002 35.6998 49.7002 36.0998 49.6002C36.6998 49.3002 37.4998 49.2002 38.3998 49.2002C38.6998 49.2002 38.9998 49.3002 39.4998 49.4002C39.6998 49.5002 39.8998 49.7002 40.0998 49.9002C40.1998 49.5002 40.5998 49.3002 40.9998 49.0002C41.5998 48.7002 42.2998 48.9002 42.7998 49.0002C43.3998 49.1002 44.1998 49.3002 44.5998 49.6002C45.2998 50.0002 45.5998 50.8002 45.4998 51.8002C45.2998 53.1002 44.5998 54.9002 43.9998 56.1002C43.3998 57.4002 42.7998 58.7002 41.6998 59.4002C41.3998 59.7002 40.8998 60.0002 40.0998 60.0002ZM38.2998 50.7002C37.5998 50.7002 36.9998 50.8002 36.6998 50.9002C36.4998 51.0002 36.4998 51.0002 36.3998 51.1002C36.3998 51.2002 36.3998 51.5002 36.4998 51.8002C36.8998 53.1002 37.8998 55.7002 38.9998 57.6002C39.3998 58.2002 39.7998 58.5002 39.8998 58.6002C40.1998 58.7002 40.4998 58.7002 40.7998 58.4002C41.4998 57.9002 42.0998 56.8002 42.5998 55.7002C43.0998 54.6002 43.8998 52.9002 43.9998 51.7002C44.0998 51.1002 43.8998 51.0002 43.7998 50.9002C43.4998 50.8002 42.8998 50.6002 42.3998 50.5002C41.7998 50.4002 41.4998 50.4002 41.4998 50.4002C41.3998 50.4002 41.3998 50.5002 41.2998 50.7002C41.0998 52.0002 40.8998 53.8002 40.8998 53.8002C40.8998 54.2002 40.4998 54.4002 40.1998 54.4002C39.7998 54.4002 39.4998 54.1002 39.4998 53.8002C39.3998 52.9002 39.1998 51.4002 38.9998 50.9002C38.9998 50.8002 38.8998 50.8002 38.8998 50.7002C38.7998 50.6002 38.5998 50.6002 38.4998 50.6002C38.3998 50.7002 38.2998 50.7002 38.2998 50.7002Z" fill="black"/>
<path d="M37.6 36.5998C37 41.3998 32.7 44.7998 27.9 44.2998C24.3 43.8998 22.2 41.5998 21 38.2998C20.6 37.1998 20.1 35.7998 20 34.3998C20 34.3998 25 31.8998 27.7 30.9998C32.3 29.3998 36.9 29.2998 36.9 29.2998C37.4 31.4998 37.8 35.0998 37.6 36.5998Z" fill="#EDDCC8"/>
<path d="M28.8996 45.0996C28.4996 45.0996 28.0996 45.0996 27.7996 44.9996C24.1996 44.5996 21.7996 42.3996 20.2996 38.4996C19.8996 37.3996 19.3996 35.8996 19.1996 34.3996L19.0996 33.9996L19.4996 33.7996C19.6996 33.6996 24.4996 31.2996 27.2996 30.3996C31.8996 28.7996 36.5996 28.5996 36.7996 28.5996H37.3996L37.4996 29.1996C38.0996 31.4996 38.3996 35.1996 38.1996 36.7996C37.8996 39.2996 36.5996 41.5996 34.5996 43.0996C32.9996 44.3996 30.9996 45.0996 28.8996 45.0996ZM20.6996 34.7996C20.7996 35.8996 21.2996 37.0996 21.5996 37.9996C22.8996 41.3996 24.8996 43.1996 27.8996 43.4996C29.9996 43.7996 32.0996 43.0996 33.7996 41.8996C35.4996 40.4996 36.5996 38.6996 36.7996 36.5996C36.8996 35.1996 36.6996 32.0996 36.1996 29.9996C34.7996 30.0996 31.1996 30.4996 27.6996 31.6996C25.5996 32.3996 21.8996 34.1996 20.6996 34.7996Z" fill="black"/>
<path d="M29.2 40.3004C31.796 40.3004 33.9 38.1964 33.9 35.6004C33.9 33.0044 31.796 30.9004 29.2 30.9004C26.604 30.9004 24.5 33.0044 24.5 35.6004C24.5 38.1964 26.604 40.3004 29.2 40.3004Z" fill="white"/>
<path d="M29.2008 41.0002C26.2008 41.0002 23.8008 38.6002 23.8008 35.6002C23.8008 32.6002 26.2008 30.2002 29.2008 30.2002C32.2008 30.2002 34.6008 32.6002 34.6008 35.6002C34.6008 38.6002 32.2008 41.0002 29.2008 41.0002ZM29.2008 31.5002C27.0008 31.5002 25.2008 33.3002 25.2008 35.5002C25.2008 37.7002 27.0008 39.5002 29.2008 39.5002C31.4008 39.5002 33.2008 37.7002 33.2008 35.5002C33.2008 33.3002 31.4008 31.5002 29.2008 31.5002Z" fill="black"/>
<path d="M29.2 38.3004C30.691 38.3004 31.9 37.0914 31.9 35.6004C31.9 34.1094 30.691 32.9004 29.2 32.9004C27.709 32.9004 26.5 34.1094 26.5 35.6004C26.5 37.0914 27.709 38.3004 29.2 38.3004Z" fill="black"/>
<path d="M41.9003 35.5998C42.5003 40.3998 46.8003 43.7998 51.6003 43.2998C55.2003 42.8998 57.3003 40.5998 58.5003 37.2998C58.9003 36.1998 59.4003 34.7998 59.5003 33.3998C59.5003 33.3998 54.5003 30.8998 51.8003 29.9998C47.2003 28.3998 42.6002 28.2998 42.6002 28.2998C42.1002 30.3998 41.7003 33.8998 41.9003 35.5998Z" fill="#EDDCC8"/>
<path d="M50.6004 44C45.9004 44 41.8004 40.4 41.2004 35.7C41.0004 34 41.3004 30.4 41.9004 28.1L42.0004 27.5H42.6004C42.8004 27.5 47.4004 27.6 52.1004 29.3C54.8004 30.2 59.6004 32.6 59.9004 32.7L60.3004 32.9L60.2004 33.4C60.1004 34.9 59.6004 36.3 59.1004 37.5C57.6004 41.4 55.1004 43.5 51.6004 44C51.3004 44 50.9004 44 50.6004 44ZM42.6004 35.5C43.1004 39.9 47.2004 43 51.5004 42.5C54.5004 42.1 56.5004 40.3 57.8004 37C58.2004 36 58.5004 34.9 58.7004 33.8C57.4004 33.2 53.7004 31.4 51.6004 30.7C48.1004 29.5 44.5004 29.1 43.1004 29.1C42.7004 31.1 42.4004 34.1 42.6004 35.5Z" fill="black"/>
<path d="M50.1004 39.3004C52.6964 39.3004 54.8004 37.1964 54.8004 34.6004C54.8004 32.0044 52.6964 29.9004 50.1004 29.9004C47.5044 29.9004 45.4004 32.0044 45.4004 34.6004C45.4004 37.1964 47.5044 39.3004 50.1004 39.3004Z" fill="white"/>
<path d="M50.0992 40.0998C47.0992 40.0998 44.6992 37.6998 44.6992 34.6998C44.6992 31.6998 47.0992 29.2998 50.0992 29.2998C53.0992 29.2998 55.4992 31.6998 55.4992 34.6998C55.4992 37.6998 53.0992 40.0998 50.0992 40.0998ZM50.0992 30.6998C47.8992 30.6998 46.0992 32.4998 46.0992 34.6998C46.0992 36.8998 47.8992 38.6998 50.0992 38.6998C52.2992 38.6998 54.0992 36.8998 54.0992 34.6998C54.0992 32.4998 52.2992 30.6998 50.0992 30.6998Z" fill="black"/>
<path d="M50.1004 37.3004C51.5914 37.3004 52.8004 36.0914 52.8004 34.6004C52.8004 33.1094 51.5914 31.9004 50.1004 31.9004C48.6094 31.9004 47.4004 33.1094 47.4004 34.6004C47.4004 36.0914 48.6094 37.3004 50.1004 37.3004Z" fill="black"/>
<path d="M16.4995 36.4996C16.4995 36.4996 15.8995 33.8995 15.9995 31.1995C16.0995 25.9995 16.8995 20.5996 19.6995 16.0996C22.7995 11.1996 29.3995 6.99955 39.8995 6.79955C47.1995 6.69955 54.8995 9.39955 58.8995 14.7996C62.9995 20.2996 63.2995 28.9995 62.9995 34.6995C62.9995 34.6995 51.9995 28.8995 43.5995 28.8995C34.5995 28.8995 30.5995 29.4996 24.5995 32.4996C20.8995 34.3996 16.4995 36.4996 16.4995 36.4996Z" fill="#EDDCC8"/>
<path d="M16.0003 37.5003L15.8003 36.6003C15.8003 36.5003 15.2003 33.8003 15.3003 31.1003C15.4003 26.1003 16.0003 20.4003 19.1003 15.7003C22.9003 9.80032 30.5003 6.20032 39.9003 6.00032C47.9003 5.90032 55.6003 9.10032 59.5003 14.2003C62.7003 18.5003 63.9003 25.2003 63.6003 34.3003L63.5003 35.6003L62.8003 35.1003C62.7003 35.0003 51.9003 29.4003 43.7003 29.4003C34.9003 29.4003 31.0003 29.9003 25.0003 32.9003C21.4003 34.7003 17.0003 36.9003 16.9003 36.9003L16.0003 37.5003ZM40.5003 7.60033C40.3003 7.60033 40.1003 7.60033 39.9003 7.60033C30.9003 7.80033 23.8003 11.1003 20.3003 16.6003C17.5003 21.1003 16.9003 26.6003 16.7003 31.3003C16.6003 32.9003 16.8003 34.5003 17.0003 35.5003C18.5003 34.8003 21.6003 33.3003 24.3003 31.9003C30.5003 28.8003 34.5003 28.3003 43.6003 28.3003C50.6003 28.3003 59.4003 32.3003 62.3003 33.7003C62.5003 25.4003 61.2003 19.3003 58.2003 15.4003C54.8003 10.5003 47.9003 7.60033 40.5003 7.60033Z" fill="black"/>
<path d="M32.4007 29.6003C32.4007 29.6003 31.3007 22.8003 28.8007 17.5003C26.7007 12.9003 23.6007 10.7003 23.6007 10.7003L22.4007 9.70031C22.0007 9.30031 21.6007 9.00032 21.2007 8.60032C18.0007 5.50032 17.7007 2.30032 19.0007 1.60032C19.8007 1.20032 21.4007 2.20031 24.4007 3.40031C26.3007 4.20031 28.4007 4.30032 29.6007 4.00032C29.6007 4.00032 31.9007 7.10031 33.4007 12.2003C34.9007 17.3003 37.6007 29.1003 37.6007 29.1003L32.4007 29.6003Z" fill="#EDDCC8"/>
<path d="M31.8004 30.3996L31.7004 29.7997C31.7004 29.6997 30.6004 22.9996 28.2004 17.8996C26.2004 13.5996 23.2004 11.3996 23.2004 11.3996L22.0004 10.3996C21.6004 9.99964 21.1004 9.59965 20.7004 9.29965C18.1004 6.79965 17.4004 4.29965 17.6004 2.79965C17.7004 1.99965 18.0004 1.39965 18.6004 1.09965C19.5004 0.599654 20.5004 0.999642 22.5004 1.89964C23.1004 2.19964 23.9004 2.49965 24.6004 2.79965C26.4004 3.49965 28.3004 3.59964 29.4004 3.39964L29.8004 3.29965L30.1004 3.69964C30.2004 3.79964 32.6004 6.99965 34.0004 12.1996C35.4004 17.2996 38.2004 28.8997 38.2004 29.0997L38.3004 29.5997L31.8004 30.3996ZM19.5004 2.19964C19.4004 2.19964 19.4004 2.19964 19.4004 2.19964C19.3004 2.29964 19.1004 2.59965 19.1004 2.79965C19.0004 3.99965 19.7004 6.09965 21.8004 8.09965C22.2004 8.49965 22.6004 8.79965 22.9004 9.19965L24.0004 10.0997C24.1004 10.1997 27.3004 12.3997 29.4004 17.0997C31.5004 21.5997 32.5004 26.8997 32.9004 28.7997L36.7004 28.3996C36.1004 25.6996 33.9004 16.6996 32.7004 12.3996C31.6004 8.39964 29.9004 5.59964 29.3004 4.69964C27.9004 4.89964 26.0004 4.69965 24.2004 3.99965C23.3004 3.59965 22.6004 3.39965 22.0004 3.09965C21.0004 2.69965 19.9004 2.19964 19.5004 2.19964Z" fill="black"/>
<path d="M46.9992 29.2001C46.9992 29.2001 48.0992 22.7001 50.5992 17.3001C52.6992 12.7001 55.7992 10.5001 55.7992 10.5001L56.9992 9.50013C57.3992 9.10013 57.7992 8.80013 58.1992 8.40013C61.3992 5.30013 61.6992 2.10013 60.3992 1.40013C59.5992 1.00013 57.9992 2.00013 54.9992 3.20013C53.0992 4.00013 50.9992 4.10014 49.7992 3.80014C49.7992 3.80014 47.4992 6.90013 45.9992 12.0001C44.4992 17.1001 41.6992 28.8001 41.6992 28.8001L46.9992 29.2001Z" fill="#EDDCC8"/>
<path d="M47.3996 29.7004C47.3996 29.7004 44.5996 29.6004 43.6996 29.5004C42.8996 29.5004 40.5996 29.5004 40.5996 29.5004C40.5996 29.5004 40.7996 28.9004 40.8996 28.3004C41.1996 27.4004 43.5996 17.0004 44.9996 11.8004C46.4996 6.60039 48.7996 3.50039 48.8996 3.30039L49.1996 2.90038L49.6996 3.00039C50.7996 3.20039 52.6996 3.10038 54.4996 2.40038C55.3996 2.00038 56.0996 1.80039 56.5996 1.50039C58.4996 0.600387 59.5996 0.100383 60.4996 0.700383C61.0996 1.00038 61.3996 1.60038 61.4996 2.40038C61.6996 3.90038 60.9996 6.40038 58.3996 8.90038C57.9996 9.30038 57.5996 9.70039 57.1996 10.0004L55.9996 11.0004C55.8996 11.1004 52.8996 13.2004 50.9996 17.5004C48.5996 22.7004 47.4996 29.1004 47.4996 29.2004L47.3996 29.7004ZM42.4996 28.2004L46.3996 28.4004C46.7996 26.6004 47.7996 21.4004 49.8996 17.0004C51.9996 12.3004 55.1996 10.0004 55.3996 10.0004L56.4996 9.10039C56.8996 8.70039 57.2996 8.40039 57.5996 8.00039C59.6996 6.00039 60.3996 3.90038 60.2996 2.70038C60.1996 2.30038 60.1996 2.10039 59.9996 2.10039C59.6996 2.00039 58.4996 2.50039 57.3996 3.00039C56.7996 3.30039 55.9996 3.60038 55.1996 3.90038C53.3996 4.60038 51.3996 4.80039 50.0996 4.60039C49.4996 5.50039 47.7996 8.30039 46.6996 12.3004C45.3996 16.6004 43.1996 25.5004 42.4996 28.2004Z" fill="black"/>
<path d="M29.6993 2.59971C28.7993 2.89971 28.4993 3.9997 29.0993 4.6997C30.7993 6.7997 31.8993 10.4997 33.1993 14.0997C34.5993 17.7997 36.3993 27.4997 36.9993 28.9997C36.9993 28.9997 39.0993 28.8997 39.5993 28.8997C40.6993 28.8997 42.5993 28.8997 42.5993 28.8997C42.7993 26.9997 45.2993 15.8997 46.1993 13.2997C47.5993 9.49971 48.9993 5.59971 49.9993 4.09971C50.3993 3.19971 49.9993 2.1997 48.9993 1.8997C46.8993 1.3997 43.3993 0.799697 38.8993 0.899697C35.1993 0.899697 31.6993 1.89971 29.6993 2.59971Z" fill="#EDDCC8"/>
<path d="M36.3005 29.7004L36.2005 29.2004C35.9005 28.6004 35.5005 26.6004 35.0005 24.2004C34.2005 20.7004 33.2005 17.0005 32.4005 14.3005C32.1005 13.6005 31.9005 12.9004 31.7005 12.2004C30.7005 9.40045 29.8005 6.70046 28.5005 5.10046C28.1005 4.60046 28.0005 4.00045 28.1005 3.30045C28.3005 2.70045 28.8005 2.10044 29.5005 1.90044C31.8005 1.10044 35.2005 0.200455 39.0005 0.100455C43.5005 0.000455099 47.0005 0.700446 49.2005 1.20045C49.8005 1.30045 50.4005 1.80045 50.7005 2.50045C51.0005 3.20045 50.9005 3.90045 50.5005 4.50045C49.6005 5.90045 48.2005 9.30045 46.9005 12.8005L46.7005 13.6005C45.8005 16.2005 43.3005 27.2004 43.1005 29.0004L43.0005 29.6005H42.4005C42.4005 29.6005 40.6005 29.5005 39.5005 29.6005C38.9005 29.6005 36.9005 29.7004 36.9005 29.7004H36.3005ZM40.0005 1.50045C39.6005 1.50045 39.3005 1.50045 38.9005 1.50045C35.1005 1.60045 31.6005 2.60045 29.9005 3.20045C29.7005 3.30045 29.5005 3.40046 29.5005 3.60046C29.4005 3.80046 29.4005 4.00045 29.6005 4.20045C31.1005 6.00045 32.0005 8.80045 33.1005 11.7004C33.3005 12.4004 33.6005 13.1005 33.8005 13.8005C34.6005 16.0005 35.6005 20.4004 36.4005 23.9004C36.8005 25.7004 37.2005 27.3004 37.4005 28.2004C38.0005 28.1004 39.1005 28.1005 39.5005 28.1005C40.2005 28.1005 41.2005 28.1005 41.8005 28.1005C42.3005 25.0005 44.4005 15.4004 45.4005 13.0004L45.6005 12.4004C47.0005 8.70044 48.2005 5.20045 49.2005 3.70045C49.3005 3.50045 49.3005 3.30045 49.3005 3.00045C49.2005 2.80045 49.0005 2.60046 48.8005 2.60046C46.9005 2.10046 43.8005 1.50045 40.0005 1.50045Z" fill="black"/>
<path d="M29.8004 4.5C30.9004 6.1 31.3004 6.80001 32.6004 10.6C33.5004 13.2 34.7004 16.4 35.9004 21.9C36.0004 22.6 36.7004 25.2 37.0004 26.9C37.2004 27.7 37.4004 28.3 37.4004 28.3C37.9004 28.3 38.6004 28.2 39.8004 28.2C40.8004 28.2 41.9004 28.2 41.9004 28.2C42.0004 27.8 42.0004 27.2 42.3004 26.4C42.6004 25.1 42.9004 23.4 43.4004 21.4C43.8004 19.7 44.3004 17.6 44.8004 15.6C46.2004 10.6 47.8004 7 48.6004 5.3C48.9004 4.7 49.0004 4.4 49.1004 4.2C49.2004 3.9 49.3004 3.70001 49.3004 3.60001C49.3004 3.50001 49.4004 3.3 49.4004 3.2C49.3004 3 49.2004 2.8 49.0004 2.7C48.3004 2.4 46.1004 2 46.1004 2C45.9004 2.4 44.5004 5.6 43.1004 10.5C41.9004 14.6 40.9004 20.7 40.3004 21.9C40.2004 22.1 40.0004 22.4 39.8004 22.4C39.6004 22.4 39.4004 22.3 39.3004 22C38.4004 20.4 37.4004 15.1 36.1004 10.9C34.4004 5.39999 32.5004 2.39999 32.5004 2.39999C32.5004 2.39999 31.3004 2.70001 30.2004 3.10001C30.1004 3.10001 29.9004 3.2 29.9004 3.2C29.8004 3.2 29.7004 3.29999 29.6004 3.39999C29.5004 3.49999 29.4004 3.59999 29.5004 3.89999C29.4004 4.09999 29.6004 4.2 29.8004 4.5Z" fill="#EACCA0"/>
</svg>
