<svg width="121" height="82" viewBox="0 0 121 82" fill="none" xmlns="http://www.w3.org/2000/svg">
<path d="M95.8802 46.3568C95.8802 46.3568 110.914 28.9015 114.406 29.2051C125.188 29.964 117.443 50.6068 114.71 54.5533C112.584 57.4372 106.662 63.3568 101.651 65.0265C96.7922 66.5443 89.1992 65.9372 89.1992 65.9372" fill="white"/>
<path d="M92.8432 67.1514C90.7182 67.1514 89.3512 66.9996 89.1992 66.9996L89.3512 64.7228C89.3512 64.7228 96.7922 65.33 101.347 63.8121C106.055 62.2943 111.825 56.5264 113.799 53.7943C115.925 50.6068 120.632 38.0085 118.051 32.696C117.292 31.1782 116.077 30.4193 114.255 30.2675C112.28 30.2675 103.625 38.9193 96.6402 46.9639L94.9692 45.446C99.5252 40.1335 110.458 27.8389 114.255 27.8389H114.406C116.988 27.9907 118.962 29.3568 120.025 31.4818C123.062 38.0085 117.899 51.6693 115.469 55.0085C113.495 57.7407 107.421 64.1157 101.803 65.9371C99.2212 66.9996 95.4252 67.1514 92.8432 67.1514Z" fill="black"/>
<path d="M91.9323 65.3304C94.6663 65.4822 98.7663 65.634 103.018 63.6608C108.181 61.2322 111.521 57.4376 113.495 55.009C115.318 52.7322 116.684 49.6965 118.051 44.8394C119.266 40.7412 119.873 35.2769 119.266 34.2144C119.266 34.2144 114.558 34.0626 111.218 38.7679C107.877 43.4733 101.955 50.0001 102.41 51.5179C102.714 53.0358 104.536 55.7679 104.081 56.9822C103.625 58.1965 92.5403 61.0804 92.5403 61.0804L89.9583 65.1787C89.6553 65.1787 91.3253 65.1787 91.9323 65.3304Z" fill="#D1CAB6"/>
<path d="M92.3893 61.9914C91.9333 61.9914 91.3263 61.6878 91.3263 61.0806C91.1743 60.4735 91.6303 59.8664 92.2373 59.7146C96.7933 58.8039 101.956 57.4378 103.474 56.8306C103.322 56.2235 102.563 54.8574 102.107 54.2503C101.804 53.6431 101.348 52.8842 101.196 52.4289C100.285 50.6074 102.259 48.0271 104.841 44.6878C105.296 44.2324 105.6 43.7771 105.752 43.4735C106.056 43.0181 106.359 42.7146 106.815 42.2592C110.156 38.0092 115.319 31.6342 119.874 32.6967C120.481 32.8485 120.937 33.4556 120.785 34.0628C120.633 34.6699 120.026 35.1253 119.419 34.9735C116.23 34.3664 111.219 40.4378 108.637 43.7771C108.333 44.2324 107.878 44.6878 107.574 44.9914C107.27 45.2949 106.967 45.7503 106.511 46.2056C105.6 47.2681 102.867 50.6074 103.17 51.5181C103.322 51.9735 103.626 52.5806 104.081 53.036C105.296 55.3128 106.359 57.1342 105.296 58.3485C103.93 59.5628 96.0333 61.2324 92.6933 61.9914C92.5413 61.8396 92.5413 61.9914 92.3893 61.9914Z" fill="black"/>
<path d="M25.5738 47.268C25.5738 47.268 10.5408 29.8126 7.04781 30.1162C-3.73319 30.8751 4.01081 51.518 6.74381 55.4644C8.86981 58.3483 14.7928 64.2679 19.8038 65.9376C24.6628 67.4555 32.2558 66.8483 32.2558 66.8483" fill="white"/>
<path d="M28.6118 68.0626C25.8788 68.0626 22.2338 67.9108 19.3488 67.0001C13.7308 65.1787 7.65683 58.8037 5.68283 56.0715C3.40483 52.7322 -1.91017 39.0715 1.12683 32.5447C2.18983 30.268 4.16383 29.0537 6.74483 28.9019C10.3898 28.5983 21.6268 41.0447 26.1828 46.509L24.5118 48.0269C17.5268 39.9822 8.87082 31.3305 6.89682 31.3305C5.07482 31.4822 3.85983 32.2412 3.10083 33.759C0.519828 39.0715 5.22683 51.8215 7.35283 55.009C9.32683 57.7412 15.0968 63.509 19.8048 65.0269C24.3598 66.393 31.8008 65.9376 31.8008 65.9376L31.9528 68.2144C32.2568 68.0626 30.7378 68.0626 28.6118 68.0626Z" fill="black"/>
<path d="M62.4738 80.5086C55.0328 80.8122 47.7438 79.9015 41.2148 75.6515C35.5958 72.0086 33.0148 68.5176 29.6738 61.5354C28.1558 58.1961 23.5998 40.7408 23.7518 34.9729C23.9038 29.2051 26.9408 12.2051 41.8218 5.83004C55.6408 -0.0896044 63.5368 1.27647 72.4958 2.94611C88.1368 5.98182 93.6038 17.8211 95.4258 22.9819C97.2478 28.2944 96.0328 46.2051 94.5148 53.9461C93.1478 61.0801 88.5928 66.8479 86.1628 70.0354C83.5818 73.5265 74.7738 80.0533 62.4738 80.5086Z" fill="white"/>
<path d="M60.0438 81.7229C52.1478 81.7229 45.9218 80.0533 40.6068 76.5622C34.5328 72.6158 31.7998 68.6693 28.6108 61.9908C27.0928 58.4997 22.3848 41.0444 22.5368 34.9729C22.6888 27.2319 26.9408 10.9908 41.3668 4.76756C55.6408 -1.30387 63.9928 0.213994 72.6478 1.88363C87.9848 4.91934 94.2108 16.1515 96.4888 22.6783C98.4628 28.4461 97.0958 46.8122 95.5778 54.2497C94.2108 61.3836 89.8068 66.9997 87.2258 70.4908L87.0738 70.7943C84.1888 74.7408 74.9258 81.2676 62.4738 81.7229C61.7148 81.7229 60.8038 81.7229 60.0438 81.7229ZM60.4998 2.64256C55.4888 2.64256 49.8698 3.70506 42.2778 6.89256C28.9148 12.5086 25.1188 27.839 24.8148 34.9729C24.6628 40.589 29.2188 57.8926 30.5848 61.0801C34.0778 68.3658 36.5068 71.4015 41.6698 74.7408C47.1368 78.2319 53.6668 79.7497 62.3218 79.4461C73.8628 78.9908 82.5188 73.0711 85.0998 69.4283L85.4038 69.1247C87.8328 65.9372 91.9328 60.4729 93.2998 53.7943C94.8188 45.9015 95.8808 28.2944 94.2108 23.4372C92.0848 17.3658 86.4668 6.89256 72.1928 4.16042C68.3958 3.40149 64.5998 2.64256 60.4998 2.64256Z" fill="black"/>
<path d="M49.1113 62.446C48.8073 61.6871 50.3263 61.08 51.9963 60.9282C55.1853 60.7764 66.2703 60.7764 69.3073 60.7764C70.9783 60.7764 71.5853 61.2317 71.5853 62.1425C71.5853 63.0532 67.7893 68.6693 63.3853 71.0978C60.8043 72.4639 58.5263 72.1603 56.7043 70.946C54.8823 69.7318 50.1743 66.0889 49.1113 62.446Z" fill="white"/>
<path d="M60.0431 73.071C58.3731 73.071 57.0061 72.4639 56.0951 71.8568C55.4881 71.4014 49.4141 67.3032 48.0471 62.7496C47.8951 62.2943 47.8951 61.8389 48.1991 61.3835C48.9581 60.1692 51.0841 59.8657 51.8431 59.8657C54.1211 59.7139 59.8921 59.7139 69.3061 59.7139C72.1921 59.7139 72.7991 61.08 72.7991 62.1425C72.7991 63.8121 68.3951 69.7318 63.9921 72.1603C62.4731 72.9193 61.2581 73.071 60.0431 73.071ZM50.3251 62.446C51.3881 65.33 55.1841 68.5175 57.3101 70.0353C58.9811 71.0978 60.8031 71.2496 62.7771 70.1871C66.7251 68.0621 70.0661 63.0532 70.3691 62.1425C70.3691 62.1425 70.0661 61.9907 69.1551 61.9907C59.7401 61.9907 53.9691 61.9907 51.8431 62.1425C51.2361 62.1425 50.6291 62.2943 50.3251 62.446Z" fill="black"/>
<path d="M29.5223 66.2407C26.7893 66.3925 22.6893 66.5443 18.4373 64.571C13.2743 62.1425 9.93328 58.3478 7.95928 55.9193C6.13728 53.6425 4.77029 50.6068 3.40429 45.7496C2.18929 41.6514 1.58228 36.1871 2.18928 35.1246C2.18928 35.1246 6.89628 34.9728 10.2373 39.6782C13.5783 44.3835 19.5003 50.9103 19.0443 52.4282C18.7413 53.946 16.9193 56.6782 17.3743 57.8925C17.8303 59.1067 28.9153 61.9907 28.9153 61.9907L31.4963 66.0889C31.6483 66.0889 30.1303 66.0889 29.5223 66.2407Z" fill="#D1CAB6"/>
<path d="M29.6748 62.7495H29.5228C26.0308 61.9906 17.6788 60.3209 16.4638 59.1066C15.2488 57.8923 16.3118 55.9191 17.5268 53.7941C17.8308 53.187 18.1338 52.5798 18.4378 52.1245C18.5898 51.2138 15.8568 47.8745 15.0968 46.812C14.6418 46.3566 14.3378 45.9013 14.0338 45.4459C13.7308 45.1423 13.4268 44.687 13.1228 44.2316C10.5418 40.8923 5.53078 34.6691 2.34178 35.4281C1.73378 35.5798 1.12677 35.1245 0.974775 34.5173C0.822775 33.9102 1.27877 33.3031 1.88577 33.1513C6.44177 32.2406 11.6048 38.6156 14.9448 42.7138C15.2488 43.1691 15.7048 43.6245 16.0078 43.9281C16.3118 44.2316 16.6158 44.687 17.0708 45.1423C19.6528 48.3298 21.6268 50.9102 20.7158 52.8834C20.5638 53.3388 20.1078 53.9459 19.8048 54.7048C19.3488 55.4638 18.5898 56.6781 18.4378 57.437C19.8048 58.0441 24.9678 59.2584 29.8268 60.1691C30.4338 60.3209 30.7378 61.5352 30.5858 62.1423C29.9788 62.9013 30.2818 62.7495 29.6748 62.7495Z" fill="black"/>
<path d="M44.8593 46.5089C48.8853 46.5089 52.1483 43.247 52.1483 39.2232C52.1483 35.1994 48.8853 31.9375 44.8593 31.9375C40.8343 31.9375 37.5703 35.1994 37.5703 39.2232C37.5703 43.247 40.8343 46.5089 44.8593 46.5089Z" fill="white"/>
<path d="M44.8585 47.5714C40.1515 47.5714 36.3555 43.7768 36.3555 39.2232C36.3555 34.5179 40.1515 30.875 44.8585 30.875C49.5665 30.875 53.2105 34.6696 53.2105 39.2232C53.3625 43.9286 49.5665 47.5714 44.8585 47.5714ZM44.8585 33.1518C41.5175 33.1518 38.6325 35.8839 38.6325 39.2232C38.6325 42.5625 41.3665 45.2946 44.8585 45.2946C48.1995 45.2946 50.9325 42.5625 50.9325 39.2232C50.9325 35.8839 48.1995 33.1518 44.8585 33.1518Z" fill="black"/>
<path d="M44.8598 43.3214C47.1248 43.3214 48.9598 41.4866 48.9598 39.2232C48.9598 36.9598 47.1248 35.125 44.8598 35.125C42.5958 35.125 40.7598 36.9598 40.7598 39.2232C40.7598 41.4866 42.5958 43.3214 44.8598 43.3214Z" fill="black"/>
<path d="M84.1897 8.86621C84.1897 8.86621 69.4598 21.768 66.5748 27.9913C63.5378 34.3663 62.4748 37.5538 63.5378 41.5002C64.6008 45.5984 67.4857 48.1787 69.7637 49.2412C72.0417 50.3037 75.2308 51.518 78.5708 50.9109C81.9118 50.4555 85.7077 48.027 88.1377 46.2055C90.7197 44.2323 95.2747 36.7948 95.2747 36.7948C95.2747 36.7948 95.7308 28.7502 94.6678 24.1966C94.0598 21.9198 91.7828 17.2145 89.3528 14.027C86.9228 10.5359 84.1897 8.86621 84.1897 8.86621Z" fill="#D1CAB6"/>
<path d="M77.3554 45.5978C81.3804 45.5978 84.6434 42.3359 84.6434 38.3121C84.6434 34.2883 81.3804 31.0264 77.3554 31.0264C73.3294 31.0264 70.0664 34.2883 70.0664 38.3121C70.0664 42.3359 73.3294 45.5978 77.3554 45.5978Z" fill="white"/>
<path d="M77.3559 46.8121C72.6479 46.8121 69.0039 43.0175 69.0039 38.3121C69.0039 33.6068 72.7999 29.9639 77.3559 29.9639C81.9109 29.9639 85.8589 33.7585 85.8589 38.3121C85.8589 43.0175 82.0629 46.8121 77.3559 46.8121ZM77.3559 32.2407C74.0149 32.2407 71.2819 34.9728 71.2819 38.3121C71.2819 41.6514 74.0149 44.5353 77.3559 44.5353C80.6959 44.5353 83.5819 41.8032 83.5819 38.3121C83.5819 34.9728 80.6959 32.2407 77.3559 32.2407Z" fill="black"/>
<path d="M77.3559 42.4103C79.6199 42.4103 81.4559 40.5755 81.4559 38.3121C81.4559 36.0487 79.6199 34.2139 77.3559 34.2139C75.0909 34.2139 73.2559 36.0487 73.2559 38.3121C73.2559 40.5755 75.0909 42.4103 77.3559 42.4103Z" fill="black"/>
<path d="M76.5958 52.5807C75.8368 52.5807 75.0778 52.5807 74.4698 52.4289C69.3068 51.6699 65.9668 48.4824 65.0558 47.4199C55.9438 37.2503 68.0928 22.5271 73.7108 16.7592C74.6218 15.8485 75.3808 14.9378 76.5958 13.8753C78.2668 12.3574 80.2408 10.3842 83.2778 7.04492L84.9478 8.56277C81.7588 11.9021 79.7848 13.8753 78.1148 15.3932C77.0518 16.4557 76.1408 17.3664 75.3808 18.2771C71.2808 22.5271 58.6778 36.9467 66.7258 45.9021C67.4848 46.661 70.3698 49.5449 74.7738 50.1521C79.0258 50.7592 83.2778 49.2414 87.2258 45.4467C88.1368 44.536 92.5408 39.2235 95.2738 35.8842L97.0958 37.2503C96.3368 38.161 90.1108 45.9021 88.7438 47.1164C84.3408 51.5182 79.9368 52.5807 76.5958 52.5807Z" fill="black"/>
</svg>
