<svg width="48" height="32" viewBox="0 0 48 32" fill="none" xmlns="http://www.w3.org/2000/svg">
<path d="M47.2002 14.6001C46.5002 11.7001 44.9002 8.50006 41.1002 5.10006C38.9002 3.10006 35.5002 1.90008 33.6002 1.50008C31.5002 1.00008 30.0002 1.70009 29.2002 3.70009C28.7002 4.90009 27.6002 12.3001 27.4002 12.9001C26.9002 14.0001 25.6002 14.4001 24.5002 14.4001C23.1002 14.5001 21.9002 14.0001 21.4002 12.9001C21.1002 12.3001 20.0002 4.80009 19.6002 3.70009C18.8002 1.70009 17.3002 1.00008 15.2002 1.50008C13.3002 1.90008 9.9002 3.10006 7.7002 5.10006C3.9002 8.50006 2.3002 11.7001 1.6002 14.6001C1.3002 15.7001 1.2002 16.3001 1.2002 18.2001C1.2002 22.2001 2.0002 23.6001 3.4002 25.0001C5.6002 27.4001 12.1002 30.6001 12.1002 30.6001C12.7002 29.4001 13.5002 28.0001 14.4002 26.8001C15.8002 24.7001 19.2002 19.7001 23.8002 19.4001H24.9002C29.5002 19.7001 32.9002 24.6001 34.3002 26.8001C35.1002 28.1001 36.0002 29.5001 36.6002 30.6001C36.6002 30.6001 43.1002 27.4001 45.3002 25.0001C46.7002 23.5001 47.5002 22.1001 47.5002 18.2001C47.6002 16.3001 47.5002 15.7001 47.2002 14.6001ZM18.1002 15.3001C17.5002 19.2001 14.2002 21.9001 10.7002 21.4001C7.2002 20.9001 4.9002 17.2001 5.5002 13.3001C6.1002 9.40007 9.50019 6.70009 12.9002 7.20009C16.3002 7.70009 18.7002 11.4001 18.1002 15.3001ZM38.1002 21.3001C34.6002 21.8001 31.3002 19.1001 30.7002 15.2001C30.1002 11.3001 32.4002 7.70006 35.9002 7.10006C39.4002 6.50006 42.7002 9.3001 43.3002 13.2001C43.9002 17.2001 41.6002 20.8001 38.1002 21.3001Z" fill="#41A5A2"/>
<path d="M36.4998 31.0999L36.2998 30.7C35.6998 29.5 34.7998 28.1 33.9998 26.9C32.8998 25.2 29.4998 20 24.8998 19.7H23.8998C19.3998 20 15.8998 25.2 14.7998 26.9C13.9998 28.1 13.1998 29.5 12.4998 30.7L12.2998 31.0999L11.9998 30.9C11.6998 30.8 5.3998 27.6999 3.0998 25.2999C1.5998 23.6999 0.799805 22.1 0.799805 18.2C0.799805 16.3 0.899799 15.5999 1.1998 14.5999C1.9998 11.0999 3.9998 7.89995 7.3998 4.79995C9.7998 2.59995 13.3998 1.39993 15.0998 1.09993C17.4998 0.599934 19.0998 1.49993 19.8998 3.59993C20.1998 4.29993 20.5998 6.79995 20.9998 9.29995C21.2998 10.8999 21.5998 12.6 21.6998 12.9C22.0998 13.9 23.3998 14.2 24.3998 14.2C24.8998 14.2 26.3998 14 26.8998 12.9C26.9998 12.7 27.2998 10.8999 27.5998 9.29995C27.9998 6.89995 28.4998 4.29993 28.6998 3.59993C29.4998 1.49993 31.1998 0.599934 33.4998 1.09993C35.1998 1.49993 38.7998 2.59995 41.1998 4.79995C44.5998 7.89995 46.5998 11.1 47.3998 14.5C47.5998 15.6 47.7998 16.2999 47.7998 18.0999C47.7998 21.9999 46.9998 23.6 45.4998 25.2C43.1998 27.6 36.8998 30.6999 36.5998 30.7999L36.4998 31.0999ZM16.2998 1.79995C15.9998 1.79995 15.5998 1.79998 15.1998 1.89998C13.0998 2.29998 9.8998 3.59998 7.8998 5.39998C4.5998 8.39998 2.6998 11.4 1.8998 14.7C1.6998 15.7 1.4998 16.4 1.4998 18.2C1.4998 22.2 2.3998 23.4999 3.5998 24.7999C5.4998 26.7999 10.4998 29.3999 11.8998 30.0999C12.4998 28.9999 13.2998 27.6999 13.9998 26.5999C15.1998 24.7999 18.7998 19.2999 23.7998 19.0999H24.8998C29.8998 19.3999 33.4998 24.8999 34.6998 26.5999C35.3998 27.6999 36.1998 28.9999 36.7998 30.0999C38.1998 29.3999 43.1998 26.7999 45.0998 24.7999C46.2998 23.4999 47.1998 22.3 47.1998 18.2C47.1998 16.4 47.0998 15.8 46.8998 14.7C46.1998 11.4 44.1998 8.39998 40.8998 5.39998C38.8998 3.59998 35.6998 2.29998 33.5998 1.89998C31.5998 1.49998 30.3998 2.09998 29.6998 3.89998C29.3998 4.49998 28.9998 7.19998 28.5998 9.39998C28.1998 11.6 27.9998 12.7999 27.8998 13.0999C27.3998 14.1999 26.2998 14.8 24.6998 14.9C22.9998 15 21.6998 14.2999 21.1998 13.0999C21.0998 12.7999 20.7998 11.5 20.4998 9.39998C20.1998 7.29998 19.5998 4.49998 19.3998 3.89998C18.5998 2.39998 17.6998 1.79995 16.2998 1.79995ZM37.1998 21.7999C35.6998 21.7999 34.2998 21.2999 33.0998 20.2999C31.5998 19.0999 30.5998 17.2999 30.2998 15.2999C29.9998 13.2999 30.3998 11.3 31.3998 9.69997C32.3998 8.09997 33.9998 6.99997 35.7998 6.69997C37.5998 6.39997 39.3998 6.89993 40.8998 8.09993C42.3998 9.29993 43.3998 11.0999 43.6998 13.0999C44.3998 17.1999 41.8998 21.0999 38.1998 21.5999C37.8998 21.7999 37.4998 21.7999 37.1998 21.7999ZM36.7998 7.49996C36.4998 7.49996 36.1998 7.49993 35.9998 7.59993C34.3998 7.89993 33.0998 8.79997 32.1998 10.2C31.2998 11.6 30.8998 13.4 31.1998 15.2C31.4998 17 32.3998 18.6 33.6998 19.7C34.9998 20.8 36.5998 21.2 38.1998 21C41.4998 20.5 43.5998 17.1 42.9998 13.4C42.6998 11.6 41.7998 9.99998 40.4998 8.89998C39.2998 7.99998 38.0998 7.49996 36.7998 7.49996ZM11.5998 21.7999C11.2998 21.7999 10.9998 21.8 10.5998 21.7C6.89981 21.1 4.3998 17.3 5.0998 13.2C5.3998 11.2 6.3998 9.39997 7.8998 8.19997C9.3998 6.99997 11.1998 6.49995 12.9998 6.79995C14.7998 7.09995 16.3998 8.09995 17.3998 9.79995C18.3998 11.3999 18.7998 13.4 18.4998 15.4C18.1998 17.4 17.1998 19.2 15.6998 20.4C14.4998 21.3 12.9998 21.7999 11.5998 21.7999ZM11.9998 7.49996C10.6998 7.49996 9.3998 7.99995 8.3998 8.79995C7.0998 9.89995 6.1998 11.4999 5.8998 13.2999C5.2998 16.9999 7.4998 20.4 10.6998 20.9C12.2998 21.2 13.8998 20.6999 15.1998 19.5999C16.4998 18.4999 17.3998 16.8999 17.6998 15.0999C17.9998 13.2999 17.5998 11.4999 16.6998 10.0999C15.7998 8.69993 14.3998 7.79996 12.7998 7.49996C12.5998 7.49996 12.2998 7.49996 11.9998 7.49996Z" fill="black"/>
</svg>
