<svg width="101" height="95" viewBox="0 0 101 95" fill="none" xmlns="http://www.w3.org/2000/svg">
<path d="M15.8324 57.2855C15.8324 57.2855 15.1504 43.9827 12.0114 39.0455C8.87235 34.1084 6.00535 29.3084 5.45935 27.6627C4.09535 23.4112 15.8323 19.0227 19.2453 21.7655C22.6573 24.5084 25.7964 30.1312 28.1164 30.8169C29.3454 31.2284 36.8514 28.2112 43.2664 27.5255C52.8204 26.4284 67.5614 29.1712 71.1094 31.6398C74.6584 34.1084 78.4803 25.7427 78.7533 24.7827C79.0263 23.8227 89.3994 26.1541 92.8114 27.9369C93.9034 28.4855 95.5414 29.9941 94.3124 32.0512C90.0814 38.3598 85.5774 44.9427 85.8504 49.4684C85.9874 50.8398 84.8953 54.9541 83.6663 54.8169C81.0733 54.4055 76.5693 48.0969 72.4743 46.7255C66.3323 44.6684 15.8324 57.2855 15.8324 57.2855Z" fill="white"/>
<path d="M77.1153 29.5827C77.1153 29.5827 77.7973 27.6627 76.8423 24.5084C75.7503 20.6684 73.0203 15.1827 73.1573 11.617C73.2933 5.03414 78.0703 2.56557 83.1203 3.79986C88.1703 5.03414 95.4043 8.05129 97.0423 13.9484C97.8613 16.6912 98.9533 20.6684 98.6803 23.8227C98.2703 27.3884 96.2233 30.6798 95.5413 31.5027C95.5413 31.5027 90.9003 27.3884 87.6243 27.6627C84.4853 27.937 77.1153 29.5827 77.1153 29.5827Z" fill="#D1CAB6"/>
<path d="M13.7853 61.811C13.7853 61.811 14.4683 45.0796 24.0223 37.9482C33.0303 31.091 39.9913 31.091 50.2273 31.2282C60.6003 31.3653 68.5163 32.8739 74.3853 38.3596C80.8003 44.3939 82.7113 49.0567 84.0763 53.7196C86.2593 60.7139 84.6223 67.9825 84.8953 70.9996C85.0313 73.0567 81.6193 79.5024 79.7083 80.4625C76.7053 81.971 68.2433 88.2796 56.3693 92.2567C54.0493 93.0796 50.2273 93.9024 48.1803 93.7653C42.4473 93.491 37.9433 90.4739 33.9853 88.2796C24.2953 82.931 14.8773 74.4282 14.1953 69.491C13.5123 65.3767 13.7853 61.811 13.7853 61.811Z" fill="#D1CAB6"/>
<g opacity="0.68">
<path d="M92.811 26.9774C92.811 26.9774 95.677 22.0403 94.858 17.5146C94.176 13.6746 91.583 9.01172 91.583 9.01172C91.583 9.01172 95.131 12.166 96.36 15.3203C97.724 18.886 97.861 22.0403 97.042 24.9203C96.223 27.6631 95.131 28.486 95.131 28.486C95.131 28.486 94.858 27.9374 94.312 27.6631C93.903 27.3889 92.811 26.9774 92.811 26.9774Z" fill="white"/>
</g>
<path d="M23.4757 27.663C23.4757 27.663 23.4757 25.1944 24.0217 22.5887C24.7037 18.6115 28.1157 13.5373 28.1157 9.97152C28.2527 3.3887 23.3387 1.19442 18.2887 2.15442C13.2387 3.11442 5.8687 5.85727 3.8217 11.7544C2.8657 14.4973 1.50069 18.4744 1.77369 21.6287C2.04669 25.1944 5.04969 28.8973 5.59569 29.7201C5.59569 29.7201 9.1447 25.1944 14.1947 25.6058C17.4697 25.8801 23.4757 27.663 23.4757 27.663Z" fill="#D1CAB6"/>
<path d="M86.1228 60.5767L84.3488 53.171C84.3488 53.0339 82.5738 45.6282 79.1618 40.4167C76.4318 36.1653 71.5188 32.8739 71.3818 32.8739L68.9258 31.3653L71.7918 30.9539C71.9278 30.9539 75.3408 30.4053 76.0228 27.5253C76.5688 25.1939 75.2038 22.1767 74.1118 19.4339C73.5658 18.1996 73.1568 17.1024 72.7468 16.0053C72.3378 14.3596 71.3818 9.97097 73.2928 6.54241C74.5218 4.62241 76.4318 3.38813 79.1618 2.9767C84.8948 1.87956 91.1728 4.75956 94.8578 8.32527C98.5428 11.891 99.7718 17.2396 100.181 20.1196C100.591 23.5482 100.181 26.9767 96.3588 32.4624C95.1308 34.2453 93.9028 35.891 92.8108 37.2624C90.6268 40.0053 88.9888 42.1996 88.0338 44.9424C86.6688 49.331 86.5318 52.8967 86.5318 52.8967L86.1228 60.5767ZM74.3848 32.4624C76.1588 33.8339 79.0258 36.3024 81.0728 39.3196C82.8468 42.0624 84.2118 45.3539 85.1678 47.9596C85.4408 46.8624 85.7128 45.6282 86.1228 44.3939C87.0778 41.2396 88.9888 38.771 91.1728 36.0282C92.2648 34.6567 93.4928 33.1482 94.7218 31.3653C98.5428 25.8796 98.5428 22.8624 98.2698 20.3939C97.8608 17.7882 96.7688 12.9882 93.4928 9.69667C90.0808 6.67956 84.4848 3.9367 79.4348 4.8967C77.3878 5.30813 75.8858 6.26813 75.0678 7.63956C73.4298 10.3824 74.3848 14.2224 74.7948 15.4567C75.0678 16.4167 75.6128 17.5139 76.0228 18.7482C77.2508 21.7653 78.7528 25.0567 78.0698 28.0739C77.5238 30.5424 75.8858 31.7767 74.3848 32.4624Z" fill="black"/>
<path d="M94.449 34.1081C94.312 34.1081 94.176 34.1081 94.176 34.1081C93.63 33.9709 93.357 33.2852 93.493 32.7366C93.766 31.7766 93.766 31.0909 93.357 30.4052C92.674 29.3081 90.491 28.6223 87.624 28.6223C83.393 28.4852 76.842 30.5423 76.705 30.5423C76.159 30.6795 75.614 30.4052 75.477 29.8566C75.341 29.3081 75.614 28.7595 76.159 28.6223C76.432 28.4852 83.12 26.5652 87.624 26.7023C90.218 26.8395 93.63 27.3881 94.995 29.4452C95.814 30.5423 95.95 31.9138 95.404 33.5595C95.268 33.9709 94.858 34.1081 94.449 34.1081Z" fill="black"/>
<path d="M72.7468 33.1484C72.6108 33.1484 72.4738 33.1484 72.3378 33.0112C66.0588 30.1312 58.4158 28.6227 50.2268 28.3484C42.1738 28.2112 34.6678 29.4455 28.5258 31.777C27.9798 31.9141 27.4338 31.777 27.1608 31.2284C26.8878 30.6798 27.1608 30.1312 27.7068 29.857C34.1218 27.3884 41.9008 26.2912 50.2268 26.4284C58.6888 26.7027 66.6048 28.3484 73.1568 31.3655C73.7028 31.6398 73.8388 32.1884 73.7028 32.737C73.5658 32.8741 73.1568 33.1484 72.7468 33.1484Z" fill="black"/>
<path d="M15.2873 50.7024L13.7853 52.0738C13.7853 52.0738 13.2393 46.7252 12.1473 42.4738C11.3283 39.5938 9.69128 37.3995 7.64328 34.5195C6.68828 33.1481 5.45927 31.5024 4.36827 29.5824C0.546268 23.5481 0.682267 20.1195 1.09227 17.1024C1.36527 15.3195 2.45728 9.42241 6.82428 5.44522C10.6463 2.15379 16.9243 -0.589064 22.7933 0.782363C25.3873 1.46808 27.2973 2.70236 28.3893 4.75951C30.1643 8.05093 29.2083 12.0281 28.3893 14.2224C27.9803 15.3195 27.4343 16.5538 26.8883 17.7881C25.6593 20.5309 24.2953 23.2738 24.7043 25.6052C25.2503 28.6224 28.6623 29.3081 28.7993 29.3081L31.9383 29.8566L29.2083 31.2281C29.2083 31.2281 23.8853 33.9709 21.0193 38.2224C16.6513 44.2566 15.2873 50.7024 15.2873 50.7024ZM19.5183 2.56522C15.2873 2.56522 11.0553 4.62236 8.32628 7.09093C5.18728 9.83381 3.68528 14.2224 3.13928 17.3766C2.73028 20.1195 2.73027 22.9995 6.14227 28.4852C7.37027 30.2681 8.46227 31.9138 9.41827 33.2852C11.4653 36.1652 13.3763 38.7709 14.1953 41.9252C14.4683 43.1595 14.7413 44.2566 14.8773 45.2166C15.8323 42.8852 17.1973 40.0052 19.2453 37.1252C21.2923 34.1081 24.2953 31.7766 26.2053 30.5424C24.8413 29.8566 23.2033 28.4852 22.6573 26.0166C22.1113 22.9995 23.6123 19.8452 24.9773 16.9652C25.5233 15.7309 26.0693 14.6338 26.4783 13.5366C27.2973 11.7538 28.1163 8.32522 26.7513 5.85665C25.9323 4.48522 24.5683 3.38808 22.5203 2.97665C21.4283 2.70236 20.4733 2.56522 19.5183 2.56522Z" fill="black"/>
<path d="M6.27808 31.6402C5.86908 31.6402 5.32308 31.3659 5.32308 30.8173C5.05008 29.5831 5.32308 28.4859 6.14208 27.3888C7.50708 25.6059 10.6461 24.5088 14.1951 24.5088C18.6991 24.5088 24.5681 26.7031 24.8411 26.7031C25.3861 26.8402 25.6591 27.5259 25.3861 28.0745C25.2501 28.6231 24.5681 28.8973 24.0221 28.6231C24.0221 28.6231 18.2891 26.4288 14.1951 26.4288C11.3281 26.4288 8.73508 27.2516 7.78008 28.4859C7.37008 29.0345 7.23408 29.4459 7.37008 30.1316C7.50708 30.6802 7.09707 31.2288 6.55107 31.3659C6.41507 31.5031 6.41508 31.6402 6.27808 31.6402Z" fill="black"/>
<g opacity="0.68">
<path d="M17.6074 24.0967C17.6074 24.0967 22.1114 18.4739 24.1584 12.9882C25.7964 8.87388 24.7044 5.44531 24.7044 5.44531C24.7044 5.44531 25.6604 6.13102 26.2054 7.6396C26.8884 9.1482 26.8884 11.4796 26.0694 13.3996C24.2954 17.5139 22.9304 19.7082 22.3844 21.2167C21.5654 23.2739 21.8384 25.331 21.8384 25.331C21.8384 25.331 20.4734 24.9196 20.0644 24.7825C19.3814 24.371 17.6074 24.0967 17.6074 24.0967Z" fill="white"/>
</g>
<path d="M72.0711 71.5891C77.9031 70.8388 81.956 64.932 81.123 58.3958C80.29 51.8597 74.887 47.1693 69.055 47.9196C63.223 48.6699 59.171 54.5767 60.004 61.1129C60.837 67.6491 66.2391 72.3394 72.0711 71.5891Z" fill="white"/>
<path d="M70.5638 72.5087C68.2428 72.5087 65.6498 71.6858 63.4658 69.7658C61.0098 67.5715 59.3718 64.5544 58.9618 61.1258C58.0068 53.9944 62.5108 47.5487 68.9258 46.7258C72.0648 46.3144 75.0678 47.2744 77.6608 49.4687C80.1178 51.6629 81.7548 54.6801 82.1648 58.1087C82.5738 61.5372 81.7547 64.8287 79.9807 67.5715C78.0697 70.3144 75.4768 71.8229 72.2008 72.3715C71.5188 72.5087 70.9728 72.5087 70.5638 72.5087ZM69.1988 48.9201C63.8758 49.6058 60.3268 54.9544 61.0098 60.9887C61.4188 63.8687 62.7838 66.4744 64.8308 68.2572C66.8778 70.0401 69.4718 70.8629 71.9278 70.4515C74.5218 70.1772 76.7048 68.6687 78.2068 66.4744C79.7078 64.1429 80.3908 61.2629 80.1178 58.3829C79.7078 55.5029 78.3428 52.8972 76.2958 51.1144C74.2488 49.4687 71.6548 48.6458 69.1988 48.9201Z" fill="black"/>
<path d="M71.8436 68.7324C76.1806 68.1745 79.1837 63.7026 78.5517 58.7441C77.9197 53.7857 73.8927 50.2183 69.5557 50.7762C65.2187 51.3341 62.2157 55.8061 62.8477 60.7645C63.4797 65.723 67.5066 69.2904 71.8436 68.7324Z" fill="white"/>
<path d="M71.3827 69.7662C70.6997 69.7662 69.4717 69.6291 68.9257 69.4919C65.3767 68.5319 62.3737 65.1034 61.8277 60.8519C61.5557 58.2462 62.1007 55.6405 63.4657 53.4462C64.9677 51.2519 67.0147 50.0176 69.3347 49.6062C74.2487 48.9205 78.7527 52.8976 79.4347 58.5205C79.9807 63.0462 77.9337 67.0234 74.5217 68.8062C73.7027 69.2176 73.0197 69.6291 71.3827 69.7662ZM69.7447 51.8005C67.9697 52.0748 66.3327 53.0348 65.2407 54.6805C64.1487 56.3262 63.6027 58.5205 63.8757 60.5776C64.4217 64.9662 67.9697 68.1205 71.7917 67.7091C75.6137 67.1605 78.2067 63.3205 77.6607 58.9319C76.9777 54.5434 73.4297 51.2519 69.7447 51.8005Z" fill="black"/>
<path d="M71.0139 63.8398C72.7339 63.6185 73.9259 61.8557 73.6769 59.9023C73.4279 57.949 71.8319 56.5448 70.1129 56.7661C68.3929 56.9873 67.2009 58.7502 67.4499 60.7035C67.6989 62.6569 69.2939 64.061 71.0139 63.8398Z" fill="#1A1A1A"/>
<path d="M70.4275 64.8288C69.7455 64.8288 69.1995 64.5545 68.5165 64.1431C67.4245 63.4573 66.6055 62.2231 66.4695 60.7145C66.1965 58.2459 67.6975 55.9145 70.0185 55.6402C72.3385 55.3659 74.3855 57.1488 74.7955 59.6173C74.9315 61.1259 74.3855 62.6345 73.4305 63.5945C73.1575 63.8688 72.4745 64.5545 71.6555 64.6916C71.2465 64.8288 70.8375 64.8288 70.4275 64.8288ZM70.2914 57.8345C69.1994 57.9716 68.3805 59.2059 68.5165 60.5773C68.6535 61.9488 69.7455 62.9088 70.9735 62.7716C72.0655 62.6345 72.8845 61.4002 72.7475 60.0288C72.4745 58.6573 71.3824 57.6973 70.2914 57.8345Z" fill="black"/>
<path d="M48.1803 94.7253C45.4503 94.7253 38.3533 92.531 31.6653 88.0053C30.0273 86.9082 28.5263 85.9482 26.8883 84.851C20.2003 80.5996 14.4683 76.8967 13.5123 71.411C12.4203 65.2396 12.9663 58.2453 13.3763 54.5425V53.9939C13.3763 53.4453 13.5123 52.6225 13.5123 51.7996C13.6493 50.4282 13.7853 48.9196 13.9223 47.1367L15.9693 47.2739C15.8323 49.0567 15.6963 50.5653 15.5593 51.9367C15.5593 52.7596 15.4233 53.5825 15.4233 54.131V54.6796C15.1503 58.3825 14.6043 65.1025 15.5593 70.9996C16.3783 75.6625 21.8383 79.091 28.1163 83.0682C29.7543 84.0282 31.2553 85.1253 32.8933 86.2225C39.4453 90.7482 46.1323 92.6682 48.3163 92.6682C51.0463 92.6682 57.7343 91.2967 64.1493 87.731C65.9233 86.771 67.5613 85.9482 69.1993 85.1253C75.8873 81.8339 81.7553 78.9539 82.9843 74.291C83.6663 72.0968 84.2123 62.4968 84.3493 48.9196H86.3963C86.2593 57.1482 85.9873 71.5482 85.0313 74.8396C83.5303 80.1882 77.2513 83.3425 70.1543 86.9082C68.5163 87.731 66.8783 88.5539 65.1043 89.5139C58.2803 93.2167 51.1823 94.7253 48.1803 94.7253Z" fill="black"/>
<path d="M49.1347 89.926C45.4497 89.926 38.4887 86.6346 28.2527 80.1889L28.1157 80.0517C27.5697 79.7774 27.2967 79.5032 26.8877 79.5032C26.6147 79.5032 26.0687 79.6403 24.7037 81.5603C24.4307 81.9717 23.7487 82.1089 23.3387 81.8346C22.9297 81.5603 22.7927 80.8746 23.0657 80.4632C24.2947 78.8174 25.3857 77.3089 27.2967 77.5832C28.1157 77.7203 28.6617 78.1317 29.3447 78.406L29.4807 78.5432C41.7647 86.3603 47.0877 88.006 49.2717 88.006C56.2317 88.006 66.8777 81.5603 70.0177 79.6403C70.6997 79.2289 71.5188 78.8174 72.3378 78.8174C73.9758 78.8174 74.9307 79.366 76.4317 82.6574C76.7047 83.206 76.4317 83.4803 75.8857 83.7546C75.3407 84.0289 74.7947 84.0289 74.5217 83.4803C73.2927 80.7374 73.0197 80.8746 72.4737 80.7374C72.0647 80.7374 71.6547 81.0117 71.1087 81.286C66.8777 83.7546 56.3687 89.926 49.1347 89.926Z" fill="black"/>
<path d="M42.0557 60.4372C42.8887 53.901 38.8357 47.9942 33.0037 47.2439C27.1717 46.4936 21.7687 51.184 20.9367 57.7201C20.1037 64.2563 24.1557 70.1631 29.9877 70.9134C35.8197 71.6637 41.2227 66.9734 42.0557 60.4372Z" fill="white"/>
<path d="M29.7544 71.686C26.4784 71.1374 23.8854 69.6289 21.9744 66.886C20.2004 64.1432 19.3814 60.8517 19.7914 57.4232C20.2004 53.9946 21.8384 50.9774 24.2954 48.7832C26.8884 46.5889 29.8914 45.6289 33.0304 46.0403C39.4454 46.8632 43.9494 53.3089 42.9934 60.4403C42.5844 63.8689 40.9464 66.886 38.4894 69.0803C36.3054 71.0003 33.7124 71.8232 31.3924 71.8232C31.1194 71.8232 30.4364 71.686 29.7544 71.686ZM32.7574 48.2346C30.3004 47.9603 27.7074 48.7832 25.6594 50.4289C23.6124 52.2117 22.2474 54.8174 21.8384 57.6974C21.5654 60.5774 22.2474 63.4574 23.7494 65.7889C25.2504 67.9832 27.4344 69.4917 30.0274 69.766C32.4844 70.1774 35.0774 69.3546 37.1244 67.5717C39.1724 65.7889 40.5364 63.1832 40.9464 60.3032C41.6284 54.2689 38.0804 48.9203 32.7574 48.2346Z" fill="black"/>
<path d="M39.2108 60.0868C39.8428 55.1283 36.8398 50.6564 32.5028 50.0985C28.1658 49.5406 24.1388 53.1079 23.5068 58.0664C22.8748 63.0249 25.8778 67.4968 30.2148 68.0547C34.5508 68.6126 38.5788 65.0453 39.2108 60.0868Z" fill="white"/>
<path d="M27.4343 67.9829C24.0223 66.2 21.9743 62.2229 22.5203 57.6972C23.2033 52.0743 27.7073 48.0972 32.6203 48.7829C34.9413 49.1943 36.9883 50.4286 38.4893 52.6229C39.8543 54.8172 40.4003 57.4229 40.1273 60.0286C39.5813 64.28 36.5783 67.7086 33.0303 68.6686C32.3473 68.8057 31.2553 69.08 30.5733 68.9429C28.9353 68.9429 28.2533 68.5314 27.4343 67.9829ZM32.2113 51.1143C28.5263 50.5657 24.9773 53.8572 24.2953 58.2457C23.7493 62.6343 26.3423 66.4743 30.1643 67.0229C33.9853 67.4343 37.5343 64.28 38.0803 59.8914C38.3533 57.8343 37.8073 55.64 36.7153 53.9943C35.6233 52.3486 33.9853 51.3886 32.2113 51.1143Z" fill="black"/>
<path d="M34.6095 60.0267C34.8585 58.0734 33.6665 56.3105 31.9465 56.0893C30.2265 55.8681 28.6305 57.2722 28.3825 59.2255C28.1335 61.1789 29.3255 62.9417 31.0455 63.163C32.7645 63.3842 34.3605 61.9801 34.6095 60.0267Z" fill="#1A1A1A"/>
<path d="M30.2996 64.006C29.6176 63.8689 28.9345 63.1832 28.5255 62.9089C27.5695 61.9489 27.0235 60.4403 27.1605 58.9317C27.5695 56.4632 29.6176 54.6803 31.9376 54.9546C34.2576 55.2289 35.7595 57.5603 35.4865 60.0289C35.3495 61.5375 34.5305 62.7717 33.4385 63.4575C32.7565 63.8689 32.2105 64.1432 31.5275 64.1432C31.2545 64.1432 30.7096 64.1432 30.2996 64.006ZM31.6645 57.1489C30.5725 57.0117 29.4805 57.9717 29.2075 59.3432C29.0715 60.7146 29.8905 61.9489 30.9825 62.086C32.2105 62.2232 33.3025 61.2632 33.4385 59.8917C33.5755 58.5203 32.7565 57.286 31.6645 57.1489Z" fill="black"/>
</svg>
