<svg width="79" height="74" viewBox="0 0 79 74" fill="none" xmlns="http://www.w3.org/2000/svg">
<path d="M11.0004 34.0002C10.2004 31.3002 7.20044 26.8002 4.60044 24.4002C2.00044 22.0002 8.10044 14.9002 11.3004 14.8002C13.4004 14.7002 16.7004 20.2002 20.5004 23.0002C22.5004 24.5002 23.3004 23.3002 24.5004 23.2002C26.1004 23.0002 30.1004 21.7002 35.2004 21.2002C40.8004 20.7002 51.3004 21.7002 53.9004 23.0002C59.0004 25.4002 60.2004 22.6002 60.9004 20.0002C61.5004 17.4002 74.4004 18.3002 75.2004 22.1002C75.6004 23.8002 69.1004 31.3002 68.2004 37.3002C67.2004 43.2002 54.3004 30.5002 39.6004 31.6002C24.9004 32.7002 13.9004 37.3002 12.8004 39.9002C11.6004 42.4002 11.5004 35.5002 11.0004 34.0002Z" fill="white"/>
<path d="M60.9004 22.0996C60.9004 22.0996 61.4004 20.5996 60.6004 18.0996C59.6004 15.0996 57.4004 10.8996 57.4004 8.09959C57.4004 2.89959 61.1004 0.899576 65.1004 1.69958C69.1004 2.49958 74.9004 4.79957 76.3004 9.39957C77.0004 11.5996 78.0004 14.6996 77.8004 17.0996C77.5004 19.8996 76.0004 22.4996 75.5004 23.1996C75.5004 23.1996 71.7004 20.0996 69.2004 20.3996C66.6004 20.5996 60.9004 22.0996 60.9004 22.0996Z" fill="#41A5A2"/>
<path d="M11.6996 48.8002C11.6996 48.8002 11.8996 35.6002 19.1996 29.8002C26.1996 24.2002 31.5996 24.0002 39.6996 23.9002C47.8996 23.8002 54.1996 24.8002 58.8996 28.9002C64.0996 33.5002 65.6996 37.1002 66.8996 40.8002C68.6996 46.2002 67.7996 51.5002 66.9996 53.6002C66.4996 54.9002 61.1996 57.4002 59.6996 58.2002C55.3996 60.5002 37.2996 62.0002 28.6996 60.4002C20.0996 58.7002 14.0996 57.4002 12.5996 54.5002C11.0996 51.7002 11.6996 48.8002 11.6996 48.8002Z" fill="#EDEFEF"/>
<path opacity="0.68" d="M73.2004 19.6996C73.2004 19.6996 75.3004 15.6996 74.6004 12.1996C74.0004 9.1996 71.9004 5.59961 71.9004 5.59961C71.9004 5.59961 74.7004 7.9996 75.8004 10.3996C77.0004 13.1996 77.2004 15.5996 76.5004 17.8996C75.9004 19.9996 75.0004 20.7996 75.0004 20.7996C75.0004 20.7996 74.7004 20.3996 74.4004 20.1996C74.1004 20.0996 73.2004 19.6996 73.2004 19.6996Z" fill="white"/>
<path d="M18.4998 21.8C18.4998 21.8 18.4998 19.8 18.7998 17.8C19.2998 14.7 21.7998 10.6 21.7998 7.80003C21.7998 2.60003 17.8998 1.00002 13.8998 1.90002C9.8998 2.80002 4.0998 5.20003 2.6998 9.80003C1.9998 11.9 0.999805 15 1.2998 17.5C1.5998 20.3 3.9998 23.1 4.4998 23.7C4.4998 23.7 7.1998 20.1 11.1998 20.3C13.7998 20.5 18.4998 21.8 18.4998 21.8Z" fill="#41A5A2"/>
<path d="M12.0002 52.3996C12.0002 52.3996 17.8002 55.6996 21.8002 55.3996C24.1002 55.1996 29.7002 52.5996 31.6002 49.5996C33.5002 46.6996 32.7002 45.2996 34.9002 42.6996C37.1002 39.9996 39.7002 40.1996 41.5002 40.1996C43.3002 40.1996 45.6002 40.3996 47.1002 42.7996C48.6002 45.1996 48.9002 50.3996 51.7002 51.9996C53.5002 52.9996 57.4002 55.0996 60.4002 54.5996C63.4002 54.1996 67.0002 52.7996 67.0002 52.7996C67.0002 52.7996 68.4002 56.0996 66.7002 58.6996C65.1002 61.2996 59.5002 64.7996 55.8002 66.7996C52.0002 68.7996 45.9002 72.0996 40.1002 72.4996C34.3002 72.8996 26.9002 68.1996 25.0002 67.1996C23.1002 66.1996 15.6002 60.9996 13.7002 58.2996C11.8002 55.6996 12.0002 52.3996 12.0002 52.3996Z" fill="#427C78"/>
<path d="M40.4002 73.6C40.1002 73.6 39.7002 73.6 39.5002 73.7C37.4002 73.7 31.7002 72.2 26.4002 68.8C25.1002 68 23.8002 67.2 22.5002 66.4C17.2002 63.2 12.6002 60.5 11.7002 56.2C10.7002 51.6 11.0002 46.2 11.1002 43.3V42.6C11.1002 41.9 11.2002 40.9 11.3002 39.7C11.3002 38.9 11.4002 38.1 11.5002 37.2L12.8002 37.3C12.8002 38.2 12.7002 39.1 12.6002 39.8C12.5002 40.9 12.5002 41.9 12.4002 42.6V43.3C12.3002 46.1 12.0002 51.4 12.9002 55.9C13.7002 59.6 18.0002 62.2 23.1002 65.2C24.4002 66 25.7002 66.7 27.0002 67.6C32.3002 71 37.7002 72.4 39.4002 72.3C41.2002 72.3 46.7002 71.2 52.0002 68.1C53.3002 67.3 54.7002 66.6 56.0002 65.9C61.2002 63.1 65.7002 60.7 66.6002 57C67.1002 55.1 67.3002 47.2 67.1002 37H68.4002C68.6002 45.2 68.5002 54.9 67.9002 57.4C66.8002 61.6 62.1002 64.1 56.6002 67.1C55.3002 67.8 54.0002 68.5 52.6002 69.3C48.0002 72.1 43.0002 73.3 40.4002 73.6Z" fill="black"/>
<path d="M67.7998 52.6997C66.5998 53.1997 65.0998 53.7997 63.3998 54.1997C59.3998 55.0997 53.1998 54.1997 50.5998 50.6997C48.2998 47.6997 49.0998 40.2997 41.3998 40.0997C32.8998 39.9997 33.7998 47.1997 31.2998 49.9997C28.3998 53.2997 22.1998 56.0997 18.2998 54.7997C15.7998 53.9997 13.0998 52.2997 11.7998 51.4997" stroke="black" stroke-width="2" stroke-miterlimit="10"/>
<path d="M68.6 44.7003L67.4 40.3003C67.4 40.2003 65.8 34.4003 63 30.4003C60.7 27.2003 56.6 24.7003 56.6 24.7003L55 23.8003L56.8 23.5003C56.9 23.5003 59.7 23.0003 60.2 20.5003C60.5 18.6003 59.5 16.4003 58.6 14.3003C58.1 13.3003 57.7 12.4003 57.4 11.5003C56.9 9.80033 56.2 6.70033 57.6 4.20033C58.4 2.70033 59.9 1.70033 61.9 1.30033C66.7 0.200334 71.6 2.70034 74.3 5.10034C77.4 7.90034 78.4 12.0003 78.7 14.2003C79.1 17.0003 78.8 19.5003 76 23.8003C75 25.3003 74.1 26.5003 73.3 27.6003C71.6 29.8003 70.3 31.6003 69.7 33.8003C68.8 37.2003 68.7 40.1003 68.7 40.2003L68.6 44.7003ZM58.4 24.3003C59.9 25.3003 62.3 27.2003 64 29.6003C65.6 32.0003 66.9 34.8003 67.6 36.9003C67.8 35.9003 68 34.7003 68.3 33.4003C69 30.9003 70.4 29.0003 72.1 26.7003C72.9 25.6003 73.8 24.4003 74.8 23.0003C77.6 18.6003 77.6 16.3003 77.3 14.3003C77 12.3003 76.1 8.50033 73.3 6.00033C70.6 3.60033 66.1 1.50033 62.1 2.50033C60.4 2.90033 59.3 3.70033 58.6 4.80033C57.5 6.80033 58.1 9.60034 58.5 11.1003C58.8 11.9003 59.2 12.8003 59.6 13.8003C60.6 16.0003 61.7 18.5003 61.3 20.8003C61.1 22.8003 59.6 23.8003 58.4 24.3003Z" fill="black"/>
<path d="M74.7004 25.2002C74.6004 25.2002 74.5004 25.2002 74.4004 25.2002C74.0004 25.0002 73.8004 24.7002 74.0004 24.3002C74.3004 23.5002 74.2004 22.9002 73.9004 22.4002C73.3004 21.5002 71.5004 21.0002 69.2004 21.0002C65.9004 21.0002 60.7004 22.7002 60.6004 22.7002C60.3004 22.8002 59.9004 22.6002 59.8004 22.3002C59.7004 22.0002 59.9004 21.6002 60.2004 21.5002C60.4004 21.4002 65.7004 19.7002 69.2004 19.7002C71.2004 19.7002 73.8004 20.0002 75.0004 21.6002C75.6004 22.4002 75.7004 23.5002 75.3004 24.7002C75.1004 25.0002 74.9004 25.2002 74.7004 25.2002Z" fill="black"/>
<path d="M57.5 24.7998C57.4 24.7998 57.3 24.7998 57.2 24.7998C52.3 22.6998 46 21.5998 39.6 21.5998C33.3 21.5998 27.4 22.6998 22.5 24.7998C22.2 24.8998 21.8 24.7998 21.6 24.4998C21.4 24.1998 21.6 23.7998 21.9 23.5998C27 21.4998 33.1 20.3998 39.5 20.2998C46.1 20.2998 52.5 21.3998 57.6 23.5998C57.9 23.6998 58.1 24.0998 57.9 24.4998C57.9 24.6998 57.7 24.7998 57.5 24.7998Z" fill="black"/>
<path d="M11.3003 46.3996L11.1003 39.9996C11.1003 39.9996 11.0003 37.0996 10.0003 33.5996C9.40031 31.2996 8.00031 29.5996 6.40031 27.3996C5.60031 26.2996 4.60032 25.0996 3.60032 23.5996C0.800319 19.2996 0.400316 16.7996 0.800316 13.9996C1.10032 11.7996 2.00032 7.6996 5.10032 4.8996C7.80032 2.3996 12.6003 -0.100401 17.4003 0.899599C19.4003 1.3996 20.9003 2.29961 21.8003 3.79961C23.2003 6.19961 22.6003 9.39961 22.1003 11.0996C21.8003 11.9996 21.4003 12.9996 20.9003 13.9996C20.0003 16.0996 19.0003 18.3996 19.4003 20.1996C19.9003 22.6996 22.7003 23.0996 22.8003 23.0996L24.7003 23.3996L23.0003 24.3996C23.0003 24.3996 18.9003 26.6996 16.6003 30.1996C13.3003 34.9996 12.5003 40.0996 12.4003 40.0996L11.3003 46.3996ZM14.1003 2.09961C11.1003 2.39961 8.00031 3.9996 6.00031 5.8996C3.20031 8.3996 2.40032 12.1996 2.10032 14.2996C1.80032 16.3996 1.80031 18.6996 4.70031 22.9996C5.60031 24.3996 6.60031 25.5996 7.40031 26.6996C9.10031 28.8996 10.6003 30.7996 11.3003 33.2996C11.6003 34.4996 11.8003 35.4996 12.0003 36.4996C12.7003 34.4996 13.7003 31.9996 15.5003 29.3996C17.2003 26.8996 19.6003 24.9996 21.1003 23.9996C19.9003 23.4996 18.5003 22.4996 18.1003 20.3996C17.7003 18.0996 18.8003 15.5996 19.7003 13.3996C20.1003 12.3996 20.5003 11.4996 20.8003 10.6996C21.3003 9.1996 21.8003 6.3996 20.7003 4.3996C20.0003 3.2996 18.8003 2.49961 17.2003 2.09961C16.2003 1.99961 15.2003 1.99961 14.1003 2.09961Z" fill="black"/>
<path d="M5.10021 24.9996C4.80021 24.9996 4.50019 24.7996 4.40019 24.4996C4.20019 23.5996 4.4002 22.6996 5.0002 21.8996C6.1002 20.4996 8.4002 19.6996 11.0002 19.5996C14.5002 19.5996 19.2002 21.0996 19.4002 21.1996C19.7002 21.2996 19.9002 21.6996 19.8002 21.9996C19.7002 22.2996 19.3002 22.4996 19.0002 22.3996C19.0002 22.3996 14.3002 20.8996 11.1002 20.8996C8.90021 20.8996 6.90021 21.5996 6.10021 22.6996C5.70021 23.1996 5.60021 23.5996 5.60021 24.1996C5.70021 24.5996 5.50021 24.8996 5.10021 24.9996Z" fill="black"/>
<path opacity="0.68" d="M13.7998 19.1002C13.7998 19.1002 17.2998 14.5002 18.7998 10.2002C19.9998 6.9002 19.0998 4.2002 19.0998 4.2002C19.0998 4.2002 19.7998 4.70019 20.3998 5.90019C20.8998 7.10019 20.9998 8.90019 20.3998 10.4002C18.9998 13.7002 18.0998 15.5002 17.6998 16.6002C17.0998 18.2002 17.2998 19.8002 17.2998 19.8002C17.2998 19.8002 16.1998 19.5002 15.8998 19.4002C15.2998 19.3002 13.7998 19.1002 13.7998 19.1002Z" fill="white"/>
<path d="M44.4001 43.8998C44.4001 45.0998 44.4001 46.5998 44.5001 48.4998C44.6001 50.7998 50.0001 56.8998 53.8001 60.5998C55.2001 61.8998 55.8001 64.3998 56.4001 66.5998C56.4001 66.5998 64.4001 62.5998 66.5001 58.9998C68.2001 55.9998 68.0001 50.3998 67.9001 44.6998C67.8001 39.5998 66.5001 36.2998 66.5001 36.2998C63.4001 34.0998 61.9001 33.0998 59.7001 32.2998C57.5001 31.4998 50.3001 28.8998 47.8001 30.9998C46.3001 32.2998 45.6001 33.9998 45.2001 35.7998C45.2001 35.7998 44.5001 37.4998 41.1001 37.4998C37.7001 37.4998 37.1001 35.6998 37.1001 35.6998C36.7001 33.5998 36.0001 31.6998 34.3001 30.1998C31.8001 28.0998 24.6001 30.5998 22.4001 31.5998C18.9001 33.1998 15.6001 35.9998 11.6001 40.9998C11.6001 40.9998 10.5001 53.5998 12.1001 56.5998C15.3001 62.4998 25.3001 67.2998 25.3001 67.2998C25.3001 67.2998 25.2001 62.5998 26.4001 61.1998C30.3001 56.7998 37.6001 51.0998 37.9001 47.5998C38.0001 45.9998 38.0001 44.7998 38.0001 43.6998C38.0001 43.6998 37.5001 41.6998 41.2001 41.6998C43.7001 41.8998 44.4001 43.8998 44.4001 43.8998Z" fill="#41A5A2"/>
<path d="M56.1003 67.3999L55.8003 66.2999C55.2003 64.1999 54.6003 62.0999 53.5003 60.9999C49.9003 57.5999 44.1003 51.0999 44.0003 48.4999V47.6999C43.9003 46.1999 43.9003 45.0999 43.9003 43.9999C43.7003 43.5999 43.1003 42.4999 41.4003 42.4999C39.8003 42.4999 39.2003 42.8999 39.0003 43.1999C38.9003 43.3999 38.9003 43.6999 38.9003 43.6999V43.7999V43.8999C38.9003 45.0999 38.9003 46.3999 38.8003 47.8999C38.6003 50.5999 35.1003 53.8999 31.4003 57.4999C29.9003 58.9999 28.3003 60.4999 27.1003 61.8999C26.3003 62.7999 26.1003 65.8999 26.1003 67.5999V68.5999L25.1003 68.0999C24.7003 67.8999 14.9003 63.1999 11.6003 57.1999C10.0003 54.0999 11.0003 42.5999 11.1003 41.1999V40.9999L11.2003 40.7999C15.1003 35.9999 18.5003 32.9999 22.3003 31.2999C24.2003 30.3999 32.0003 27.4999 34.9003 29.9999C36.9003 31.6999 37.5003 33.9999 37.9003 35.7999C38.0003 35.9999 38.7003 37.0999 41.3003 37.0999C43.9003 37.0999 44.6003 35.9999 44.8003 35.7999C45.3003 33.4999 46.2003 31.8999 47.6003 30.6999C49.4003 29.0999 53.7003 29.4999 60.1003 31.8999C62.3003 32.6999 64.0003 33.7999 67.0003 35.9999L67.2003 36.0999L67.3003 36.2999C67.4003 36.3999 68.6003 39.7999 68.8003 44.8999V45.2999C69.0003 50.9999 69.1003 56.4999 67.3003 59.4999C65.1003 63.1999 57.2003 66.7999 56.9003 66.9999L56.1003 67.3999ZM40.4003 41.2999C40.7003 41.2999 41.0003 41.2999 41.3003 41.2999C44.2003 41.2999 45.1003 43.3999 45.1003 43.4999V43.8999V43.9999C45.1003 44.9999 45.1003 46.1999 45.2003 47.6999V48.4999C45.3003 50.2999 50.0003 55.9999 54.3003 60.0999C55.7003 61.3999 56.3003 63.4999 56.9003 65.6999C58.9003 64.5999 64.4003 61.4999 66.0003 58.6999C67.6003 55.9999 67.4003 50.4999 67.3003 45.1999V44.7999C67.2003 40.5999 66.3003 37.4999 66.0003 36.7999C63.2003 34.7999 61.6003 33.7999 59.6003 32.9999C51.7003 30.0999 49.2003 30.8999 48.4003 31.5999C47.2003 32.5999 46.5003 33.9999 46.0003 36.0999V36.1999C46.0003 36.2999 45.0003 38.2999 41.3003 38.2999C37.5003 38.2999 36.7003 36.1999 36.7003 36.0999V35.9999C36.3003 33.5999 35.5003 31.9999 34.2003 30.8999C32.2003 29.1999 25.5003 31.2999 23.0003 32.3999C19.4003 34.0999 16.2003 36.7999 12.5003 41.3999C12.2003 44.9999 11.7003 54.1999 12.9003 56.3999C15.4003 60.9999 22.3003 64.9999 24.8003 66.3999C24.8003 64.7999 25.1003 62.0999 26.1003 60.8999C27.3003 59.4999 28.9003 57.8999 30.5003 56.3999C33.7003 53.2999 37.3003 49.7999 37.4003 47.6999C37.5003 46.2999 37.5003 44.9999 37.5003 43.8999C37.5003 43.5999 37.4003 42.9999 37.9003 42.3999C38.3003 41.7999 39.2003 41.3999 40.4003 41.2999Z" fill="black"/>
<path d="M33.6171 47.5324C34.5881 42.4324 31.6821 37.5944 27.1251 36.7264C22.5681 35.8574 18.0861 39.2874 17.1141 44.3874C16.1421 49.4864 19.0481 54.3244 23.6061 55.1934C28.1631 56.0614 32.6451 52.6314 33.6171 47.5324Z" fill="white"/>
<path d="M25.9003 55.8997C25.1003 55.9997 24.3003 55.8998 23.5003 55.7998C21.1003 55.2998 19.1003 53.8997 17.8003 51.6997C16.5003 49.4997 16.0003 46.8998 16.5003 44.2998C17.5003 38.8998 22.4003 35.1998 27.2003 36.0998C29.6003 36.5998 31.6003 37.9997 32.9003 40.1997C34.2003 42.3997 34.7003 44.9998 34.2003 47.5998C33.7003 50.1998 32.3003 52.4998 30.3003 54.0998C29.0003 55.1998 27.5003 55.7997 25.9003 55.8997ZM25.0003 37.2998C21.6003 37.6998 18.5003 40.5998 17.8003 44.4998C17.4003 46.7998 17.8003 49.0998 18.9003 50.9998C20.0003 52.8998 21.7003 54.0998 23.8003 54.4998C25.8003 54.8998 27.9003 54.3998 29.6003 52.9998C31.4003 51.6998 32.6003 49.5998 33.0003 47.2998C33.4003 44.9998 33.0003 42.6998 31.9003 40.7998C30.7003 38.9998 29.0003 37.7997 27.0003 37.3997C26.3003 37.2997 25.7003 37.1998 25.0003 37.2998Z" fill="black"/>
<path d="M31.7301 47.2382C32.4751 43.3322 30.2631 39.6292 26.7911 38.9682C23.3191 38.3062 19.9011 40.9362 19.1571 44.8422C18.4121 48.7482 20.6231 52.4512 24.0961 53.1132C27.5681 53.7752 30.9861 51.1442 31.7301 47.2382Z" fill="white"/>
<path d="M25.8998 53.8003C25.2998 53.9003 24.5998 53.8003 23.9998 53.7003C20.1998 53.0003 17.6998 48.9003 18.4998 44.7003C18.8998 42.7003 19.9998 40.9003 21.4998 39.7003C23.0998 38.5003 24.9998 38.0003 26.7998 38.4003C28.6998 38.8003 30.2998 39.9003 31.2998 41.6003C32.2998 43.3003 32.6998 45.4003 32.2998 47.4003C31.8998 49.4003 30.7998 51.2003 29.2998 52.4003C28.2998 53.2003 27.0998 53.7003 25.8998 53.8003ZM25.1998 39.6003C24.1998 39.7003 23.1998 40.1003 22.3998 40.8003C21.0998 41.8003 20.1998 43.3003 19.8998 45.0003C19.1998 48.5003 21.1998 51.9003 24.2998 52.5003C25.7998 52.8003 27.2998 52.4003 28.5998 51.4003C29.8998 50.4003 30.7998 48.9003 31.0998 47.2003C31.3998 45.5003 31.0998 43.7003 30.2998 42.3003C29.4998 40.9003 28.1998 40.0003 26.6998 39.7003C26.1998 39.5003 25.6998 39.5003 25.1998 39.6003Z" fill="black"/>
<path d="M28.0421 46.2522C28.2161 44.7152 27.2461 43.3432 25.8741 43.1872C24.5021 43.0322 23.2481 44.1512 23.0741 45.6872C22.8991 47.2242 23.8701 48.5962 25.2421 48.7522C26.6131 48.9082 27.8671 47.7882 28.0421 46.2522Z" fill="#1A1A1A"/>
<path d="M25.8003 49.4004C25.6003 49.4004 25.4003 49.4004 25.2003 49.4004C23.5003 49.2004 22.2003 47.5004 22.5003 45.6004C22.6003 44.7004 23.0003 43.9004 23.7003 43.3004C24.4003 42.7004 25.2003 42.4004 26.1003 42.5004C27.8003 42.7004 29.1003 44.4004 28.8003 46.3004C28.5003 48.0004 27.2003 49.3004 25.8003 49.4004ZM25.4003 43.9004C25.0003 43.9004 24.7003 44.1004 24.4003 44.4004C24.0003 44.8004 23.7003 45.3004 23.7003 45.9004C23.6003 47.1004 24.3003 48.1004 25.3003 48.2004C26.3003 48.3004 27.2003 47.4004 27.4003 46.3004C27.5003 45.1004 26.8003 44.1004 25.8003 44.0004C25.7003 43.8004 25.6003 43.8004 25.4003 43.9004Z" fill="black"/>
<path d="M57.8528 55.1843C62.4358 54.4653 65.4998 49.7253 64.6958 44.5973C63.8918 39.4683 59.5238 35.8933 54.9408 36.6113C50.3578 37.3303 47.2948 42.0703 48.0988 47.1993C48.9028 52.3283 53.2698 55.9033 57.8528 55.1843Z" fill="white"/>
<path d="M57.2004 55.8997C55.0004 55.9997 53.0004 55.2997 51.2004 53.8997C49.2004 52.2997 47.9004 49.9997 47.5004 47.2997C46.7004 41.8997 50.0004 36.7997 54.9004 35.9997C59.8004 35.1997 64.5004 39.0997 65.4004 44.4997C66.3004 49.8997 63.1004 54.8997 58.3004 55.6997C58.3004 55.6997 58.1004 55.7997 57.8004 55.7997C57.6004 55.8997 57.3004 55.8997 57.2004 55.8997ZM55.4004 37.2997C55.3004 37.2997 55.2004 37.2997 55.0004 37.2997C50.8004 37.9997 48.0004 42.3997 48.7004 47.0997C49.1004 49.3997 50.2004 51.4997 51.9004 52.8997C53.6004 54.2997 55.6004 54.8997 57.7004 54.5997C61.9004 53.8997 64.7004 49.4997 64.0004 44.7997C63.3004 40.0997 59.5004 36.7997 55.4004 37.2997Z" fill="black"/>
<path d="M57.5994 53.0144C61.0364 52.4754 63.3314 48.8974 62.7234 45.0244C62.1164 41.1504 58.8374 38.4464 55.4004 38.9854C51.9624 39.5244 49.6684 43.1024 50.2764 46.9754C50.8834 50.8494 54.1624 53.5534 57.5994 53.0144Z" fill="white"/>
<path d="M56.5004 53.6003C53.1004 53.5003 50.2004 50.8003 49.6004 47.0003C49.3004 45.0003 49.7004 43.0003 50.7004 41.3003C51.8004 39.6003 53.4004 38.6003 55.2004 38.3003C59.0004 37.7003 62.6004 40.6003 63.3004 44.8003C63.6004 46.8003 63.2004 48.8003 62.2004 50.5003C61.2004 52.0003 59.9004 53.0003 58.3004 53.4003C58.2004 53.4003 57.9004 53.5003 57.5004 53.6003C57.1004 53.6003 56.6004 53.6003 56.5004 53.6003ZM55.7004 39.6003C55.6004 39.6003 55.5004 39.6003 55.4004 39.6003C53.9004 39.8003 52.6004 40.7003 51.8004 42.0003C50.9004 43.4003 50.6004 45.1003 50.8004 46.8003C51.3004 50.3003 54.3004 52.7003 57.4004 52.3003C58.9004 52.1003 60.2004 51.2003 61.0004 49.9003C61.9004 48.5003 62.2004 46.8003 62.0004 45.1003C61.5004 41.7003 58.7004 39.3003 55.7004 39.6003Z" fill="black"/>
<path d="M56.8327 49.1648C58.1967 48.9508 59.1077 47.5388 58.8687 46.0118C58.6287 44.4838 57.3287 43.4188 55.9647 43.6328C54.6007 43.8468 53.6897 45.2588 53.9287 46.7858C54.1687 48.3138 55.4687 49.3788 56.8327 49.1648Z" fill="#1A1A1A"/>
<path d="M56.8002 49.8001C55.1002 50.0001 53.6002 48.7001 53.3002 46.9001C53.0002 45.0001 54.1002 43.2001 55.8002 43.0001C57.5002 42.7001 59.1002 44.0001 59.4002 45.9001C59.7002 47.8001 58.5002 49.5001 56.8002 49.8001ZM56.1002 44.2001C55.0002 44.4001 54.4002 45.5001 54.5002 46.6001C54.7002 47.8001 55.6002 48.6001 56.6002 48.4001C57.6002 48.2001 58.3002 47.2001 58.1002 46.0001C58.0002 45.0001 57.1002 44.2001 56.1002 44.2001Z" fill="black"/>
</svg>
