<svg width="43" height="39" viewBox="0 0 43 39" fill="none" xmlns="http://www.w3.org/2000/svg">
<path d="M42.2996 21.2997C42.1996 18.6997 41.9996 18.1997 41.9996 18.1997C39.7996 15.6997 37.7996 13.4997 34.6996 11.6997C32.1996 10.1997 26.8996 8.69966 21.7996 8.79966C16.6996 8.79966 11.3996 10.1997 8.8996 11.6997C5.7996 13.5997 3.79961 15.6997 1.59961 18.1997C1.59961 18.1997 1.29961 18.6997 1.29961 21.2997C1.19961 25.5997 1.09961 30.8996 2.29961 33.0996C3.79961 35.7996 9.59961 38.2997 9.59961 38.2997C10.0996 36.5997 10.7996 34.8997 11.7996 33.3997C12.8996 31.7997 16.5996 26.9997 20.7996 26.8997H22.6996C26.8996 26.8997 30.6996 31.6997 31.6996 33.3997C32.6996 34.8997 33.3996 36.5997 33.8996 38.2997C33.8996 38.2997 39.5996 35.7996 41.1996 33.0996C42.5996 30.8996 42.4996 25.4997 42.2996 21.2997ZM15.9996 23.4997C15.4996 27.2997 12.3996 29.9996 9.09961 29.5996C5.69961 29.1996 3.39961 25.7997 3.79961 21.9997C4.19961 18.1997 7.3996 15.4997 10.6996 15.8997C14.0996 16.2997 16.3996 19.6997 15.9996 23.4997ZM34.6996 29.5996C31.2996 29.9996 28.1996 27.2997 27.7996 23.4997C27.2996 19.6997 29.6996 16.2997 33.0996 15.8997C36.4996 15.4997 39.5996 18.1997 39.9996 21.9997C40.3996 25.7997 38.0996 29.1996 34.6996 29.5996Z" fill="#41A5A2"/>
<path d="M9.90013 38.8004L9.50014 38.6003C9.30014 38.5003 3.70014 36.1004 2.10014 33.3004C0.800136 31.0004 0.800138 25.9004 1.00014 21.3004C1.10014 18.8004 1.30014 18.2003 1.40014 18.1003V18.0004C3.70014 15.3004 5.80014 13.2004 8.80014 11.4004C11.3001 9.90039 16.6001 8.40039 21.9001 8.40039H22.0001C27.3001 8.40039 32.5001 9.90039 35.0001 11.4004C38.0001 13.2004 40.0001 15.3004 42.4001 18.0004V18.1003C42.4001 18.2003 42.7001 18.8004 42.8001 21.3004C43.0001 25.9004 43.0001 31.0004 41.7001 33.3004C40.1001 36.1004 34.5001 38.5003 34.2001 38.6003L33.8001 38.8004L33.7001 38.4004C33.1001 36.4004 32.4001 34.9003 31.6001 33.6003C31.2001 33.0003 27.2001 27.3004 22.9001 27.3004H21.0001C16.6001 27.3004 12.7001 33.0003 12.3001 33.6003C11.4001 34.9003 10.7001 36.4004 10.2001 38.4004L9.90013 38.8004ZM22.8001 26.5004C27.5001 26.5004 31.4001 32.0003 32.2001 33.1003C33.0001 34.4003 33.7001 35.9004 34.3001 37.7004C35.6001 37.1004 39.7001 35.0004 41.0001 32.9004C42.3001 30.6004 42.1001 24.6004 42.0001 21.3004C41.9001 19.3004 41.8001 18.6004 41.7001 18.4004C39.4001 15.7004 37.4001 13.7004 34.6001 12.0004C32.2001 10.6004 27.1001 9.10034 21.9001 9.10034C16.7001 9.10034 11.6001 10.5004 9.20014 12.0004C6.30014 13.8004 4.30014 15.8004 2.10014 18.4004C2.10014 18.5004 1.90014 19.2004 1.80014 21.3004C1.70014 24.6004 1.50014 30.6004 2.80014 32.9004C4.00014 35.0004 8.10013 37.1004 9.40013 37.7004C10.0001 35.9004 10.7001 34.3003 11.5001 33.1003C12.2001 32.0003 16.2001 26.5004 20.9001 26.5004H22.8001ZM9.70014 30.0004C9.50014 30.0004 9.20014 30.0004 9.00014 30.0004C5.40014 29.6004 2.90014 26.0004 3.40014 22.0004C3.90014 18.0004 7.20014 15.1003 10.8001 15.6003C14.4001 16.1003 16.9001 19.6003 16.4001 23.6003C16.2001 25.5003 15.3001 27.2004 13.9001 28.5004C12.6001 29.5004 11.2001 30.0004 9.70014 30.0004ZM10.0001 16.3004C7.10014 16.3004 4.50014 18.8003 4.10014 22.1003C3.70014 25.7003 5.90014 28.9004 9.00014 29.2004C10.5001 29.4004 12.0001 28.9004 13.3001 27.8004C14.5001 26.7004 15.3001 25.2004 15.5001 23.4004C15.9001 19.8004 13.7001 16.6004 10.6001 16.3004C10.4001 16.3004 10.2001 16.3004 10.0001 16.3004ZM34.0001 30.0004C32.5001 30.0004 31.1001 29.4004 29.9001 28.4004C28.5001 27.2004 27.6001 25.5004 27.4001 23.5004C26.9001 19.5004 29.4001 15.9004 33.0001 15.5004C36.6001 15.1004 39.9001 18.0004 40.4001 21.9004C40.9001 25.8004 38.4001 29.5004 34.8001 29.9004C34.5001 30.0004 34.3001 30.0004 34.0001 30.0004ZM33.7001 16.3004C33.5001 16.3004 33.3001 16.3004 33.1001 16.3004C30.0001 16.7004 27.7001 19.9004 28.2001 23.4004C28.4001 25.1004 29.2001 26.7004 30.4001 27.8004C31.6001 28.9004 33.1001 29.4004 34.6001 29.2004C37.8001 28.8004 40.0001 25.6003 39.5001 22.1003C39.2001 18.7003 36.6001 16.3004 33.7001 16.3004Z" fill="black"/>
<path d="M14.0004 1.69951C13.2004 1.89951 12.6004 2.69953 13.0004 3.39953C13.7004 5.09953 14.7004 7.69953 15.9004 9.89953C16.7004 11.3995 17.6004 12.8995 19.2004 14.6995C20.1004 15.6995 21.2004 16.4995 22.2004 16.4995C22.9004 16.4995 24.1004 16.2995 25.6004 14.6995C27.4004 12.7995 27.9004 11.9995 29.2004 10.0995C30.8004 7.69948 31.6004 5.39949 32.0004 3.79949C32.0004 2.99949 31.6004 2.1995 30.8004 1.9995C29.0004 1.4995 26.0004 0.799478 22.1004 0.599478C18.8004 0.499478 15.7004 1.19951 14.0004 1.69951Z" fill="#41A5A2"/>
<path d="M21.9996 16.9003C20.6996 16.9003 19.3996 15.7003 18.6996 15.0003C17.0996 13.2003 16.1996 11.7003 15.3996 10.2003C14.4996 8.5003 13.6996 6.50028 12.9996 5.00028C12.7996 4.50028 12.5996 4.1003 12.4996 3.7003C12.2996 3.3003 12.3996 2.90028 12.5996 2.50028C12.7996 2.00028 13.2996 1.60028 13.8996 1.50028C15.8996 1.00028 18.8996 0.400283 22.0996 0.500283C25.9996 0.400283 28.9996 1.10026 30.8996 1.60026C31.8996 1.90026 32.4996 2.90031 32.1996 3.90031C31.7996 5.40031 30.9996 7.70027 29.2996 10.3003C28.0996 12.2003 27.4996 13.1003 25.6996 15.0003C24.4996 16.3003 23.2996 16.9003 21.9996 16.9003ZM21.3996 1.00028C18.3996 1.00028 15.5996 1.60028 14.0996 2.00028C13.7996 2.10028 13.4996 2.30026 13.2996 2.60026C13.1996 2.70026 13.1996 3.0003 13.2996 3.2003C13.4996 3.6003 13.6996 4.00028 13.8996 4.50028C14.4996 6.10028 15.2996 8.0003 16.1996 9.7003C16.9996 11.2003 17.8996 12.7003 19.3996 14.4003C20.2996 15.5003 21.2996 16.1003 22.0996 16.1003C23.0996 16.1003 24.1996 15.6003 25.1996 14.5003C26.9996 12.6003 27.4996 11.8003 28.6996 9.90031C30.2996 7.40031 31.0996 5.20027 31.4996 3.80027C31.6996 3.20027 31.2996 2.60031 30.6996 2.40031C28.8996 1.90031 25.8996 1.20026 22.0996 1.10026C21.7996 1.00026 21.5996 1.00028 21.3996 1.00028Z" fill="black"/>
<path d="M13.4002 3.59998C13.9002 4.79998 14.7002 6.89998 16.1002 9.59998C17.2002 11.7 18.7002 13.8 19.7002 14.9C20.2002 15.5 21.3002 16.3 22.1002 16.2C22.5002 16.2 23.6002 16.1 24.8002 14.9C26.1002 13.7 28.1002 11.1 29.3002 8.90002C30.7002 6.30002 31.1002 5.20001 31.4002 4.20001C31.4002 4.10001 31.5002 3.8 31.5002 3.5C31.5002 3.3 31.5002 3.2 31.4002 3C31.3002 2.9 31.2002 2.69998 31.0002 2.59998C30.6002 2.29998 28.6002 1.90002 28.6002 1.90002C28.3002 2.80002 24.2002 10.7 22.2002 10.9C20.2002 11.1 16.4002 1.5 16.4002 1.5C16.4002 1.5 15.1002 1.8 14.1002 2C14.0002 2 13.7002 2.10001 13.6002 2.20001C13.4002 2.40001 13.3002 2.50001 13.2002 2.70001C13.2002 3.10001 13.4002 3.49998 13.4002 3.59998Z" fill="#427C78"/>
</svg>
