<svg width="43" height="34" viewBox="0 0 43 34" fill="none" xmlns="http://www.w3.org/2000/svg">
<path d="M2.2998 19.4002C2.2998 19.4002 6.5998 21.5002 9.3998 21.2002C10.9998 21.0002 14.8998 18.9002 16.0998 16.7002C17.2998 14.5002 16.9998 12.7002 18.4998 10.7002C19.9998 8.70021 20.0998 9.30019 21.3998 9.30019C22.6998 9.20019 26.2998 9.40019 26.8998 11.3002C27.8998 14.1002 29.0998 17.5002 31.1998 18.5002C32.4998 19.1002 34.7998 19.6002 36.8998 19.2002C38.9998 18.8002 41.4998 17.6002 41.4998 17.6002C41.4998 17.6002 42.5998 19.9002 41.4998 21.8002C40.3998 23.7002 36.5998 26.4002 33.9998 28.0002C31.3998 29.6002 27.0998 32.2002 22.9998 32.7002C18.9998 33.0002 13.5998 30.0002 12.1998 29.4002C10.7998 28.8002 5.1998 25.3002 3.7998 23.5002C2.3998 21.7002 2.2998 19.4002 2.2998 19.4002Z" fill="#427C78"/>
<path d="M22.2 33.3002C22.1 33.3002 21.9 33.3002 21.7 33.3002C19.9 33.2002 16.8 32.3002 13.3 30.4002C12.4 29.9002 11.1 29.2002 10.1 28.7002C6.20004 26.7002 2.40003 24.1002 1.60003 21.1002C0.700028 17.9002 1.20003 15.1002 1.20003 13.1002V12.6002C1.20003 12.1002 1.20003 11.4002 1.20003 10.6002C1.20003 10.0002 1.40003 9.70016 1.40003 9.10016L2.00003 8.7002C2.00003 9.3002 2.00003 10.0002 2.00003 10.5002C2.00003 11.3002 2.00003 12.0002 2.00003 12.5002V13.0002C2.00003 15.0002 2.00003 18.8002 2.90003 21.9002C3.60003 24.5002 6.80004 26.2002 10.6 28.2002C11.5 28.7002 12.5 29.2002 13.5 29.7002C17.4 31.9002 21.3 32.7002 22.6 32.6002C23.9 32.5002 27.8 31.5002 31.5 29.1002C32.4 28.5002 33.4 27.9002 34.3 27.4002C37.9 25.2002 41 23.3002 41.5 20.6002C41.8 19.2002 41.6 13.6002 41 6.30017L41.8 6.2002C42.3 12.0002 42.6 18.9002 42.2 20.7002C41.6 23.7002 38.4 25.7002 34.6 28.0002C33.7 28.5002 32.8 29.1002 31.9 29.7002C28 32.0002 24.3 33.2002 22.7 33.3002C22.4 33.3002 22.3 33.3002 22.2 33.3002Z" fill="black"/>
<path d="M42.4 11.6003C42.3 7.80026 41.3 5.30027 41.3 5.30027C39 3.70027 37.8 3.00031 36.2 2.40031C34.5 1.80031 29.1 -0.0997189 27.3 1.50028C26.2 2.50028 25.7 3.80026 25.4 5.10026C25.4 5.10026 24.9 6.40031 22.3 6.40031H21.4C18.9 6.40031 18.3 5.10026 18.3 5.10026C18 3.70026 17.5 2.40028 16.4 1.50028C14.6 -0.0997189 9.20004 1.80031 7.50004 2.40031C6.00004 3.00031 4.80004 3.70027 2.50004 5.30027C2.50004 5.30027 1.50004 7.80026 1.40004 11.6003C1.30004 15.8003 1.10004 20.1003 2.30004 22.3003C3.80004 25.0003 9.80005 28.1003 9.80005 28.1003C10.3 26.4003 10.8 24.6003 11.8 23.6003C14.7 20.9003 18.7 16.3003 18.8 14.6003C18.9 13.2003 19 12.1003 18.9 11.2003C18.9 11.2003 19.5 9.60029 21.3 9.70029H22.3C24.1 9.70029 24.7 11.2003 24.7 11.2003C24.7 12.1003 24.7 13.2003 24.8 14.6003C24.9 16.3003 28.9 20.8003 31.8 23.6003C32.8 24.6003 33.3 26.4003 33.8 28.1003C33.8 28.1003 39.7 25.0003 41.3 22.3003C42.7 20.1003 42.5 15.8003 42.4 11.6003ZM16 13.7003C15.3 17.5003 12 20.1003 8.60004 19.5003C5.20004 18.9003 3.00004 15.3003 3.70004 11.5003C4.40004 7.70028 7.70005 5.10029 11.1 5.70029C14.5 6.30029 16.7 9.90029 16 13.7003ZM33.9 19.2003C30.4 19.2003 27.6 16.1003 27.6 12.2003C27.6 8.30029 30.4 5.20029 33.9 5.20029C37.4 5.20029 40.2 8.40029 40.2 12.2003C40.2 16.1003 37.4 19.2003 33.9 19.2003Z" fill="#41A5A2"/>
<path d="M33.6001 28.5997L33.5001 27.7997C33.1001 26.1997 32.6001 24.5997 31.7001 23.7997C29.0001 21.2997 24.6001 16.4997 24.5001 14.5997V13.9997C24.4001 12.8997 24.4001 11.9997 24.4001 11.1997C24.3001 10.8997 23.8001 9.99972 22.4001 9.99972H21.4001C20.1001 9.99972 19.5001 10.8997 19.4001 11.1997C19.4001 11.9997 19.4001 12.8997 19.3001 13.9997V14.5997C19.2001 16.4997 14.8001 21.2997 12.1001 23.7997C11.2001 24.6997 10.7001 26.2997 10.3001 27.7997L10.1001 28.5997L9.70014 28.3997C9.50014 28.2997 3.60014 25.1997 2.10014 22.4997C0.800139 20.1997 0.900139 16.1997 1.10014 11.8997V11.5997C1.40014 7.79969 2.10014 5.39971 2.10014 5.29971V5.09969L2.30014 4.99972C4.60014 3.39972 5.80014 2.59972 7.50014 1.99972C12.3001 0.199718 15.4001 -0.000269353 16.8001 1.19973C17.8001 2.09973 18.5001 3.29972 18.8001 4.99972C18.9001 5.19972 19.5001 5.99969 21.5001 6.09969H22.4001C24.4001 6.09969 25.0001 5.19972 25.1001 4.99972C25.5001 3.29972 26.1001 2.09973 27.1001 1.19973C28.4001 -0.000269353 31.5001 0.299718 36.3001 1.99972C38.0001 2.59972 39.2001 3.39972 41.5001 4.99972L41.6001 5.09969V5.19973C41.6001 5.29973 42.4001 7.69969 42.7001 11.5997V11.8997C42.8001 16.1997 43.0001 20.1997 41.7001 22.4997C40.1001 25.2997 34.3001 28.2997 34.0001 28.3997L33.6001 28.5997ZM2.80014 5.59969C2.60014 6.09969 1.90014 8.39969 1.80014 11.5997V11.8997C1.70014 15.8997 1.50014 19.9997 2.70014 22.0997C3.90014 24.2997 8.20014 26.6997 9.60014 27.4997C10.1001 25.8997 10.5001 24.2997 11.6001 23.2997C14.9001 20.1997 18.4001 15.9997 18.5001 14.5997V13.9997C18.6001 12.8997 18.6001 11.9997 18.6001 11.1997V11.0997V10.9997C18.8001 10.3997 19.7001 9.19973 21.4001 9.19973H22.4001C24.0001 9.19973 24.9001 10.3997 25.1001 10.9997V11.0997V11.1997C25.1001 11.9997 25.1001 12.8997 25.2001 13.9997V14.5997C25.3001 15.9997 28.8001 20.1997 32.1001 23.2997C33.1001 24.2997 33.6001 25.8997 34.1001 27.4997C35.5001 26.6997 39.8001 24.2997 41.0001 22.0997C42.2001 19.9997 42.1001 16.0997 42.0001 12.0997V11.5997C41.8001 8.19969 41.2001 6.09969 41.0001 5.59969C38.8001 4.09969 37.7001 3.29971 36.1001 2.79971C30.2001 0.699706 28.2001 1.29971 27.6001 1.79971C26.7001 2.59971 26.1001 3.69973 25.8001 5.19973V5.29971C25.8001 5.39971 25.1001 6.79974 22.4001 6.89974H21.5001C18.7001 6.89974 18.1001 5.39971 18.1001 5.29971V5.19973C17.8001 3.59973 17.2001 2.59971 16.3001 1.79971C15.7001 1.29971 13.7001 0.599706 7.80014 2.79971C6.20014 3.29971 5.00014 4.09969 2.80014 5.59969ZM9.60014 19.8997C9.20014 19.8997 8.90014 19.8997 8.50014 19.7997C6.70014 19.4997 5.20014 18.3997 4.20014 16.7997C3.20014 15.1997 2.90014 13.1997 3.20014 11.2997C3.60014 9.39971 4.60014 7.59972 6.00014 6.49972C7.50014 5.29972 9.30015 4.89973 11.1001 5.19973C14.7001 5.89973 17.0001 9.69973 16.3001 13.6997C15.9001 15.5997 14.9001 17.2997 13.4001 18.4997C12.4001 19.4997 11.0001 19.8997 9.60014 19.8997ZM10.1001 5.89974C8.90015 5.89974 7.70014 6.29969 6.60014 7.09969C5.30014 8.09969 4.40014 9.69974 4.00014 11.3997C3.60014 13.0997 4.00014 14.8997 4.90014 16.2997C5.80014 17.6997 7.10014 18.6997 8.60014 18.8997C10.1001 19.1997 11.7001 18.7997 13.0001 17.7997C14.3001 16.7997 15.2001 15.1997 15.6001 13.4997C16.3001 9.89972 14.2001 6.49974 11.0001 5.89974C10.7001 5.89974 10.4001 5.89974 10.1001 5.89974ZM33.9001 19.5997C30.2001 19.5997 27.2001 16.2997 27.2001 12.1997C27.2001 8.09973 30.2001 4.79971 33.9001 4.79971C37.6001 4.79971 40.6001 8.09973 40.6001 12.1997C40.6001 16.2997 37.6001 19.5997 33.9001 19.5997ZM33.9001 5.59969C30.7001 5.59969 28.0001 8.59973 28.0001 12.1997C28.0001 15.7997 30.6001 18.7997 33.9001 18.7997C37.1001 18.7997 39.8001 15.7997 39.8001 12.1997C39.8001 8.59973 37.2001 5.59969 33.9001 5.59969Z" fill="black"/>
</svg>
